<svg width="218" height="203" viewBox="0 0 218 203" fill="none" xmlns="http://www.w3.org/2000/svg">
<g clip-path="url(#clip0_4131_18479)">
<path d="M212.677 195.247H6.58414" stroke="#263238" stroke-width="0.4451" stroke-miterlimit="10" stroke-linecap="round" stroke-linejoin="round"/>
<path d="M118.46 51.9651H18.5164V57.2152H118.46V51.9651Z" stroke="#263238" stroke-width="0.4451" stroke-miterlimit="10" stroke-linecap="round" stroke-linejoin="round"/>
<path d="M118.46 57.2153H18.5164V195.247H118.46V57.2153Z" stroke="#263238" stroke-width="0.4451" stroke-miterlimit="10" stroke-linecap="round" stroke-linejoin="round"/>
<path d="M38.2761 67.4291H22.3347V81.8432H38.2761V67.4291Z" stroke="#263238" stroke-width="0.4451" stroke-miterlimit="10" stroke-linecap="round" stroke-linejoin="round"/>
<path d="M61.854 67.4291H45.9126V81.8432H61.854V67.4291Z" stroke="#263238" stroke-width="0.4451" stroke-miterlimit="10" stroke-linecap="round" stroke-linejoin="round"/>
<path d="M72.2589 57.2153H65.7678V195.247H72.2589V57.2153Z" stroke="#263238" stroke-width="0.4451" stroke-miterlimit="10" stroke-linecap="round" stroke-linejoin="round"/>
<path d="M118.556 51.9651V52.156V57.2152" stroke="#263238" stroke-width="0.4451" stroke-miterlimit="10" stroke-linecap="round" stroke-linejoin="round"/>
<path d="M41.808 150.859V195.056" stroke="#263238" stroke-width="0.4451" stroke-miterlimit="10" stroke-linecap="round" stroke-linejoin="round"/>
<path d="M41.808 57.5016V146.563" stroke="#263238" stroke-width="0.4451" stroke-miterlimit="10" stroke-linecap="round" stroke-linejoin="round"/>
<path d="M91.3504 67.4291H75.409V81.8432H91.3504V67.4291Z" stroke="#263238" stroke-width="0.4451" stroke-miterlimit="10" stroke-linecap="round" stroke-linejoin="round"/>
<path d="M114.928 67.4291H98.987V81.8432H114.928V67.4291Z" stroke="#263238" stroke-width="0.4451" stroke-miterlimit="10" stroke-linecap="round" stroke-linejoin="round"/>
<path d="M94.8823 57.5016V194.865" stroke="#263238" stroke-width="0.4451" stroke-miterlimit="10" stroke-linecap="round" stroke-linejoin="round"/>
<path d="M118.556 52.156C118.556 52.0605 118.556 51.9651 118.556 51.9651C118.174 44.9012 116.265 38.3147 113.21 32.3008C112.828 31.4417 112.351 30.6781 111.874 29.9144C107.578 22.4687 101.469 16.3594 94.1186 11.9684C93.355 11.4911 92.4959 11.0138 91.7322 10.632C85.2411 7.29098 77.9863 5.28637 70.2543 5C69.6815 5 69.2042 5 68.6315 5C68.2497 5 67.8678 5 67.486 5C59.6585 5.09546 52.4037 7.10006 45.8172 10.3456C44.958 10.7274 44.1944 11.2047 43.4307 11.682C35.985 15.9776 29.7803 22.1823 25.3893 29.628C24.912 30.3917 24.4347 31.2508 24.0529 32.0145C20.9982 38.1237 19.0891 44.8058 18.6118 51.9651H21.0937C21.571 45.283 23.3847 39.0783 26.2484 33.4463L51.831 50.0559C51.6401 50.6287 51.4492 51.2969 51.3537 51.9651H53.0719C53.1674 51.6787 53.1674 51.3923 53.2628 51.0105C53.5492 50.0559 53.8356 49.1968 54.3129 48.3377C55.3629 46.1422 56.9857 44.1376 58.8948 42.6102C59.6585 42.0375 60.4222 41.5602 61.1858 41.0829C63.095 40.0329 65.195 39.3647 67.3905 39.1738C67.8678 39.1738 68.4406 39.0783 68.9179 39.0783C69.2997 39.0783 69.777 39.0783 70.1588 39.0783C72.3543 39.2692 74.5499 39.842 76.3636 40.892C77.2227 41.2738 77.9863 41.8466 78.75 42.4193C80.7546 43.9466 82.3774 45.8558 83.5229 48.1468C83.9047 49.0059 84.2865 49.865 84.5729 50.7241C84.6683 51.106 84.7638 51.4878 84.8593 51.7742H86.5775C86.482 51.106 86.2911 50.3423 86.0048 49.6741L111.015 33.4463C113.783 38.9829 115.501 45.1876 115.978 51.6787H118.46L118.556 52.156ZM52.881 47.4786L27.5848 31.0599C31.6895 23.996 37.5124 18.0777 44.5762 13.973L58.1312 41.0829C55.9357 42.8012 54.122 44.9967 52.881 47.4786ZM67.486 37.551C65.0041 37.7419 62.6177 38.5056 60.5176 39.6511L46.9627 12.6366C53.1674 9.4865 60.1358 7.67281 67.486 7.48189V37.551ZM77.2227 39.4601C75.1226 38.3147 72.7362 37.6465 70.2543 37.4555V7.48189C77.6045 7.76827 84.4774 9.58196 90.5867 12.8275L77.2227 39.4601ZM84.9547 47.2877C83.7138 44.8058 81.8046 42.6102 79.5137 40.9875L92.8777 14.2594C99.8461 18.4595 105.574 24.2824 109.678 31.3463L84.9547 47.2877Z" stroke="#263238" stroke-width="0.4451" stroke-miterlimit="10" stroke-linecap="round" stroke-linejoin="round"/>
<path d="M118.747 120.122H209.431" stroke="#263238" stroke-width="0.4451" stroke-miterlimit="10" stroke-linecap="round" stroke-linejoin="round"/>
<path d="M205.136 126.517H209.431" stroke="#263238" stroke-width="0.4451" stroke-miterlimit="10" stroke-linecap="round" stroke-linejoin="round"/>
<path d="M118.747 126.517H201.795" stroke="#263238" stroke-width="0.4451" stroke-miterlimit="10" stroke-linecap="round" stroke-linejoin="round"/>
<path d="M6.96606 120.122H18.6119" stroke="#263238" stroke-width="0.4451" stroke-miterlimit="10" stroke-linecap="round" stroke-linejoin="round"/>
<path d="M6.96613 126.517H18.6119" stroke="#263238" stroke-width="0.4451" stroke-miterlimit="10" stroke-linecap="round" stroke-linejoin="round"/>
<path d="M190.34 68.7656L189.576 74.1112L188.908 78.4068C188.908 78.4068 186.426 76.2112 185.949 74.2066C185.471 72.1066 186.14 71.5338 186.14 71.5338C186.235 71.3429 186.521 71.152 186.903 70.8656C188.144 70.0065 190.34 68.7656 190.34 68.7656Z" fill="#263238" stroke="#263238" stroke-width="0.4451" stroke-miterlimit="10" stroke-linecap="round" stroke-linejoin="round"/>
<path d="M199.981 52.7287C199.981 52.6333 199.981 52.5378 199.885 52.4424C199.79 52.0605 199.79 51.7742 199.695 51.3923C199.504 50.2468 199.313 49.1968 199.122 48.1468C198.74 45.8558 198.358 43.8512 198.072 42.133C197.881 41.0829 197.69 40.1284 197.595 39.2692C197.213 37.3601 197.022 36.2146 197.022 36.2146L195.781 41.942L195.685 42.5148L195.59 42.8012L195.113 44.8058L194.158 49.1014L193.394 52.7287L192.44 57.0243L191.581 60.9381L190.722 64.8518L189.958 68.1929L189.767 69.052V69.1474L189.672 69.9111L188.908 76.6886L188.049 83.7524L187.285 90.339L186.426 97.4028L185.662 103.798L184.994 109.621L184.421 114.872L187.381 118.976L190.244 116.399L192.249 114.585L194.922 112.103L197.117 110.194L197.404 109.908L198.931 108.476L199.599 107.808C199.599 107.808 199.79 107.712 200.076 107.617C200.649 107.33 201.89 106.758 203.131 106.185C204.372 105.612 205.613 104.944 206.663 104.467C207.808 103.894 208.572 103.417 208.572 103.321C208.572 103.321 208.381 102.271 208.095 100.457C207.522 97.3074 206.568 91.6754 205.422 85.1843C204.467 79.7432 203.417 73.6339 202.367 67.6201C201.604 63.1336 200.84 58.6471 200.076 54.5424C200.076 54.447 200.076 54.3515 199.981 54.2561" fill="#FFDC44"/>
<path d="M199.981 52.7287C199.981 52.6333 199.981 52.5378 199.885 52.4424C199.79 52.0605 199.79 51.7742 199.695 51.3923C199.504 50.2468 199.313 49.1968 199.122 48.1468C198.74 45.8558 198.358 43.8512 198.072 42.133C197.881 41.0829 197.69 40.1284 197.595 39.2692C197.213 37.3601 197.022 36.2146 197.022 36.2146L195.781 41.942L195.685 42.5148L195.59 42.8012L195.113 44.8058L194.158 49.1014L193.394 52.7287L192.44 57.0243L191.581 60.9381L190.722 64.8518L189.958 68.1929L189.767 69.052V69.1474L189.672 69.9111L188.908 76.6886L188.049 83.7524L187.285 90.339L186.426 97.4028L185.662 103.798L184.994 109.621L184.421 114.872L187.381 118.976L190.244 116.399L192.249 114.585L194.922 112.103L197.117 110.194L197.404 109.908L198.931 108.476L199.599 107.808C199.599 107.808 199.79 107.712 200.076 107.617C200.649 107.33 201.89 106.758 203.131 106.185C204.372 105.612 205.613 104.944 206.663 104.467C207.808 103.894 208.572 103.417 208.572 103.321C208.572 103.321 208.381 102.271 208.095 100.457C207.522 97.3074 206.568 91.6754 205.422 85.1843C204.467 79.7432 203.417 73.6339 202.367 67.6201C201.604 63.1336 200.84 58.6471 200.076 54.5424C200.076 54.447 200.076 54.3515 199.981 54.2561" stroke="#263238" stroke-width="0.4451" stroke-miterlimit="10" stroke-linecap="round" stroke-linejoin="round"/>
<path d="M199.217 18.8413H197.69V192.288H199.217V18.8413Z" fill="white" stroke="#263238" stroke-width="0.4451" stroke-miterlimit="10" stroke-linecap="round" stroke-linejoin="round"/>
<path d="M198.645 66.1882C198.645 66.1882 193.967 67.0473 192.535 67.6201C189.672 68.861 186.331 71.3429 186.235 71.6293C186.235 71.4384 186.521 69.9111 186.903 67.7155C187.094 66.5701 187.285 65.2337 187.571 63.8973C187.762 62.6563 188.049 61.2244 188.24 59.888C188.431 58.4562 188.717 57.1198 188.908 55.7834C189.194 54.256 189.385 52.8242 189.672 51.4878C189.958 49.7695 190.244 48.4331 190.34 47.6695C190.435 47.1922 190.626 46.4285 190.817 45.5694C190.913 45.0921 191.103 44.5194 191.199 43.8512C191.39 43.0875 191.676 42.2284 191.867 41.2738C191.963 40.892 192.058 40.6056 192.153 40.2238C192.726 38.0283 193.394 35.5464 194.063 33.0645C194.158 32.5872 194.349 32.2054 194.444 31.7281C196.163 25.5233 197.785 19.9868 197.785 19.9868L198.263 43.9466L198.454 55.9743L198.549 59.4107L198.645 62.8472V66.1882Z" fill="#FFDC44" stroke="#263238" stroke-width="0.4451" stroke-miterlimit="10" stroke-linecap="round" stroke-linejoin="round"/>
<path d="M199.79 18.0777C199.79 17.4095 199.313 16.9322 198.645 16.9322C197.976 16.9322 197.499 17.4095 197.499 18.0777C197.499 18.7459 197.976 19.2232 198.645 19.2232C199.217 19.2232 199.79 18.7459 199.79 18.0777Z" fill="white" stroke="#263238" stroke-width="0.4451" stroke-miterlimit="10" stroke-linecap="round" stroke-linejoin="round"/>
<path d="M204.467 191.047H192.344V193.147H204.467V191.047Z" fill="white" stroke="#263238" stroke-width="0.4451" stroke-miterlimit="10" stroke-linecap="round" stroke-linejoin="round"/>
<path d="M211.34 193.147H185.567V195.247H211.34V193.147Z" fill="white" stroke="#263238" stroke-width="0.4451" stroke-miterlimit="10" stroke-linecap="round" stroke-linejoin="round"/>
<path d="M161.034 112.008H188.526L183.753 131.768H156.166L161.034 112.008Z" fill="#D4D4D4" stroke="#263238" stroke-width="0.4451" stroke-miterlimit="10" stroke-linecap="round" stroke-linejoin="round"/>
<path d="M140.511 130.717H156.452L156.166 131.767H140.511V130.717Z" fill="#D4D4D4" stroke="#263238" stroke-width="0.4451" stroke-miterlimit="10" stroke-linecap="round" stroke-linejoin="round"/>
<path d="M126.097 145.8H119.797V155.632H126.097V145.8Z" fill="#263238" stroke="#263238" stroke-width="0.4451" stroke-miterlimit="10" stroke-linecap="round" stroke-linejoin="round"/>
<path d="M123.316 179.61H125.416V159.85H123.316V179.61Z" fill="#263238" stroke="#263238" stroke-width="0.4451" stroke-miterlimit="10" stroke-linecap="round" stroke-linejoin="round"/>
<path d="M121.801 180.355V177.014H127.052V180.451L147.861 188.374V192.383H146.43V189.328L124.379 184.651L102.805 189.328V192.383H101.469V188.374L121.801 180.355Z" fill="white" stroke="#263238" stroke-width="0.4451" stroke-miterlimit="10" stroke-linecap="round" stroke-linejoin="round"/>
<path d="M119.211 166.138H129.52V159.838H119.211V166.138Z" fill="#263238" stroke="#263238" stroke-width="0.4451" stroke-miterlimit="10" stroke-linecap="round" stroke-linejoin="round"/>
<path d="M147.861 192.574C147.861 191.333 148.816 190.378 150.057 190.378C151.298 190.378 152.252 191.333 152.252 192.574C152.252 193.815 151.298 194.769 150.057 194.769C148.911 194.769 147.861 193.719 147.861 192.574Z" fill="#263238" stroke="#263238" stroke-width="0.4451" stroke-miterlimit="10" stroke-linecap="round" stroke-linejoin="round"/>
<path d="M149.102 192.574C149.102 192.097 149.484 191.619 150.057 191.619C150.63 191.619 151.011 192.001 151.011 192.574C151.011 193.051 150.63 193.528 150.057 193.528C149.484 193.528 149.102 193.051 149.102 192.574Z" fill="white" stroke="#263238" stroke-width="0.4451" stroke-miterlimit="10" stroke-linecap="round" stroke-linejoin="round"/>
<path d="M96.8871 192.574C96.8871 191.333 97.8416 190.378 99.0826 190.378C100.324 190.378 101.278 191.333 101.278 192.574C101.278 193.815 100.324 194.769 99.0826 194.769C97.8416 194.769 96.8871 193.719 96.8871 192.574Z" fill="#263238" stroke="#263238" stroke-width="0.4451" stroke-miterlimit="10" stroke-linecap="round" stroke-linejoin="round"/>
<path d="M98.1281 192.574C98.1281 192.097 98.5099 191.619 99.0827 191.619C99.5599 191.619 100.037 192.001 100.037 192.574C100.037 193.051 99.6554 193.528 99.0827 193.528C98.5099 193.433 98.1281 193.051 98.1281 192.574Z" fill="white" stroke="#263238" stroke-width="0.4451" stroke-miterlimit="10" stroke-linecap="round" stroke-linejoin="round"/>
<path d="M123.424 192.86H125.238L126.097 181.023H122.565L123.424 192.86Z" fill="white" stroke="#263238" stroke-width="0.4451" stroke-miterlimit="10" stroke-linecap="round" stroke-linejoin="round"/>
<path d="M123.602 195.245H125.32V190.377H123.602V195.245Z" fill="#263238" stroke="#263238" stroke-width="0.4451" stroke-miterlimit="10" stroke-linecap="round" stroke-linejoin="round"/>
<path opacity="0.25" d="M105.096 162.314L142.516 162.123C143.375 162.123 144.043 161.455 144.043 160.596V154.868C144.043 154.009 143.375 153.341 142.516 153.341L105.096 153.532C104.237 153.532 103.569 154.2 103.569 155.059V160.787C103.569 161.55 104.237 162.314 105.096 162.314Z" fill="black"/>
<path d="M105.096 162.314L142.516 162.123C143.375 162.123 144.043 161.455 144.043 160.596V154.868C144.043 154.009 143.375 153.341 142.516 153.341L105.096 153.532C104.237 153.532 103.569 154.2 103.569 155.059V160.787C103.569 161.55 104.237 162.314 105.096 162.314Z" fill="#999999" stroke="#263238" stroke-width="0.4451" stroke-miterlimit="10" stroke-linecap="round" stroke-linejoin="round"/>
<path d="M134.784 146.468H109.774C107.674 146.468 106.051 144.654 106.337 142.554L109.487 116.208C109.774 114.012 111.587 112.39 113.878 112.39H130.774C132.97 112.39 134.879 114.012 135.165 116.208L138.316 142.554C138.506 144.654 136.884 146.468 134.784 146.468Z" fill="#999999" stroke="#263238" stroke-width="0.4451" stroke-miterlimit="10" stroke-linecap="round" stroke-linejoin="round"/>
<path d="M195.59 133.486H82.8546V195.247H195.59V133.486Z" fill="#ED1B23"/>
<path d="M189.958 142.268H157.502V188.851H189.958V142.268Z" stroke="#263238" stroke-width="0.4451" stroke-miterlimit="10" stroke-linecap="round" stroke-linejoin="round"/>
<path d="M184.803 149.618H162.657V181.405H184.803V149.618Z" stroke="#263238" stroke-width="0.4451" stroke-miterlimit="10" stroke-linecap="round" stroke-linejoin="round"/>
<path d="M157.502 142.268L162.657 149.618" stroke="#263238" stroke-width="0.4451" stroke-miterlimit="10" stroke-linecap="round" stroke-linejoin="round"/>
<path d="M189.958 142.268L184.803 149.618" stroke="#263238" stroke-width="0.4451" stroke-miterlimit="10" stroke-linecap="round" stroke-linejoin="round"/>
<path d="M162.657 181.501L157.502 188.851" stroke="#263238" stroke-width="0.4451" stroke-miterlimit="10" stroke-linecap="round" stroke-linejoin="round"/>
<path d="M184.803 181.501L189.958 188.851" stroke="#263238" stroke-width="0.4451" stroke-miterlimit="10" stroke-linecap="round" stroke-linejoin="round"/>
<path d="M154.925 142.268H122.469V188.851H154.925V142.268Z" stroke="#263238" stroke-width="0.4451" stroke-miterlimit="10" stroke-linecap="round" stroke-linejoin="round"/>
<path d="M149.77 149.618H127.624V181.405H149.77V149.618Z" stroke="#263238" stroke-width="0.4451" stroke-miterlimit="10" stroke-linecap="round" stroke-linejoin="round"/>
<path d="M122.469 142.268L127.624 149.618" stroke="#263238" stroke-width="0.4451" stroke-miterlimit="10" stroke-linecap="round" stroke-linejoin="round"/>
<path d="M154.925 142.268L149.77 149.618" stroke="#263238" stroke-width="0.4451" stroke-miterlimit="10" stroke-linecap="round" stroke-linejoin="round"/>
<path d="M127.624 181.501L122.47 188.851" stroke="#263238" stroke-width="0.4451" stroke-miterlimit="10" stroke-linecap="round" stroke-linejoin="round"/>
<path d="M149.77 181.501L154.925 188.851" stroke="#263238" stroke-width="0.4451" stroke-miterlimit="10" stroke-linecap="round" stroke-linejoin="round"/>
<path d="M119.892 142.268H87.4367V188.851H119.892V142.268Z" stroke="#263238" stroke-width="0.4451" stroke-miterlimit="10" stroke-linecap="round" stroke-linejoin="round"/>
<path d="M114.738 149.618H92.5914V181.405H114.738V149.618Z" stroke="#263238" stroke-width="0.4451" stroke-miterlimit="10" stroke-linecap="round" stroke-linejoin="round"/>
<path d="M87.4367 142.268L92.5914 149.618" stroke="#263238" stroke-width="0.4451" stroke-miterlimit="10" stroke-linecap="round" stroke-linejoin="round"/>
<path d="M119.892 142.268L114.738 149.618" stroke="#263238" stroke-width="0.4451" stroke-miterlimit="10" stroke-linecap="round" stroke-linejoin="round"/>
<path d="M92.5914 181.501L87.4367 188.851" stroke="#263238" stroke-width="0.4451" stroke-miterlimit="10" stroke-linecap="round" stroke-linejoin="round"/>
<path d="M114.738 181.501L119.892 188.851" stroke="#263238" stroke-width="0.4451" stroke-miterlimit="10" stroke-linecap="round" stroke-linejoin="round"/>
<path d="M195.59 133.486H82.8546V136.445H195.59V133.486Z" fill="#263238" stroke="#263238" stroke-width="0.4451" stroke-miterlimit="10" stroke-linecap="round" stroke-linejoin="round"/>
<path d="M197.499 131.768H80.9455V134.536H197.499V131.768Z" fill="white" stroke="#2E353A" stroke-width="0.4451" stroke-miterlimit="10" stroke-linecap="round" stroke-linejoin="round"/>
<path d="M86.673 156.491L82.9502 193.242C82.9502 193.242 85.623 198.492 86.4821 200.115C87.3412 201.642 90.6822 203.17 89.5368 203.838C88.3913 204.506 84.4775 204.029 83.6184 204.029C82.7593 204.029 81.4229 201.642 80.5638 200.497C79.7046 199.351 78.1773 199.161 77.7 198.301C77.2227 197.442 78.8455 193.242 78.8455 192.574C78.8455 191.906 77.9864 156.014 77.9864 156.014L86.673 156.491Z" fill="white" stroke="#263238" stroke-width="0.4451" stroke-miterlimit="10" stroke-linecap="round" stroke-linejoin="round"/>
<path d="M77.6046 198.301L77.891 203.552H78.7501L79.7046 199.351L77.6046 198.301Z" fill="#263238" stroke="#263238" stroke-width="0.4451" stroke-miterlimit="10" stroke-linecap="round" stroke-linejoin="round"/>
<path d="M77.6045 198.301C77.4136 197.824 77.7 196.488 78.0818 195.151C79.8001 196.965 83.6184 201.165 84.2866 202.024C85.1457 202.979 87.5321 201.452 87.5321 201.452H87.723C88.964 202.502 90.3004 203.361 89.5367 203.838C88.3912 204.506 84.4775 204.029 83.6183 204.029C82.7592 204.029 81.4228 201.642 80.5637 200.497C79.6091 199.447 78.0818 199.256 77.6045 198.301Z" fill="#263238" stroke="#263238" stroke-width="0.4451" stroke-miterlimit="10" stroke-linecap="round" stroke-linejoin="round"/>
<path d="M79.6091 157.159L73.4998 192.478C73.4998 192.478 72.9271 200.115 71.877 201.929C70.7316 203.647 67.9633 206.797 67.2951 205.747C66.6269 204.697 66.3405 200.879 67.0087 199.351C67.6769 197.824 69.8724 192.765 69.8724 192.765L69.9679 157.064L79.6091 157.159Z" fill="white" stroke="#263238" stroke-width="0.4451" stroke-miterlimit="10" stroke-linecap="round" stroke-linejoin="round"/>
<path d="M69.6815 201.833C71.1134 201.929 72.068 200.592 72.5453 199.924C72.3543 200.783 72.1634 201.452 71.8771 201.833C70.7316 203.552 67.9633 206.702 67.2951 205.652C66.6269 204.602 66.3405 200.783 67.0087 199.256C66.9133 199.256 67.7724 201.738 69.6815 201.833Z" fill="#263238" stroke="#263238" stroke-width="0.4451" stroke-miterlimit="10" stroke-linecap="round" stroke-linejoin="round"/>
<path d="M90.8731 109.526C90.8731 109.526 93.355 122.413 92.5914 127.663C91.8277 132.913 87.5321 159.164 87.5321 159.164H68.4406L66.7224 135.49C66.7224 135.49 64.336 126.899 65.0042 120.599C65.6724 114.299 69.2043 105.708 69.2043 105.708L90.5868 106.09L90.8731 109.526Z" fill="#263238" stroke="#263238" stroke-width="0.4451" stroke-miterlimit="10" stroke-linecap="round" stroke-linejoin="round"/>
<path d="M101.373 104.18L107.005 104.085L107.483 109.621L100.992 109.717L101.373 104.18Z" fill="white" stroke="#263238" stroke-width="0.4451" stroke-miterlimit="10" stroke-linecap="round" stroke-linejoin="round"/>
<path d="M107.005 104.085C107.005 104.085 109.583 104.276 111.874 103.608C114.165 102.939 116.456 102.939 116.456 104.276C116.551 105.612 115.692 108.571 114.642 108.667C113.592 108.762 109.201 107.617 109.201 107.617L107.196 107.808L107.005 104.085Z" fill="white" stroke="#263238" stroke-width="0.4451" stroke-miterlimit="10" stroke-linecap="round" stroke-linejoin="round"/>
<path d="M91.7322 78.2159L95.0732 103.321L101.278 104.18L101.087 112.39L92.5913 112.199C92.5913 112.199 92.114 112.199 91.2549 111.053C90.3958 109.908 90.9685 78.9795 90.9685 78.9795L91.2549 78.3113L91.7322 78.2159Z" fill="white" stroke="#263238" stroke-width="0.4451" stroke-miterlimit="10" stroke-linecap="round" stroke-linejoin="round"/>
<path d="M82.2819 74.2067C82.2819 74.2067 82.7592 73.6339 83.9047 77.3568C85.0502 81.0796 87.9139 90.4345 88.1048 92.3436C88.2957 94.3482 89.9185 108.19 88.1048 108.762C86.2911 109.43 72.0679 108.762 72.0679 108.762C72.0679 108.762 68.8224 74.9704 69.3951 73.7294C69.9679 72.4885 71.7816 71.7248 72.7361 72.0112C73.7862 72.2975 82.2819 74.2067 82.2819 74.2067Z" fill="white" stroke="#2E353A" stroke-width="0.4451" stroke-miterlimit="10" stroke-linecap="round" stroke-linejoin="round"/>
<path d="M86.4821 54.447C86.4821 54.447 91.3504 55.2107 91.3504 56.6425C91.3504 57.979 88.8685 58.7426 88.8685 58.7426L86.4821 54.447Z" fill="#263238" stroke="#263238" stroke-width="0.4451" stroke-miterlimit="10" stroke-linecap="round" stroke-linejoin="round"/>
<path d="M87.4367 55.1152C87.4367 55.1152 88.5821 55.8789 88.964 58.6471C89.3458 61.4154 88.3912 61.5109 88.6776 62.2745C88.964 63.0382 90.5868 64.661 90.4913 65.3292C90.3958 66.0928 89.7276 66.2837 89.3458 66.6656C89.0594 66.9519 87.8185 71.343 87.2457 71.9157C86.673 72.4885 83.6184 71.2475 83.4274 71.5339C83.1411 71.8203 82.3774 76.5931 82.3774 76.5931L82.4729 88.239C82.4729 88.239 78.8455 83.7525 76.7454 81.1751C74.5499 78.5977 71.6862 74.7794 71.6862 74.1112C71.6862 73.443 72.4498 72.9658 72.4498 72.9658C72.4498 72.9658 75.0272 69.4338 75.3136 68.0974C75.5999 66.761 74.9317 66.3792 72.9271 64.1837C71.018 61.9881 70.4452 59.3153 72.8317 55.5925C75.2181 51.8697 81.7092 52.6333 83.8093 53.0151C86.1003 53.5879 87.4367 55.1152 87.4367 55.1152Z" fill="white" stroke="#263238" stroke-width="0.4451" stroke-miterlimit="10" stroke-linecap="round" stroke-linejoin="round"/>
<path d="M86.3866 62.4654C86.5975 62.4654 86.7685 62.1235 86.7685 61.7018C86.7685 61.28 86.5975 60.9381 86.3866 60.9381C86.1758 60.9381 86.0048 61.28 86.0048 61.7018C86.0048 62.1235 86.1758 62.4654 86.3866 62.4654Z" fill="#263238"/>
<path d="M86.1958 67.5247C85.9094 68.002 85.9094 68.5747 86.1958 68.7656C86.4822 68.9565 86.9595 68.6702 87.2458 68.0974C87.5322 67.6201 87.5322 67.0474 87.2458 66.8565C86.9595 66.761 86.4822 67.0474 86.1958 67.5247Z" fill="#263238"/>
<path d="M87.8185 60.8426C87.8185 60.8426 87.5321 59.7926 86.1002 59.6971" stroke="#263238" stroke-width="0.4451" stroke-miterlimit="10" stroke-linecap="round" stroke-linejoin="round"/>
<path d="M76.9364 65.3291C76.9364 65.3291 76.0773 66.3791 75.3137 67.0473C75.0273 66.3791 74.3591 65.7109 73.0227 64.2791C71.1135 62.0835 70.5408 59.4107 72.9272 55.6879C75.3137 51.9651 81.8048 52.7287 83.9048 53.1105C86.1003 53.5878 87.4367 55.0197 87.4367 55.0197C87.4367 55.0197 88.0095 55.4015 88.4868 56.7379L84.4776 55.4015C84.4776 55.4015 85.6231 56.7379 85.2412 56.8334C84.7639 56.9288 81.9002 57.788 82.282 58.1698C82.6639 58.5516 83.2366 58.7425 82.7593 59.1244C82.282 59.5062 79.1319 62.0835 79.1319 62.0835C79.1319 62.0835 76.4591 62.3699 76.1728 62.3699C75.8864 62.3699 75.4091 62.4654 75.8864 63.7063C76.3637 64.9473 76.9364 65.3291 76.9364 65.3291Z" fill="#263238" stroke="#263238" stroke-width="0.4451" stroke-miterlimit="10" stroke-linecap="round" stroke-linejoin="round"/>
<path d="M71.3999 59.6971C71.3999 59.6971 68.8225 57.788 67.3906 58.3607C65.8633 58.9335 65.1951 62.0836 65.8633 63.0381C66.5315 63.9927 67.7725 64.7564 67.7725 64.7564C67.7725 64.7564 67.1043 65.8064 68.1543 66.761C69.2998 67.7156 72.1635 67.9065 72.9272 67.3337C73.6908 66.761 73.0226 64.1836 73.0226 64.1836C73.0226 64.1836 71.2089 61.6063 71.3999 59.6971Z" fill="#263238" stroke="#263238" stroke-width="0.4451" stroke-miterlimit="10" stroke-linecap="round" stroke-linejoin="round"/>
<path d="M77.2228 65.711L78.3682 65.4246C78.3682 65.4246 78.5592 67.5247 79.0365 68.0974C79.5137 68.6702 79.8001 69.052 79.991 69.052" stroke="#263238" stroke-width="0.4451" stroke-miterlimit="10" stroke-linecap="round" stroke-linejoin="round"/>
<path d="M83.0456 74.3976C83.0456 74.3976 87.8185 89.6708 88.2003 92.439C88.4867 95.2073 89.0595 109.717 89.0595 109.717L91.1595 127.09L94.4051 124.226L91.9232 106.949C91.9232 106.949 92.5914 92.5345 92.4959 92.0572C92.305 91.5799 92.4005 78.7886 91.7323 78.2159C91.0641 77.7386 83.0456 74.3976 83.0456 74.3976Z" fill="white" stroke="#263238" stroke-width="0.4451" stroke-miterlimit="10" stroke-linecap="round" stroke-linejoin="round"/>
<path d="M70.5407 72.393C70.5407 72.393 74.8363 104.276 74.8363 106.567C74.8363 108.858 73.0226 128.331 73.0226 128.331L58.3221 126.04L62.1404 108.953C62.1404 108.953 59.3722 78.8841 59.6585 78.6932C60.0404 78.5023 70.5407 72.393 70.5407 72.393Z" fill="white" stroke="#263238" stroke-width="0.4451" stroke-miterlimit="10" stroke-linecap="round" stroke-linejoin="round"/>
<path d="M84.2866 106.853C84.2866 107.808 83.9047 108.476 83.5229 108.571" stroke="#263238" stroke-width="0.4451" stroke-miterlimit="10" stroke-linecap="round" stroke-linejoin="round"/>
<path d="M82.4728 89.289C82.4728 89.289 82.3774 93.0118 82.3774 95.5892C82.3774 98.1665 83.9047 104.276 84.1911 105.803" stroke="#263238" stroke-width="0.4451" stroke-miterlimit="10" stroke-linecap="round" stroke-linejoin="round"/>
<path d="M79.5136 84.8979C79.5136 84.8979 72.6407 81.366 72.6407 81.0796C72.5452 80.7932 72.8316 79.4568 72.8316 79.4568L71.877 78.8841" stroke="#263238" stroke-width="0.4451" stroke-miterlimit="10" stroke-linecap="round" stroke-linejoin="round"/>
<path d="M84.4775 80.8887L83.7138 82.0342L84.6684 83.3706L83.6183 85.1843" stroke="#263238" stroke-width="0.4451" stroke-miterlimit="10" stroke-linecap="round" stroke-linejoin="round"/>
<path d="M48.7764 108.953L47.8218 104.753L50.2082 104.371L48.7764 108.953Z" fill="#263238" stroke="#263238" stroke-width="0.4451" stroke-miterlimit="10" stroke-linecap="round" stroke-linejoin="round"/>
<path d="M46.199 98.3574L50.5901 99.8847C50.5901 99.8847 51.9265 101.889 51.6401 103.703C51.3537 105.421 49.7309 106.28 49.7309 106.28L43.6217 102.271L46.199 98.3574Z" fill="white" stroke="#263238" stroke-width="0.4451" stroke-miterlimit="10" stroke-linecap="round" stroke-linejoin="round"/>
<path d="M45.2445 97.5938C45.2445 97.5938 44.9581 97.4983 44.4808 97.3074C43.908 97.1165 42.9535 96.8301 42.1898 96.7346C40.758 96.6392 37.226 98.1665 36.8442 98.1665C36.4624 98.1665 33.5986 98.3574 33.4077 98.9302C33.2168 99.5029 33.5032 100.076 34.2668 100.171C35.0305 100.267 38.3715 99.5029 38.3715 99.5029L31.2122 104.371C31.2122 104.371 30.8304 105.039 31.0213 105.135C31.2122 105.326 32.9304 105.326 34.5532 104.944C36.176 104.562 39.7079 103.894 41.2352 103.417C42.7626 102.939 44.5762 101.889 44.9581 101.794C45.3399 101.698 46.9627 99.9802 46.6763 98.9302C46.3899 97.8801 45.2445 97.5938 45.2445 97.5938Z" fill="white" stroke="#263238" stroke-width="0.4451" stroke-miterlimit="10" stroke-linecap="round" stroke-linejoin="round"/>
<path d="M43.8126 99.312C43.8126 99.312 41.808 99.1211 41.1398 100.076C40.4716 101.126 38.8488 102.558 38.8488 102.558C38.8488 102.558 36.176 103.226 35.9851 103.798C35.7942 104.371 35.7942 104.371 35.7942 104.371" fill="white"/>
<path d="M43.8126 99.312C43.8126 99.312 41.808 99.1211 41.1398 100.076C40.4716 101.126 38.8488 102.558 38.8488 102.558C38.8488 102.558 36.176 103.226 35.9851 103.798C35.7942 104.371 35.7942 104.371 35.7942 104.371" stroke="#263238" stroke-width="0.4451" stroke-miterlimit="10" stroke-linecap="round" stroke-linejoin="round"/>
<path d="M36.6532 102.748C36.6532 102.748 33.2167 103.608 32.8349 104.276C32.4531 104.944 33.5031 105.23 33.9804 105.135" stroke="#263238" stroke-width="0.4451" stroke-miterlimit="10" stroke-linecap="round" stroke-linejoin="round"/>
<path d="M35.2214 102.367L31.2122 104.467" stroke="#263238" stroke-width="0.4451" stroke-miterlimit="10" stroke-linecap="round" stroke-linejoin="round"/>
<path d="M49.9219 99.4074C49.9219 99.4074 50.4946 100.171 50.1128 102.748C49.731 105.326 48.7764 108.953 48.7764 108.953C48.7764 108.953 57.7494 108.953 59.8495 107.808C61.9495 106.662 62.2359 103.894 62.2359 103.894C62.2359 103.894 62.1404 90.1481 62.1404 85.9479C62.1404 81.7478 59.6585 78.6932 59.6585 78.6932L55.5539 99.8847L49.9219 99.4074Z" fill="white" stroke="#263238" stroke-width="0.4451" stroke-miterlimit="10" stroke-linecap="round" stroke-linejoin="round"/>
<path d="M56.3176 100.362C56.3176 100.362 58.6085 100.362 59.4676 102.462" stroke="#263238" stroke-width="0.4451" stroke-miterlimit="10" stroke-linecap="round" stroke-linejoin="round"/>
<path d="M60.3267 101.603C60.3267 101.603 59.2767 100.458 57.0811 99.8848" stroke="#263238" stroke-width="0.4451" stroke-miterlimit="10" stroke-linecap="round" stroke-linejoin="round"/>
<path d="M67.7724 80.8887C67.2951 77.6432 66.9133 75.4476 66.9133 75.4476" stroke="#263238" stroke-width="0.4451" stroke-miterlimit="10" stroke-linecap="round" stroke-linejoin="round"/>
<path d="M72.9271 104.085C71.9725 101.221 70.5406 96.6392 69.5861 91.7708C69.0133 88.5253 68.4406 85.3752 68.0587 82.6069" stroke="#263238" stroke-width="0.4451" stroke-miterlimit="10" stroke-linecap="round" stroke-linejoin="round"/>
<path d="M73.9771 106.949C73.9771 106.949 73.6907 106.28 73.3089 105.135" stroke="#263238" stroke-width="0.4451" stroke-miterlimit="10" stroke-linecap="round" stroke-linejoin="round"/>
<path d="M86.7685 78.6932C88.6776 82.5115 92.0187 89.5753 91.6368 93.2027C91.1595 98.3574 89.9186 108.285 89.9186 108.285" stroke="#263238" stroke-width="0.4451" stroke-miterlimit="10" stroke-linecap="round" stroke-linejoin="round"/>
<path d="M85.3366 76.0204C85.3366 76.0204 85.623 76.5931 86.1003 77.4522" stroke="#263238" stroke-width="0.4451" stroke-miterlimit="10" stroke-linecap="round" stroke-linejoin="round"/>
<path d="M125.142 87.7617C125.142 87.7617 117.983 93.68 115.406 94.921C112.733 96.1619 100.705 99.0256 100.705 99.0256C100.705 99.0256 105.096 102.462 106.146 103.417C107.196 104.371 109.296 106.28 109.296 106.28C109.296 106.28 115.597 106.567 118.842 103.417C122.088 100.362 127.911 93.2027 127.911 93.2027L125.142 87.7617Z" fill="white" stroke="#263238" stroke-width="0.4451" stroke-miterlimit="10" stroke-linecap="round" stroke-linejoin="round"/>
<path d="M117.792 105.803C117.792 105.803 118.842 105.612 119.033 104.18C119.224 102.748 119.033 101.508 118.651 101.889C118.269 102.271 117.983 103.321 117.888 103.703C117.792 104.085 117.506 104.562 117.506 104.562L117.792 105.803Z" fill="white" stroke="#263238" stroke-width="0.4451" stroke-miterlimit="10" stroke-linecap="round" stroke-linejoin="round"/>
<path d="M116.838 107.426C116.838 107.426 117.792 107.235 117.888 106.853C117.983 106.471 117.028 102.462 116.647 102.844C116.265 103.226 116.265 104.562 116.265 104.562L116.838 107.426Z" fill="white" stroke="#263238" stroke-width="0.4451" stroke-miterlimit="10" stroke-linecap="round" stroke-linejoin="round"/>
<path d="M116.169 108.19C116.169 108.19 116.933 108.19 116.838 107.426C116.742 106.662 115.597 102.653 115.215 103.226C114.833 103.799 114.833 104.371 114.833 104.371C114.833 104.371 115.215 105.612 115.31 106.376C115.406 107.235 116.169 108.19 116.169 108.19Z" fill="white" stroke="#263238" stroke-width="0.4451" stroke-miterlimit="10" stroke-linecap="round" stroke-linejoin="round"/>
<path d="M114.547 107.521C114.547 107.521 113.783 104.658 114.26 104.085C114.738 103.512 116.074 108.19 116.074 108.19L114.547 108.667L114.069 108.285" fill="white"/>
<path d="M114.547 107.521C114.547 107.521 113.783 104.658 114.26 104.085C114.738 103.512 116.074 108.19 116.074 108.19L114.547 108.667L114.069 108.285" stroke="#263238" stroke-width="0.4451" stroke-miterlimit="10" stroke-linecap="round" stroke-linejoin="round"/>
<path d="M125.429 39.9374H102.042C100.228 39.9374 98.7006 41.4647 98.7006 43.2784V54.9242C98.7006 56.7379 100.228 58.2652 102.042 58.2652H104.428L98.0324 64.4699L112.637 58.2652H125.429C127.242 58.2652 128.77 56.7379 128.77 54.9242V43.1829C128.77 41.3692 127.242 39.9374 125.429 39.9374Z" fill="white"/>
<path d="M106.719 50.5331C107.51 50.5331 108.151 49.892 108.151 49.1012C108.151 48.3104 107.51 47.6694 106.719 47.6694C105.928 47.6694 105.287 48.3104 105.287 49.1012C105.287 49.892 105.928 50.5331 106.719 50.5331Z" fill="white"/>
<path d="M113.401 50.5331C114.192 50.5331 114.833 49.892 114.833 49.1012C114.833 48.3104 114.192 47.6694 113.401 47.6694C112.61 47.6694 111.969 48.3104 111.969 49.1012C111.969 49.892 112.61 50.5331 113.401 50.5331Z" fill="white"/>
<path d="M120.083 50.5331C120.874 50.5331 121.515 49.892 121.515 49.1012C121.515 48.3104 120.874 47.6694 120.083 47.6694C119.292 47.6694 118.651 48.3104 118.651 49.1012C118.651 49.892 119.292 50.5331 120.083 50.5331Z" fill="white"/>
</g>
<defs>
<clipPath id="clip0_4131_18479">
<rect width="218" height="203" fill="white"/>
</clipPath>
</defs>
</svg>
