<svg width="218" height="202" viewBox="0 0 218 202" fill="none" xmlns="http://www.w3.org/2000/svg">
<g clip-path="url(#clip0_4131_18948)">
<path d="M201.67 193.192H6.90924" stroke="#263238" stroke-width="0.4597" stroke-miterlimit="10" stroke-linecap="round" stroke-linejoin="round"/>
<path d="M213.07 193.192H204.9" stroke="#263238" stroke-width="0.4597" stroke-miterlimit="10" stroke-linecap="round" stroke-linejoin="round"/>
<path d="M203.95 105.009C200.435 106.065 192.454 104.817 192.454 104.817C192.359 104.817 194.829 99.7315 195.019 99.3477C197.204 95.7973 203.665 90.3279 208.13 91.5753C211.36 92.4389 212.785 95.9892 211.645 99.0598C210.41 102.226 206.895 104.145 203.95 105.009Z" fill="#FFDC44"/>
<path d="M128.801 101.651C128.706 101.651 128.041 96.0852 128.041 95.7014C128.041 91.4793 130.321 83.4191 134.691 81.8838C137.826 80.8283 140.961 82.9393 141.721 86.1058C142.481 89.3683 140.581 92.9187 138.586 95.3175C136.116 98.1002 128.801 101.651 128.801 101.651Z" fill="#FFDC44"/>
<path d="M111.605 86.4897C114.075 87.8331 119.775 88.5048 121.2 88.6007C121.865 89.5603 122.625 90.6158 123.48 91.8632C124.905 93.9742 126.426 96.3731 127.946 99.0598C128.326 99.7315 128.801 100.595 129.181 101.363C128.231 100.211 126.901 98.676 126.711 98.5801C124.05 96.0852 117.4 92.8227 113.885 94.8378C111.32 96.2771 110.94 99.6356 112.555 101.938C114.17 104.337 117.685 105.201 120.345 105.297C123.195 105.393 128.706 103.186 129.846 102.706C130.701 104.433 131.556 106.161 132.411 108.08C133.741 111.342 135.071 114.892 135.926 118.635C135.831 118.635 135.831 118.635 135.736 118.731C134.976 117.579 133.361 115.18 133.171 114.988C130.796 112.206 124.525 108.272 120.82 109.903C118.065 111.054 117.305 114.317 118.635 116.812C120.06 119.402 123.385 120.65 126.046 121.034C129.181 121.513 135.831 119.498 136.021 119.402C136.781 122.953 137.256 126.599 137.636 130.437C137.826 133.22 138.016 135.907 138.111 138.689C137.541 137.826 135.451 134.755 135.261 134.467C132.886 131.685 126.616 127.75 122.91 129.382C120.155 130.533 119.395 133.796 120.725 136.29C122.15 138.881 125.476 140.129 128.136 140.512C131.176 140.992 137.541 139.073 138.016 138.881C138.016 140.129 138.111 141.376 138.111 142.719C138.206 146.845 138.301 150.972 138.491 155.194C138.586 156.633 138.681 157.976 138.776 159.416C138.016 158.168 136.496 156.057 136.306 155.865C133.931 153.083 127.661 149.148 123.955 150.78C121.2 151.931 120.44 155.194 121.77 157.688C123.195 160.279 126.521 161.527 129.181 161.91C131.936 162.294 137.256 160.855 138.776 160.375C138.966 162.678 139.251 164.981 139.631 167.284C139.821 168.243 139.916 169.299 140.201 170.163C140.486 171.026 140.581 171.986 140.771 172.945C141.246 174.864 141.721 176.592 142.196 178.319C142.481 179.182 142.671 180.046 142.956 180.91C142.386 179.566 141.341 177.455 141.246 177.263C139.346 174.193 133.741 169.299 129.846 170.354C126.996 171.122 125.761 174.193 126.711 176.879C127.756 179.662 130.796 181.293 133.361 182.157C136.211 183.021 142.576 182.157 143.336 182.157C143.907 184.268 144.572 186.283 145.142 188.202C145.617 189.737 146.187 191.177 146.567 192.616H149.227C148.657 190.985 147.992 189.354 147.422 187.435C146.852 185.803 146.282 183.98 145.617 182.061C146.282 181.773 151.887 179.47 154.072 177.359C156.352 178.895 158.917 180.142 159.487 180.43C158.917 182.541 158.252 184.556 157.777 186.475C157.207 188.682 156.732 190.697 156.162 192.52H158.822C159.202 190.793 159.677 188.97 160.152 187.051C160.627 185.323 161.102 183.5 161.577 181.581C162.338 181.773 168.608 183.021 171.553 182.349C174.213 181.773 177.443 180.238 178.583 177.551C179.723 174.96 178.678 171.794 175.923 170.834C172.028 169.587 166.138 174.001 163.953 176.879C163.858 177.071 162.433 179.47 161.767 180.718C162.052 179.566 162.338 178.511 162.718 177.263C163.193 175.632 163.763 173.809 164.333 172.082C164.618 171.218 164.903 170.354 165.283 169.395C165.568 168.435 165.948 167.668 166.328 166.708C166.898 165.461 167.468 164.117 168.133 162.774C169.748 163.35 174.783 165.077 177.348 164.885C180.103 164.693 183.429 163.638 185.044 161.239C186.564 158.84 185.994 155.577 183.429 154.138C179.818 152.219 173.358 155.769 170.793 158.36C170.698 158.456 170.223 159.032 169.653 159.799C170.318 158.552 170.888 157.305 171.648 156.057C173.643 152.507 175.733 148.956 177.823 145.406C178.298 144.639 178.678 143.871 179.153 143.199C180.578 143.775 185.899 145.598 188.654 145.406C191.409 145.214 194.734 144.159 196.349 141.76C197.869 139.361 197.299 136.099 194.734 134.659C191.124 132.74 184.664 136.29 182.099 138.881C182.004 138.977 181.434 139.745 180.768 140.512C181.909 138.593 182.954 136.578 183.999 134.563C185.804 131.109 187.324 127.558 188.654 124.104C189.129 124.296 195.399 126.599 198.439 126.407C201.195 126.215 204.52 125.16 206.135 122.761C207.655 120.362 207.085 117.099 204.52 115.66C200.91 113.741 194.449 117.291 191.884 119.882C191.694 120.074 189.604 122.665 188.939 123.72V123.624C190.269 119.882 191.029 116.236 191.599 112.685C192.169 109.135 192.454 105.777 192.549 102.61C192.644 99.4436 192.644 96.565 192.549 94.0702C192.549 92.7268 192.454 91.3834 192.359 90.232H192.454C192.454 90.232 194.164 85.6261 194.259 85.3382C195.114 81.7879 194.734 74.3994 191.219 72.1924C188.749 70.6571 185.614 71.9045 184.379 74.3994C183.144 76.9901 183.999 80.4445 185.329 82.9394C186.564 85.4342 191.029 89.0805 192.169 90.04C192.169 91.2875 192.264 92.5349 192.264 93.9742C192.264 96.469 192.264 99.3477 192.074 102.418C192.074 103.282 191.979 104.145 191.884 105.009C191.694 103.474 191.409 101.555 191.409 101.267C190.554 97.7165 186.754 91.3834 182.764 90.9996C179.818 90.8077 177.633 93.3025 177.728 96.1812C177.823 99.0598 180.198 101.747 182.384 103.282C184.664 104.913 190.459 106.161 191.694 106.448C191.504 108.367 191.219 110.287 190.839 112.302C190.174 115.756 189.319 119.498 187.989 123.145C187.894 123.145 187.894 123.145 187.799 123.145C187.799 121.801 187.799 118.827 187.704 118.635C187.229 114.988 184.189 108.272 180.198 107.504C177.348 106.928 174.878 109.231 174.688 112.11C174.498 114.988 176.588 117.867 178.583 119.786C180.958 121.897 187.514 123.912 187.799 124.008C186.469 127.367 184.949 130.725 183.049 134.083C181.719 136.482 180.293 138.881 178.868 141.28C178.868 140.321 178.868 136.482 178.773 136.194C178.298 132.548 175.258 125.831 171.268 125.064C168.418 124.488 165.948 126.791 165.758 129.67C165.568 132.548 167.658 135.427 169.653 137.346C171.933 139.361 178.298 141.376 178.773 141.568C178.108 142.623 177.443 143.775 176.778 144.83C174.593 148.381 172.408 151.931 170.318 155.385C169.653 156.633 168.893 157.88 168.228 159.128C168.228 157.688 168.228 155.002 168.133 154.81C167.658 151.163 164.618 144.447 160.627 143.679C157.777 143.103 155.307 145.406 155.117 148.285C154.927 151.163 157.017 154.042 159.012 155.961C161.102 157.784 166.328 159.608 167.848 160.087C166.803 162.198 165.663 164.213 164.808 166.324C164.428 167.284 163.953 168.148 163.668 169.011C163.288 169.875 163.003 170.738 162.623 171.698C162.052 173.521 161.387 175.248 160.912 176.975C160.627 177.839 160.342 178.607 160.152 179.566C160.342 178.127 160.722 175.728 160.722 175.536C160.817 171.89 158.822 164.693 154.927 163.35C152.172 162.39 149.417 164.309 148.752 167.092C148.657 167.476 148.657 167.764 148.657 168.148C146.757 170.834 145.617 174.768 145.522 177.167C145.522 177.359 145.712 180.238 145.807 181.581C145.427 180.526 145.142 179.374 144.762 178.223C144.192 176.592 143.717 174.768 143.241 173.041C143.051 172.082 142.766 171.218 142.576 170.259C142.291 169.299 142.196 168.435 142.006 167.476C141.721 166.132 141.531 164.693 141.341 163.158C143.051 162.678 148.087 161.431 150.177 159.799C152.362 158.168 154.547 155.385 154.547 152.507C154.547 149.724 152.267 147.229 149.322 147.517C145.237 147.997 141.721 154.522 141.056 158.072C141.056 158.168 140.961 158.936 140.866 159.895C140.771 158.456 140.581 157.113 140.486 155.673C140.201 151.643 140.011 147.421 139.821 143.295C139.821 142.432 139.726 141.568 139.726 140.704C141.151 140.321 146.662 138.977 148.847 137.25C151.032 135.619 153.217 132.836 153.217 129.957C153.217 127.175 150.937 124.68 147.992 124.968C143.907 125.447 140.391 131.972 139.726 135.523C139.726 135.619 139.631 136.578 139.536 137.634C139.441 135.427 139.251 133.124 138.966 130.917C138.586 127.079 137.921 123.241 137.066 119.594C137.636 119.498 144.097 117.963 146.472 116.044C148.657 114.413 150.842 111.63 150.842 108.751C150.842 105.969 148.562 103.474 145.617 103.762C141.531 104.241 138.016 110.766 137.351 114.317C137.351 114.605 136.971 117.963 136.971 119.114V119.018C136.021 115.18 134.691 111.726 133.171 108.367C131.746 105.105 130.036 102.13 128.516 99.4436C126.996 96.7569 125.286 94.454 123.86 92.343C123.1 91.2875 122.34 90.232 121.675 89.2724H121.77C121.865 89.2724 120.725 84.3787 120.63 84.0908C119.395 80.6364 115.025 74.6872 110.94 74.7832C107.995 74.8791 106.094 77.6618 106.475 80.4445C106.57 82.8434 109.135 85.2423 111.605 86.4897Z" fill="#FFDC44"/>
<path d="M105.81 132.356C103.434 133.028 97.8291 132.26 97.8291 132.26C97.8291 132.26 99.4442 128.71 99.6342 128.518C101.154 126.119 105.525 122.377 108.66 123.145C110.845 123.72 111.89 126.215 111.035 128.23C110.37 130.341 107.9 131.685 105.81 132.356Z" fill="#FFDC44"/>
<path d="M54.1268 129.957C54.1268 129.957 53.5568 126.119 53.5568 125.831C53.5568 122.953 55.1719 117.387 58.117 116.332C60.3021 115.564 62.4872 117.099 62.9623 119.21C63.4373 121.417 62.2022 123.912 60.7772 125.543C59.2571 127.558 54.1268 129.957 54.1268 129.957Z" fill="#FFDC44"/>
<path d="M42.3461 119.594C43.9612 120.554 47.9514 120.938 48.9015 121.034C49.3765 121.705 49.9465 122.473 50.5166 123.24C51.4666 124.68 52.5117 126.311 53.5567 128.134C53.8417 128.614 54.1267 129.19 54.4118 129.669C53.7467 128.902 52.7967 127.846 52.7967 127.75C50.9916 126.023 46.4313 123.816 43.9612 125.16C42.2511 126.215 41.8711 128.422 43.0111 130.053C44.1512 131.685 46.5263 132.26 48.4264 132.356C50.4215 132.356 54.1267 130.917 54.9818 130.533C55.5518 131.685 56.1219 132.932 56.6919 134.179C57.6419 136.386 58.497 138.881 59.067 141.472C58.972 141.472 58.972 141.472 58.972 141.472C58.402 140.704 57.3569 139.073 57.2619 138.881C55.6468 136.962 51.2766 134.275 48.7115 135.427C46.9064 136.194 46.3363 138.497 47.2864 140.225C48.2364 141.952 50.5166 142.815 52.3216 143.103C54.5068 143.391 58.972 142.048 59.162 142.048C59.732 144.447 60.0171 147.037 60.2071 149.628C60.3971 151.547 60.3971 153.466 60.4921 155.385C60.1121 154.81 58.687 152.603 58.592 152.507C56.9769 150.588 52.6067 147.901 50.0415 149.052C48.2364 149.82 47.6664 152.123 48.6165 153.85C49.5665 155.577 51.8466 156.441 53.6517 156.729C55.7418 157.017 60.1121 155.769 60.4921 155.673C60.4921 156.537 60.4921 157.401 60.5871 158.264C60.6821 161.143 60.6821 164.021 60.8721 166.804C60.8721 167.764 60.9671 168.723 61.0621 169.683C60.4921 168.819 59.447 167.38 59.447 167.188C57.8319 165.269 53.4617 162.582 50.8966 163.734C49.0915 164.501 48.5214 166.804 49.4715 168.531C50.4215 170.259 52.7017 171.122 54.5068 171.41C56.4069 171.698 60.0171 170.642 61.0621 170.354C61.1571 171.986 61.3471 173.521 61.6321 175.152C61.7271 175.824 61.8222 176.496 62.0122 177.167C62.1072 177.839 62.2972 178.415 62.4872 179.086C62.8672 180.334 63.1522 181.581 63.4372 182.829C63.6273 183.404 63.8173 183.98 64.0073 184.556C63.5322 183.596 62.8672 182.157 62.7722 182.061C61.4421 179.95 57.6419 176.592 54.8868 177.263C52.8917 177.839 52.0366 179.95 52.7017 181.773C53.3667 183.596 55.4568 184.844 57.2619 185.419C59.257 185.995 63.6273 185.419 64.1023 185.419C64.5773 186.859 64.9573 188.202 65.3373 189.545C65.7174 190.601 66.0024 191.561 66.3824 192.52H68.1875C67.8075 191.465 67.3324 190.217 66.9524 188.97C66.5724 187.818 66.0974 186.571 65.7174 185.323C66.1924 185.132 69.9926 183.596 71.5127 182.061C73.1278 183.116 74.8379 183.98 75.2179 184.172C74.7428 185.611 74.3628 186.955 74.0778 188.298C73.6978 189.833 73.3178 191.177 73.0328 192.52H74.8379C75.1229 191.369 75.4079 190.121 75.6929 188.778C75.9779 187.626 76.2629 186.283 76.6429 185.036C77.213 185.132 81.4882 185.995 83.4833 185.611C85.2884 185.132 87.4735 184.172 88.3286 182.349C89.0886 180.622 88.4236 178.415 86.5235 177.743C83.8633 176.879 79.8731 179.95 78.353 181.965C78.258 182.061 77.308 183.788 76.833 184.652C77.023 183.884 77.308 183.116 77.498 182.253C77.878 181.101 78.258 179.854 78.5431 178.703C78.7331 178.127 79.0181 177.455 79.2081 176.879C79.3981 176.304 79.6831 175.728 79.9681 175.056C80.3481 174.193 80.7282 173.233 81.2032 172.37C82.3433 172.753 85.7634 174.001 87.5685 173.809C89.4686 173.713 91.7488 172.945 92.8888 171.314C93.9339 169.683 93.5539 167.38 91.7488 166.42C89.2786 165.173 84.8134 167.476 83.0083 169.299C83.0083 169.299 82.6283 169.779 82.2482 170.259C82.7233 169.395 83.1033 168.531 83.5783 167.668C84.9084 165.269 86.3335 162.774 87.8535 160.375C88.1386 159.799 88.4236 159.32 88.8036 158.84C89.7536 159.224 93.4588 160.471 95.3589 160.375C97.259 160.279 99.5392 159.512 100.679 157.88C101.724 156.249 101.344 153.946 99.5392 152.987C97.069 151.739 92.6038 154.042 90.7987 155.865C90.7987 155.865 90.3237 156.441 89.8487 156.921C90.6087 155.577 91.3687 154.234 92.0338 152.891C93.2688 150.492 94.3139 148.093 95.2639 145.694C95.644 145.79 99.9192 147.421 102.009 147.325C103.909 147.229 106.19 146.462 107.33 144.83C108.375 143.199 107.995 140.896 106.19 139.937C103.719 138.689 99.2542 140.992 97.4491 142.815C97.3541 142.911 95.834 144.734 95.3589 145.406C95.3589 145.406 95.3589 145.406 95.3589 145.31C96.214 142.719 96.784 140.225 97.164 137.73C97.5441 135.235 97.7341 132.932 97.8291 130.821C97.9241 128.614 97.9241 126.695 97.8291 124.968C97.8291 124.008 97.7341 123.145 97.7341 122.377C97.7341 122.377 98.9691 119.21 98.9691 119.018C99.5392 116.524 99.2542 111.438 96.879 109.999C95.1689 108.943 93.0788 109.807 92.2238 111.534C91.3687 113.357 92.0338 115.756 92.7938 117.387C93.6489 119.114 96.689 121.705 97.5441 122.281C97.5441 123.145 97.6391 124.008 97.6391 125.064C97.6391 126.791 97.6391 128.806 97.5441 130.917C97.5441 131.493 97.4491 132.068 97.3541 132.644C97.259 131.589 97.069 130.245 96.974 130.053C96.404 127.558 93.7439 123.24 90.9887 123.049C88.9936 122.953 87.4735 124.68 87.5685 126.599C87.5685 128.614 89.2786 130.437 90.7987 131.493C92.4138 132.644 96.309 133.508 97.259 133.7C97.164 135.043 96.974 136.386 96.689 137.73C96.214 140.129 95.644 142.623 94.6939 145.118C94.5989 145.118 94.5989 145.118 94.5039 145.118C94.5039 144.159 94.5039 142.144 94.5039 141.952C94.2189 139.457 92.1288 134.851 89.3736 134.275C87.3785 133.892 85.6684 135.427 85.5734 137.442C85.3834 139.457 86.8085 141.376 88.2336 142.719C89.8487 144.159 94.4089 145.502 94.5989 145.598C93.6489 147.901 92.6038 150.204 91.3687 152.507C90.4187 154.138 89.4686 155.769 88.5186 157.401C88.5186 156.729 88.5186 154.138 88.5186 153.946C88.1386 151.451 86.1435 146.845 83.3883 146.27C81.3932 145.886 79.6831 147.421 79.5881 149.436C79.3981 151.451 80.8232 153.37 82.2482 154.714C83.8633 156.153 88.1386 157.496 88.5186 157.592C88.0436 158.36 87.5685 159.128 87.1885 159.799C85.6684 162.198 84.1484 164.693 82.7233 167.092C82.2482 167.956 81.7732 168.723 81.2982 169.683C81.2982 168.627 81.2982 166.9 81.2982 166.708C81.0132 164.213 78.9231 159.607 76.1679 159.032C74.1728 158.648 72.4627 160.183 72.3677 162.198C72.1777 164.213 73.6028 166.132 75.0279 167.476C76.4529 168.723 80.0631 169.971 81.1082 170.259C80.3481 171.698 79.5881 173.041 79.0181 174.576C78.7331 175.152 78.448 175.824 78.258 176.4C78.068 176.975 77.783 177.647 77.593 178.223C77.118 179.47 76.738 180.622 76.3579 181.869C76.1679 182.445 75.9779 183.021 75.7879 183.596C75.8829 182.541 76.1679 180.91 76.1679 180.814C76.1679 178.319 74.8378 173.329 72.1777 172.465C70.2776 171.794 68.3775 173.041 67.9025 175.056C67.9025 175.248 67.8075 175.536 67.8075 175.824C66.4774 177.647 65.7174 180.334 65.6224 181.965C65.6224 182.157 65.7174 184.076 65.8124 185.036C65.5274 184.268 65.3373 183.5 65.0523 182.733C64.6723 181.581 64.3873 180.334 64.0073 179.182C63.9123 178.607 63.7223 177.935 63.5322 177.263C63.3422 176.592 63.2472 176.016 63.1522 175.344C62.9622 174.385 62.8672 173.425 62.6772 172.465C63.8173 172.178 67.3324 171.218 68.7575 170.163C70.2776 169.011 71.7977 167.092 71.7977 165.173C71.7977 163.254 70.1826 161.527 68.1875 161.814C65.4323 162.102 62.9622 166.612 62.4872 169.107C62.4872 169.203 62.3922 169.683 62.3922 170.354C62.2972 169.395 62.2022 168.435 62.1072 167.476C61.9172 164.693 61.8222 161.814 61.6321 158.936C61.6321 158.36 61.6321 157.784 61.5371 157.209C62.5822 156.921 66.2874 155.961 67.8075 154.81C69.3276 153.658 70.8476 151.739 70.8476 149.82C70.8476 147.901 69.2326 146.174 67.2374 146.462C64.4823 146.749 62.0122 151.259 61.5371 153.754C61.5371 153.85 61.4421 154.426 61.4421 155.194C61.3471 153.658 61.2521 152.123 61.0621 150.588C60.7771 147.901 60.3971 145.31 59.732 142.815C60.1121 142.719 64.5773 141.664 66.1924 140.416C67.7125 139.265 69.2325 137.346 69.2325 135.427C69.2325 133.508 67.6175 131.78 65.6224 132.068C62.8672 132.356 60.3971 136.866 59.9221 139.361C59.9221 139.553 59.732 141.856 59.637 142.623C59.637 142.623 59.637 142.623 59.637 142.527C58.972 139.937 58.022 137.538 56.9769 135.235C55.9318 133.028 54.7918 130.917 53.7467 129.094C52.7017 127.271 51.5616 125.639 50.5166 124.2C49.9465 123.432 49.4715 122.761 48.9965 122.089C48.9965 122.089 48.2364 118.731 48.2364 118.539C47.3814 116.14 44.3412 112.11 41.5861 112.206C39.591 112.302 38.2609 114.221 38.5459 116.14C38.9259 117.003 40.731 118.635 42.3461 119.594Z" fill="#FFDC44"/>
<path d="M126.711 140.129H124.24C123.86 140.129 123.48 139.841 123.48 139.361V33.8103H127.376V139.457C127.471 139.841 127.091 140.129 126.711 140.129Z" fill="#263238" stroke="#263238" stroke-width="0.4597" stroke-miterlimit="10" stroke-linecap="round" stroke-linejoin="round"/>
<path d="M125.95 30.26H89.8485C89.8485 30.26 90.5135 33.5224 87.1883 33.5224C84.9082 33.5224 84.0532 32.0831 85.1932 29.6842C85.9533 28.053 82.6281 30.164 82.5331 32.371C82.3431 34.9618 85.6683 36.2092 88.3284 35.7294C90.9885 35.2496 91.7486 32.9467 91.7486 32.9467L126.045 36.497L125.95 30.26Z" fill="#263238" stroke="#263238" stroke-width="0.4597" stroke-miterlimit="10" stroke-linecap="round" stroke-linejoin="round"/>
<path d="M125.95 30.26H162.147C162.147 30.26 161.482 33.5224 164.808 33.5224C167.088 33.5224 167.943 32.0831 166.803 29.6842C166.043 28.053 169.368 30.164 169.463 32.371C169.653 34.9618 166.328 36.2092 163.667 35.7294C161.007 35.2496 160.247 32.9467 160.247 32.9467L125.95 36.497V30.26Z" fill="#263238" stroke="#263238" stroke-width="0.4597" stroke-miterlimit="10" stroke-linecap="round" stroke-linejoin="round"/>
<path d="M124.905 12.0285L123.005 41.3908L125.665 45.3249L127.946 41.3908L126.046 12.0285C126.046 11.2608 124.905 11.2608 124.905 12.0285Z" fill="#263238" stroke="#263238" stroke-width="0.4597" stroke-miterlimit="10" stroke-linecap="round" stroke-linejoin="round"/>
<path d="M128.516 33.8103C128.516 32.1791 127.185 30.7397 125.475 30.7397C123.765 30.7397 122.435 32.0831 122.435 33.8103C122.435 35.5375 123.765 36.8809 125.475 36.8809C127.185 36.8809 128.516 35.4415 128.516 33.8103Z" fill="#263238" stroke="#9E9E9E" stroke-width="0.4597" stroke-miterlimit="10" stroke-linecap="round" stroke-linejoin="round"/>
<path d="M126.615 33.8103C126.615 33.2345 126.045 32.6588 125.475 32.6588C124.905 32.6588 124.335 33.2345 124.335 33.8103C124.335 34.386 124.905 34.9617 125.475 34.9617C126.14 34.9617 126.615 34.482 126.615 33.8103Z" fill="#263238" stroke="#9E9E9E" stroke-width="0.4597" stroke-miterlimit="10" stroke-linecap="round" stroke-linejoin="round"/>
<path d="M88.4235 36.9768C88.0434 37.0727 87.5684 36.8808 87.4734 36.497L87.1884 35.7294C87.0934 35.3455 87.2834 34.8658 87.6634 34.7698C88.0434 34.6739 88.5185 34.8658 88.6135 35.2496L88.8985 35.9213C88.9935 36.4011 88.8035 36.7849 88.4235 36.9768Z" fill="white" stroke="#263238" stroke-width="0.4597" stroke-miterlimit="10" stroke-linecap="round" stroke-linejoin="round"/>
<path d="M87.1884 33.5224L87.9485 35.5375" stroke="#263238" stroke-width="0.4597" stroke-miterlimit="10" stroke-linecap="round" stroke-linejoin="round"/>
<path d="M89.4685 39.8554C89.0885 39.9514 88.6134 39.7595 88.5184 39.3757L88.2334 38.704C88.1384 38.3202 88.3284 37.8404 88.7084 37.7444C89.0885 37.6485 89.5635 37.8404 89.6585 38.2242L89.9435 38.8959C90.0385 39.2797 89.8485 39.7595 89.4685 39.8554Z" fill="white" stroke="#263238" stroke-width="0.4597" stroke-miterlimit="10" stroke-linecap="round" stroke-linejoin="round"/>
<path d="M88.2334 36.4011L88.9935 38.5121" stroke="#263238" stroke-width="0.4597" stroke-miterlimit="10" stroke-linecap="round" stroke-linejoin="round"/>
<path d="M90.5135 42.83C90.1335 42.926 89.6585 42.7341 89.5635 42.3503L89.2785 41.6786C89.1834 41.2948 89.3735 40.815 89.7535 40.719C90.1335 40.6231 90.6085 40.815 90.7035 41.1988L90.9885 41.8705C91.0836 42.2543 90.8935 42.6381 90.5135 42.83Z" fill="white" stroke="#263238" stroke-width="0.4597" stroke-miterlimit="10" stroke-linecap="round" stroke-linejoin="round"/>
<path d="M89.2785 39.2797L89.9435 41.3907" stroke="#263238" stroke-width="0.4597" stroke-miterlimit="10" stroke-linecap="round" stroke-linejoin="round"/>
<path d="M91.4636 45.7087C91.0835 45.8047 90.6085 45.6128 90.5135 45.2289L90.2285 44.5572C90.1335 44.1734 90.3235 43.6936 90.7035 43.5977C91.0835 43.5017 91.5586 43.6936 91.6536 44.0775L91.9386 44.7492C92.1286 45.133 91.8436 45.6128 91.4636 45.7087Z" fill="white" stroke="#263238" stroke-width="0.4597" stroke-miterlimit="10" stroke-linecap="round" stroke-linejoin="round"/>
<path d="M90.2285 42.2543L90.9886 44.3653" stroke="#263238" stroke-width="0.4597" stroke-miterlimit="10" stroke-linecap="round" stroke-linejoin="round"/>
<path d="M92.5087 48.5874C92.1287 48.6833 91.6537 48.4914 91.5587 48.1076L91.2737 47.4359C91.1787 47.0521 91.3687 46.5723 91.7487 46.4764C92.1287 46.3804 92.6037 46.5723 92.6987 46.9561L92.9837 47.6278C93.0788 48.0116 92.8887 48.4914 92.5087 48.5874Z" fill="white" stroke="#263238" stroke-width="0.4597" stroke-miterlimit="10" stroke-linecap="round" stroke-linejoin="round"/>
<path d="M91.2736 45.1329L92.0336 47.2439" stroke="#263238" stroke-width="0.4597" stroke-miterlimit="10" stroke-linecap="round" stroke-linejoin="round"/>
<path d="M93.5537 51.562C93.1737 51.6579 92.6987 51.466 92.6037 51.0822L92.3187 50.4105C92.2237 50.0267 92.4137 49.5469 92.7937 49.451C93.1737 49.355 93.6487 49.5469 93.7438 49.9307L94.0288 50.6024C94.1238 50.9862 93.9338 51.3701 93.5537 51.562Z" fill="white" stroke="#263238" stroke-width="0.4597" stroke-miterlimit="10" stroke-linecap="round" stroke-linejoin="round"/>
<path d="M92.3187 48.0116L93.0787 50.1226" stroke="#263238" stroke-width="0.4597" stroke-miterlimit="10" stroke-linecap="round" stroke-linejoin="round"/>
<path d="M94.5038 54.4406C94.1238 54.5366 93.6487 54.3447 93.5537 53.9609L93.2687 53.2892C93.1737 52.9054 93.3637 52.4256 93.7437 52.3296C94.1238 52.2337 94.5988 52.4256 94.6938 52.8094L94.9788 53.4811C95.1688 53.8649 94.8838 54.3447 94.5038 54.4406Z" fill="white" stroke="#263238" stroke-width="0.4597" stroke-miterlimit="10" stroke-linecap="round" stroke-linejoin="round"/>
<path d="M93.2688 50.9863L94.0288 53.0973" stroke="#263238" stroke-width="0.4597" stroke-miterlimit="10" stroke-linecap="round" stroke-linejoin="round"/>
<path d="M95.5488 57.3193C95.1688 57.4153 94.6938 57.2233 94.5988 56.8395L94.3138 56.1678C94.2188 55.784 94.4088 55.3042 94.7888 55.2083C95.1688 55.1123 95.6438 55.3042 95.7388 55.6881L96.0239 56.3598C96.1189 56.7436 95.9289 57.2233 95.5488 57.3193Z" fill="white" stroke="#263238" stroke-width="0.4597" stroke-miterlimit="10" stroke-linecap="round" stroke-linejoin="round"/>
<path d="M94.3138 53.9608L95.0738 55.9759" stroke="#263238" stroke-width="0.4597" stroke-miterlimit="10" stroke-linecap="round" stroke-linejoin="round"/>
<path d="M96.5939 60.2938C96.2139 60.3898 95.7388 60.1979 95.6438 59.8141L95.3588 59.1424C95.2638 58.7586 95.4538 58.2788 95.8338 58.1828C96.2139 58.0869 96.6889 58.2788 96.7839 58.6626L97.0689 59.3343C97.1639 59.7181 96.9739 60.1019 96.5939 60.2938Z" fill="white" stroke="#263238" stroke-width="0.4597" stroke-miterlimit="10" stroke-linecap="round" stroke-linejoin="round"/>
<path d="M95.3588 56.8395L96.1189 58.9505" stroke="#263238" stroke-width="0.4597" stroke-miterlimit="10" stroke-linecap="round" stroke-linejoin="round"/>
<path d="M97.5439 63.2685C97.1639 63.3645 96.6889 63.1726 96.5939 62.7887L96.3088 62.1171C96.2138 61.7332 96.4039 61.2535 96.7839 61.1575C97.1639 61.0616 97.6389 61.2535 97.7339 61.6373L98.0189 62.309C98.209 62.6928 98.0189 63.0766 97.5439 63.2685Z" fill="white" stroke="#263238" stroke-width="0.4597" stroke-miterlimit="10" stroke-linecap="round" stroke-linejoin="round"/>
<path d="M96.4039 59.7181L97.0689 61.8292" stroke="#263238" stroke-width="0.4597" stroke-miterlimit="10" stroke-linecap="round" stroke-linejoin="round"/>
<path d="M98.589 66.1472C98.2089 66.2431 97.7339 66.0512 97.6389 65.6674L97.3539 64.9957C97.2589 64.6119 97.4489 64.1321 97.8289 64.0362C98.2089 63.9402 98.684 64.1321 98.779 64.5159L99.064 65.1876C99.159 65.5715 98.969 66.0512 98.589 66.1472Z" fill="white" stroke="#263238" stroke-width="0.4597" stroke-miterlimit="10" stroke-linecap="round" stroke-linejoin="round"/>
<path d="M97.3539 62.6927L98.114 64.7078" stroke="#263238" stroke-width="0.4597" stroke-miterlimit="10" stroke-linecap="round" stroke-linejoin="round"/>
<path d="M99.6341 69.0258C99.2541 69.1217 98.779 68.9298 98.684 68.546L98.399 67.8743C98.304 67.4905 98.494 67.0107 98.8741 66.9148C99.2541 66.8188 99.7291 67.0107 99.8241 67.3945L100.109 68.0662C100.204 68.4501 100.014 68.9298 99.6341 69.0258Z" fill="white" stroke="#263238" stroke-width="0.4597" stroke-miterlimit="10" stroke-linecap="round" stroke-linejoin="round"/>
<path d="M98.3989 65.5714L99.159 67.6824" stroke="#263238" stroke-width="0.4597" stroke-miterlimit="10" stroke-linecap="round" stroke-linejoin="round"/>
<path d="M100.679 72.0004C100.299 72.0964 99.8241 71.9044 99.7291 71.5206L99.4441 70.8489C99.3491 70.4651 99.5391 69.9853 99.9191 69.8894C100.299 69.7934 100.774 69.9853 100.869 70.3692L101.154 71.0408C101.249 71.4247 101.059 71.8085 100.679 72.0004Z" fill="white" stroke="#263238" stroke-width="0.4597" stroke-miterlimit="10" stroke-linecap="round" stroke-linejoin="round"/>
<path d="M99.4441 68.4501L100.204 70.5611" stroke="#263238" stroke-width="0.4597" stroke-miterlimit="10" stroke-linecap="round" stroke-linejoin="round"/>
<path d="M101.629 74.8791C101.249 74.975 100.774 74.7831 100.679 74.3993L100.394 73.7276C100.299 73.3438 100.489 72.864 100.869 72.768C101.249 72.6721 101.724 72.864 101.819 73.2478L102.104 73.9195C102.294 74.3033 102.009 74.7831 101.629 74.8791Z" fill="white" stroke="#263238" stroke-width="0.4597" stroke-miterlimit="10" stroke-linecap="round" stroke-linejoin="round"/>
<path d="M100.394 71.4247L101.154 73.5357" stroke="#263238" stroke-width="0.4597" stroke-miterlimit="10" stroke-linecap="round" stroke-linejoin="round"/>
<path d="M85.5733 36.9768C85.9533 37.0728 86.4283 36.8809 86.5233 36.4971L86.8083 35.8254C86.9033 35.4416 86.7133 34.9618 86.3333 34.8658C85.9533 34.7699 85.4783 34.9618 85.3833 35.3456L85.0982 36.0173C85.0032 36.4011 85.1933 36.7849 85.5733 36.9768Z" fill="white" stroke="#263238" stroke-width="0.4597" stroke-miterlimit="10" stroke-linecap="round" stroke-linejoin="round"/>
<path d="M86.8084 33.4265L86.0483 35.5375" stroke="#263238" stroke-width="0.4597" stroke-miterlimit="10" stroke-linecap="round" stroke-linejoin="round"/>
<path d="M84.5283 39.8555C84.9083 39.9515 85.3833 39.8555 85.4783 39.3757L85.7633 38.6081C85.8583 38.2243 85.7633 37.7445 85.2883 37.6485C84.9083 37.5526 84.4333 37.6485 84.3383 38.1283L84.0532 38.8C83.9582 39.2798 84.1482 39.7596 84.5283 39.8555Z" fill="white" stroke="#263238" stroke-width="0.4597" stroke-miterlimit="10" stroke-linecap="round" stroke-linejoin="round"/>
<path d="M85.7633 36.4011L85.0033 38.5121" stroke="#263238" stroke-width="0.4597" stroke-miterlimit="10" stroke-linecap="round" stroke-linejoin="round"/>
<path d="M83.4832 42.7341C83.8632 42.8301 84.3383 42.6381 84.4333 42.2543L84.7183 41.5826C84.8133 41.1988 84.6233 40.719 84.2433 40.6231C83.8632 40.5271 83.3882 40.719 83.2932 41.1029L83.0082 41.7745C82.9132 42.1584 83.1032 42.6381 83.4832 42.7341Z" fill="white" stroke="#263238" stroke-width="0.4597" stroke-miterlimit="10" stroke-linecap="round" stroke-linejoin="round"/>
<path d="M84.7183 39.2797L83.9583 41.3907" stroke="#263238" stroke-width="0.4597" stroke-miterlimit="10" stroke-linecap="round" stroke-linejoin="round"/>
<path d="M82.4382 45.7088C82.8182 45.8047 83.2932 45.6128 83.3882 45.229L83.6732 44.5573C83.7682 44.1735 83.5782 43.6937 83.1982 43.5978C82.8182 43.5018 82.3432 43.6937 82.2482 44.0775L81.9631 44.6533C81.8681 45.133 82.0581 45.5169 82.4382 45.7088Z" fill="white" stroke="#263238" stroke-width="0.4597" stroke-miterlimit="10" stroke-linecap="round" stroke-linejoin="round"/>
<path d="M83.6732 42.1584L82.9131 44.2694" stroke="#263238" stroke-width="0.4597" stroke-miterlimit="10" stroke-linecap="round" stroke-linejoin="round"/>
<path d="M81.4881 48.5874C81.8681 48.6834 82.3432 48.4915 82.4382 48.1077L82.7232 47.436C82.8182 47.0521 82.6282 46.5724 82.2482 46.4764C81.8681 46.3805 81.3931 46.5724 81.2981 46.9562L81.0131 47.6279C80.8231 48.0117 81.1081 48.4915 81.4881 48.5874Z" fill="white" stroke="#263238" stroke-width="0.4597" stroke-miterlimit="10" stroke-linecap="round" stroke-linejoin="round"/>
<path d="M82.7231 45.1331L81.9631 47.2441" stroke="#263238" stroke-width="0.4597" stroke-miterlimit="10" stroke-linecap="round" stroke-linejoin="round"/>
<path d="M80.4431 51.4661C80.8231 51.562 81.2981 51.3701 81.3931 50.9863L81.6781 50.3146C81.7731 49.9308 81.6781 49.451 81.2031 49.3551C80.8231 49.2591 80.3481 49.451 80.2531 49.8349L79.968 50.5065C79.778 50.8904 80.063 51.3701 80.4431 51.4661Z" fill="white" stroke="#263238" stroke-width="0.4597" stroke-miterlimit="10" stroke-linecap="round" stroke-linejoin="round"/>
<path d="M81.6781 48.0117L80.918 50.1227" stroke="#263238" stroke-width="0.4597" stroke-miterlimit="10" stroke-linecap="round" stroke-linejoin="round"/>
<path d="M79.3979 54.4407C79.778 54.5366 80.253 54.3447 80.348 53.9609L80.633 53.2892C80.728 52.9054 80.633 52.4256 80.158 52.3296C79.778 52.2337 79.3029 52.3296 79.2079 52.8094L78.9229 53.4811C78.8279 53.8649 79.0179 54.2487 79.3979 54.4407Z" fill="white" stroke="#263238" stroke-width="0.4597" stroke-miterlimit="10" stroke-linecap="round" stroke-linejoin="round"/>
<path d="M80.6331 50.9863L79.873 53.0013" stroke="#263238" stroke-width="0.4597" stroke-miterlimit="10" stroke-linecap="round" stroke-linejoin="round"/>
<path d="M78.3529 57.3193C78.7329 57.4153 79.2079 57.2234 79.303 56.8395L79.588 56.1679C79.683 55.784 79.588 55.3043 79.1129 55.2083C78.7329 55.1123 78.2579 55.2083 78.1629 55.6881L77.8779 56.3598C77.7829 56.7436 77.9729 57.2234 78.3529 57.3193Z" fill="white" stroke="#263238" stroke-width="0.4597" stroke-miterlimit="10" stroke-linecap="round" stroke-linejoin="round"/>
<path d="M79.588 53.8649L78.828 55.9759" stroke="#263238" stroke-width="0.4597" stroke-miterlimit="10" stroke-linecap="round" stroke-linejoin="round"/>
<path d="M77.4029 60.198C77.7829 60.2939 78.2579 60.102 78.3529 59.7182L78.6379 59.0465C78.733 58.6627 78.5429 58.1829 78.1629 58.087C77.7829 57.991 77.3079 58.087 77.2129 58.5667L76.9279 59.2384C76.7378 59.6222 76.9279 60.102 77.4029 60.198Z" fill="white" stroke="#263238" stroke-width="0.4597" stroke-miterlimit="10" stroke-linecap="round" stroke-linejoin="round"/>
<path d="M78.543 56.7436L77.8779 58.8546" stroke="#263238" stroke-width="0.4597" stroke-miterlimit="10" stroke-linecap="round" stroke-linejoin="round"/>
<path d="M76.3578 63.1726C76.7379 63.2685 77.2129 63.1726 77.3079 62.6928L77.5929 62.0211C77.6879 61.6373 77.5929 61.1575 77.1179 61.0616C76.7379 60.9656 76.2628 61.0616 76.1678 61.5414L75.8828 62.213C75.6928 62.5969 75.8828 62.9807 76.3578 63.1726Z" fill="white" stroke="#263238" stroke-width="0.4597" stroke-miterlimit="10" stroke-linecap="round" stroke-linejoin="round"/>
<path d="M77.4979 59.7182L76.8329 61.7333" stroke="#263238" stroke-width="0.4597" stroke-miterlimit="10" stroke-linecap="round" stroke-linejoin="round"/>
<path d="M75.3128 66.0512C75.6928 66.1472 76.1678 66.0512 76.2629 65.5715L76.5479 64.8998C76.6429 64.516 76.5479 64.0362 76.0728 63.9402C75.6928 63.8443 75.2178 63.9402 75.1228 64.42L74.8378 65.0917C74.7428 65.4755 74.9328 65.9553 75.3128 66.0512Z" fill="white" stroke="#263238" stroke-width="0.4597" stroke-miterlimit="10" stroke-linecap="round" stroke-linejoin="round"/>
<path d="M76.5478 62.5969L75.7878 64.7079" stroke="#263238" stroke-width="0.4597" stroke-miterlimit="10" stroke-linecap="round" stroke-linejoin="round"/>
<path d="M74.2676 68.9298C74.6477 69.0258 75.1227 68.9298 75.2177 68.4501L75.5027 67.7784C75.5977 67.3946 75.4077 66.9148 75.0277 66.8188C74.6477 66.7229 74.1726 66.8188 74.0776 67.2986L73.7926 67.9703C73.6976 68.3541 73.8876 68.8339 74.2676 68.9298Z" fill="white" stroke="#263238" stroke-width="0.4597" stroke-miterlimit="10" stroke-linecap="round" stroke-linejoin="round"/>
<path d="M75.5027 65.4755L74.7427 67.5865" stroke="#263238" stroke-width="0.4597" stroke-miterlimit="10" stroke-linecap="round" stroke-linejoin="round"/>
<path d="M73.2226 71.9045C73.6026 72.0005 74.0777 71.9045 74.1727 71.4247L74.4577 70.753C74.5527 70.3692 74.3627 69.8895 73.9827 69.7935C73.6026 69.6975 73.1276 69.8895 73.0326 70.2733L72.7476 70.945C72.6526 71.3288 72.8426 71.7126 73.2226 71.9045Z" fill="white" stroke="#263238" stroke-width="0.4597" stroke-miterlimit="10" stroke-linecap="round" stroke-linejoin="round"/>
<path d="M74.4577 68.4501L73.6977 70.4652" stroke="#263238" stroke-width="0.4597" stroke-miterlimit="10" stroke-linecap="round" stroke-linejoin="round"/>
<path d="M72.1776 74.7832C72.5576 74.8791 73.0326 74.7832 73.1276 74.3034L73.4126 73.6317C73.5077 73.2479 73.3176 72.7681 72.9376 72.6722C72.5576 72.5762 72.0826 72.7681 71.9876 73.1519L71.7026 73.8236C71.6076 74.2074 71.7976 74.6872 72.1776 74.7832Z" fill="white" stroke="#263238" stroke-width="0.4597" stroke-miterlimit="10" stroke-linecap="round" stroke-linejoin="round"/>
<path d="M73.4127 71.3288L72.6526 73.4398" stroke="#263238" stroke-width="0.4597" stroke-miterlimit="10" stroke-linecap="round" stroke-linejoin="round"/>
<path d="M86.7134 37.2647C87.1884 37.2647 87.4734 36.8809 87.4734 36.4971V35.7294C87.4734 35.2497 87.0934 34.9618 86.7134 34.9618C86.2383 34.9618 85.9533 35.3456 85.9533 35.7294V36.4971C85.9533 36.8809 86.2383 37.2647 86.7134 37.2647Z" fill="white" stroke="#263238" stroke-width="0.4597" stroke-miterlimit="10" stroke-linecap="round" stroke-linejoin="round"/>
<path d="M86.7134 33.6184V35.8254" stroke="#263238" stroke-width="0.4597" stroke-miterlimit="10" stroke-linecap="round" stroke-linejoin="round"/>
<path d="M86.7134 40.3353C87.1884 40.3353 87.4734 39.9515 87.4734 39.5676V38.8C87.4734 38.3202 87.0934 38.0323 86.7134 38.0323C86.2383 38.0323 85.9533 38.4162 85.9533 38.8V39.5676C85.9533 39.9515 86.2383 40.3353 86.7134 40.3353Z" fill="white" stroke="#263238" stroke-width="0.4597" stroke-miterlimit="10" stroke-linecap="round" stroke-linejoin="round"/>
<path d="M86.7134 36.689V38.8959" stroke="#263238" stroke-width="0.4597" stroke-miterlimit="10" stroke-linecap="round" stroke-linejoin="round"/>
<path d="M86.6184 43.4058C87.0934 43.4058 87.3784 43.022 87.3784 42.6382V41.8705C87.3784 41.3908 86.9984 41.1029 86.6184 41.1029C86.1433 41.1029 85.8583 41.4867 85.8583 41.8705V42.6382C85.8583 43.022 86.1433 43.4058 86.6184 43.4058Z" fill="white" stroke="#263238" stroke-width="0.4597" stroke-miterlimit="10" stroke-linecap="round" stroke-linejoin="round"/>
<path d="M86.7134 39.7596L86.6184 41.9665" stroke="#263238" stroke-width="0.4597" stroke-miterlimit="10" stroke-linecap="round" stroke-linejoin="round"/>
<path d="M86.6184 46.5723C87.0934 46.5723 87.3784 46.1885 87.3784 45.8047V45.037C87.3784 44.5573 86.9984 44.2694 86.6184 44.2694C86.1433 44.2694 85.8583 44.6532 85.8583 45.037V45.8047C85.8583 46.1885 86.1433 46.4764 86.6184 46.5723Z" fill="white" stroke="#263238" stroke-width="0.4597" stroke-miterlimit="10" stroke-linecap="round" stroke-linejoin="round"/>
<path d="M86.6184 42.8301V45.037" stroke="#263238" stroke-width="0.4597" stroke-miterlimit="10" stroke-linecap="round" stroke-linejoin="round"/>
<path d="M86.5234 49.6429C86.9984 49.6429 87.2834 49.2591 87.2834 48.8753V48.1076C87.2834 47.6278 86.9034 47.34 86.5234 47.34C86.0484 47.34 85.7633 47.7238 85.7633 48.1076V48.8753C85.7633 49.2591 86.1434 49.6429 86.5234 49.6429Z" fill="white" stroke="#263238" stroke-width="0.4597" stroke-miterlimit="10" stroke-linecap="round" stroke-linejoin="round"/>
<path d="M86.6183 45.9006L86.5233 48.2036" stroke="#263238" stroke-width="0.4597" stroke-miterlimit="10" stroke-linecap="round" stroke-linejoin="round"/>
<path d="M86.5234 52.7135C86.9984 52.7135 87.2834 52.3297 87.2834 51.9459V51.1782C87.2834 50.6984 86.9034 50.4106 86.5234 50.4106C86.0484 50.4106 85.7633 50.7944 85.7633 51.1782V51.9459C85.7633 52.3297 86.0484 52.7135 86.5234 52.7135Z" fill="white" stroke="#263238" stroke-width="0.4597" stroke-miterlimit="10" stroke-linecap="round" stroke-linejoin="round"/>
<path d="M86.5233 49.0671V51.2741" stroke="#263238" stroke-width="0.4597" stroke-miterlimit="10" stroke-linecap="round" stroke-linejoin="round"/>
<path d="M86.4284 55.7841C86.9034 55.7841 87.1884 55.4002 87.1884 55.0164V54.2488C87.1884 53.769 86.8084 53.4811 86.4284 53.4811C85.9534 53.4811 85.6684 53.865 85.6684 54.2488V55.0164C85.6684 55.4962 86.0484 55.7841 86.4284 55.7841Z" fill="white" stroke="#263238" stroke-width="0.4597" stroke-miterlimit="10" stroke-linecap="round" stroke-linejoin="round"/>
<path d="M86.5233 52.1378L86.4283 54.3447" stroke="#263238" stroke-width="0.4597" stroke-miterlimit="10" stroke-linecap="round" stroke-linejoin="round"/>
<path d="M86.4284 58.9506C86.9034 58.9506 87.1884 58.5667 87.1884 58.1829V57.4153C87.1884 56.9355 86.8084 56.6476 86.4284 56.6476C85.9534 56.6476 85.6684 57.0315 85.6684 57.4153V58.1829C85.6684 58.5667 85.9534 58.9506 86.4284 58.9506Z" fill="white" stroke="#263238" stroke-width="0.4597" stroke-miterlimit="10" stroke-linecap="round" stroke-linejoin="round"/>
<path d="M86.4283 55.2083V57.4153" stroke="#263238" stroke-width="0.4597" stroke-miterlimit="10" stroke-linecap="round" stroke-linejoin="round"/>
<path d="M86.3333 62.0211C86.8083 62.0211 87.0933 61.6373 87.0933 61.2535V60.4858C87.0933 60.0061 86.7133 59.7182 86.3333 59.7182C85.8583 59.7182 85.5732 60.102 85.5732 60.4858V61.2535C85.5732 61.6373 85.9533 62.0211 86.3333 62.0211Z" fill="white" stroke="#263238" stroke-width="0.4597" stroke-miterlimit="10" stroke-linecap="round" stroke-linejoin="round"/>
<path d="M86.4283 58.3748L86.3333 60.5818" stroke="#263238" stroke-width="0.4597" stroke-miterlimit="10" stroke-linecap="round" stroke-linejoin="round"/>
<path d="M86.3333 65.0917C86.8083 65.0917 87.0933 64.7079 87.0933 64.3241V63.5565C87.0933 63.0767 86.7133 62.7888 86.3333 62.7888C85.8583 62.7888 85.5732 63.1726 85.5732 63.5565V64.3241C85.5732 64.7079 85.8583 65.0917 86.3333 65.0917Z" fill="white" stroke="#263238" stroke-width="0.4597" stroke-miterlimit="10" stroke-linecap="round" stroke-linejoin="round"/>
<path d="M86.3333 61.4454V63.6523" stroke="#263238" stroke-width="0.4597" stroke-miterlimit="10" stroke-linecap="round" stroke-linejoin="round"/>
<path d="M86.2383 68.1622C86.7133 68.1622 86.9984 67.7784 86.9984 67.3946V66.627C86.9984 66.1472 86.6183 65.8593 86.2383 65.8593C85.7633 65.8593 85.4783 66.2431 85.4783 66.627V67.3946C85.4783 67.7784 85.8583 68.1622 86.2383 68.1622Z" fill="white" stroke="#263238" stroke-width="0.4597" stroke-miterlimit="10" stroke-linecap="round" stroke-linejoin="round"/>
<path d="M86.3334 64.516L86.2384 66.723" stroke="#263238" stroke-width="0.4597" stroke-miterlimit="10" stroke-linecap="round" stroke-linejoin="round"/>
<path d="M86.2383 71.2328C86.7133 71.2328 86.9984 70.849 86.9984 70.4652V69.6975C86.9984 69.2177 86.6183 68.9299 86.2383 68.9299C85.7633 68.9299 85.4783 69.3137 85.4783 69.6975V70.4652C85.4783 70.9449 85.7633 71.2328 86.2383 71.2328Z" fill="white" stroke="#263238" stroke-width="0.4597" stroke-miterlimit="10" stroke-linecap="round" stroke-linejoin="round"/>
<path d="M86.2384 67.5865V69.7935" stroke="#263238" stroke-width="0.4597" stroke-miterlimit="10" stroke-linecap="round" stroke-linejoin="round"/>
<path d="M86.1433 74.3034C86.6184 74.3034 86.9034 73.9196 86.9034 73.5358V72.7681C86.9034 72.2883 86.5234 72.0005 86.1433 72.0005C85.6683 72.0005 85.3833 72.3843 85.3833 72.7681V73.5358C85.3833 74.0155 85.7633 74.3034 86.1433 74.3034Z" fill="white" stroke="#263238" stroke-width="0.4597" stroke-miterlimit="10" stroke-linecap="round" stroke-linejoin="round"/>
<path d="M86.2384 70.657L86.1434 72.864" stroke="#263238" stroke-width="0.4597" stroke-miterlimit="10" stroke-linecap="round" stroke-linejoin="round"/>
<path d="M86.1433 77.4699C86.6184 77.4699 86.9034 77.0861 86.9034 76.7023V75.9346C86.9034 75.4549 86.5234 75.167 86.1433 75.167C85.6683 75.167 85.3833 75.5508 85.3833 75.9346V76.7023C85.3833 77.0861 85.6683 77.4699 86.1433 77.4699Z" fill="white" stroke="#263238" stroke-width="0.4597" stroke-miterlimit="10" stroke-linecap="round" stroke-linejoin="round"/>
<path d="M86.1434 73.7277V75.9346" stroke="#263238" stroke-width="0.4597" stroke-miterlimit="10" stroke-linecap="round" stroke-linejoin="round"/>
<path d="M87.2834 78.9092C96.0239 78.9092 103.244 76.8942 103.624 74.3994H70.9426C71.3226 76.9901 78.543 78.9092 87.2834 78.9092Z" fill="#263238" stroke="#263238" stroke-width="0.4597" stroke-miterlimit="10" stroke-linecap="round" stroke-linejoin="round"/>
<path d="M166.233 36.9768C165.853 37.0727 165.378 36.8808 165.283 36.497L164.998 35.8253C164.903 35.4415 165.093 34.9617 165.473 34.8658C165.853 34.7698 166.328 34.9617 166.423 35.3455L166.708 36.0172C166.898 36.401 166.613 36.7849 166.233 36.9768Z" fill="white" stroke="#263238" stroke-width="0.4597" stroke-miterlimit="10" stroke-linecap="round" stroke-linejoin="round"/>
<path d="M165.093 33.5224L165.758 35.5375" stroke="#263238" stroke-width="0.4597" stroke-miterlimit="10" stroke-linecap="round" stroke-linejoin="round"/>
<path d="M167.278 39.8554C166.898 39.9514 166.423 39.7595 166.328 39.3757L166.043 38.704C165.948 38.3202 166.138 37.8404 166.518 37.7444C166.898 37.6485 167.373 37.8404 167.468 38.2242L167.753 38.8959C167.848 39.2797 167.658 39.7595 167.278 39.8554Z" fill="white" stroke="#263238" stroke-width="0.4597" stroke-miterlimit="10" stroke-linecap="round" stroke-linejoin="round"/>
<path d="M166.043 36.4011L166.803 38.5121" stroke="#263238" stroke-width="0.4597" stroke-miterlimit="10" stroke-linecap="round" stroke-linejoin="round"/>
<path d="M168.323 42.83C167.943 42.926 167.468 42.7341 167.373 42.3503L167.088 41.6786C166.993 41.2948 167.183 40.815 167.563 40.719C167.943 40.6231 168.418 40.815 168.513 41.1988L168.798 41.8705C168.893 42.2543 168.703 42.6381 168.323 42.83Z" fill="white" stroke="#263238" stroke-width="0.4597" stroke-miterlimit="10" stroke-linecap="round" stroke-linejoin="round"/>
<path d="M167.088 39.2797L167.848 41.3907" stroke="#263238" stroke-width="0.4597" stroke-miterlimit="10" stroke-linecap="round" stroke-linejoin="round"/>
<path d="M169.273 45.7087C168.893 45.8047 168.418 45.6128 168.323 45.2289L168.038 44.5572C167.943 44.1734 168.133 43.6936 168.513 43.5977C168.893 43.5017 169.368 43.6936 169.463 44.0775L169.748 44.7492C169.938 45.133 169.653 45.6128 169.273 45.7087Z" fill="white" stroke="#263238" stroke-width="0.4597" stroke-miterlimit="10" stroke-linecap="round" stroke-linejoin="round"/>
<path d="M168.038 42.2543L168.798 44.3653" stroke="#263238" stroke-width="0.4597" stroke-miterlimit="10" stroke-linecap="round" stroke-linejoin="round"/>
<path d="M170.318 48.5874C169.938 48.6833 169.463 48.4914 169.368 48.1076L169.083 47.4359C168.988 47.0521 169.178 46.5723 169.558 46.4764C169.938 46.3804 170.413 46.5723 170.508 46.9561L170.793 47.6278C170.888 48.0116 170.698 48.4914 170.318 48.5874Z" fill="white" stroke="#263238" stroke-width="0.4597" stroke-miterlimit="10" stroke-linecap="round" stroke-linejoin="round"/>
<path d="M169.178 45.1329L169.843 47.2439" stroke="#263238" stroke-width="0.4597" stroke-miterlimit="10" stroke-linecap="round" stroke-linejoin="round"/>
<path d="M171.363 51.562C170.983 51.6579 170.508 51.466 170.413 51.0822L170.128 50.4105C170.033 50.0267 170.223 49.5469 170.603 49.451C170.983 49.355 171.458 49.5469 171.553 49.9307L171.838 50.6024C171.933 50.9862 171.743 51.3701 171.363 51.562Z" fill="white" stroke="#263238" stroke-width="0.4597" stroke-miterlimit="10" stroke-linecap="round" stroke-linejoin="round"/>
<path d="M170.128 48.0116L170.888 50.1226" stroke="#263238" stroke-width="0.4597" stroke-miterlimit="10" stroke-linecap="round" stroke-linejoin="round"/>
<path d="M172.408 54.4406C172.028 54.5366 171.553 54.3447 171.458 53.9609L171.173 53.2892C171.078 52.9054 171.268 52.4256 171.648 52.3296C172.028 52.2337 172.503 52.4256 172.598 52.8094L172.883 53.4811C172.978 53.8649 172.788 54.3447 172.408 54.4406Z" fill="white" stroke="#263238" stroke-width="0.4597" stroke-miterlimit="10" stroke-linecap="round" stroke-linejoin="round"/>
<path d="M171.173 50.9863L171.838 53.0973" stroke="#263238" stroke-width="0.4597" stroke-miterlimit="10" stroke-linecap="round" stroke-linejoin="round"/>
<path d="M173.358 57.3193C172.978 57.4153 172.503 57.2233 172.408 56.8395L172.123 56.1678C172.028 55.784 172.218 55.3042 172.598 55.2083C172.978 55.1123 173.453 55.3042 173.548 55.6881L173.833 56.3598C174.023 56.7436 173.738 57.2233 173.358 57.3193Z" fill="white" stroke="#263238" stroke-width="0.4597" stroke-miterlimit="10" stroke-linecap="round" stroke-linejoin="round"/>
<path d="M172.123 53.9608L172.883 55.9759" stroke="#263238" stroke-width="0.4597" stroke-miterlimit="10" stroke-linecap="round" stroke-linejoin="round"/>
<path d="M174.403 60.2938C174.023 60.3898 173.548 60.1979 173.453 59.8141L173.168 59.1424C173.073 58.7586 173.263 58.2788 173.643 58.1828C174.023 58.0869 174.498 58.2788 174.593 58.6626L174.878 59.3343C174.973 59.7181 174.783 60.1019 174.403 60.2938Z" fill="white" stroke="#263238" stroke-width="0.4597" stroke-miterlimit="10" stroke-linecap="round" stroke-linejoin="round"/>
<path d="M173.168 56.8395L173.928 58.9505" stroke="#263238" stroke-width="0.4597" stroke-miterlimit="10" stroke-linecap="round" stroke-linejoin="round"/>
<path d="M175.448 63.2685C175.068 63.3645 174.593 63.1726 174.498 62.7887L174.213 62.1171C174.118 61.7332 174.308 61.2535 174.688 61.1575C175.068 61.0616 175.543 61.2535 175.638 61.6373L175.923 62.309C176.018 62.6928 175.828 63.0766 175.448 63.2685Z" fill="white" stroke="#263238" stroke-width="0.4597" stroke-miterlimit="10" stroke-linecap="round" stroke-linejoin="round"/>
<path d="M174.213 59.7181L174.973 61.8292" stroke="#263238" stroke-width="0.4597" stroke-miterlimit="10" stroke-linecap="round" stroke-linejoin="round"/>
<path d="M176.398 66.1472C176.018 66.2431 175.543 66.0512 175.448 65.6674L175.163 64.9957C175.068 64.6119 175.258 64.1321 175.638 64.0362C176.018 63.9402 176.493 64.1321 176.588 64.5159L176.873 65.1876C177.063 65.5715 176.778 66.0512 176.398 66.1472Z" fill="white" stroke="#263238" stroke-width="0.4597" stroke-miterlimit="10" stroke-linecap="round" stroke-linejoin="round"/>
<path d="M175.163 62.6927L175.923 64.7078" stroke="#263238" stroke-width="0.4597" stroke-miterlimit="10" stroke-linecap="round" stroke-linejoin="round"/>
<path d="M177.443 69.0258C177.063 69.1217 176.588 68.9298 176.493 68.546L176.208 67.8743C176.113 67.4905 176.303 67.0107 176.683 66.9148C177.063 66.8188 177.538 67.0107 177.633 67.3945L177.918 68.0662C178.013 68.4501 177.823 68.9298 177.443 69.0258Z" fill="white" stroke="#263238" stroke-width="0.4597" stroke-miterlimit="10" stroke-linecap="round" stroke-linejoin="round"/>
<path d="M176.208 65.5714L176.968 67.6824" stroke="#263238" stroke-width="0.4597" stroke-miterlimit="10" stroke-linecap="round" stroke-linejoin="round"/>
<path d="M178.488 72.0004C178.108 72.0964 177.633 71.9044 177.538 71.5206L177.253 70.8489C177.158 70.4651 177.348 69.9853 177.728 69.8894C178.108 69.7934 178.583 69.9853 178.678 70.3692L178.963 71.0408C179.058 71.4247 178.868 71.8085 178.488 72.0004Z" fill="white" stroke="#263238" stroke-width="0.4597" stroke-miterlimit="10" stroke-linecap="round" stroke-linejoin="round"/>
<path d="M177.253 68.4501L178.013 70.5611" stroke="#263238" stroke-width="0.4597" stroke-miterlimit="10" stroke-linecap="round" stroke-linejoin="round"/>
<path d="M179.438 74.8791C179.058 74.975 178.583 74.7831 178.488 74.3993L178.203 73.7276C178.108 73.3438 178.298 72.864 178.678 72.768C179.058 72.6721 179.533 72.864 179.628 73.2478L179.913 73.9195C180.103 74.3033 179.913 74.7831 179.438 74.8791Z" fill="white" stroke="#263238" stroke-width="0.4597" stroke-miterlimit="10" stroke-linecap="round" stroke-linejoin="round"/>
<path d="M178.298 71.4247L178.963 73.5357" stroke="#263238" stroke-width="0.4597" stroke-miterlimit="10" stroke-linecap="round" stroke-linejoin="round"/>
<path d="M163.383 36.9768C163.763 37.0728 164.238 36.8809 164.333 36.4971L164.618 35.7294C164.713 35.3456 164.618 34.8658 164.143 34.7699C163.763 34.6739 163.288 34.8658 163.193 35.2497L162.908 35.9213C162.813 36.4011 163.003 36.7849 163.383 36.9768Z" fill="white" stroke="#263238" stroke-width="0.4597" stroke-miterlimit="10" stroke-linecap="round" stroke-linejoin="round"/>
<path d="M164.618 33.4265L163.858 35.5375" stroke="#263238" stroke-width="0.4597" stroke-miterlimit="10" stroke-linecap="round" stroke-linejoin="round"/>
<path d="M162.338 39.8555C162.718 39.9515 163.193 39.8555 163.288 39.3757L163.573 38.704C163.668 38.3202 163.573 37.8405 163.098 37.7445C162.718 37.6485 162.243 37.7445 162.148 38.2243L161.863 38.896C161.768 39.2798 161.958 39.7596 162.338 39.8555Z" fill="white" stroke="#263238" stroke-width="0.4597" stroke-miterlimit="10" stroke-linecap="round" stroke-linejoin="round"/>
<path d="M163.573 36.4011L162.813 38.5121" stroke="#263238" stroke-width="0.4597" stroke-miterlimit="10" stroke-linecap="round" stroke-linejoin="round"/>
<path d="M161.293 42.7341C161.673 42.8301 162.148 42.6381 162.243 42.2543L162.528 41.5826C162.623 41.1988 162.433 40.719 162.053 40.6231C161.673 40.5271 161.198 40.719 161.103 41.1029L160.817 41.7745C160.722 42.1584 160.912 42.6381 161.293 42.7341Z" fill="white" stroke="#263238" stroke-width="0.4597" stroke-miterlimit="10" stroke-linecap="round" stroke-linejoin="round"/>
<path d="M162.528 39.2797L161.863 41.3907" stroke="#263238" stroke-width="0.4597" stroke-miterlimit="10" stroke-linecap="round" stroke-linejoin="round"/>
<path d="M160.342 45.7088C160.722 45.8047 161.198 45.6128 161.293 45.229L161.578 44.5573C161.673 44.1735 161.483 43.6937 161.102 43.5978C160.722 43.5018 160.247 43.6937 160.152 44.0775L159.867 44.7492C159.677 45.133 159.867 45.5169 160.342 45.7088Z" fill="white" stroke="#263238" stroke-width="0.4597" stroke-miterlimit="10" stroke-linecap="round" stroke-linejoin="round"/>
<path d="M161.578 42.1584L160.818 44.2694" stroke="#263238" stroke-width="0.4597" stroke-miterlimit="10" stroke-linecap="round" stroke-linejoin="round"/>
<path d="M159.297 48.5874C159.677 48.6834 160.152 48.4915 160.247 48.1077L160.533 47.436C160.628 47.0521 160.438 46.5724 160.057 46.4764C159.677 46.3805 159.202 46.5724 159.107 46.9562L158.822 47.6279C158.727 48.0117 158.822 48.4915 159.297 48.5874Z" fill="white" stroke="#263238" stroke-width="0.4597" stroke-miterlimit="10" stroke-linecap="round" stroke-linejoin="round"/>
<path d="M160.437 45.1331L159.772 47.2441" stroke="#263238" stroke-width="0.4597" stroke-miterlimit="10" stroke-linecap="round" stroke-linejoin="round"/>
<path d="M158.252 51.4661C158.632 51.562 159.107 51.3701 159.202 50.9863L159.487 50.3146C159.582 49.9308 159.487 49.451 159.012 49.3551C158.632 49.2591 158.157 49.451 158.062 49.8349L157.777 50.5065C157.682 50.8904 157.872 51.3701 158.252 51.4661Z" fill="white" stroke="#263238" stroke-width="0.4597" stroke-miterlimit="10" stroke-linecap="round" stroke-linejoin="round"/>
<path d="M159.487 48.0117L158.727 50.1227" stroke="#263238" stroke-width="0.4597" stroke-miterlimit="10" stroke-linecap="round" stroke-linejoin="round"/>
<path d="M157.207 54.4407C157.587 54.5366 158.062 54.3447 158.157 53.9609L158.442 53.2892C158.537 52.9054 158.347 52.4256 157.967 52.3296C157.587 52.2337 157.112 52.3296 157.017 52.8094L156.732 53.4811C156.637 53.8649 156.827 54.2487 157.207 54.4407Z" fill="white" stroke="#263238" stroke-width="0.4597" stroke-miterlimit="10" stroke-linecap="round" stroke-linejoin="round"/>
<path d="M158.442 50.9863L157.777 53.0013" stroke="#263238" stroke-width="0.4597" stroke-miterlimit="10" stroke-linecap="round" stroke-linejoin="round"/>
<path d="M156.162 57.3193C156.542 57.4153 157.017 57.2234 157.112 56.8395L157.397 56.1679C157.492 55.784 157.397 55.3043 156.922 55.2083C156.542 55.1123 156.067 55.2083 155.972 55.6881L155.687 56.3598C155.592 56.7436 155.782 57.2234 156.162 57.3193Z" fill="white" stroke="#263238" stroke-width="0.4597" stroke-miterlimit="10" stroke-linecap="round" stroke-linejoin="round"/>
<path d="M157.397 53.8649L156.637 55.9759" stroke="#263238" stroke-width="0.4597" stroke-miterlimit="10" stroke-linecap="round" stroke-linejoin="round"/>
<path d="M155.117 60.198C155.497 60.2939 155.972 60.102 156.067 59.7182L156.352 59.0465C156.447 58.6627 156.352 58.1829 155.877 58.087C155.497 57.991 155.022 58.087 154.927 58.5667L154.642 59.2384C154.547 59.6222 154.737 60.102 155.117 60.198Z" fill="white" stroke="#263238" stroke-width="0.4597" stroke-miterlimit="10" stroke-linecap="round" stroke-linejoin="round"/>
<path d="M156.352 56.7436L155.687 58.8546" stroke="#263238" stroke-width="0.4597" stroke-miterlimit="10" stroke-linecap="round" stroke-linejoin="round"/>
<path d="M154.167 63.1726C154.547 63.2685 155.022 63.1726 155.117 62.6928L155.402 62.0211C155.497 61.6373 155.402 61.1575 154.927 61.0616C154.547 60.9656 154.072 61.0616 153.977 61.5414L153.692 62.213C153.502 62.5969 153.787 62.9807 154.167 63.1726Z" fill="white" stroke="#263238" stroke-width="0.4597" stroke-miterlimit="10" stroke-linecap="round" stroke-linejoin="round"/>
<path d="M155.402 59.7182L154.642 61.7333" stroke="#263238" stroke-width="0.4597" stroke-miterlimit="10" stroke-linecap="round" stroke-linejoin="round"/>
<path d="M153.122 66.0512C153.502 66.1472 153.977 66.0512 154.072 65.5715L154.357 64.8998C154.452 64.516 154.357 64.0362 153.882 63.9402C153.502 63.8443 153.027 63.9402 152.932 64.42L152.647 65.0917C152.552 65.4755 152.742 65.9553 153.122 66.0512Z" fill="white" stroke="#263238" stroke-width="0.4597" stroke-miterlimit="10" stroke-linecap="round" stroke-linejoin="round"/>
<path d="M154.357 62.5969L153.597 64.7079" stroke="#263238" stroke-width="0.4597" stroke-miterlimit="10" stroke-linecap="round" stroke-linejoin="round"/>
<path d="M152.077 68.9298C152.457 69.0258 152.932 68.9298 153.027 68.4501L153.312 67.7784C153.407 67.3946 153.312 66.9148 152.837 66.8188C152.457 66.7229 151.982 66.8188 151.887 67.2986L151.602 67.9703C151.507 68.3541 151.697 68.8339 152.077 68.9298Z" fill="white" stroke="#263238" stroke-width="0.4597" stroke-miterlimit="10" stroke-linecap="round" stroke-linejoin="round"/>
<path d="M153.312 65.4755L152.552 67.5865" stroke="#263238" stroke-width="0.4597" stroke-miterlimit="10" stroke-linecap="round" stroke-linejoin="round"/>
<path d="M151.032 71.9045C151.412 72.0005 151.887 71.9045 151.982 71.4247L152.267 70.753C152.362 70.3692 152.172 69.8895 151.792 69.7935C151.412 69.6975 150.937 69.8895 150.842 70.2733L150.557 70.945C150.462 71.3288 150.652 71.7126 151.032 71.9045Z" fill="white" stroke="#263238" stroke-width="0.4597" stroke-miterlimit="10" stroke-linecap="round" stroke-linejoin="round"/>
<path d="M152.267 68.4501L151.602 70.4652" stroke="#263238" stroke-width="0.4597" stroke-miterlimit="10" stroke-linecap="round" stroke-linejoin="round"/>
<path d="M150.082 74.7832C150.462 74.8791 150.937 74.7832 151.032 74.3034L151.317 73.6317C151.412 73.2479 151.222 72.7681 150.842 72.6722C150.462 72.5762 149.987 72.7681 149.892 73.1519L149.607 73.8236C149.417 74.2074 149.607 74.6872 150.082 74.7832Z" fill="white" stroke="#263238" stroke-width="0.4597" stroke-miterlimit="10" stroke-linecap="round" stroke-linejoin="round"/>
<path d="M151.222 71.3288L150.557 73.4398" stroke="#263238" stroke-width="0.4597" stroke-miterlimit="10" stroke-linecap="round" stroke-linejoin="round"/>
<path d="M164.523 37.2647C164.998 37.2647 165.283 36.8809 165.283 36.4971V35.7294C165.283 35.2497 164.903 34.9618 164.523 34.9618C164.048 34.9618 163.763 35.3456 163.763 35.7294V36.4971C163.763 36.8809 164.143 37.2647 164.523 37.2647Z" fill="white" stroke="#263238" stroke-width="0.4597" stroke-miterlimit="10" stroke-linecap="round" stroke-linejoin="round"/>
<path d="M164.618 33.6184L164.523 35.8254" stroke="#263238" stroke-width="0.4597" stroke-miterlimit="10" stroke-linecap="round" stroke-linejoin="round"/>
<path d="M164.523 40.3353C164.998 40.3353 165.283 39.9515 165.283 39.5676V38.8C165.283 38.3202 164.903 38.0323 164.523 38.0323C164.048 38.0323 163.763 38.4162 163.763 38.8V39.5676C163.763 39.9515 164.048 40.3353 164.523 40.3353Z" fill="white" stroke="#263238" stroke-width="0.4597" stroke-miterlimit="10" stroke-linecap="round" stroke-linejoin="round"/>
<path d="M164.523 36.689V38.8959" stroke="#263238" stroke-width="0.4597" stroke-miterlimit="10" stroke-linecap="round" stroke-linejoin="round"/>
<path d="M164.428 43.4058C164.903 43.4058 165.188 43.022 165.188 42.6382V41.8705C165.188 41.3908 164.808 41.1029 164.428 41.1029C163.952 41.1029 163.667 41.4867 163.667 41.8705V42.6382C163.667 43.022 164.048 43.4058 164.428 43.4058Z" fill="white" stroke="#263238" stroke-width="0.4597" stroke-miterlimit="10" stroke-linecap="round" stroke-linejoin="round"/>
<path d="M164.523 39.7596L164.428 41.9665" stroke="#263238" stroke-width="0.4597" stroke-miterlimit="10" stroke-linecap="round" stroke-linejoin="round"/>
<path d="M164.428 46.5723C164.903 46.5723 165.188 46.1885 165.188 45.8047V45.037C165.188 44.5573 164.808 44.2694 164.428 44.2694C163.952 44.2694 163.667 44.6532 163.667 45.037V45.8047C163.667 46.1885 163.952 46.4764 164.428 46.5723Z" fill="white" stroke="#263238" stroke-width="0.4597" stroke-miterlimit="10" stroke-linecap="round" stroke-linejoin="round"/>
<path d="M164.428 42.8301V45.037" stroke="#263238" stroke-width="0.4597" stroke-miterlimit="10" stroke-linecap="round" stroke-linejoin="round"/>
<path d="M164.333 49.6429C164.808 49.6429 165.093 49.2591 165.093 48.8753V48.1076C165.093 47.6278 164.713 47.34 164.333 47.34C163.858 47.34 163.573 47.7238 163.573 48.1076V48.8753C163.573 49.2591 163.953 49.6429 164.333 49.6429Z" fill="white" stroke="#263238" stroke-width="0.4597" stroke-miterlimit="10" stroke-linecap="round" stroke-linejoin="round"/>
<path d="M164.428 45.9006L164.333 48.2036" stroke="#263238" stroke-width="0.4597" stroke-miterlimit="10" stroke-linecap="round" stroke-linejoin="round"/>
<path d="M164.333 52.7135C164.808 52.7135 165.093 52.3297 165.093 51.9459V51.1782C165.093 50.6984 164.713 50.4106 164.333 50.4106C163.858 50.4106 163.573 50.7944 163.573 51.1782V51.9459C163.573 52.3297 163.858 52.7135 164.333 52.7135Z" fill="white" stroke="#263238" stroke-width="0.4597" stroke-miterlimit="10" stroke-linecap="round" stroke-linejoin="round"/>
<path d="M164.333 49.0671V51.2741" stroke="#263238" stroke-width="0.4597" stroke-miterlimit="10" stroke-linecap="round" stroke-linejoin="round"/>
<path d="M164.238 55.7841C164.713 55.7841 164.998 55.4002 164.998 55.0164V54.2488C164.998 53.769 164.618 53.4811 164.238 53.4811C163.763 53.4811 163.478 53.865 163.478 54.2488V55.0164C163.478 55.4962 163.858 55.7841 164.238 55.7841Z" fill="white" stroke="#263238" stroke-width="0.4597" stroke-miterlimit="10" stroke-linecap="round" stroke-linejoin="round"/>
<path d="M164.332 52.1378L164.237 54.3447" stroke="#263238" stroke-width="0.4597" stroke-miterlimit="10" stroke-linecap="round" stroke-linejoin="round"/>
<path d="M164.238 58.9506C164.713 58.9506 164.998 58.5667 164.998 58.1829V57.4153C164.998 56.9355 164.618 56.6476 164.238 56.6476C163.763 56.6476 163.478 57.0315 163.478 57.4153V58.1829C163.478 58.5667 163.763 58.9506 164.238 58.9506Z" fill="white" stroke="#263238" stroke-width="0.4597" stroke-miterlimit="10" stroke-linecap="round" stroke-linejoin="round"/>
<path d="M164.237 55.2083V57.4153" stroke="#263238" stroke-width="0.4597" stroke-miterlimit="10" stroke-linecap="round" stroke-linejoin="round"/>
<path d="M164.238 62.0211C164.713 62.0211 164.998 61.6373 164.998 61.2535V60.4858C164.998 60.0061 164.618 59.7182 164.238 59.7182C163.763 59.7182 163.477 60.102 163.477 60.4858V61.2535C163.382 61.6373 163.763 62.0211 164.238 62.0211Z" fill="white" stroke="#263238" stroke-width="0.4597" stroke-miterlimit="10" stroke-linecap="round" stroke-linejoin="round"/>
<path d="M164.237 58.3748V60.5818" stroke="#263238" stroke-width="0.4597" stroke-miterlimit="10" stroke-linecap="round" stroke-linejoin="round"/>
<path d="M164.142 65.0917C164.618 65.0917 164.903 64.7079 164.903 64.3241V63.5565C164.903 63.0767 164.523 62.7888 164.142 62.7888C163.667 62.7888 163.382 63.1726 163.382 63.5565V64.3241C163.382 64.7079 163.667 65.0917 164.142 65.0917Z" fill="white" stroke="#263238" stroke-width="0.4597" stroke-miterlimit="10" stroke-linecap="round" stroke-linejoin="round"/>
<path d="M164.238 61.4454L164.143 63.6523" stroke="#263238" stroke-width="0.4597" stroke-miterlimit="10" stroke-linecap="round" stroke-linejoin="round"/>
<path d="M164.143 68.1622C164.618 68.1622 164.903 67.7784 164.903 67.3946V66.627C164.903 66.1472 164.523 65.8593 164.143 65.8593C163.668 65.8593 163.383 66.2431 163.383 66.627V67.3946C163.288 67.7784 163.668 68.1622 164.143 68.1622Z" fill="white" stroke="#263238" stroke-width="0.4597" stroke-miterlimit="10" stroke-linecap="round" stroke-linejoin="round"/>
<path d="M164.143 64.516V66.723" stroke="#263238" stroke-width="0.4597" stroke-miterlimit="10" stroke-linecap="round" stroke-linejoin="round"/>
<path d="M164.048 71.2328C164.523 71.2328 164.808 70.849 164.808 70.4652V69.6975C164.808 69.2177 164.428 68.9299 164.048 68.9299C163.572 68.9299 163.287 69.3137 163.287 69.6975V70.4652C163.287 70.9449 163.667 71.2328 164.048 71.2328Z" fill="white" stroke="#263238" stroke-width="0.4597" stroke-miterlimit="10" stroke-linecap="round" stroke-linejoin="round"/>
<path d="M164.143 67.5865L164.048 69.7935" stroke="#263238" stroke-width="0.4597" stroke-miterlimit="10" stroke-linecap="round" stroke-linejoin="round"/>
<path d="M164.048 74.3034C164.523 74.3034 164.808 73.9196 164.808 73.5358V72.7681C164.808 72.2883 164.428 72.0005 164.048 72.0005C163.572 72.0005 163.287 72.3843 163.287 72.7681V73.5358C163.192 74.0155 163.572 74.3034 164.048 74.3034Z" fill="white" stroke="#263238" stroke-width="0.4597" stroke-miterlimit="10" stroke-linecap="round" stroke-linejoin="round"/>
<path d="M164.048 70.657V72.864" stroke="#263238" stroke-width="0.4597" stroke-miterlimit="10" stroke-linecap="round" stroke-linejoin="round"/>
<path d="M163.953 77.4699C164.428 77.4699 164.713 77.0861 164.713 76.7023V75.9346C164.713 75.4549 164.333 75.167 163.953 75.167C163.478 75.167 163.193 75.5508 163.193 75.9346V76.7023C163.193 77.0861 163.573 77.4699 163.953 77.4699Z" fill="white" stroke="#263238" stroke-width="0.4597" stroke-miterlimit="10" stroke-linecap="round" stroke-linejoin="round"/>
<path d="M164.048 73.7277L163.953 75.9346" stroke="#263238" stroke-width="0.4597" stroke-miterlimit="10" stroke-linecap="round" stroke-linejoin="round"/>
<path d="M165.093 78.9092C173.833 78.9092 181.053 76.8942 181.434 74.3994H148.752C149.132 76.9901 156.257 78.9092 165.093 78.9092Z" fill="#263238" stroke="#263238" stroke-width="0.4597" stroke-miterlimit="10" stroke-linecap="round" stroke-linejoin="round"/>
<path d="M139.821 139.649H109.99V143.391H139.821V139.649Z" fill="#263238" stroke="#263238" stroke-width="0.4597" stroke-miterlimit="10" stroke-linecap="round" stroke-linejoin="round"/>
<path d="M162.242 142.815H89.2785V147.997H162.242V142.815Z" fill="#263238" stroke="#263238" stroke-width="0.4597" stroke-miterlimit="10" stroke-linecap="round" stroke-linejoin="round"/>
<path d="M121.96 170.259H52.8916C51.5616 170.259 50.4215 169.203 50.4215 167.764V150.108C50.4215 148.765 51.4666 147.613 52.8916 147.613H122.055V170.259H121.96Z" fill="white" stroke="#263238" stroke-width="0.4597" stroke-miterlimit="10" stroke-linecap="round" stroke-linejoin="round"/>
<path d="M114.17 147.709H108.185V170.259H114.17V147.709Z" fill="#263238" stroke="#263238" stroke-width="0.4597" stroke-miterlimit="10" stroke-linecap="round" stroke-linejoin="round"/>
<path d="M60.302 147.709H55.3617V170.259H60.302V147.709Z" fill="#263238" stroke="#263238" stroke-width="0.4597" stroke-miterlimit="10" stroke-linecap="round" stroke-linejoin="round"/>
<path d="M190.934 150.108H123.765V167.764H190.934V150.108Z" fill="#E8E8E8" stroke="#263238" stroke-width="0.4597" stroke-miterlimit="10" stroke-linecap="round" stroke-linejoin="round"/>
<path d="M124.715 166.612V151.259H191.504C192.549 151.259 193.309 150.492 193.309 149.436C193.309 148.381 192.549 147.613 191.504 147.613H121.675V170.163H191.504C192.549 170.163 193.309 169.395 193.309 168.339C193.309 167.284 192.549 166.516 191.504 166.516L124.715 166.612Z" fill="white" stroke="#263238" stroke-width="0.4597" stroke-miterlimit="10" stroke-linecap="round" stroke-linejoin="round"/>
<path d="M125.475 154.906H150.747" stroke="#263238" stroke-width="0.4597" stroke-miterlimit="10" stroke-linecap="round" stroke-linejoin="round"/>
<path d="M135.356 156.345H168.703" stroke="#263238" stroke-width="0.4597" stroke-miterlimit="10" stroke-linecap="round" stroke-linejoin="round"/>
<path d="M125.475 160.951H148.752" stroke="#263238" stroke-width="0.4597" stroke-miterlimit="10" stroke-linecap="round" stroke-linejoin="round"/>
<path d="M125.095 163.158H134.691" stroke="#263238" stroke-width="0.4597" stroke-miterlimit="10" stroke-linecap="round" stroke-linejoin="round"/>
<path d="M125.095 158.456H131.461" stroke="#263238" stroke-width="0.4597" stroke-miterlimit="10" stroke-linecap="round" stroke-linejoin="round"/>
<path d="M153.027 154.234H158.252" stroke="#263238" stroke-width="0.4597" stroke-miterlimit="10" stroke-linecap="round" stroke-linejoin="round"/>
<path d="M137.446 163.446H145.047" stroke="#263238" stroke-width="0.4597" stroke-miterlimit="10" stroke-linecap="round" stroke-linejoin="round"/>
<path d="M152.077 158.84H185.424" stroke="#263238" stroke-width="0.4597" stroke-miterlimit="10" stroke-linecap="round" stroke-linejoin="round"/>
<path d="M124.525 193.192H55.3617C54.0317 193.192 52.8916 192.136 52.8916 190.697V173.041C52.8916 171.698 53.9367 170.546 55.3617 170.546H124.525V193.192Z" fill="white" stroke="#263238" stroke-width="0.4597" stroke-miterlimit="10" stroke-linecap="round" stroke-linejoin="round"/>
<path d="M116.64 170.642H110.655V193.192H116.64V170.642Z" fill="#263238" stroke="#263238" stroke-width="0.4597" stroke-miterlimit="10" stroke-linecap="round" stroke-linejoin="round"/>
<path d="M62.8672 170.642H57.9269V193.192H62.8672V170.642Z" fill="#263238" stroke="#263238" stroke-width="0.4597" stroke-miterlimit="10" stroke-linecap="round" stroke-linejoin="round"/>
<path d="M193.499 173.041H126.331V190.697H193.499V173.041Z" fill="#E8E8E8" stroke="#263238" stroke-width="0.4597" stroke-miterlimit="10" stroke-linecap="round" stroke-linejoin="round"/>
<path d="M127.281 189.546V174.193H194.069C195.114 174.193 195.874 173.425 195.874 172.37C195.874 171.314 195.114 170.546 194.069 170.546H124.24V193.096H194.069C195.114 193.096 195.874 192.328 195.874 191.273C195.874 190.217 195.114 189.45 194.069 189.45L127.281 189.546Z" fill="#D4D4D4" stroke="#263238" stroke-width="0.4597" stroke-miterlimit="10" stroke-linecap="round" stroke-linejoin="round"/>
<path d="M127.946 177.839H153.312" stroke="#263238" stroke-width="0.4597" stroke-miterlimit="10" stroke-linecap="round" stroke-linejoin="round"/>
<path d="M137.826 179.278H171.268" stroke="#263238" stroke-width="0.4597" stroke-miterlimit="10" stroke-linecap="round" stroke-linejoin="round"/>
<path d="M127.946 183.884H151.222" stroke="#263238" stroke-width="0.4597" stroke-miterlimit="10" stroke-linecap="round" stroke-linejoin="round"/>
<path d="M127.566 186.091H137.256" stroke="#263238" stroke-width="0.4597" stroke-miterlimit="10" stroke-linecap="round" stroke-linejoin="round"/>
<path d="M127.566 181.389H133.931" stroke="#263238" stroke-width="0.4597" stroke-miterlimit="10" stroke-linecap="round" stroke-linejoin="round"/>
<path d="M155.592 177.263H160.722" stroke="#263238" stroke-width="0.4597" stroke-miterlimit="10" stroke-linecap="round" stroke-linejoin="round"/>
<path d="M139.916 186.379H147.517" stroke="#263238" stroke-width="0.4597" stroke-miterlimit="10" stroke-linecap="round" stroke-linejoin="round"/>
<path d="M154.547 181.773H187.989" stroke="#263238" stroke-width="0.4597" stroke-miterlimit="10" stroke-linecap="round" stroke-linejoin="round"/>
<path d="M42.5359 48.0117C42.5359 48.0117 40.2558 48.0117 39.6858 49.7389C39.1157 51.5621 39.6858 53.3852 37.6907 53.4812C35.7906 53.5771 33.2254 52.4257 31.8953 55.1124C30.5653 57.7991 31.8953 59.5263 31.8953 60.3899C31.8953 61.2535 30.8503 60.7738 30.6603 62.5009C30.5653 64.2281 32.8454 65.8594 35.1255 65.8594C37.5006 65.8594 47.6662 60.1021 48.2362 59.8142C48.8063 59.5263 48.5212 49.1632 48.5212 49.1632L42.5359 48.0117Z" fill="#263238" stroke="#263238" stroke-width="0.4597" stroke-miterlimit="10" stroke-linecap="round" stroke-linejoin="round"/>
<path d="M29.3303 77.278L29.2353 76.8942C29.2353 76.8942 31.0404 67.0108 31.4204 65.9553C31.7054 64.9957 32.5605 64.8998 32.5605 64.8998L36.1706 85.1463L32.5605 92.9187C32.4655 93.3985 32.2754 93.6863 32.1804 93.5904C31.8954 93.3985 25.8151 93.4944 25.8151 93.4944L29.3303 77.278Z" fill="#ED1B23" stroke="#263238" stroke-width="0.4597" stroke-miterlimit="10" stroke-linecap="round" stroke-linejoin="round"/>
<path d="M43.391 193.384C43.391 193.384 43.771 194.919 42.726 197.702C41.6809 200.484 39.2108 202.02 37.3107 202.02C35.4106 202.02 34.8406 199.237 34.4605 197.318C33.9855 195.399 34.7456 191.849 34.7456 191.849L43.391 193.384Z" fill="#263238" stroke="#263238" stroke-width="0.4597" stroke-miterlimit="10" stroke-linecap="round" stroke-linejoin="round"/>
<path d="M61.8219 191.081C61.8219 191.081 64.6721 191.657 67.7123 195.687C70.2774 198.949 70.2774 199.429 68.5673 199.717C66.8572 200.005 62.202 200.005 60.2069 198.565C58.2118 197.126 57.7367 195.399 57.2617 195.207C56.7867 195.111 51.9414 194.919 53.4615 190.793C54.4116 187.914 61.8219 191.081 61.8219 191.081Z" fill="#263238" stroke="#263238" stroke-width="0.4597" stroke-miterlimit="10" stroke-linecap="round" stroke-linejoin="round"/>
<path d="M67.4273 109.327C67.4273 109.327 68.5673 113.261 68.8523 118.635C69.0424 124.008 67.7123 127.559 67.0473 131.493C66.3822 135.427 62.677 153.754 64.6721 161.335C65.4322 164.309 67.3323 186.091 67.3323 187.531C67.3323 188.97 67.3323 192.424 67.3323 192.424C67.3323 192.424 60.8719 193.384 58.7818 193.576C56.6917 193.768 51.6564 192.616 51.6564 192.616C51.6564 192.616 52.6065 159.896 52.6065 150.204C52.6065 140.417 51.9414 129.574 51.9414 129.574L52.0364 122.953C52.0364 122.953 51.2764 132.836 51.2764 137.442C51.2764 142.048 49.0913 153.754 49.0913 153.754C49.0913 153.754 46.8112 179.758 47.0012 181.102C47.1912 182.445 45.6711 193.96 45.6711 193.96L41.3959 194.823H36.1706L32.2754 193.48C32.2754 193.48 32.3704 185.899 33.3204 175.92C34.2705 165.941 37.5957 156.729 38.4507 150.972C39.4008 145.214 33.2254 128.134 33.2254 120.746C33.2254 113.357 35.7906 106.353 35.7906 106.353L66.2872 106.544L67.4273 109.327Z" fill="#263238" stroke="#263238" stroke-width="0.4597" stroke-miterlimit="10" stroke-linecap="round" stroke-linejoin="round"/>
<path d="M66.4772 111.054C66.4772 111.054 58.1168 114.509 55.6467 114.029C53.2715 113.453 51.9415 108.751 51.9415 108.751C51.9415 108.751 52.9865 113.357 50.0414 114.125C47.0962 114.892 35.6006 110.575 35.6006 110.575L52.3215 102.61L66.4772 111.054Z" fill="#263238" stroke="#263238" stroke-width="0.4597" stroke-miterlimit="10" stroke-linecap="round" stroke-linejoin="round"/>
<path d="M55.2666 118.443C54.6965 118.923 54.2215 119.402 53.8415 119.498" stroke="#263238" stroke-width="0.4597" stroke-miterlimit="10" stroke-linecap="round" stroke-linejoin="round"/>
<path d="M58.4968 114.701C58.4968 114.701 57.5468 115.948 56.4067 117.195" stroke="#263238" stroke-width="0.4597" stroke-miterlimit="10" stroke-linecap="round" stroke-linejoin="round"/>
<path d="M63.2471 152.411C63.2471 152.411 61.537 161.719 61.252 162.678" stroke="#263238" stroke-width="0.4597" stroke-miterlimit="10" stroke-linecap="round" stroke-linejoin="round"/>
<path d="M63.5321 188.394C63.1521 183.308 62.582 174.385 62.582 169.875" stroke="#263238" stroke-width="0.4597" stroke-miterlimit="10" stroke-linecap="round" stroke-linejoin="round"/>
<path d="M63.8171 192.232C63.8171 192.232 63.8171 191.561 63.722 190.505" stroke="#263238" stroke-width="0.4597" stroke-miterlimit="10" stroke-linecap="round" stroke-linejoin="round"/>
<path d="M60.9669 154.618C61.1569 150.684 61.4419 144.83 61.4419 139.841" stroke="#263238" stroke-width="0.4597" stroke-miterlimit="10" stroke-linecap="round" stroke-linejoin="round"/>
<path d="M60.6819 159.032C60.6819 159.032 60.777 157.976 60.872 156.153" stroke="#263238" stroke-width="0.4597" stroke-miterlimit="10" stroke-linecap="round" stroke-linejoin="round"/>
<path d="M42.2509 175.536C42.0609 176.688 41.8709 177.647 41.7759 178.127" stroke="#263238" stroke-width="0.4597" stroke-miterlimit="10" stroke-linecap="round" stroke-linejoin="round"/>
<path d="M46.2412 137.826C46.4312 142.624 46.6212 150.588 45.9562 153.946C45.1961 157.593 43.676 167.668 42.631 173.713" stroke="#263238" stroke-width="0.4597" stroke-miterlimit="10" stroke-linecap="round" stroke-linejoin="round"/>
<path d="M46.0511 133.892C46.0511 133.892 46.0511 134.659 46.1461 136.003" stroke="#263238" stroke-width="0.4597" stroke-miterlimit="10" stroke-linecap="round" stroke-linejoin="round"/>
<path d="M40.6359 183.404C40.6359 183.404 39.4008 191.657 39.4008 192.136" stroke="#263238" stroke-width="0.4597" stroke-miterlimit="10" stroke-linecap="round" stroke-linejoin="round"/>
<path d="M49.3763 117.579C49.3763 117.579 46.3361 114.701 42.9159 113.933" stroke="#263238" stroke-width="0.4597" stroke-miterlimit="10" stroke-linecap="round" stroke-linejoin="round"/>
<path d="M55.9317 58.3749L68.3774 63.5565L63.4371 90.3279L69.2324 109.615C69.2324 109.615 63.6271 112.59 60.587 112.973C57.4518 113.453 54.8867 113.069 54.0316 111.15C53.1766 109.231 52.5115 106.065 52.5115 106.065C52.5115 106.065 51.8465 112.685 50.7064 113.069C50.1364 113.261 49.3764 113.453 48.7113 113.549C47.8563 113.645 46.9062 113.645 46.0512 113.453L32.6555 109.999L37.5007 91.1915C37.5007 91.1915 31.8004 65.5715 32.6555 64.8998C33.4155 64.2282 45.1012 58.2789 45.1012 58.2789L55.9317 58.3749Z" fill="#ED1B23" stroke="#263238" stroke-width="0.4597" stroke-miterlimit="10" stroke-linecap="round" stroke-linejoin="round"/>
<path d="M55.2666 57.2234C55.2666 57.2234 56.4066 57.991 56.4066 59.1425C56.4066 60.294 55.4566 74.1115 54.6016 78.7173C53.7465 83.3232 51.8464 89.5603 51.8464 89.5603C51.8464 89.5603 46.3361 72.7681 45.5761 67.6825C44.816 62.6928 43.866 59.8142 44.911 58.2789C45.9561 56.7436 46.5261 56.8396 46.5261 56.8396L55.2666 57.2234Z" fill="white" stroke="#263238" stroke-width="0.4597" stroke-miterlimit="10" stroke-linecap="round" stroke-linejoin="round"/>
<path d="M55.2665 55.6881C55.2665 55.6881 54.9815 57.1274 55.4565 59.4304C55.9316 61.7333 55.5516 63.1726 54.3165 64.9958C53.0814 66.8189 52.0364 67.2987 52.0364 67.2987C52.0364 67.2987 48.7112 67.2987 47.3811 63.5564C46.051 59.9101 46.146 56.6477 46.146 56.6477L46.9061 51.0823L55.2665 55.6881Z" fill="#D4D4D4" stroke="#263238" stroke-width="0.4597" stroke-miterlimit="10" stroke-linecap="round" stroke-linejoin="round"/>
<path d="M49.8513 54.9205L55.4566 59.5263L55.2666 55.6881L49.8513 54.9205Z" fill="#263238" stroke="#263238" stroke-width="0.4597" stroke-miterlimit="10" stroke-linecap="round" stroke-linejoin="round"/>
<path d="M55.8367 66.9149C55.8367 66.9149 55.6467 65.5715 55.1716 65.6674C54.6016 65.7634 52.0365 67.3946 52.0365 67.3946" stroke="#263238" stroke-width="0.4597" stroke-miterlimit="10" stroke-linecap="round" stroke-linejoin="round"/>
<path d="M49.7564 67.1068L47.3812 66.0513C47.3812 66.0513 46.3362 63.8443 46.1462 64.516C45.8611 65.2836 45.8611 66.627 45.8611 66.627" stroke="#263238" stroke-width="0.4597" stroke-miterlimit="10" stroke-linecap="round" stroke-linejoin="round"/>
<path d="M56.3118 35.7295C56.3118 35.7295 57.7369 36.3052 58.4969 39.6636C59.257 43.0221 59.732 45.229 59.732 47.0522C59.732 48.8753 58.1169 55.1124 56.8818 55.7841C55.6468 56.4558 53.9367 56.5518 52.2266 55.8801C50.4215 55.2084 47.5713 54.1529 46.9063 53.0974C46.2413 52.0419 45.7662 50.7944 45.7662 50.7944C45.7662 50.7944 43.8661 50.1228 43.2011 49.1632C42.6311 48.2996 42.1561 46.7643 42.6311 45.8048C43.0111 44.8452 41.871 41.9666 42.6311 38.896C43.3911 35.8254 47.1913 33.8104 50.0415 33.5225C53.0816 33.6185 55.7418 34.8659 56.3118 35.7295Z" fill="#D4D4D4" stroke="#263238" stroke-width="0.4597" stroke-miterlimit="10" stroke-linecap="round" stroke-linejoin="round"/>
<path d="M55.7418 43.7897C55.7418 43.7897 55.4568 44.1735 55.6468 44.8452C55.8368 45.6128 57.0719 46.9562 57.0719 46.9562" stroke="#263238" stroke-width="0.4597" stroke-miterlimit="10" stroke-linecap="round" stroke-linejoin="round"/>
<path d="M42.7261 39.0879C43.4862 36.0173 47.2864 34.0022 50.1365 33.7144C53.0817 33.5225 55.7418 34.7699 56.3118 35.7294C56.3118 35.7294 57.7369 36.3052 58.497 39.6636L56.1218 37.5526C56.1218 37.5526 53.6517 36.2092 52.3216 36.4011C50.9916 36.4971 49.9465 37.0728 49.5665 38.4162C49.2815 39.6636 49.9465 40.4312 47.8564 42.3503C47.3814 42.7342 47.0014 43.2139 46.7163 43.6937C46.4313 44.2694 46.5263 45.133 45.9563 45.7088C45.5763 46.0926 45.6713 46.9562 44.9112 46.4764C44.1512 45.9966 44.0562 45.4209 43.6762 45.3249C43.2962 45.3249 42.8211 45.5169 42.8211 45.5169H42.7261C42.8211 44.2694 42.0611 41.7746 42.7261 39.0879Z" fill="#263238" stroke="#263238" stroke-width="0.4597" stroke-miterlimit="10" stroke-linecap="round" stroke-linejoin="round"/>
<path d="M52.3216 36.4011C52.3216 36.4011 53.9367 35.6335 54.9817 36.785C56.0268 37.9364 55.5518 38.896 56.5968 39.9515C57.6419 41.007 59.067 41.8706 59.067 41.8706L59.352 43.3099C59.352 43.3099 61.3471 41.9665 60.8721 39.9515C60.397 37.9364 58.6869 37.3607 58.3069 36.5931C58.0219 35.7295 58.6869 34.0023 55.5518 33.2346C52.4166 32.371 50.8965 32.0832 50.1365 33.8104C49.2814 35.5375 52.3216 36.4011 52.3216 36.4011Z" fill="#263238" stroke="#263238" stroke-width="0.4597" stroke-miterlimit="10" stroke-linecap="round" stroke-linejoin="round"/>
<path d="M56.9768 47.8198C56.9768 47.8198 56.6918 48.3956 56.2168 48.4915" stroke="#263238" stroke-width="0.4597" stroke-miterlimit="10" stroke-linecap="round" stroke-linejoin="round"/>
<path d="M57.2618 50.6985C57.2618 50.6985 54.5067 51.2742 52.8916 49.8349" stroke="#263238" stroke-width="0.4597" stroke-miterlimit="10" stroke-linecap="round" stroke-linejoin="round"/>
<path d="M52.4166 45.1331C52.7314 45.1331 52.9866 44.7894 52.9866 44.3654C52.9866 43.9415 52.7314 43.5978 52.4166 43.5978C52.1018 43.5978 51.8466 43.9415 51.8466 44.3654C51.8466 44.7894 52.1018 45.1331 52.4166 45.1331Z" fill="#263238"/>
<path d="M57.6419 45.229C57.9567 45.229 58.2119 44.8853 58.2119 44.4614C58.2119 44.0374 57.9567 43.6937 57.6419 43.6937C57.3271 43.6937 57.0718 44.0374 57.0718 44.4614C57.0718 44.8853 57.3271 45.229 57.6419 45.229Z" fill="#263238"/>
<path d="M53.5567 42.4463C53.5567 42.4463 52.3216 41.007 50.3265 42.6383" stroke="#263238" stroke-width="0.4597" stroke-miterlimit="10" stroke-linecap="round" stroke-linejoin="round"/>
<path d="M56.1218 42.9261C56.1218 42.9261 57.8319 41.5827 58.9719 43.0221" stroke="#263238" stroke-width="0.4597" stroke-miterlimit="10" stroke-linecap="round" stroke-linejoin="round"/>
<path d="M46.3362 69.9854L27.3352 68.0663L27.9052 70.6571L44.6261 74.5913L46.3362 69.9854Z" fill="white" stroke="#263238" stroke-width="0.4597" stroke-miterlimit="10" stroke-linecap="round" stroke-linejoin="round"/>
<path d="M42.1561 72.1924L26.6702 68.738L34.4606 97.1408L49.6615 102.514L42.1561 72.1924Z" fill="#263238" stroke="#263238" stroke-width="0.4597" stroke-miterlimit="10" stroke-linecap="round" stroke-linejoin="round"/>
<path d="M44.9112 70.5611L28.1903 68.642" stroke="#263238" stroke-width="0.4597" stroke-miterlimit="10" stroke-linecap="round" stroke-linejoin="round"/>
<path d="M43.011 71.5207L33.5105 69.7935" stroke="#263238" stroke-width="0.4597" stroke-miterlimit="10" stroke-linecap="round" stroke-linejoin="round"/>
<path d="M46.3363 69.9854L53.2717 101.075L49.6615 102.514L42.1561 72.1924L46.3363 69.9854Z" fill="#9C9C9C" stroke="#263238" stroke-width="0.4597" stroke-miterlimit="10" stroke-linecap="round" stroke-linejoin="round"/>
<path d="M39.8758 86.4897C39.8758 86.4897 40.0658 84.8585 41.4909 84.0908C42.821 83.4192 44.9111 83.4192 46.2412 83.0353C47.5712 82.6515 47.5712 83.1313 47.2862 83.803C47.0012 84.4747 47.0012 84.8585 46.2412 85.0504C45.5761 85.1464 45.0061 85.3383 45.0061 85.3383L47.5712 85.4342C47.5712 85.4342 50.2314 84.5706 50.6114 84.3787C51.0864 84.0908 51.4665 84.4747 51.3714 85.0504C51.3714 85.6261 51.3714 85.6261 51.3714 85.6261L51.8465 86.9695L51.5615 87.9291C51.5615 87.9291 51.5615 88.8886 51.5615 89.2724C51.4665 89.5603 49.9464 91.8632 49.1863 92.343C48.5213 92.9187 46.8112 93.3025 46.8112 93.3025C46.8112 93.3025 42.726 92.7268 42.441 92.7268C42.156 92.7268 40.4459 93.6864 40.4459 93.6864L39.5908 89.3684L39.8758 86.4897Z" fill="#D4D4D4" stroke="#263238" stroke-width="0.4597" stroke-miterlimit="10" stroke-linecap="round" stroke-linejoin="round"/>
<path d="M51.2764 85.4342C51.2764 85.4342 49.6613 86.6816 48.1413 87.1614C46.6212 87.7371 46.0511 87.8331 46.0511 87.8331" stroke="#263238" stroke-width="0.4597" stroke-miterlimit="10" stroke-linecap="round" stroke-linejoin="round"/>
<path d="M51.4664 87.7371C51.4664 87.7371 49.0913 89.3684 48.2362 89.7522C47.3812 90.136 46.6212 90.3279 46.6212 90.3279" stroke="#263238" stroke-width="0.4597" stroke-miterlimit="10" stroke-linecap="round" stroke-linejoin="round"/>
<path d="M50.4214 90.136C50.4214 90.136 48.6163 91.4794 47.0962 91.6713" stroke="#263238" stroke-width="0.4597" stroke-miterlimit="10" stroke-linecap="round" stroke-linejoin="round"/>
<path d="M44.9111 85.2422L42.2509 85.4323" stroke="#263238" stroke-width="0.4597" stroke-miterlimit="10" stroke-linecap="round" stroke-linejoin="round"/>
<path d="M39.6858 88.5048C39.6858 88.5048 30.9454 89.8482 29.8053 90.0401C28.6652 90.232 26.5751 90.9997 25.8151 93.3985C25.1501 95.7974 27.1452 98.5801 28.6652 99.0599C30.2803 99.5397 41.0159 96.2772 41.0159 96.2772L39.6858 88.5048Z" fill="#ED1B23" stroke="#263238" stroke-width="0.4597" stroke-miterlimit="10" stroke-linecap="round" stroke-linejoin="round"/>
<path d="M68.3774 63.5565L77.1178 90.4239L67.5223 92.1511L65.2422 79.485L68.3774 63.5565Z" fill="#ED1B23" stroke="#263238" stroke-width="0.4597" stroke-miterlimit="10" stroke-linecap="round" stroke-linejoin="round"/>
<path d="M55.1716 94.8378L54.1265 91.6713C54.1265 91.6713 53.2715 90.7117 52.4164 89.6562C51.5614 88.6967 51.4664 87.4492 51.0864 88.6007C50.7064 89.6562 50.9914 91.0955 51.4664 91.5753C51.9414 92.0551 52.0364 92.6308 52.0364 92.9187C52.0364 93.2065 52.0364 93.5904 52.0364 93.5904C52.0364 93.5904 49.6613 93.5904 48.6162 93.6863C47.5712 93.7823 45.5761 94.8378 45.5761 95.3176C45.5761 95.7973 46.1461 96.2771 46.1461 96.2771C46.1461 96.2771 45.1961 96.8528 45.4811 97.3326C45.6711 97.8124 46.1461 97.9084 46.1461 97.9084C46.1461 97.9084 45.7661 98.58 46.1461 98.7719C46.5261 98.8679 47.0962 99.1558 47.0962 99.1558C47.0962 99.1558 47.6662 100.211 47.9512 100.307C48.2362 100.403 52.2264 101.363 53.2715 101.555C54.3165 101.747 56.7867 100.595 56.7867 100.595L59.1618 100.499L58.1168 96.469C58.1168 96.469 57.1667 95.0297 57.0717 94.9337C56.5967 94.9337 55.1716 94.8378 55.1716 94.8378Z" fill="#D4D4D4" stroke="#263238" stroke-width="0.4597" stroke-miterlimit="10" stroke-linecap="round" stroke-linejoin="round"/>
<path d="M46.051 96.2771C46.051 96.2771 48.4262 95.6054 48.8062 95.6054C49.0912 95.6054 51.3713 95.3176 51.3713 95.3176" stroke="#263238" stroke-width="0.4597" stroke-miterlimit="10" stroke-linecap="round" stroke-linejoin="round"/>
<path d="M46.051 97.9084C46.051 97.9084 47.8561 98.0043 48.3311 98.0043C48.8062 98.0043 51.4663 97.4286 51.4663 97.4286" stroke="#263238" stroke-width="0.4597" stroke-miterlimit="10" stroke-linecap="round" stroke-linejoin="round"/>
<path d="M46.9061 99.1558C46.9061 99.1558 47.9512 99.5396 48.1412 99.5396C48.3312 99.5396 51.9414 99.5396 51.9414 99.5396" stroke="#263238" stroke-width="0.4597" stroke-miterlimit="10" stroke-linecap="round" stroke-linejoin="round"/>
<path d="M71.5125 88.9846L56.7867 95.0298L60.0169 104.529C60.0169 104.529 73.7926 97.4286 75.9777 95.2217C78.1629 93.1107 77.4978 89.7522 76.2628 88.7927C75.0277 87.8331 74.4577 87.8331 74.4577 87.8331" fill="#ED1B23"/>
<path d="M71.5125 88.9846L56.7867 95.0298L60.0169 104.529C60.0169 104.529 73.7926 97.4286 75.9777 95.2217C78.1629 93.1107 77.4978 89.7522 76.2628 88.7927C75.0277 87.8331 74.4577 87.8331 74.4577 87.8331" stroke="#263238" stroke-width="0.4597" stroke-miterlimit="10" stroke-linecap="round" stroke-linejoin="round"/>
<path d="M59.1619 60.5818L60.872 62.213L59.5419 63.3645L61.442 65.8593C61.442 65.8593 59.7319 76.3184 57.4518 81.596C55.0766 86.7775 53.8416 88.6966 53.8416 88.6966" stroke="#263238" stroke-width="0.4597" stroke-miterlimit="10" stroke-linecap="round" stroke-linejoin="round"/>
<path d="M41.776 60.2939L39.9709 63.1726L41.871 64.42L40.0659 66.2432L41.5859 68.9299" stroke="#263238" stroke-width="0.4597" stroke-miterlimit="10" stroke-linecap="round" stroke-linejoin="round"/>
</g>
<defs>
<clipPath id="clip0_4131_18948">
<rect width="218" height="202" fill="white"/>
</clipPath>
</defs>
</svg>
