<svg width="2004" height="899" viewBox="0 0 2004 899" fill="none" xmlns="http://www.w3.org/2000/svg">
<g clip-path="url(#clip0_1_9)">
<path d="M1998.1 6H6V735.6H1998.1V6Z" fill="#FCD21C" stroke="#ED1B23" stroke-width="12" stroke-miterlimit="10"/>
<path d="M284.9 101.7V116.3C279.9 117.7 275.8 119.4 272.9 120.9C270 122.8 267.6 125 265.9 128.1C264.5 131 263.3 134.6 262.8 139.4C262.3 144 262.1 149.7 262.1 156.9V376.2H303.1C311.3 376.2 317.7 375 322.5 372.4C327.5 369.5 331.6 365.4 335.2 359.9C338.8 354.6 341.9 347.4 344.6 338.5C347.2 329.6 349.4 321.2 350.8 313.3H379.6L375 402.3H174.3V387.9C179.6 386.2 183.7 384.8 186.5 382.9C189.6 381.2 191.8 378.8 193.2 375.9C194.6 372.8 195.6 368.9 196.1 364.4C196.6 359.8 196.8 353.8 196.8 346.9V157.1C196.8 150.4 196.6 144.4 196.1 139.8C195.9 135 194.9 131.4 193.5 128.3C192.1 125.4 189.9 123 186.8 121.1C183.9 119.4 179.6 117.7 174.3 116.3V101.7H284.9V101.7ZM522.4 330.7H453.3L448 346.8C446.3 351.4 445.1 355.7 444.2 359.8C443.2 364.1 442.8 368.7 442.8 373.2C442.8 384.5 448.6 390.2 459.8 391.2V402.2H390.5V391.2C394.6 390.7 397.9 389.3 401.1 386.6C404.2 384.2 406.9 380.8 409.3 376.5C411.9 372.2 414.6 365.9 417.5 358L484.7 170H527.9L581.4 359.5C583.8 368.1 586 374.1 587.4 377.7C589.1 381.1 591.2 383.9 593.9 386.3C596.3 388.5 600.1 389.9 604.7 391.1V402.1H515.2V391.1C521 390.4 525 388.7 527.7 386.1C530.3 383.5 531.8 379.9 531.8 375.1C531.8 371.7 531.6 367.9 530.6 363.6C529.9 359.3 528.7 353.8 527 347.3L522.4 330.7ZM459.5 310.8H517.8L491.9 215.6L459.5 310.8ZM860.9 229.3C862.6 224 863.8 219 865 213.7C866 208.4 866.4 203.9 866.4 200.3C866.4 194.3 865.2 190 862.3 187.3C859.7 184.4 855.3 183 850.1 182.3V171.3H917.5V182.3C913.4 183.3 910.3 184.9 907.4 187.3C904.8 189.5 902.4 192.8 900.2 196.9C898 201.2 895.4 208.2 892 218L831.3 403.4H792.7L756.2 244.6L712.5 403.4H672.2L623.3 213.9C621.1 204.5 619 198.1 617.1 194.5C615.2 190.9 613.3 188.3 611.1 186.6C608.7 184.7 605.8 183.2 602.5 182.3V171.3H689.6V182.3C684.1 183.3 679.8 184.7 677.1 187.3C674.5 189.9 673 193.5 673 198.3C673 204.3 674.7 213.7 677.8 226.1L705.9 343.9L752.2 171.2H788.9L826.8 343.9L860.9 229.3ZM1077.7 347.3C1077.7 356.9 1077.9 363.9 1078.7 367.7C1079.4 371.8 1080.6 375.1 1082.1 377.5C1083.8 379.9 1086.2 381.8 1089.1 383.5C1092.2 385.2 1097 386.6 1103.3 387.8V402.2H989.7V387.8C995 386.1 999.1 384.7 1002.2 383C1005.1 381.3 1007.5 378.9 1008.9 376C1010.3 372.9 1011.3 369 1011.8 364.5C1012 359.7 1012.3 353.9 1012.3 347V157C1012.3 150.3 1012.1 144.3 1011.8 139.7C1011.6 134.9 1010.6 131.3 1008.9 128.2C1007.5 125.3 1005.3 122.9 1002.4 121C999.3 119.3 995 117.6 989.7 116.2V101.6H1112C1147.7 101.6 1174.4 108.3 1192.1 121.5C1209.6 134.9 1218.5 155.3 1218.5 182.9C1218.5 202.3 1214.4 219.4 1206 233.8C1197.8 248.2 1185.8 259 1170 266.4C1154.2 273.8 1134.7 277.7 1111 277.7C1097.3 277.7 1086.3 277.2 1077.7 276.7V347.3ZM1077.7 251.8H1095.7C1109.9 251.8 1120.9 249.6 1129.3 245.6C1137.5 241.5 1143.7 234.8 1147.8 225.7C1151.6 216.6 1153.8 204.3 1153.8 189C1153.8 173.7 1151.6 161.4 1147.8 152.5C1143.7 143.4 1138 136.9 1130 133.3C1122.3 129.5 1112.5 127.5 1100.3 127.5C1090.7 127.5 1083 127.5 1077.8 128V251.8H1077.7ZM1332.5 402.2H1247.3V391.2C1251.4 390 1254.5 388.8 1256.9 387.4C1259.1 386.2 1261 384.5 1261.9 382.1C1263.1 379.7 1263.8 376.8 1264.1 373.2C1264.6 369.6 1264.6 365.3 1264.6 359.8V213.9C1264.6 208.6 1264.6 204.1 1264.4 200.5C1264.2 196.9 1263.4 194 1262.2 191.6C1261 189.4 1259.3 187.5 1256.9 186.1C1254.7 184.9 1251.4 183.5 1247.3 182.3V171.3H1341.8C1354.5 171.3 1365.3 172.3 1374.2 174.2C1383.1 175.9 1391 178.8 1397.7 182.6C1403.2 186 1408 189.8 1411.9 194.6C1416 199.4 1418.9 204.9 1421 211.4C1423.2 217.6 1424.1 225.1 1424.1 233.7C1424.1 244.7 1422.2 254.1 1418.6 262C1414.8 269.9 1409.7 276.4 1403.5 281.7C1397.3 287 1388.6 292 1378.1 296.6V298.3C1386 301.9 1392.7 306.7 1398 312.9C1403.3 318.9 1407.8 326.3 1412.2 335.7L1422.3 358.7C1426.9 369 1431.4 376.7 1436 381.7C1440.6 387 1445.8 390.1 1451.8 391.3V402.3H1389.4C1383.2 393.4 1376.2 380 1368.3 362L1355.6 333C1352 324.6 1348.6 318.4 1346 314.8C1343.4 311.2 1340.5 308.8 1337.6 307.4C1334.7 306.2 1330.4 305.5 1324.4 305.5H1315V360C1315 368.4 1315.2 374.4 1316.2 377.8C1316.9 381.2 1318.4 384 1320.5 386C1322.7 387.9 1326.5 389.8 1332.5 391.5V402.2V402.2ZM1315 191.4V285.4H1331.1C1339.7 285.4 1346.7 284.2 1352.5 281.8C1358 279.4 1362.6 276 1365.7 271.7C1369.1 267.4 1371.5 262.1 1372.7 256.3C1373.9 250.3 1374.6 244.1 1374.6 236.9C1374.6 221.8 1371 210.3 1364.3 202.4C1357.3 195 1347 191.1 1333.4 191.1C1323.8 191.1 1317.9 191.1 1315 191.4ZM1622.8 171.2V225H1600.7C1597.1 214.4 1594 207 1591.6 203.4C1589 199.6 1586.1 196.7 1582.7 194.3C1579.1 192.1 1573.3 191.2 1564.9 191.2H1529.6V272.3H1551C1555.8 272.3 1559.4 271.6 1562 270.4C1564.9 269 1567 266.6 1569 263.2C1570.7 260.1 1572.4 254.8 1574 248.1H1592.2V316.7H1574C1572.6 310.2 1570.6 305.2 1569 301.8C1567.1 298.2 1564.9 295.8 1562.3 294.4C1559.9 293 1556.1 292.2 1551 292.2H1529.6V382.6H1564.6C1568.4 382.6 1571.6 382.1 1574.2 381.6C1576.8 381.1 1579 380.4 1581.2 379.2C1583.4 377.8 1585.3 376.1 1587.2 373.9C1589.1 371.7 1590.8 369.6 1592.2 366.9C1593.6 364.5 1595.1 361.1 1596.8 357.3C1598.5 353 1600.2 347.5 1602.1 340.5H1624.4L1621.3 402.2H1462V391.2C1466.1 390 1469.2 388.8 1471.6 387.4C1473.8 386.2 1475.7 384.5 1476.6 382.1C1477.8 379.7 1478.5 376.8 1478.8 373.2C1479.3 369.6 1479.3 365.3 1479.3 359.8V213.9C1479.3 208.6 1479.3 204.1 1479.1 200.5C1478.9 196.9 1478.1 194 1476.9 191.6C1475.7 189.4 1474 187.5 1471.6 186.1C1469.4 184.9 1466.1 183.5 1462 182.3V171.3H1622.8V171.2ZM1721.3 360C1721.3 367.4 1721.5 372.7 1722 375.8C1722.5 378.9 1723.4 381.3 1724.6 383.2C1725.8 385.1 1727.7 386.6 1729.9 387.8C1732.3 389 1735.9 390.2 1740.7 391.2V402.2H1653.6V391.2C1657.7 390 1660.8 388.8 1663.2 387.4C1665.4 386.2 1667.3 384.5 1668.2 382.1C1669.4 379.7 1670.1 376.8 1670.4 373.2C1670.9 369.6 1670.9 365.3 1670.9 359.8V213.9C1670.9 208.6 1670.9 204.1 1670.7 200.5C1670.5 196.9 1669.7 194 1668.5 191.6C1667.3 189.4 1665.6 187.5 1663.2 186.1C1661 184.9 1657.7 183.5 1653.6 182.3V171.3H1747.9C1775 171.3 1795.6 176.3 1809.1 186.7C1822.8 196.8 1829.5 212.6 1829.5 234C1829.5 248.9 1826.4 261.8 1820.1 272.9C1813.6 283.9 1804.5 292.3 1792.3 298.1C1780.3 303.9 1765.2 306.7 1747 306.7C1736.4 306.7 1728 306.5 1721.3 306V360ZM1721.3 286.6H1735.2C1746 286.6 1754.4 285.2 1760.9 281.8C1767.4 278.7 1771.9 273.4 1775.1 266.4C1778.3 259.4 1779.7 250.1 1779.7 238.3C1779.7 226.3 1778.3 217.2 1775.1 210.2C1772 203.2 1767.7 198.2 1761.7 195.3C1755.7 192.4 1748 191 1738.9 191C1731.2 191 1725.5 191 1721.4 191.2V286.6H1721.3Z" fill="#ED1B23"/>
<path d="M541.6 606.9V599.2C544.7 598.7 547.1 598 549 597C550.9 596 552.1 594.8 553.1 593.2C554.1 591.5 554.5 589.4 554.8 586.7C555 584.3 555.3 581.2 555.3 577.3V459.8H546.2C541.6 459.8 538 460.3 535.6 461.5C533.2 462.7 531 464.4 529.4 466.8C527.7 469 526 472.3 524.8 476.2C523.6 480.3 522.4 483.9 521.7 487.5H506.1V446.2H639V487.5H623.6C622.2 482.2 621 478.1 620 475.7C619.3 473.1 618.3 471.1 617.4 469.2C616.4 467.5 615.2 466.1 614.3 464.9C613.1 463.7 611.9 462.7 610.7 462C609.3 461.3 607.8 460.8 605.9 460.3C604 460.1 601.3 459.8 598.2 459.8H590V577.3C590 581.4 590.2 584.7 590.5 586.7C590.7 589.1 591 590.8 591.7 592C592.4 593.4 593.1 594.6 593.9 595.4C594.9 596.1 596.1 596.8 597.5 597.6C599.2 598.3 601.1 598.8 603.7 599.3V607H541.6V606.9ZM669.9 490H713.8V555.5C713.8 562.9 714 568.9 714.5 573C715 577.3 715.7 580.7 717.1 583.1C718.3 585.7 719.7 587.4 721.7 588.6C723.6 589.8 726 590.3 728.9 590.3C731.5 590.3 734.4 589.3 737.5 587.7C740.6 585.8 743.3 583.4 745.4 580C747.6 576.9 748.5 573.3 748.5 569.7V524.1C748.5 518.3 748.5 514 748.3 511.4C748.1 508.5 747.6 506.4 746.9 504.7C746.4 503.3 745.5 501.8 744 500.9C742.6 499.7 740.4 498.7 737.3 497.8V490H781.4V572.5C781.4 578.5 781.4 582.8 781.6 585.5C781.8 588.4 782.1 590.5 782.8 592.2C783.5 593.9 784.7 595.1 786.2 596.3C787.6 597.3 790.3 598.2 793.6 598.9V606.8L762.9 608H749.5L750.5 591L749.1 590.8C742.1 597.5 735.9 602.1 730.4 604.7C724.9 607.6 719.4 608.8 713.8 608.8C705.9 608.8 699.4 607.4 694.6 604.2C689.8 601.1 686.4 596.5 684.3 590.5C682.1 584.5 681.2 576.6 681.2 567.2V524C681.2 519.7 681.2 516.1 681 513.9C681 511.5 680.8 509.6 680.5 508.4C680.3 507 680 505.8 679.5 504.8C679 503.8 678.5 502.9 677.8 501.9C677.1 500.9 676.1 500.2 674.9 499.5C673.7 498.8 672 498.3 669.9 497.6V490ZM909.3 592.7C902.8 598.7 896.8 602.8 891.3 605.2C886 607.6 880.3 608.8 874.3 608.8C863 608.8 854.6 605.7 849.1 599.4C843.6 592.9 840.9 583.3 840.9 570.6V504.6H826.7V496.4C831.3 495.7 834.6 494.5 836.8 493C839 491.3 840.6 489.2 841.8 486.5C843 483.9 844 480.5 844.7 476.2C845.4 472.1 845.9 466.8 846.4 460.4H873.3V490H905.4V504.6H873.3V557.9C873.3 566.8 873.8 573.3 874.5 577.6C875.5 581.9 876.7 585 878.6 587C880.5 588.9 882.9 590.1 885.6 590.1C887.8 590.1 889.7 589.9 891.4 589.4C893.1 589.2 894.8 588.4 896.7 587.2C898.4 586.2 900.3 584.8 902.5 582.9L909.3 592.7ZM990.2 608.8C979.2 608.8 969.6 606.9 961.4 602.8C953.5 598.7 947.2 592.2 942.7 583.4C938.2 574.6 936 563 936 549.3C936 538.7 937.4 529.6 940.1 522C943 514.3 946.8 507.8 951.9 502.8C956.7 497.8 962.7 494.2 969.7 491.8C976.4 489.4 984.1 488.2 992 488.2C1010.2 488.2 1023.9 493.2 1033.3 503.3C1042.4 513.1 1047.2 528 1047.2 547.2C1047.2 560.9 1044.8 572.4 1040.2 581.5C1035.6 590.9 1029.2 597.8 1020.5 602.1C1012 606.6 1001.9 608.8 990.2 608.8ZM970.3 546.6C970.3 563.4 972 575.9 975.6 584C979.2 592.4 984.5 596.5 991.9 596.5C995.7 596.5 999.1 595.5 1001.7 593.4C1004.3 591.2 1006.5 588.1 1008.2 584.3C1009.9 580.2 1011.1 575.4 1011.6 569.7C1012.3 564.2 1012.8 557.9 1012.8 550.7C1012.8 533.9 1010.9 521.2 1007.3 513C1003.7 504.6 998.4 500.3 991.5 500.3C986.5 500.3 982.4 502 979.3 505.3C976.2 508.7 974 513.7 972.6 520.7C971 527.5 970.3 536.1 970.3 546.6ZM1131 506.8L1132.4 507.3C1137.7 500.6 1143.4 495.5 1149.2 492.7C1155 489.6 1161.4 488.1 1168.2 488.1C1172.8 488.1 1177.6 488.6 1182.6 489.5V522.1H1162.2C1160.8 517.5 1159.3 513.9 1157.2 511.5C1155 509.1 1152.4 507.9 1148.8 507.9C1147.1 507.9 1145.4 508.4 1143.3 509.6C1141.4 510.6 1139.5 512 1137.8 513.9C1136.1 515.8 1134.9 518 1134.2 519.9C1133.5 521.8 1133 524 1133 525.9C1132.8 528.1 1132.5 530.9 1132.5 535.3V572.7C1132.5 580.1 1132.7 585.4 1133.2 588.5C1133.9 591.4 1134.9 593.8 1136.3 595.5C1138 597.2 1140.6 598.4 1144.5 599.1V606.8H1088.8V599.1C1092.4 598.1 1095 596.7 1096.2 595C1097.6 593.3 1098.6 591.2 1099.1 588.3C1099.6 585.4 1099.8 580.4 1099.8 572.9V524.4C1099.8 518.6 1099.8 514.3 1099.6 511.4C1099.4 508.5 1098.9 506.4 1098.2 504.7C1097.5 503 1096.5 501.6 1095.1 500.6C1093.7 499.4 1091 498.4 1087.4 497.7V490L1118.3 489H1132.5L1131 506.8ZM1260 443V471.8H1229.1V443H1260ZM1217.1 599.2C1220.9 598.2 1223.3 596.8 1224.8 595.1C1226.2 593.4 1227.2 591.3 1227.7 588.4C1228.2 585.5 1228.4 580.5 1228.4 573V518.1C1228.4 514.3 1228.2 511.1 1227.9 508.7C1227.4 506.5 1226.9 504.6 1226 503.2C1225 501.8 1223.6 500.8 1222.2 499.8C1220.5 499.1 1218.4 498.6 1216 497.9V490L1246.9 489H1261.1V572.7C1261.1 577.3 1261.1 580.6 1261.1 583C1261.3 585.4 1261.6 587.1 1261.8 588.5C1262 589.7 1262.3 590.9 1262.8 591.9C1263 593.1 1263.8 594.1 1264.2 594.8C1264.9 595.8 1265.9 596.5 1267.3 597.2C1268.5 597.9 1270.2 598.6 1272.3 599.1V606.8H1217.1V599.2V599.2ZM1378.5 591.5L1376.8 591C1370.6 597.2 1364.6 601.8 1358.8 604.4C1353 607.3 1346.8 608.7 1340.1 608.7C1333.6 608.7 1328.1 607.5 1323.3 605.1C1318.5 602.5 1314.9 599.1 1312.5 594.8C1310.1 590.2 1308.9 585.2 1308.9 579.4C1308.9 567.9 1314.2 558.8 1325.2 552.3C1336 545.6 1352.5 541.3 1374.6 539.6V528.6C1374.6 521.2 1373.9 515.6 1372.2 511.6C1370.5 507.8 1368.6 504.9 1366.2 503.2C1363.6 501.5 1360.7 500.8 1357.1 500.8C1353.7 500.8 1350.9 501.5 1348.2 502.7C1345.5 503.9 1343.4 506.3 1341.2 509.9C1339.3 513.3 1337.8 518.1 1336.9 524.3H1315.5V503C1322.5 499.9 1328.2 497.2 1332.8 495.6C1337.4 493.9 1341.9 492.5 1346.5 491.3C1350.8 490.1 1354.9 489.4 1358.5 488.9C1361.9 488.4 1365.5 488.2 1369.1 488.2C1378.2 488.2 1385.4 489.4 1390.9 492C1396.4 494.4 1400.5 498.5 1403.1 504.2C1405.7 509.7 1407.2 517.6 1407.2 527.7V573.5C1407.2 578.8 1407.2 582.9 1407.4 585.5C1407.6 588.4 1408.1 590.5 1408.6 592C1409.1 593.2 1409.6 594.4 1410.3 595.1C1411.3 596.1 1412 596.8 1413.2 597.3C1414.4 597.8 1416.3 598.5 1419.4 599.2V606.9H1377.4L1378.5 591.5ZM1374.7 551.2C1363.2 551.7 1354.5 553.8 1348.8 558.2C1343.3 562.5 1340.4 568.5 1340.4 576.9C1340.4 581.7 1341.8 585.3 1344.2 587.9C1346.8 590.5 1350.4 591.7 1355 591.7C1358.4 591.7 1361.7 590.7 1364.6 588.8C1367.7 586.9 1370.4 584.2 1372 581.1C1373.9 577.7 1374.6 574.4 1374.6 570.8V551.2H1374.7ZM1499.4 572.8C1499.4 580.2 1499.6 585.5 1500.1 588.4C1500.6 591 1501.5 593.4 1503 595.1C1504.4 596.8 1506.8 598.2 1510.9 599.2V606.9H1455.5V599.2C1457.7 598.7 1459.6 598 1460.8 597.3C1462 596.6 1463.2 595.6 1463.9 594.7C1464.6 593.7 1465.1 592.5 1465.6 590.9C1466.1 589.5 1466.6 587.3 1466.8 584.7C1466.8 582.1 1467 578 1467 572.9V481C1467 474.3 1466.8 469.2 1466.8 466.1C1466.6 463 1466.3 460.1 1466.1 457.9C1465.9 455.7 1465.1 454.1 1464.4 452.9C1463.7 451.5 1462.5 450.5 1461 449.8C1459.6 448.8 1457.4 448.4 1454 447.6V439.9L1485.4 438.2H1499.3V572.8H1499.4Z" fill="#ED1B23"/>
<path d="M441.8 508.5H169.3V546.2H441.8V508.5Z" fill="#ED1B23"/>
<path d="M1834.6 508.5H1562.1V546.2H1834.6V508.5Z" fill="#ED1B23"/>
<path d="M102.418 838.708L99.3056 867.761H25.8193V865.502H28.5659C30.9666 865.502 32.8994 865.075 34.3642 864.221C35.4221 863.651 36.2359 862.674 36.8056 861.291C37.2532 860.314 37.477 857.751 37.477 853.601V799.157C37.477 794.925 37.2532 792.281 36.8056 791.223C36.358 790.165 35.4425 789.249 34.059 788.476C32.7162 787.662 30.8852 787.255 28.5659 787.255H25.8193V784.997H69.9477V787.255H66.3466C63.9459 787.255 62.0131 787.683 60.5483 788.537C59.4903 789.107 58.6562 790.083 58.0458 791.467C57.5982 792.443 57.3745 795.007 57.3745 799.157V851.892C57.3745 856.123 57.6186 858.829 58.1069 860.009C58.5952 861.149 59.5514 862.003 60.9755 862.573C61.9928 862.939 64.4545 863.122 68.3608 863.122H75.2578C79.6523 863.122 83.3144 862.349 86.2441 860.803C89.1738 859.257 91.6966 856.815 93.8124 853.479C95.969 850.142 98.0035 845.218 99.916 838.708H102.418ZM140.626 830.285V853.234C140.626 857.71 140.891 860.538 141.42 861.718C141.99 862.858 142.966 863.773 144.35 864.465C145.774 865.157 148.358 865.502 152.101 865.502V867.761H110.048V865.502C113.873 865.502 116.456 865.157 117.799 864.465C119.183 863.732 120.139 862.797 120.668 861.657C121.238 860.518 121.522 857.71 121.522 853.234V799.523C121.522 795.048 121.238 792.24 120.668 791.101C120.139 789.921 119.183 788.985 117.799 788.293C116.416 787.601 113.832 787.255 110.048 787.255V784.997H146.12C158.001 784.997 166.526 787.113 171.693 791.345C176.861 795.576 179.445 800.866 179.445 807.214C179.445 812.585 177.776 817.183 174.44 821.008C171.103 824.833 166.505 827.437 160.646 828.82C156.699 829.797 150.026 830.285 140.626 830.285ZM140.626 789.758V825.524C141.969 825.606 142.986 825.646 143.678 825.646C148.642 825.646 152.467 824.182 155.153 821.252C157.838 818.282 159.181 813.704 159.181 807.519C159.181 801.375 157.838 796.879 155.153 794.03C152.467 791.182 148.459 789.758 143.129 789.758H140.626ZM262.147 784.997V807.397H259.95C258.648 802.229 257.204 798.527 255.617 796.289C254.03 794.01 251.853 792.199 249.086 790.856C247.54 790.124 244.834 789.758 240.968 789.758H234.804V853.601C234.804 857.832 235.027 860.477 235.475 861.535C235.963 862.593 236.879 863.529 238.222 864.343C239.605 865.116 241.477 865.502 243.837 865.502H246.583V867.761H203.248V865.502H205.995C208.396 865.502 210.329 865.075 211.793 864.221C212.851 863.651 213.685 862.674 214.296 861.291C214.743 860.314 214.967 857.751 214.967 853.601V789.758H208.986C203.411 789.758 199.363 790.938 196.84 793.298C193.3 796.594 191.062 801.293 190.126 807.397H187.807V784.997H262.147ZM329.652 789.758V823.449H331.3C336.549 823.449 340.354 821.801 342.714 818.505C345.074 815.209 346.579 810.347 347.23 803.918H349.55V847.253H347.23C346.742 842.533 345.705 838.667 344.118 835.656C342.571 832.645 340.761 830.631 338.685 829.614C336.61 828.556 333.599 828.027 329.652 828.027V851.342C329.652 855.9 329.835 858.687 330.202 859.704C330.609 860.721 331.341 861.556 332.399 862.207C333.457 862.858 335.166 863.183 337.526 863.183H342.47C350.201 863.183 356.386 861.393 361.024 857.812C365.704 854.231 369.061 848.779 371.095 841.455H373.353L369.63 867.761H298.097V865.502H300.844C303.244 865.502 305.177 865.075 306.642 864.221C307.7 863.651 308.514 862.674 309.083 861.291C309.531 860.314 309.755 857.751 309.755 853.601V799.157C309.755 795.414 309.653 793.115 309.45 792.26C309.043 790.836 308.29 789.737 307.191 788.964C305.645 787.825 303.529 787.255 300.844 787.255H298.097V784.997H367.372V809.472H365.053C363.873 803.491 362.204 799.198 360.048 796.594C357.932 793.99 354.921 792.077 351.015 790.856C348.736 790.124 344.463 789.758 338.197 789.758H329.652ZM380.617 867.761V865.502H383.363C385.764 865.502 387.595 865.136 388.856 864.404C390.158 863.631 391.115 862.593 391.725 861.291C392.091 860.437 392.274 857.873 392.274 853.601V799.157C392.274 794.925 392.051 792.281 391.603 791.223C391.155 790.165 390.24 789.249 388.856 788.476C387.514 787.662 385.683 787.255 383.363 787.255H380.617V784.997H417.665C427.553 784.997 435.508 786.34 441.53 789.025C448.895 792.321 454.469 797.306 458.253 803.979C462.078 810.652 463.991 818.2 463.991 826.623C463.991 832.442 463.055 837.813 461.183 842.736C459.311 847.619 456.89 851.668 453.92 854.882C450.949 858.056 447.511 860.62 443.605 862.573C439.739 864.485 434.999 865.97 429.384 867.028C426.902 867.517 422.995 867.761 417.665 867.761H380.617ZM412.172 789.697V854.272C412.172 857.69 412.335 859.785 412.66 860.559C412.986 861.332 413.535 861.922 414.308 862.329C415.407 862.939 416.994 863.244 419.069 863.244C425.864 863.244 431.052 860.925 434.633 856.286C439.516 850.02 441.957 840.295 441.957 827.111C441.957 816.491 440.289 808.007 436.952 801.66C434.307 796.695 430.91 793.318 426.759 791.528C423.83 790.266 418.967 789.656 412.172 789.697ZM548.158 784.997V807.397H545.961C544.659 802.229 543.214 798.527 541.627 796.289C540.04 794.01 537.864 792.199 535.097 790.856C533.55 790.124 530.845 789.758 526.979 789.758H520.814V853.601C520.814 857.832 521.038 860.477 521.486 861.535C521.974 862.593 522.89 863.529 524.232 864.343C525.616 865.116 527.488 865.502 529.848 865.502H532.594V867.761H489.259V865.502H492.006C494.407 865.502 496.339 865.075 497.804 864.221C498.862 863.651 499.696 862.674 500.307 861.291C500.754 860.314 500.978 857.751 500.978 853.601V789.758H494.997C489.422 789.758 485.373 790.938 482.851 793.298C479.31 796.594 477.073 801.293 476.137 807.397H473.817V784.997H548.158ZM586.732 789.758V823.449H588.38C593.629 823.449 597.434 821.801 599.794 818.505C602.154 815.209 603.659 810.347 604.31 803.918H606.63V847.253H604.31C603.822 842.533 602.785 838.667 601.198 835.656C599.651 832.645 597.841 830.631 595.766 829.614C593.69 828.556 590.679 828.027 586.732 828.027V851.342C586.732 855.9 586.915 858.687 587.282 859.704C587.689 860.721 588.421 861.556 589.479 862.207C590.537 862.858 592.246 863.183 594.606 863.183H599.55C607.281 863.183 613.466 861.393 618.104 857.812C622.784 854.231 626.141 848.779 628.175 841.455H630.434L626.71 867.761H555.177V865.502H557.924C560.324 865.502 562.257 865.075 563.722 864.221C564.78 863.651 565.594 862.674 566.164 861.291C566.611 860.314 566.835 857.751 566.835 853.601V799.157C566.835 795.414 566.733 793.115 566.53 792.26C566.123 790.836 565.37 789.737 564.271 788.964C562.725 787.825 560.609 787.255 557.924 787.255H555.177V784.997H624.452V809.472H622.133C620.953 803.491 619.284 799.198 617.128 796.594C615.012 793.99 612.001 792.077 608.095 790.856C605.816 790.124 601.544 789.758 595.277 789.758H586.732ZM719.484 783.105V811.792H717.103C715.313 804.305 711.977 798.567 707.094 794.58C702.211 790.592 696.677 788.598 690.492 788.598C685.324 788.598 680.584 790.083 676.271 793.054C671.958 796.024 668.804 799.91 666.81 804.711C664.247 810.856 662.965 817.692 662.965 825.219C662.965 832.625 663.901 839.379 665.773 845.483C667.645 851.546 670.574 856.144 674.562 859.277C678.55 862.369 683.717 863.916 690.065 863.916C695.273 863.916 700.034 862.776 704.347 860.498C708.701 858.219 713.279 854.292 718.08 848.718V855.859C713.441 860.701 708.599 864.221 703.554 866.418C698.549 868.575 692.689 869.653 685.976 869.653C677.146 869.653 669.293 867.883 662.416 864.343C655.58 860.803 650.29 855.716 646.547 849.084C642.844 842.451 640.993 835.392 640.993 827.905C640.993 820.011 643.047 812.524 647.157 805.444C651.308 798.364 656.882 792.871 663.881 788.964C670.92 785.058 678.387 783.105 686.281 783.105C692.099 783.105 698.244 784.366 704.713 786.889C708.457 788.354 710.837 789.086 711.854 789.086C713.157 789.086 714.275 788.618 715.211 787.683C716.188 786.706 716.819 785.18 717.103 783.105H719.484ZM760.56 827.966V853.601C760.56 857.832 760.784 860.477 761.232 861.535C761.72 862.593 762.636 863.529 763.978 864.343C765.362 865.116 767.213 865.502 769.533 865.502H772.279V867.761H729.005V865.502H731.752C734.153 865.502 736.085 865.075 737.55 864.221C738.608 863.651 739.422 862.674 739.992 861.291C740.439 860.314 740.663 857.751 740.663 853.601V799.157C740.663 794.925 740.439 792.281 739.992 791.223C739.544 790.165 738.629 789.249 737.245 788.476C735.902 787.662 734.071 787.255 731.752 787.255H729.005V784.997H772.279V787.255H769.533C767.132 787.255 765.199 787.683 763.734 788.537C762.676 789.107 761.842 790.083 761.232 791.467C760.784 792.443 760.56 795.007 760.56 799.157V822.595H789.796V799.157C789.796 794.925 789.573 792.281 789.125 791.223C788.677 790.165 787.762 789.249 786.378 788.476C784.995 787.662 783.143 787.255 780.824 787.255H778.139V784.997H821.352V787.255H818.666C816.225 787.255 814.292 787.683 812.868 788.537C811.81 789.107 810.976 790.083 810.365 791.467C809.918 792.443 809.694 795.007 809.694 799.157V853.601C809.694 857.832 809.918 860.477 810.365 861.535C810.813 862.593 811.728 863.529 813.112 864.343C814.495 865.116 816.347 865.502 818.666 865.502H821.352V867.761H778.139V865.502H780.824C783.266 865.502 785.198 865.075 786.622 864.221C787.68 863.651 788.515 862.674 789.125 861.291C789.573 860.314 789.796 857.751 789.796 853.601V827.966H760.56ZM888.673 830.285V853.234C888.673 857.71 888.938 860.538 889.467 861.718C890.036 862.858 891.013 863.773 892.396 864.465C893.821 865.157 896.404 865.502 900.148 865.502V867.761H858.095V865.502C861.92 865.502 864.503 865.157 865.846 864.465C867.23 863.732 868.186 862.797 868.715 861.657C869.284 860.518 869.569 857.71 869.569 853.234V799.523C869.569 795.048 869.284 792.24 868.715 791.101C868.186 789.921 867.23 788.985 865.846 788.293C864.463 787.601 861.879 787.255 858.095 787.255V784.997H894.166C906.048 784.997 914.573 787.113 919.74 791.345C924.908 795.576 927.492 800.866 927.492 807.214C927.492 812.585 925.823 817.183 922.487 821.008C919.15 824.833 914.552 827.437 908.693 828.82C904.746 829.797 898.073 830.285 888.673 830.285ZM888.673 789.758V825.524C890.016 825.606 891.033 825.646 891.725 825.646C896.689 825.646 900.514 824.182 903.2 821.252C905.885 818.282 907.228 813.704 907.228 807.519C907.228 801.375 905.885 796.879 903.2 794.03C900.514 791.182 896.506 789.758 891.176 789.758H888.673ZM964.54 830.041V853.234C964.54 857.71 964.804 860.538 965.333 861.718C965.903 862.858 966.88 863.773 968.263 864.465C969.647 865.157 972.23 865.502 976.015 865.502V867.761H933.656V865.502C937.481 865.502 940.065 865.157 941.408 864.465C942.791 863.732 943.747 862.797 944.276 861.657C944.846 860.518 945.131 857.71 945.131 853.234V799.523C945.131 795.048 944.846 792.24 944.276 791.101C943.747 789.921 942.791 788.985 941.408 788.293C940.024 787.601 937.44 787.255 933.656 787.255V784.997H972.108C982.118 784.997 989.442 785.689 994.081 787.072C998.72 788.456 1002.5 791.019 1005.43 794.763C1008.36 798.465 1009.83 802.819 1009.83 807.824C1009.83 813.928 1007.63 818.973 1003.24 822.961C1000.43 825.484 996.502 827.376 991.456 828.637L1011.35 856.652C1013.96 860.274 1015.81 862.532 1016.91 863.427C1018.58 864.689 1020.51 865.38 1022.71 865.502V867.761H996.644L969.972 830.041H964.54ZM964.54 789.453V825.708H968.019C973.675 825.708 977.907 825.199 980.714 824.182C983.522 823.124 985.719 821.252 987.306 818.566C988.934 815.84 989.747 812.3 989.747 807.946C989.747 801.639 988.262 796.98 985.292 793.969C982.362 790.958 977.622 789.453 971.071 789.453H964.54ZM1067.45 865.502V867.761H1024.17V865.502H1026.92C1029.32 865.502 1031.25 865.075 1032.72 864.221C1033.77 863.651 1034.59 862.674 1035.16 861.291C1035.61 860.314 1035.83 857.751 1035.83 853.601V799.157C1035.83 794.925 1035.61 792.281 1035.16 791.223C1034.71 790.165 1033.79 789.249 1032.41 788.476C1031.07 787.662 1029.24 787.255 1026.92 787.255H1024.17V784.997H1067.45V787.255H1064.7C1062.3 787.255 1060.37 787.683 1058.9 788.537C1057.84 789.107 1057.01 790.083 1056.4 791.467C1055.95 792.443 1055.73 795.007 1055.73 799.157V853.601C1055.73 857.832 1055.95 860.477 1056.4 861.535C1056.89 862.593 1057.8 863.529 1059.14 864.343C1060.53 865.116 1062.38 865.502 1064.7 865.502H1067.45ZM1159.36 784.997V787.255C1156.35 787.744 1153.67 789.351 1151.31 792.077C1149.6 794.112 1147.06 798.893 1143.68 806.42L1115.17 869.653H1113.16L1084.78 803.857C1081.36 795.922 1079.06 791.263 1077.88 789.88C1076.74 788.496 1074.57 787.622 1071.35 787.255V784.997H1111.02V787.255H1109.68C1106.1 787.255 1103.66 787.703 1102.36 788.598C1101.42 789.208 1100.95 790.104 1100.95 791.284C1100.95 792.016 1101.12 792.891 1101.44 793.908C1101.77 794.885 1102.87 797.55 1104.74 801.904L1122.38 843.103L1138.73 806.42C1140.69 801.985 1141.89 799.015 1142.34 797.509C1142.78 796.004 1143.01 794.722 1143.01 793.664C1143.01 792.443 1142.68 791.365 1142.03 790.429C1141.38 789.493 1140.42 788.781 1139.16 788.293C1137.41 787.601 1135.09 787.255 1132.2 787.255V784.997H1159.36ZM1196.6 844.201H1167.36L1163.88 852.258C1162.74 854.943 1162.17 857.161 1162.17 858.911C1162.17 861.23 1163.11 862.939 1164.98 864.038C1166.08 864.689 1168.78 865.177 1173.1 865.502V867.761H1145.57V865.502C1148.54 865.055 1150.98 863.834 1152.89 861.84C1154.81 859.806 1157.17 855.635 1159.97 849.328L1189.58 783.288H1190.74L1220.58 851.159C1223.43 857.588 1225.77 861.637 1227.6 863.305C1228.98 864.567 1230.94 865.299 1233.46 865.502V867.761H1193.42V865.502H1195.07C1198.28 865.502 1200.54 865.055 1201.84 864.16C1202.74 863.509 1203.19 862.573 1203.19 861.352C1203.19 860.62 1203.07 859.867 1202.82 859.094C1202.74 858.728 1202.13 857.202 1200.99 854.516L1196.6 844.201ZM1194.52 839.685L1182.19 811.181L1169.5 839.685H1194.52ZM1304.51 784.997V807.397H1302.31C1301.01 802.229 1299.56 798.527 1297.98 796.289C1296.39 794.01 1294.21 792.199 1291.44 790.856C1289.9 790.124 1287.19 789.758 1283.33 789.758H1277.16V853.601C1277.16 857.832 1277.39 860.477 1277.83 861.535C1278.32 862.593 1279.24 863.529 1280.58 864.343C1281.96 865.116 1283.84 865.502 1286.2 865.502H1288.94V867.761H1245.61V865.502H1248.35C1250.75 865.502 1252.69 865.075 1254.15 864.221C1255.21 863.651 1256.04 862.674 1256.65 861.291C1257.1 860.314 1257.33 857.751 1257.33 853.601V789.758H1251.34C1245.77 789.758 1241.72 790.938 1239.2 793.298C1235.66 796.594 1233.42 801.293 1232.48 807.397H1230.16V784.997H1304.51ZM1343.08 789.758V823.449H1344.73C1349.98 823.449 1353.78 821.801 1356.14 818.505C1358.5 815.209 1360.01 810.347 1360.66 803.918H1362.98V847.253H1360.66C1360.17 842.533 1359.13 838.667 1357.55 835.656C1356 832.645 1354.19 830.631 1352.11 829.614C1350.04 828.556 1347.03 828.027 1343.08 828.027V851.342C1343.08 855.9 1343.26 858.687 1343.63 859.704C1344.04 860.721 1344.77 861.556 1345.83 862.207C1346.88 862.858 1348.59 863.183 1350.95 863.183H1355.9C1363.63 863.183 1369.81 861.393 1374.45 857.812C1379.13 854.231 1382.49 848.779 1384.52 841.455H1386.78L1383.06 867.761H1311.52V865.502H1314.27C1316.67 865.502 1318.6 865.075 1320.07 864.221C1321.13 863.651 1321.94 862.674 1322.51 861.291C1322.96 860.314 1323.18 857.751 1323.18 853.601V799.157C1323.18 795.414 1323.08 793.115 1322.88 792.26C1322.47 790.836 1321.72 789.737 1320.62 788.964C1319.07 787.825 1316.96 787.255 1314.27 787.255H1311.52V784.997H1380.8V809.472H1378.48C1377.3 803.491 1375.63 799.198 1373.48 796.594C1371.36 793.99 1368.35 792.077 1364.44 790.856C1362.16 790.124 1357.89 789.758 1351.62 789.758H1343.08ZM1502.56 838.708L1499.45 867.761H1425.97V865.502H1428.71C1431.11 865.502 1433.05 865.075 1434.51 864.221C1435.57 863.651 1436.38 862.674 1436.95 861.291C1437.4 860.314 1437.62 857.751 1437.62 853.601V799.157C1437.62 794.925 1437.4 792.281 1436.95 791.223C1436.5 790.165 1435.59 789.249 1434.21 788.476C1432.86 787.662 1431.03 787.255 1428.71 787.255H1425.97V784.997H1470.09V787.255H1466.49C1464.09 787.255 1462.16 787.683 1460.69 788.537C1459.64 789.107 1458.8 790.083 1458.19 791.467C1457.74 792.443 1457.52 795.007 1457.52 799.157V851.892C1457.52 856.123 1457.77 858.829 1458.25 860.009C1458.74 861.149 1459.7 862.003 1461.12 862.573C1462.14 862.939 1464.6 863.122 1468.51 863.122H1475.4C1479.8 863.122 1483.46 862.349 1486.39 860.803C1489.32 859.257 1491.84 856.815 1493.96 853.479C1496.12 850.142 1498.15 845.218 1500.06 838.708H1502.56ZM1552.8 865.502V867.761H1509.52V865.502H1512.27C1514.67 865.502 1516.6 865.075 1518.07 864.221C1519.13 863.651 1519.94 862.674 1520.51 861.291C1520.96 860.314 1521.18 857.751 1521.18 853.601V799.157C1521.18 794.925 1520.96 792.281 1520.51 791.223C1520.06 790.165 1519.15 789.249 1517.76 788.476C1516.42 787.662 1514.59 787.255 1512.27 787.255H1509.52V784.997H1552.8V787.255H1550.05C1547.65 787.255 1545.72 787.683 1544.25 788.537C1543.19 789.107 1542.36 790.083 1541.75 791.467C1541.3 792.443 1541.08 795.007 1541.08 799.157V853.601C1541.08 857.832 1541.3 860.477 1541.75 861.535C1542.24 862.593 1543.15 863.529 1544.5 864.343C1545.88 865.116 1547.73 865.502 1550.05 865.502H1552.8ZM1615.3 839.562L1637.76 784.997H1671.45V787.255H1668.76C1666.32 787.255 1664.37 787.683 1662.9 788.537C1661.89 789.107 1661.07 790.063 1660.46 791.406C1660.02 792.382 1659.79 794.925 1659.79 799.035V853.601C1659.79 857.832 1660.02 860.477 1660.46 861.535C1660.91 862.593 1661.83 863.529 1663.21 864.343C1664.59 865.116 1666.44 865.502 1668.76 865.502H1671.45V867.761H1628.24V865.502H1630.92C1633.36 865.502 1635.32 865.075 1636.78 864.221C1637.8 863.651 1638.61 862.674 1639.22 861.291C1639.67 860.314 1639.89 857.751 1639.89 853.601V792.26L1608.16 867.761H1606.69L1574.46 792.81V851.098C1574.46 855.167 1574.57 857.67 1574.77 858.605C1575.3 860.64 1576.44 862.308 1578.19 863.61C1579.98 864.872 1582.77 865.502 1586.55 865.502V867.761H1558.23V865.502H1559.08C1560.91 865.543 1562.62 865.258 1564.21 864.648C1565.8 863.997 1567 863.142 1567.81 862.084C1568.63 861.027 1569.26 859.541 1569.7 857.629C1569.78 857.181 1569.83 855.106 1569.83 851.403V799.035C1569.83 794.844 1569.6 792.24 1569.15 791.223C1568.71 790.165 1567.79 789.249 1566.41 788.476C1565.02 787.662 1563.17 787.255 1560.85 787.255H1558.23V784.997H1592.04L1615.3 839.562ZM1719.54 865.502V867.761H1676.27V865.502H1679.02C1681.42 865.502 1683.35 865.075 1684.82 864.221C1685.87 863.651 1686.69 862.674 1687.26 861.291C1687.7 860.314 1687.93 857.751 1687.93 853.601V799.157C1687.93 794.925 1687.7 792.281 1687.26 791.223C1686.81 790.165 1685.89 789.249 1684.51 788.476C1683.17 787.662 1681.34 787.255 1679.02 787.255H1676.27V784.997H1719.54V787.255H1716.8C1714.4 787.255 1712.46 787.683 1711 788.537C1709.94 789.107 1709.11 790.083 1708.5 791.467C1708.05 792.443 1707.83 795.007 1707.83 799.157V853.601C1707.83 857.832 1708.05 860.477 1708.5 861.535C1708.99 862.593 1709.9 863.529 1711.24 864.343C1712.63 865.116 1714.48 865.502 1716.8 865.502H1719.54ZM1801.33 784.997V807.397H1799.13C1797.83 802.229 1796.39 798.527 1794.8 796.289C1793.21 794.01 1791.04 792.199 1788.27 790.856C1786.72 790.124 1784.02 789.758 1780.15 789.758H1773.99V853.601C1773.99 857.832 1774.21 860.477 1774.66 861.535C1775.15 862.593 1776.06 863.529 1777.41 864.343C1778.79 865.116 1780.66 865.502 1783.02 865.502H1785.77V867.761H1742.43V865.502H1745.18C1747.58 865.502 1749.51 865.075 1750.98 864.221C1752.04 863.651 1752.87 862.674 1753.48 861.291C1753.93 860.314 1754.15 857.751 1754.15 853.601V789.758H1748.17C1742.6 789.758 1738.55 790.938 1736.02 793.298C1732.48 796.594 1730.25 801.293 1729.31 807.397H1726.99V784.997H1801.33ZM1839.91 789.758V823.449H1841.55C1846.8 823.449 1850.61 821.801 1852.97 818.505C1855.33 815.209 1856.83 810.347 1857.48 803.918H1859.8V847.253H1857.48C1857 842.533 1855.96 838.667 1854.37 835.656C1852.83 832.645 1851.01 830.631 1848.94 829.614C1846.86 828.556 1843.85 828.027 1839.91 828.027V851.342C1839.91 855.9 1840.09 858.687 1840.46 859.704C1840.86 860.721 1841.59 861.556 1842.65 862.207C1843.71 862.858 1845.42 863.183 1847.78 863.183H1852.72C1860.45 863.183 1866.64 861.393 1871.28 857.812C1875.96 854.231 1879.31 848.779 1881.35 841.455H1883.61L1879.88 867.761H1808.35V865.502H1811.1C1813.5 865.502 1815.43 865.075 1816.9 864.221C1817.95 863.651 1818.77 862.674 1819.34 861.291C1819.78 860.314 1820.01 857.751 1820.01 853.601V799.157C1820.01 795.414 1819.91 793.115 1819.7 792.26C1819.3 790.836 1818.54 789.737 1817.45 788.964C1815.9 787.825 1813.78 787.255 1811.1 787.255H1808.35V784.997H1877.63V809.472H1875.31C1874.13 803.491 1872.46 799.198 1870.3 796.594C1868.19 793.99 1865.17 792.077 1861.27 790.856C1858.99 790.124 1854.72 789.758 1848.45 789.758H1839.91ZM1890.87 867.761V865.502H1893.62C1896.02 865.502 1897.85 865.136 1899.11 864.404C1900.41 863.631 1901.37 862.593 1901.98 861.291C1902.35 860.437 1902.53 857.873 1902.53 853.601V799.157C1902.53 794.925 1902.3 792.281 1901.86 791.223C1901.41 790.165 1900.49 789.249 1899.11 788.476C1897.77 787.662 1895.94 787.255 1893.62 787.255H1890.87V784.997H1927.92C1937.81 784.997 1945.76 786.34 1951.78 789.025C1959.15 792.321 1964.72 797.306 1968.51 803.979C1972.33 810.652 1974.24 818.2 1974.24 826.623C1974.24 832.442 1973.31 837.813 1971.44 842.736C1969.57 847.619 1967.14 851.668 1964.17 854.882C1961.2 858.056 1957.77 860.62 1953.86 862.573C1949.99 864.485 1945.25 865.97 1939.64 867.028C1937.16 867.517 1933.25 867.761 1927.92 867.761H1890.87ZM1922.43 789.697V854.272C1922.43 857.69 1922.59 859.785 1922.91 860.559C1923.24 861.332 1923.79 861.922 1924.56 862.329C1925.66 862.939 1927.25 863.244 1929.32 863.244C1936.12 863.244 1941.31 860.925 1944.89 856.286C1949.77 850.02 1952.21 840.295 1952.21 827.111C1952.21 816.491 1950.54 808.007 1947.21 801.66C1944.56 796.695 1941.16 793.318 1937.01 791.528C1934.08 790.266 1929.22 789.656 1922.43 789.697Z" fill="#ED1B23"/>
</g>
<defs>
<clipPath id="clip0_1_9">
<rect width="2004" height="899" fill="white"/>
</clipPath>
</defs>
</svg>
