<svg width="37" height="36" viewBox="0 0 37 36" fill="none" xmlns="http://www.w3.org/2000/svg">
<g clip-path="url(#clip0_209_752)">
<path d="M31.0803 21.9206C30.996 21.8829 30.9122 21.8452 30.8272 21.8081L30.5735 21.843C29.885 21.9386 29.2089 22.271 29.2095 22.5034L29.2168 27.369C29.2173 27.6035 29.8935 28.1509 30.5792 28.5007L30.8317 28.6284V28.6295L31.0843 28.6121C31.4752 28.5845 31.7357 28.2943 31.7357 27.8854V22.9033C31.7357 22.4938 31.473 22.0984 31.0803 21.9206Z" fill="#ED1B23"/>
<path d="M6.88374 17.2316C6.88206 18.5501 6.88037 19.8686 6.87981 21.186C7.40181 21.299 8.49868 21.6399 8.49812 22.4066L8.48968 27.2447C8.48799 27.9995 7.38268 28.6909 6.87081 28.9929L6.86743 32.1755C6.91693 32.1626 6.96924 32.1485 7.02212 32.1362C9.24287 31.5219 14.8392 31.784 17.6747 33.4676L17.6792 20.3287C16.1706 18.4595 9.98199 16.6151 6.88374 17.2316Z" fill="#101828"/>
<path d="M24.8416 12.4954C24.8382 12.1759 24.8087 11.8572 24.7533 11.5425L25.061 8.2699H11.939L12.2467 11.5425C12.1907 11.8571 12.1611 12.1759 12.1583 12.4954C12.1505 15.835 14.9838 18.3139 18.5 18.3043C22.015 18.3139 24.8495 15.835 24.8416 12.4954Z" fill="#ED1B23"/>
<path d="M11.4469 7.94925H25.5539V9.27562L26.2519 8.53144V10.2679C26.0011 10.4676 26.1985 10.8568 26.1985 11.3113C26.1985 11.9677 26.1844 11.385 26.6238 11.385C27.0636 11.385 27.0496 11.9672 27.0496 11.3113C27.0496 10.8568 27.2476 10.4676 26.995 10.2679V8.13375L29.1201 6.25725L18.5001 2.53125L7.88013 6.25725L11.4469 9.27619V7.94925Z" fill="#ED1B23"/>
<path d="M7.78272 27.369C7.78609 25.7479 7.78778 24.1256 7.79115 22.5034C7.79115 22.2705 7.11447 21.9397 6.42709 21.843L6.1734 21.8081C6.08847 21.8447 6.00409 21.8829 5.91972 21.9206C5.53272 22.0944 5.2644 22.5017 5.2644 22.9039V27.8859C5.2644 28.2949 5.52484 28.5851 5.9169 28.6121C6.00072 28.6189 6.08509 28.6245 6.1689 28.6301L6.42203 28.5007C7.10659 28.1509 7.78272 27.603 7.78272 27.369Z" fill="#ED1B23"/>
<path d="M28.5092 27.2447L28.5014 22.4066C28.5002 21.6388 29.5988 21.2985 30.1214 21.1849L30.1169 17.2316C27.0214 16.6219 20.8294 18.4596 19.3208 20.3293L19.3253 33.4682C22.2301 31.738 28.0097 31.5253 30.1332 32.1767L30.1292 28.9941C29.6191 28.6931 28.5115 28.0001 28.5092 27.2447Z" fill="#101828"/>
</g>
<defs>
<clipPath id="clip0_209_752">
<rect width="36" height="36" fill="white" transform="translate(0.5)"/>
</clipPath>
</defs>
</svg>
