<svg width="37" height="36" viewBox="0 0 37 36" fill="none" xmlns="http://www.w3.org/2000/svg">
<path d="M33.9156 6.98182L31.5883 0.558545C31.5883 0.558545 31.5883 0.558545 31.5883 0.465455L31.4952 0.372364C31.4952 0.372364 31.4021 0.372364 31.4021 0.279273L31.309 0.186182C31.309 0.186182 31.2159 0.186182 31.2159 0.0930909C31.2159 0.0930909 31.1228 0.0930909 31.1228 0H31.0298H30.9367H30.8436H6.26757H6.17448H6.08139H5.9883C5.9883 0 5.89521 2.08074e-08 5.89521 0.0930909C5.89521 0.0930909 5.80211 0.0930908 5.80211 0.186182L5.70902 0.279273C5.70902 0.279273 5.70902 0.372364 5.61593 0.372364L5.52284 0.465455C5.52284 0.465455 5.52284 0.465455 5.52284 0.558545L3.19557 6.98182C3.10248 7.35418 3.10248 7.63345 3.38175 7.91273L11.853 17.3149C9.52575 19.2698 8.0363 22.1556 8.0363 25.4138C8.0363 31.1855 12.7839 35.9331 18.5556 35.9331C24.3272 35.9331 28.9818 31.2785 28.9818 25.4138C28.9818 22.1556 27.4923 19.2698 25.165 17.3149L33.6363 7.91273C34.0087 7.72655 34.1017 7.35418 33.9156 6.98182ZM22.4654 8.28509L18.5556 12.4742L14.5527 8.28509H22.4654ZM27.1199 25.4138C27.1199 30.1615 23.2101 34.0713 18.4625 34.0713C13.7148 34.0713 9.80502 30.1615 9.80502 25.4138C9.80502 20.6662 13.7148 16.7564 18.4625 16.7564C23.3032 16.7564 27.1199 20.6662 27.1199 25.4138Z" fill="#ED1B23"/>
<path d="M24.1794 24.2677L21.9452 26.5019L22.5038 29.5739C22.5969 29.9462 22.4107 30.3186 22.1314 30.5048C21.8521 30.691 21.4798 30.691 21.1074 30.5979L18.3147 29.1084L15.522 30.5979C15.4289 30.691 15.2427 30.691 15.1496 30.691C14.9634 30.691 14.7772 30.5979 14.5911 30.5048C14.3118 30.3186 14.1256 29.9462 14.2187 29.5739L14.7772 26.5019L12.5431 24.2677C12.2638 23.9884 12.1707 23.6161 12.3569 23.3368C12.45 22.9644 12.7292 22.7782 13.1016 22.6851L16.1736 22.2197L17.57 19.427C17.8492 18.7753 18.9663 18.7753 19.2456 19.427L20.642 22.2197L23.8071 22.6851C24.1794 22.7782 24.4587 22.9644 24.5518 23.3368C24.5518 23.7091 24.4587 24.0815 24.1794 24.2677Z" fill="#101828"/>
</svg>
