<svg width="37" height="36" viewBox="0 0 37 36" fill="none" xmlns="http://www.w3.org/2000/svg">
<g clip-path="url(#clip0_211_812)">
<path d="M30.2829 13.9748L21.3421 11.5475C21.1895 11.5068 21.0266 11.5373 20.8994 11.634C20.7722 11.7307 20.7009 11.8782 20.7009 12.036V30.2128C20.7009 30.4927 20.9248 30.7217 21.2098 30.7217H30.1506C30.4305 30.7217 30.6595 30.4927 30.6595 30.2128V14.4633C30.6595 14.2343 30.5018 14.0358 30.2829 13.9748ZM27.305 27.1752H24.0555C23.7742 27.1752 23.5466 26.9476 23.5466 26.6663C23.5466 26.3851 23.7742 26.1575 24.0555 26.1575H27.305C27.5863 26.1575 27.8139 26.3851 27.8139 26.6663C27.8139 26.9476 27.5863 27.1752 27.305 27.1752ZM27.305 22.9219H24.0555C23.7742 22.9219 23.5466 22.6943 23.5466 22.413C23.5466 22.1317 23.7742 21.9041 24.0555 21.9041H27.305C27.5863 21.9041 27.8139 22.1317 27.8139 22.413C27.8139 22.6943 27.5863 22.9219 27.305 22.9219ZM27.305 18.668H24.0555C23.7742 18.668 23.5466 18.4404 23.5466 18.1592C23.5466 17.8779 23.7742 17.6503 24.0555 17.6503H27.305C27.5863 17.6503 27.8139 17.8779 27.8139 18.1592C27.8139 18.4404 27.5863 18.668 27.305 18.668Z" fill="#101828"/>
<path d="M18.6654 5.27832H6.84945C6.56448 5.27832 6.34058 5.50222 6.34058 5.78719V30.2129C6.34058 30.4928 6.56448 30.7218 6.84945 30.7218H10.136V25.12C10.136 24.8387 10.3636 24.6111 10.6449 24.6111H14.8659C15.1472 24.6111 15.3748 24.8387 15.3748 25.12V30.7218H18.6654C18.9453 30.7218 19.1742 30.4928 19.1742 30.2129V5.78719C19.1742 5.50222 18.9453 5.27832 18.6654 5.27832ZM15.8588 22.0036H9.65202C9.37075 22.0036 9.14315 21.776 9.14315 21.4948C9.14315 21.2135 9.37075 20.9859 9.65202 20.9859H15.8588C16.1401 20.9859 16.3677 21.2135 16.3677 21.4948C16.3677 21.776 16.1401 22.0036 15.8588 22.0036ZM15.8588 17.9754H9.65202C9.37075 17.9754 9.14315 17.7478 9.14315 17.4666C9.14315 17.1853 9.37075 16.9577 9.65202 16.9577H15.8588C16.1401 16.9577 16.3677 17.1853 16.3677 17.4666C16.3677 17.7478 16.1401 17.9754 15.8588 17.9754ZM15.8588 13.9477H9.65202C9.37075 13.9477 9.14315 13.7201 9.14315 13.4388C9.14315 13.1576 9.37075 12.93 9.65202 12.93H15.8588C16.1401 12.93 16.3677 13.1576 16.3677 13.4388C16.3677 13.7201 16.1401 13.9477 15.8588 13.9477ZM15.8588 9.91949H9.65202C9.37075 9.91949 9.14315 9.69189 9.14315 9.41062C9.14315 9.12935 9.37075 8.90175 9.65202 8.90175H15.8588C16.1401 8.90175 16.3677 9.12935 16.3677 9.41062C16.3677 9.69189 16.1401 9.91949 15.8588 9.91949Z" fill="#ED1B23"/>
</g>
<defs>
<clipPath id="clip0_211_812">
<rect width="36" height="36" fill="white" transform="translate(0.5)"/>
</clipPath>
</defs>
</svg>
