<svg width="218" height="202" viewBox="0 0 218 202" fill="none" xmlns="http://www.w3.org/2000/svg">
<g clip-path="url(#clip0_4131_18615)">
<path d="M208.65 98.7341C205.12 99.7274 196.79 98.5922 196.79 98.5922C196.649 98.5922 199.19 93.3421 199.473 93.0583C201.732 89.5109 208.368 83.8352 212.886 85.1122C216.274 85.9636 217.686 89.6528 216.557 92.7745C215.286 95.8962 211.756 97.8827 208.65 98.7341Z" fill="#FFDC44"/>
<path d="M129.276 95.3285C129.135 95.3285 128.429 89.5109 128.429 89.2271C128.429 84.9702 130.688 76.5984 135.348 75.0376C138.595 73.9024 141.843 76.1728 142.549 79.4363C143.254 82.6999 141.419 86.3892 139.301 88.8014C136.901 91.7812 129.276 95.3285 129.276 95.3285Z" fill="#FF99A1"/>
<path d="M113.486 79.862C116.028 81.2809 121.958 81.8485 123.37 81.9904C124.076 82.9837 124.923 84.1188 125.629 85.254C127.041 87.3824 128.735 89.9365 130.288 92.6325C130.712 93.342 131.135 94.1933 131.559 94.9028C130.571 93.7677 129.159 92.2068 129.017 92.0649C126.335 89.5108 119.416 86.2472 115.745 88.2338C113.063 89.7946 112.639 93.2001 114.333 95.4704C116.028 97.8826 119.558 98.8759 122.381 98.8759C125.346 99.0178 130.994 96.7475 132.124 96.1799C132.971 97.8826 133.959 99.7272 134.665 101.714C136.077 105.119 137.348 108.667 138.336 112.498C138.195 112.498 138.195 112.498 138.054 112.64C137.348 111.505 135.654 108.95 135.512 108.809C133.112 105.971 126.617 101.998 122.805 103.558C119.981 104.694 119.275 108.099 120.687 110.653C122.099 113.207 125.629 114.484 128.312 114.91C131.559 115.336 138.336 113.349 138.619 113.207C139.325 116.755 139.889 120.586 140.172 124.559C140.454 127.397 140.595 130.235 140.595 133.073C140.03 132.221 137.913 128.958 137.63 128.816C135.23 125.978 128.735 122.005 124.923 123.566C122.099 124.701 121.393 128.106 122.805 130.66C124.217 133.214 127.747 134.491 130.429 134.917C133.536 135.343 140.03 133.498 140.595 133.214C140.595 134.491 140.736 135.769 140.736 137.046C140.878 141.302 140.878 145.559 141.16 149.816C141.301 151.235 141.301 152.654 141.442 154.215C140.595 152.938 139.042 150.667 138.901 150.526C136.501 147.688 130.006 143.715 126.194 145.275C123.37 146.411 122.664 149.816 124.076 152.37C125.488 154.924 129.017 156.201 131.7 156.627C134.524 157.053 140.03 155.492 141.584 155.066C141.866 157.478 142.148 159.891 142.431 162.161C142.572 163.154 142.713 164.147 142.996 165.141C143.278 166.134 143.419 167.127 143.701 167.979C144.266 169.965 144.69 171.668 145.113 173.513C145.396 174.364 145.678 175.215 145.819 176.067C145.113 174.648 144.125 172.519 143.984 172.377C142.007 169.114 136.218 164.289 132.124 165.283C129.159 165.992 127.888 169.256 128.876 171.952C129.865 174.79 133.112 176.492 135.795 177.344C138.76 178.195 145.255 177.344 146.102 177.344C146.808 179.472 147.372 181.601 148.078 183.445C148.643 185.006 149.067 186.567 149.632 187.986H152.455C151.749 186.283 151.185 184.58 150.479 182.736C149.914 181.033 149.208 179.188 148.643 177.202C149.349 176.918 154.997 174.648 157.397 172.377C159.797 173.938 162.48 175.215 162.904 175.499C162.198 177.627 161.633 179.756 161.068 181.742C160.503 184.013 159.939 185.999 159.374 187.986H162.056C162.48 186.141 162.904 184.438 163.327 182.31C163.751 180.465 164.316 178.621 164.739 176.776C165.586 176.918 171.94 178.195 175.046 177.486C177.729 176.776 181.117 175.357 182.247 172.519C183.377 169.823 182.388 166.56 179.423 165.566C175.47 164.289 169.398 168.83 167.139 171.81C166.998 171.952 165.586 174.506 164.88 175.783C165.163 174.648 165.586 173.513 165.869 172.235C166.433 170.533 166.998 168.688 167.563 166.985C167.845 166.134 168.269 165.141 168.551 164.289C168.834 163.296 169.257 162.445 169.681 161.593C170.246 160.316 170.81 158.897 171.516 157.62C173.211 158.33 178.294 159.891 180.976 159.749C183.8 159.607 187.33 158.472 188.883 156.059C190.436 153.647 189.871 150.242 187.189 148.823C183.518 146.836 176.74 150.526 174.058 153.08C173.917 153.222 173.493 153.789 172.928 154.499C173.634 153.222 174.199 151.945 175.046 150.667C177.164 146.978 179.282 143.431 181.4 139.742C181.823 139.032 182.247 138.181 182.671 137.471C184.082 138.039 189.589 139.883 192.413 139.742C195.237 139.6 198.766 138.465 200.32 136.052C201.873 133.64 201.308 130.235 198.625 128.816C194.954 126.829 188.177 130.518 185.494 133.073C185.353 133.214 184.788 133.924 184.082 134.775C185.212 132.789 186.342 130.802 187.471 128.674C189.307 125.126 191.001 121.579 192.272 117.89C192.836 118.032 199.19 120.444 202.296 120.16C205.12 120.018 208.65 118.883 210.203 116.471C211.756 114.059 211.191 110.653 208.509 109.234C204.838 107.248 198.061 110.937 195.378 113.491C195.237 113.633 193.119 116.329 192.272 117.322V117.18C193.542 113.349 194.39 109.518 194.954 105.971C195.519 102.423 195.801 98.8759 195.943 95.6123C196.084 92.3487 196.084 89.5108 195.943 86.8148C195.943 85.3959 195.801 84.1188 195.801 82.9837H195.943C195.943 82.9837 197.778 78.1592 197.919 77.8755C198.767 74.1862 198.343 66.6658 194.813 64.3955C192.272 62.8346 189.024 64.1117 187.754 66.6658C186.483 69.3618 187.33 72.9091 188.742 75.4632C190.013 78.0174 194.672 81.8485 195.801 82.6999C195.801 83.9769 195.943 85.254 195.943 86.8148C195.943 89.3689 195.943 92.3487 195.66 95.4704C195.66 96.3218 195.519 97.1731 195.378 98.1664C195.237 96.6056 194.954 94.619 194.813 94.3353C193.966 90.646 190.013 84.1188 185.777 83.835C182.812 83.5512 180.553 86.2472 180.694 89.0851C180.835 92.0649 183.235 94.7609 185.494 96.4637C187.895 98.1664 193.825 99.4435 195.095 99.7272C194.954 101.714 194.672 103.7 194.248 105.829C193.542 109.376 192.695 113.207 191.283 116.897C191.142 116.897 191.142 116.897 191.001 116.897C191.001 115.478 191.001 112.498 190.86 112.214C190.295 108.525 187.189 101.572 183.094 100.862C180.129 100.295 177.588 102.707 177.305 105.545C177.023 108.525 179.282 111.505 181.259 113.349C183.659 115.478 190.436 117.606 190.719 117.606C189.307 121.153 187.753 124.559 185.918 127.964C184.506 130.377 183.094 132.931 181.541 135.343C181.541 134.35 181.541 130.377 181.4 130.235C180.835 126.545 177.729 119.593 173.634 118.883C170.669 118.315 168.128 120.728 167.845 123.566C167.563 126.545 169.822 129.525 171.799 131.37C174.199 133.498 180.694 135.485 181.259 135.627C180.553 136.762 179.847 137.755 179.141 139.032C176.882 142.579 174.623 146.269 172.505 149.816C171.799 151.093 171.093 152.37 170.387 153.647C170.387 152.086 170.387 149.39 170.246 149.249C169.681 145.559 166.575 138.606 162.48 137.897C159.515 137.329 156.974 139.742 156.691 142.579C156.409 145.559 158.668 148.539 160.645 150.384C162.762 152.228 168.269 154.073 169.681 154.641C168.551 156.769 167.563 158.897 166.575 161.026C166.151 161.877 165.727 162.87 165.445 163.864C165.022 164.715 164.739 165.708 164.457 166.56C163.751 168.404 163.186 170.107 162.621 171.952C162.339 172.803 162.056 173.654 161.774 174.506C162.056 172.945 162.339 170.533 162.339 170.391C162.48 166.702 160.362 159.323 156.409 157.904C153.585 156.911 150.761 158.897 150.055 161.735C149.914 162.161 149.914 162.445 149.914 162.87C147.937 165.566 146.808 169.539 146.667 172.094C146.667 172.377 146.808 175.215 146.949 176.634C146.525 175.499 146.243 174.364 145.819 173.087C145.255 171.384 144.831 169.539 144.266 167.695C143.984 166.843 143.843 165.85 143.56 164.857C143.278 163.864 143.137 163.012 142.996 162.019C142.713 160.6 142.572 159.181 142.29 157.62C144.125 157.195 149.349 155.776 151.467 154.073C153.726 152.37 155.985 149.532 155.985 146.553C155.985 143.573 153.585 141.161 150.62 141.444C146.384 141.87 142.854 148.539 142.148 152.228C142.148 152.37 142.007 153.08 142.007 154.073C141.866 152.654 141.725 151.235 141.584 149.674C141.301 145.559 141.019 141.302 140.878 137.046C140.878 136.194 140.736 135.201 140.736 134.35C142.29 133.924 147.937 132.505 150.196 130.802C152.455 129.099 154.714 126.262 154.714 123.282C154.714 120.302 152.314 117.89 149.349 118.174C145.113 118.599 141.584 125.268 140.878 128.958C140.878 129.099 140.736 130.093 140.595 131.086C140.454 128.816 140.313 126.403 140.03 124.133C139.607 120.16 139.042 116.329 138.054 112.498C138.619 112.356 145.255 110.795 147.796 108.95C150.055 107.248 152.314 104.41 152.314 101.43C152.314 98.4502 149.914 96.038 146.949 96.3218C142.713 96.7475 139.183 103.417 138.477 107.106C138.477 107.39 138.054 110.795 138.054 112.072V111.93C137.065 108.099 135.654 104.41 134.1 101.004C132.547 97.5988 130.853 94.619 129.3 91.7811C127.606 89.0851 126.052 86.6729 124.499 84.4026C123.652 83.2675 122.946 82.2742 122.24 81.2809H122.381C122.523 81.2809 121.252 76.3146 121.111 76.0308C119.84 72.4835 115.322 66.382 111.086 66.5239C108.121 66.6658 106.144 69.5037 106.427 72.3416C108.262 76.0308 111.086 78.443 113.486 79.862Z" fill="#FFDC44"/>
<path d="M145.01 40.5571H120.301V188.27H145.01V40.5571Z" fill="white" stroke="#263238" stroke-width="0.3226" stroke-miterlimit="10"/>
<path d="M145.01 156.485H120.301V168.546H145.01V156.485Z" stroke="#263238" stroke-width="0.4451" stroke-miterlimit="10" stroke-linecap="round" stroke-linejoin="round"/>
<path d="M145.01 55.5979H120.301V67.659H145.01V55.5979Z" stroke="#263238" stroke-width="0.4451" stroke-miterlimit="10" stroke-linecap="round" stroke-linejoin="round"/>
<path d="M170.142 40.5571H144.869V188.27H170.142V40.5571Z" fill="white" stroke="#263238" stroke-width="0.3226" stroke-miterlimit="10"/>
<path d="M170.142 156.485H144.869V168.546H170.142V156.485Z" stroke="#263238" stroke-width="0.4451" stroke-miterlimit="10" stroke-linecap="round" stroke-linejoin="round"/>
<path d="M170.142 55.5979H144.869V67.659H170.142V55.5979Z" stroke="#263238" stroke-width="0.4451" stroke-miterlimit="10" stroke-linecap="round" stroke-linejoin="round"/>
<path d="M169.439 188.27V171.81L154.078 188.27H169.439Z" stroke="#263238" stroke-width="0.4451" stroke-miterlimit="10" stroke-linecap="round" stroke-linejoin="round"/>
<path d="M169.439 40.5571H152.784L169.439 57.0169V40.5571Z" stroke="#263238" stroke-width="0.4451" stroke-miterlimit="10" stroke-linecap="round" stroke-linejoin="round"/>
<path d="M218.4 188.495H9.40139" stroke="#263238" stroke-width="0.3226" stroke-miterlimit="10" stroke-linecap="round" stroke-linejoin="round"/>
<path d="M94.7737 130.148V118.603H96.7543C97.4145 118.603 98.0747 117.94 98.0747 117.276C98.0747 116.613 97.4145 115.949 96.7543 115.949H94.7737V74.6805H96.7543C97.4145 74.6805 98.0747 74.017 98.0747 73.3535C98.0747 72.69 97.4145 72.0266 96.7543 72.0266H94.7737V69.2399C96.7543 68.1783 98.2067 65.9225 98.2067 63.4012C98.2067 60.88 96.8863 58.6241 94.7737 57.5625V40.0464H89.7561V57.4298C87.6435 58.3587 86.059 60.7473 86.059 63.4012C86.059 66.0552 87.5115 68.311 89.7561 69.3726V72.0266H87.7755C87.1153 72.0266 86.4551 72.69 86.4551 73.3535C86.4551 74.017 87.1153 74.6805 87.7755 74.6805H89.7561V115.949H87.7755C87.1153 115.949 86.4551 116.613 86.4551 117.276C86.4551 117.94 87.1153 118.603 87.7755 118.603H89.7561V130.015C87.6435 130.944 86.059 133.333 86.059 135.987C86.059 138.641 87.5115 140.897 89.7561 141.958V177.256C89.7561 177.654 90.0202 177.919 90.4163 177.919H94.1135C94.5096 177.919 94.7737 177.654 94.7737 177.256V141.825C96.7543 140.764 98.2067 138.508 98.2067 135.987C98.0747 133.466 96.7543 131.21 94.7737 130.148Z" fill="#263238" stroke="#263238" stroke-width="0.3226" stroke-miterlimit="10" stroke-linecap="round" stroke-linejoin="round"/>
<path d="M92.7933 35.4021H45.6548C45.6548 35.4021 46.579 39.7811 42.2217 39.7811C39.1848 39.7811 38.1285 37.9233 39.5809 34.8713C40.5052 32.7481 36.2799 35.4021 36.1478 38.3214C35.8838 41.6389 40.2411 43.2312 43.6742 42.7004C47.1072 42.0369 48.1635 38.9849 48.1635 38.9849L92.7933 43.4966V35.4021Z" fill="#263238" stroke="#263238" stroke-width="0.3226" stroke-miterlimit="10" stroke-linecap="round" stroke-linejoin="round"/>
<path d="M92.793 35.4021H139.932C139.932 35.4021 139.007 39.7811 143.365 39.7811C146.402 39.7811 147.458 37.9233 146.005 34.8713C145.081 32.7481 149.306 35.4021 149.438 38.3214C149.703 41.6389 145.345 43.2312 141.912 42.7004C138.479 42.0369 137.423 38.9849 137.423 38.9849L92.793 43.4966V35.4021Z" fill="#263238" stroke="#263238" stroke-width="0.3226" stroke-miterlimit="10" stroke-linecap="round" stroke-linejoin="round"/>
<path d="M91.6048 8.59714L88.964 49.8661L92.397 54.9086L95.3019 49.8661L92.7932 8.59714C92.7932 7.80095 91.6048 7.80095 91.6048 8.59714Z" fill="#263238" stroke="#263238" stroke-width="0.3226" stroke-miterlimit="10" stroke-linecap="round" stroke-linejoin="round"/>
<path d="M96.094 40.0465C96.094 37.9233 94.3775 36.0656 92.1328 36.0656C89.8881 36.0656 88.1716 37.7906 88.1716 40.0465C88.1716 42.3023 89.8881 44.0274 92.1328 44.0274C94.3775 43.8947 96.094 42.1696 96.094 40.0465Z" fill="#263238" stroke="#9E9E9E" stroke-width="0.3226" stroke-miterlimit="10" stroke-linecap="round" stroke-linejoin="round"/>
<path d="M93.7173 40.0464C93.7173 39.2502 93.0571 38.5867 92.2649 38.5867C91.4726 38.5867 90.8124 39.2502 90.8124 40.0464C90.8124 40.8426 91.4726 41.5061 92.2649 41.5061C93.0571 41.5061 93.7173 40.8426 93.7173 40.0464Z" fill="#263238" stroke="#9E9E9E" stroke-width="0.3226" stroke-miterlimit="10" stroke-linecap="round" stroke-linejoin="round"/>
<path d="M43.8059 44.1601C43.2778 44.2928 42.7496 44.0274 42.4855 43.4966L42.0894 42.5678C41.9574 42.037 42.2215 41.5062 42.7496 41.2408C43.2778 41.1081 43.8059 41.3735 44.07 41.9043L44.4661 42.8332C44.5982 43.3639 44.3341 43.8947 43.8059 44.1601Z" fill="white" stroke="#263238" stroke-width="0.3226" stroke-miterlimit="10" stroke-linecap="round" stroke-linejoin="round"/>
<path d="M42.2214 39.5157L43.2778 42.3023" stroke="#263238" stroke-width="0.3226" stroke-miterlimit="10" stroke-linecap="round" stroke-linejoin="round"/>
<path d="M45.1263 47.8756C44.5982 48.0083 44.07 47.7429 43.8059 47.2121L43.5418 46.2832C43.4098 45.7524 43.6739 45.2216 44.202 44.9562C44.7302 44.8235 45.2584 45.0889 45.5225 45.6197L45.9186 46.5486C45.9186 47.2121 45.6545 47.7429 45.1263 47.8756Z" fill="white" stroke="#263238" stroke-width="0.3226" stroke-miterlimit="10" stroke-linecap="round" stroke-linejoin="round"/>
<path d="M43.5418 43.3639L44.5981 46.1505" stroke="#263238" stroke-width="0.3226" stroke-miterlimit="10" stroke-linecap="round" stroke-linejoin="round"/>
<path d="M46.5787 51.5911C46.0505 51.7238 45.5224 51.4584 45.2583 50.9276L44.8622 49.9987C44.7301 49.4679 44.9942 48.9372 45.5224 48.6718C46.0505 48.5391 46.5787 48.8045 46.8428 49.3352L47.2389 50.2641C47.2389 50.9276 46.9748 51.4584 46.5787 51.5911Z" fill="white" stroke="#263238" stroke-width="0.3226" stroke-miterlimit="10" stroke-linecap="round" stroke-linejoin="round"/>
<path d="M44.9942 47.2122L45.9185 49.8661" stroke="#263238" stroke-width="0.3226" stroke-miterlimit="10" stroke-linecap="round" stroke-linejoin="round"/>
<path d="M47.899 55.4394C47.3709 55.5721 46.8427 55.3067 46.5786 54.7759L46.1825 53.847C46.0505 53.3162 46.3146 52.7854 46.8427 52.52C47.3709 52.3873 47.899 52.6527 48.1631 53.1835L48.5593 54.1124C48.5593 54.6432 48.2952 55.3067 47.899 55.4394Z" fill="white" stroke="#263238" stroke-width="0.3226" stroke-miterlimit="10" stroke-linecap="round" stroke-linejoin="round"/>
<path d="M46.3147 50.9276L47.239 53.7142" stroke="#263238" stroke-width="0.3226" stroke-miterlimit="10" stroke-linecap="round" stroke-linejoin="round"/>
<path d="M49.2194 59.2876C48.6912 59.4203 48.1631 59.1549 47.899 58.6241L47.5029 57.6953C47.3708 57.1645 47.6349 56.6337 48.1631 56.3683C48.6912 56.2356 49.2194 56.501 49.4835 57.0318L49.8796 57.9607C49.8796 58.4914 49.6155 59.0222 49.2194 59.2876Z" fill="white" stroke="#263238" stroke-width="0.3226" stroke-miterlimit="10" stroke-linecap="round" stroke-linejoin="round"/>
<path d="M47.6351 54.7758L48.5594 57.4298" stroke="#263238" stroke-width="0.3226" stroke-miterlimit="10" stroke-linecap="round" stroke-linejoin="round"/>
<path d="M50.5399 63.0031C50.0117 63.1358 49.4835 62.8704 49.2194 62.3397L48.8233 61.4108C48.6913 60.88 48.9554 60.3492 49.4835 60.0838C50.0117 59.9511 50.5399 60.2165 50.8039 60.7473L51.2001 61.6762C51.2001 62.207 50.936 62.8704 50.5399 63.0031Z" fill="white" stroke="#263238" stroke-width="0.3226" stroke-miterlimit="10" stroke-linecap="round" stroke-linejoin="round"/>
<path d="M48.9555 58.4915L49.8798 61.2781" stroke="#263238" stroke-width="0.3226" stroke-miterlimit="10" stroke-linecap="round" stroke-linejoin="round"/>
<path d="M51.8603 66.8514C51.3322 66.9841 50.804 66.7187 50.5399 66.1879L50.1438 65.259C50.0118 64.7283 50.2758 64.1975 50.804 63.9321C51.3322 63.7994 51.8603 64.0648 52.1244 64.5956L52.5205 65.5244C52.6526 66.0552 52.2565 66.586 51.8603 66.8514Z" fill="white" stroke="#263238" stroke-width="0.3226" stroke-miterlimit="10" stroke-linecap="round" stroke-linejoin="round"/>
<path d="M50.276 62.3396L51.2002 64.9936" stroke="#263238" stroke-width="0.3226" stroke-miterlimit="10" stroke-linecap="round" stroke-linejoin="round"/>
<path d="M53.1807 70.5668C52.6525 70.6995 52.1243 70.4341 51.8603 69.9033L51.4641 68.9744C51.3321 68.4436 51.5962 67.9129 52.1243 67.6475C52.6525 67.5148 53.1807 67.7802 53.4447 68.311L53.8409 69.2398C53.9729 69.9033 53.5768 70.4341 53.1807 70.5668Z" fill="white" stroke="#263238" stroke-width="0.3226" stroke-miterlimit="10" stroke-linecap="round" stroke-linejoin="round"/>
<path d="M51.5963 66.0551L52.5206 68.8418" stroke="#263238" stroke-width="0.3226" stroke-miterlimit="10" stroke-linecap="round" stroke-linejoin="round"/>
<path d="M54.5011 74.4151C53.973 74.5478 53.4448 74.2824 53.1807 73.7516L52.7846 72.8227C52.6526 72.2919 52.9167 71.7611 53.4448 71.4957C53.973 71.363 54.5011 71.6284 54.7652 72.1592L55.1613 73.0881C55.2934 73.6189 54.8973 74.1497 54.5011 74.4151Z" fill="white" stroke="#263238" stroke-width="0.3226" stroke-miterlimit="10" stroke-linecap="round" stroke-linejoin="round"/>
<path d="M52.9168 69.9034L53.841 72.5573" stroke="#263238" stroke-width="0.3226" stroke-miterlimit="10" stroke-linecap="round" stroke-linejoin="round"/>
<path d="M55.8216 78.1307C55.2934 78.2634 54.7653 77.998 54.5012 77.4672L54.1051 76.5383C53.973 76.0075 54.2371 75.4767 54.7653 75.2113C55.2934 75.0786 55.8216 75.344 56.0857 75.8748L56.4818 76.8037C56.6138 77.4672 56.3498 77.998 55.8216 78.1307Z" fill="white" stroke="#263238" stroke-width="0.3226" stroke-miterlimit="10" stroke-linecap="round" stroke-linejoin="round"/>
<path d="M54.2372 73.6189L55.1615 76.4055" stroke="#263238" stroke-width="0.3226" stroke-miterlimit="10" stroke-linecap="round" stroke-linejoin="round"/>
<path d="M57.1419 81.9789C56.6138 82.1116 56.0856 81.8462 55.8215 81.3154L55.4254 80.3865C55.2934 79.8557 55.5575 79.3249 56.0856 79.0595C56.6138 78.9268 57.1419 79.1922 57.406 79.723L57.8021 80.6519C57.9342 81.1827 57.6701 81.8462 57.1419 81.9789Z" fill="white" stroke="#263238" stroke-width="0.3226" stroke-miterlimit="10" stroke-linecap="round" stroke-linejoin="round"/>
<path d="M55.5574 77.4672L56.4817 80.1211" stroke="#263238" stroke-width="0.3226" stroke-miterlimit="10" stroke-linecap="round" stroke-linejoin="round"/>
<path d="M58.4623 85.8271C57.9341 85.9598 57.406 85.6944 57.1419 85.1636L56.7458 84.2348C56.6137 83.704 56.8778 83.1732 57.406 82.9078C57.9341 82.7751 58.4623 83.0405 58.7264 83.5713L59.1225 84.5001C59.2545 85.0309 58.9904 85.5617 58.4623 85.8271Z" fill="white" stroke="#263238" stroke-width="0.3226" stroke-miterlimit="10" stroke-linecap="round" stroke-linejoin="round"/>
<path d="M56.8779 81.1827L57.8022 83.9693" stroke="#263238" stroke-width="0.3226" stroke-miterlimit="10" stroke-linecap="round" stroke-linejoin="round"/>
<path d="M59.7826 89.5427C59.2545 89.6754 58.7263 89.41 58.4622 88.8792L58.0661 87.9503C57.934 87.4195 58.1981 86.8887 58.7263 86.6234C59.2545 86.4907 59.7826 86.7561 60.0467 87.2868L60.4428 88.2157C60.5749 88.7465 60.3108 89.41 59.7826 89.5427Z" fill="white" stroke="#263238" stroke-width="0.3226" stroke-miterlimit="10" stroke-linecap="round" stroke-linejoin="round"/>
<path d="M58.1982 85.0309L59.1225 87.6848" stroke="#263238" stroke-width="0.3226" stroke-miterlimit="10" stroke-linecap="round" stroke-linejoin="round"/>
<path d="M61.1031 93.2582C60.5749 93.3909 60.0468 93.1255 59.7827 92.5947L59.3866 91.6658C59.2545 91.135 59.5186 90.6042 60.0468 90.3388C60.5749 90.2061 61.1031 90.4715 61.3672 91.0023L61.7633 91.9312C61.8953 92.5947 61.6313 93.1255 61.1031 93.2582Z" fill="white" stroke="#263238" stroke-width="0.3226" stroke-miterlimit="10" stroke-linecap="round" stroke-linejoin="round"/>
<path d="M59.5187 88.7465L60.443 91.5331" stroke="#263238" stroke-width="0.3226" stroke-miterlimit="10" stroke-linecap="round" stroke-linejoin="round"/>
<path d="M40.1087 44.0273C40.6369 44.16 41.165 43.8946 41.4291 43.3638L41.8252 42.4349C41.9573 41.9042 41.6932 41.3734 41.165 41.108C40.6369 40.9753 40.1087 41.2407 39.8446 41.7715L39.4485 42.7003C39.3165 43.3638 39.5805 43.8946 40.1087 44.0273Z" fill="white" stroke="#263238" stroke-width="0.3226" stroke-miterlimit="10" stroke-linecap="round" stroke-linejoin="round"/>
<path d="M41.6934 39.5157L40.7692 42.3023" stroke="#263238" stroke-width="0.3226" stroke-miterlimit="10" stroke-linecap="round" stroke-linejoin="round"/>
<path d="M38.7884 47.8756C39.3165 48.0083 39.8447 47.7429 40.1088 47.2121L40.5049 46.2832C40.6369 45.7524 40.3729 45.2216 39.8447 44.9562C39.3165 44.8235 38.7884 45.0889 38.5243 45.6197L38.1282 46.5486C37.9961 47.0794 38.2602 47.6102 38.7884 47.8756Z" fill="white" stroke="#263238" stroke-width="0.3226" stroke-miterlimit="10" stroke-linecap="round" stroke-linejoin="round"/>
<path d="M40.373 43.3639L39.4487 46.0178" stroke="#263238" stroke-width="0.3226" stroke-miterlimit="10" stroke-linecap="round" stroke-linejoin="round"/>
<path d="M37.4679 51.5911C37.9961 51.7238 38.5242 51.4584 38.7883 50.9276L39.1844 49.9987C39.3165 49.4679 39.0524 48.9372 38.5242 48.6718C37.9961 48.5391 37.4679 48.8045 37.2038 49.3352L36.8077 50.2641C36.6756 50.9276 36.9397 51.4584 37.4679 51.5911Z" fill="white" stroke="#263238" stroke-width="0.3226" stroke-miterlimit="10" stroke-linecap="round" stroke-linejoin="round"/>
<path d="M39.0526 47.0793L37.9963 49.866" stroke="#263238" stroke-width="0.3226" stroke-miterlimit="10" stroke-linecap="round" stroke-linejoin="round"/>
<path d="M36.1475 55.4394C36.6757 55.5721 37.2039 55.3067 37.468 54.7759L37.8641 53.847C37.9961 53.3162 37.732 52.7854 37.2039 52.52C36.6757 52.3873 36.1475 52.6527 35.8835 53.1835L35.4873 54.1124C35.3553 54.6432 35.6194 55.174 36.1475 55.4394Z" fill="white" stroke="#263238" stroke-width="0.3226" stroke-miterlimit="10" stroke-linecap="round" stroke-linejoin="round"/>
<path d="M37.6001 50.9276L36.6758 53.5815" stroke="#263238" stroke-width="0.3226" stroke-miterlimit="10" stroke-linecap="round" stroke-linejoin="round"/>
<path d="M34.8272 59.1549C35.3553 59.2876 35.8835 59.0222 36.1476 58.4915L36.5437 57.5626C36.6757 57.0318 36.4117 56.501 35.8835 56.2356C35.3553 56.1029 34.8272 56.3683 34.5631 56.8991L34.167 57.828C33.9029 58.4915 34.299 59.0222 34.8272 59.1549Z" fill="white" stroke="#263238" stroke-width="0.3226" stroke-miterlimit="10" stroke-linecap="round" stroke-linejoin="round"/>
<path d="M36.2797 54.6432L35.3555 57.4298" stroke="#263238" stroke-width="0.3226" stroke-miterlimit="10" stroke-linecap="round" stroke-linejoin="round"/>
<path d="M33.3747 63.0031C33.9028 63.1358 34.431 62.8704 34.6951 62.3397L35.0912 61.4108C35.2232 60.88 34.9591 60.3492 34.431 60.0838C33.9028 59.9511 33.3747 60.2165 33.1106 60.7473L32.7144 61.6762C32.5824 62.207 32.8465 62.7377 33.3747 63.0031Z" fill="white" stroke="#263238" stroke-width="0.3226" stroke-miterlimit="10" stroke-linecap="round" stroke-linejoin="round"/>
<path d="M34.9593 58.4915L34.035 61.1454" stroke="#263238" stroke-width="0.3226" stroke-miterlimit="10" stroke-linecap="round" stroke-linejoin="round"/>
<path d="M32.0543 66.7187C32.5825 66.8514 33.1106 66.586 33.3747 66.0552L33.7708 65.1263C33.9029 64.5955 33.6388 64.0647 33.1106 63.7993C32.5825 63.6666 32.0543 63.932 31.7902 64.4628L31.3941 65.3917C31.2621 66.0552 31.5262 66.586 32.0543 66.7187Z" fill="white" stroke="#263238" stroke-width="0.3226" stroke-miterlimit="10" stroke-linecap="round" stroke-linejoin="round"/>
<path d="M33.6389 62.2068L32.7147 64.9935" stroke="#263238" stroke-width="0.3226" stroke-miterlimit="10" stroke-linecap="round" stroke-linejoin="round"/>
<path d="M30.734 70.5668C31.2621 70.6995 31.7903 70.4341 32.0544 69.9033L32.4505 68.9744C32.5825 68.4436 32.3185 67.9129 31.7903 67.6475C31.2621 67.5148 30.734 67.7802 30.4699 68.311L30.0738 69.2398C29.9417 69.7706 30.2058 70.3014 30.734 70.5668Z" fill="white" stroke="#263238" stroke-width="0.3226" stroke-miterlimit="10" stroke-linecap="round" stroke-linejoin="round"/>
<path d="M32.3185 66.0551L31.3942 68.7091" stroke="#263238" stroke-width="0.3226" stroke-miterlimit="10" stroke-linecap="round" stroke-linejoin="round"/>
<path d="M29.4135 74.2824C29.9417 74.4151 30.4698 74.1497 30.7339 73.6189L31.13 72.69C31.2621 72.1592 30.998 71.6284 30.4698 71.363C29.9417 71.2303 29.4135 71.4957 29.1494 72.0265L28.7533 72.9554C28.6213 73.6189 28.8853 74.1497 29.4135 74.2824Z" fill="white" stroke="#263238" stroke-width="0.3226" stroke-miterlimit="10" stroke-linecap="round" stroke-linejoin="round"/>
<path d="M30.998 69.7707L30.0737 72.5573" stroke="#263238" stroke-width="0.3226" stroke-miterlimit="10" stroke-linecap="round" stroke-linejoin="round"/>
<path d="M28.093 78.1307C28.6212 78.2634 29.1494 77.998 29.4134 77.4672L29.8096 76.5383C29.9416 76.0075 29.6775 75.4767 29.1494 75.2113C28.6212 75.0786 28.093 75.344 27.829 75.8748L27.4328 76.8037C27.3008 77.3345 27.5649 77.998 28.093 78.1307Z" fill="white" stroke="#263238" stroke-width="0.3226" stroke-miterlimit="10" stroke-linecap="round" stroke-linejoin="round"/>
<path d="M29.6776 73.6189L28.6213 76.2728" stroke="#263238" stroke-width="0.3226" stroke-miterlimit="10" stroke-linecap="round" stroke-linejoin="round"/>
<path d="M26.7727 81.8462C27.3009 81.9789 27.829 81.7135 28.0931 81.1827L28.4892 80.2538C28.6213 79.723 28.3572 79.1922 27.829 78.9268C27.3009 78.7941 26.7727 79.0595 26.5086 79.5903L26.1125 80.5192C25.9805 81.1827 26.2445 81.7135 26.7727 81.8462Z" fill="white" stroke="#263238" stroke-width="0.3226" stroke-miterlimit="10" stroke-linecap="round" stroke-linejoin="round"/>
<path d="M28.2254 77.3344L27.3011 80.1211" stroke="#263238" stroke-width="0.3226" stroke-miterlimit="10" stroke-linecap="round" stroke-linejoin="round"/>
<path d="M25.4522 85.6944C25.9804 85.8271 26.5085 85.5617 26.7726 85.0309L27.1687 84.1021C27.3008 83.5713 27.0367 83.0405 26.5085 82.7751C25.9804 82.6424 25.4522 82.9078 25.1881 83.4386L24.792 84.3675C24.5279 84.8982 24.924 85.429 25.4522 85.6944Z" fill="white" stroke="#263238" stroke-width="0.3226" stroke-miterlimit="10" stroke-linecap="round" stroke-linejoin="round"/>
<path d="M26.9049 81.1827L25.9806 83.8366" stroke="#263238" stroke-width="0.3226" stroke-miterlimit="10" stroke-linecap="round" stroke-linejoin="round"/>
<path d="M23.9998 89.4099C24.528 89.5426 25.0561 89.2773 25.3202 88.7465L25.7163 87.8176C25.8484 87.2868 25.5843 86.756 25.0561 86.4906C24.528 86.3579 23.9998 86.6233 23.7357 87.1541L23.3396 88.083C23.2076 88.6138 23.4716 89.2773 23.9998 89.4099Z" fill="white" stroke="#263238" stroke-width="0.3226" stroke-miterlimit="10" stroke-linecap="round" stroke-linejoin="round"/>
<path d="M25.5846 84.8982L24.6603 87.6848" stroke="#263238" stroke-width="0.3226" stroke-miterlimit="10" stroke-linecap="round" stroke-linejoin="round"/>
<path d="M22.6795 93.2582C23.2076 93.3909 23.7358 93.1255 23.9999 92.5947L24.396 91.6658C24.528 91.135 24.264 90.6042 23.7358 90.3388C23.2076 90.2061 22.6795 90.4715 22.4154 91.0023L22.0193 91.9312C21.8872 92.462 22.1513 92.9928 22.6795 93.2582Z" fill="white" stroke="#263238" stroke-width="0.3226" stroke-miterlimit="10" stroke-linecap="round" stroke-linejoin="round"/>
<path d="M24.2641 88.7465L23.3398 91.4004" stroke="#263238" stroke-width="0.3226" stroke-miterlimit="10" stroke-linecap="round" stroke-linejoin="round"/>
<path d="M41.5612 44.5582C42.0894 44.5582 42.4855 44.1601 42.6175 43.6293V42.7004C42.6175 42.1696 42.2214 41.7716 41.6933 41.6389C41.1651 41.6389 40.769 42.0369 40.6369 42.5677V43.4966C40.6369 44.0274 41.0331 44.5582 41.5612 44.5582Z" fill="white" stroke="#263238" stroke-width="0.3226" stroke-miterlimit="10" stroke-linecap="round" stroke-linejoin="round"/>
<path d="M41.6932 39.6484L41.5611 42.5677" stroke="#263238" stroke-width="0.3226" stroke-miterlimit="10" stroke-linecap="round" stroke-linejoin="round"/>
<path d="M41.5613 48.5391C42.0895 48.5391 42.4856 48.141 42.6176 47.6102V46.6813C42.6176 46.1505 42.2215 45.7524 41.6933 45.6198C41.1652 45.6198 40.7691 46.0178 40.637 46.5486V47.4775C40.505 48.0083 41.0331 48.5391 41.5613 48.5391Z" fill="white" stroke="#263238" stroke-width="0.3226" stroke-miterlimit="10" stroke-linecap="round" stroke-linejoin="round"/>
<path d="M41.5611 43.762V46.5487" stroke="#263238" stroke-width="0.3226" stroke-miterlimit="10" stroke-linecap="round" stroke-linejoin="round"/>
<path d="M41.4293 52.52C41.9574 52.52 42.3536 52.1219 42.4856 51.5911V50.6622C42.4856 50.1314 42.0895 49.7333 41.5613 49.6006C41.0331 49.6006 40.637 49.9987 40.505 50.5295V51.4584C40.505 52.1219 40.9011 52.52 41.4293 52.52Z" fill="white" stroke="#263238" stroke-width="0.3226" stroke-miterlimit="10" stroke-linecap="round" stroke-linejoin="round"/>
<path d="M41.5612 47.743L41.4292 50.6624" stroke="#263238" stroke-width="0.3226" stroke-miterlimit="10" stroke-linecap="round" stroke-linejoin="round"/>
<path d="M41.4291 56.501C41.9572 56.501 42.3534 56.1029 42.4854 55.5721V54.6432C42.4854 54.1125 42.0893 53.7144 41.5611 53.5817C41.033 53.5817 40.6368 53.9798 40.5048 54.5105V55.4394C40.3728 56.1029 40.9009 56.501 41.4291 56.501Z" fill="white" stroke="#263238" stroke-width="0.3226" stroke-miterlimit="10" stroke-linecap="round" stroke-linejoin="round"/>
<path d="M41.4292 51.7239V54.6432" stroke="#263238" stroke-width="0.3226" stroke-miterlimit="10" stroke-linecap="round" stroke-linejoin="round"/>
<path d="M41.2972 60.6145C41.8253 60.6145 42.2215 60.2164 42.3535 59.6857V58.7568C42.3535 58.226 41.9574 57.8279 41.4292 57.6952C40.9011 57.6952 40.5049 58.0933 40.3729 58.6241V59.553C40.3729 60.0837 40.769 60.6145 41.2972 60.6145Z" fill="white" stroke="#263238" stroke-width="0.3226" stroke-miterlimit="10" stroke-linecap="round" stroke-linejoin="round"/>
<path d="M41.4292 55.7048V58.6241" stroke="#263238" stroke-width="0.3226" stroke-miterlimit="10" stroke-linecap="round" stroke-linejoin="round"/>
<path d="M41.2972 64.5956C41.8253 64.5956 42.2215 64.1975 42.3535 63.6667V62.7378C42.3535 62.207 41.9574 61.8089 41.4292 61.6762C40.9011 61.6762 40.5049 62.0743 40.3729 62.6051V63.534C40.3729 64.0648 40.769 64.5956 41.2972 64.5956Z" fill="white" stroke="#263238" stroke-width="0.3226" stroke-miterlimit="10" stroke-linecap="round" stroke-linejoin="round"/>
<path d="M41.2971 59.8184V62.6051" stroke="#263238" stroke-width="0.3226" stroke-miterlimit="10" stroke-linecap="round" stroke-linejoin="round"/>
<path d="M41.2971 68.5765C41.8253 68.5765 42.2214 68.1784 42.3534 67.6476V66.7187C42.3534 66.1879 41.9573 65.7898 41.4292 65.6571C40.901 65.6571 40.5049 66.0552 40.3728 66.586V67.5149C40.2408 68.1784 40.769 68.5765 41.2971 68.5765Z" fill="white" stroke="#263238" stroke-width="0.3226" stroke-miterlimit="10" stroke-linecap="round" stroke-linejoin="round"/>
<path d="M41.2971 63.7993V66.7186" stroke="#263238" stroke-width="0.3226" stroke-miterlimit="10" stroke-linecap="round" stroke-linejoin="round"/>
<path d="M41.1651 72.5574C41.6933 72.5574 42.0894 72.1593 42.2214 71.6285V70.6996C42.2214 70.1689 41.8253 69.7708 41.2971 69.6381C40.769 69.6381 40.3728 70.0362 40.2408 70.5669V71.4958C40.2408 72.1593 40.6369 72.5574 41.1651 72.5574Z" fill="white" stroke="#263238" stroke-width="0.3226" stroke-miterlimit="10" stroke-linecap="round" stroke-linejoin="round"/>
<path d="M41.2971 67.7803V70.6996" stroke="#263238" stroke-width="0.3226" stroke-miterlimit="10" stroke-linecap="round" stroke-linejoin="round"/>
<path d="M41.1652 76.671C41.6933 76.671 42.0895 76.2729 42.2215 75.7421V74.8132C42.2215 74.2824 41.8254 73.8843 41.2972 73.7516C40.7691 73.7516 40.3729 74.1497 40.2409 74.6805V75.6094C40.1088 76.1402 40.637 76.671 41.1652 76.671Z" fill="white" stroke="#263238" stroke-width="0.3226" stroke-miterlimit="10" stroke-linecap="round" stroke-linejoin="round"/>
<path d="M41.1652 71.7612V74.6806" stroke="#263238" stroke-width="0.3226" stroke-miterlimit="10" stroke-linecap="round" stroke-linejoin="round"/>
<path d="M41.033 80.652C41.5612 80.652 41.9573 80.2539 42.0893 79.7231V78.7942C42.0893 78.2634 41.6932 77.8653 41.1651 77.7326C40.6369 77.7326 40.2408 78.1307 40.1087 78.6615V79.5904C40.1087 80.1212 40.5048 80.5193 41.033 80.652Z" fill="white" stroke="#263238" stroke-width="0.3226" stroke-miterlimit="10" stroke-linecap="round" stroke-linejoin="round"/>
<path d="M41.1652 75.8748V78.6614" stroke="#263238" stroke-width="0.3226" stroke-miterlimit="10" stroke-linecap="round" stroke-linejoin="round"/>
<path d="M41.033 84.6328C41.5612 84.6328 41.9573 84.2348 42.0893 83.704V82.7751C42.0893 82.2443 41.6932 81.8462 41.1651 81.7135C40.6369 81.7135 40.2408 82.1116 40.1087 82.6424V83.5713C40.1087 84.2348 40.5048 84.6328 41.033 84.6328Z" fill="white" stroke="#263238" stroke-width="0.3226" stroke-miterlimit="10" stroke-linecap="round" stroke-linejoin="round"/>
<path d="M41.1652 79.8557L41.0332 82.775" stroke="#263238" stroke-width="0.3226" stroke-miterlimit="10" stroke-linecap="round" stroke-linejoin="round"/>
<path d="M41.0329 88.6137C41.5611 88.6137 41.9572 88.2157 42.0893 87.6849V86.756C42.0893 86.2252 41.6932 85.8271 41.165 85.6944C40.6368 85.6944 40.2407 86.0925 40.1087 86.6233V87.5522C39.9766 88.2156 40.3727 88.6137 41.0329 88.6137Z" fill="white" stroke="#263238" stroke-width="0.3226" stroke-miterlimit="10" stroke-linecap="round" stroke-linejoin="round"/>
<path d="M41.0332 83.8367V86.7561" stroke="#263238" stroke-width="0.3226" stroke-miterlimit="10" stroke-linecap="round" stroke-linejoin="round"/>
<path d="M40.9011 92.5948C41.4292 92.5948 41.8253 92.1967 41.9574 91.6659V90.737C41.9574 90.2062 41.5613 89.8081 41.0331 89.6754C40.5049 89.6754 40.1088 90.0735 39.9768 90.6043V91.5332C39.9768 92.1967 40.3729 92.5948 40.9011 92.5948Z" fill="white" stroke="#263238" stroke-width="0.3226" stroke-miterlimit="10" stroke-linecap="round" stroke-linejoin="round"/>
<path d="M41.0332 87.8176L40.9011 90.737" stroke="#263238" stroke-width="0.3226" stroke-miterlimit="10" stroke-linecap="round" stroke-linejoin="round"/>
<path d="M40.901 96.7083C41.4292 96.7083 41.8253 96.3103 41.9573 95.7795V94.8506C41.9573 94.3198 41.5612 93.9217 41.033 93.789C40.5049 93.789 40.1088 94.1871 39.9767 94.7179V95.6468C39.8447 96.1775 40.2408 96.7083 40.901 96.7083Z" fill="white" stroke="#263238" stroke-width="0.3226" stroke-miterlimit="10" stroke-linecap="round" stroke-linejoin="round"/>
<path d="M40.9011 91.9312V94.7179" stroke="#263238" stroke-width="0.3226" stroke-miterlimit="10" stroke-linecap="round" stroke-linejoin="round"/>
<path d="M42.3534 98.5661C53.841 98.5661 63.2159 95.9121 63.612 92.5947H21.0949C21.491 96.0448 30.8659 98.5661 42.3534 98.5661Z" fill="#263238" stroke="#263238" stroke-width="0.3226" stroke-miterlimit="10" stroke-linecap="round" stroke-linejoin="round"/>
<path d="M145.345 44.1601C144.817 44.2928 144.289 44.0274 144.025 43.4966L143.629 42.5678C143.497 42.037 143.761 41.5062 144.289 41.2408C144.817 41.1081 145.345 41.3735 145.609 41.9043L146.006 42.8332C146.138 43.3639 145.874 43.8947 145.345 44.1601Z" fill="white" stroke="#263238" stroke-width="0.3226" stroke-miterlimit="10" stroke-linecap="round" stroke-linejoin="round"/>
<path d="M143.761 39.5157L144.685 42.3023" stroke="#263238" stroke-width="0.3226" stroke-miterlimit="10" stroke-linecap="round" stroke-linejoin="round"/>
<path d="M146.666 47.8756C146.138 48.0083 145.61 47.7429 145.345 47.2121L144.949 46.2832C144.817 45.7524 145.081 45.2216 145.61 44.9562C146.138 44.8235 146.666 45.0889 146.93 45.6197L147.326 46.5486C147.458 47.2121 147.194 47.7429 146.666 47.8756Z" fill="white" stroke="#263238" stroke-width="0.3226" stroke-miterlimit="10" stroke-linecap="round" stroke-linejoin="round"/>
<path d="M145.081 43.3639L146.006 46.1505" stroke="#263238" stroke-width="0.3226" stroke-miterlimit="10" stroke-linecap="round" stroke-linejoin="round"/>
<path d="M147.986 51.5911C147.458 51.7238 146.93 51.4584 146.666 50.9276L146.27 49.9987C146.138 49.4679 146.402 48.9372 146.93 48.6718C147.458 48.5391 147.986 48.8045 148.25 49.3352L148.646 50.2641C148.778 50.9276 148.514 51.4584 147.986 51.5911Z" fill="white" stroke="#263238" stroke-width="0.3226" stroke-miterlimit="10" stroke-linecap="round" stroke-linejoin="round"/>
<path d="M146.402 47.2122L147.326 49.8661" stroke="#263238" stroke-width="0.3226" stroke-miterlimit="10" stroke-linecap="round" stroke-linejoin="round"/>
<path d="M149.307 55.4394C148.778 55.5721 148.25 55.3067 147.986 54.7759L147.59 53.847C147.458 53.3162 147.722 52.7854 148.25 52.52C148.778 52.3873 149.307 52.6527 149.571 53.1835L149.967 54.1124C150.099 54.6432 149.835 55.3067 149.307 55.4394Z" fill="white" stroke="#263238" stroke-width="0.3226" stroke-miterlimit="10" stroke-linecap="round" stroke-linejoin="round"/>
<path d="M147.722 50.9276L148.778 53.7142" stroke="#263238" stroke-width="0.3226" stroke-miterlimit="10" stroke-linecap="round" stroke-linejoin="round"/>
<path d="M150.627 59.2876C150.099 59.4203 149.571 59.1549 149.307 58.6241L148.911 57.6953C148.779 57.1645 149.043 56.6337 149.571 56.3683C150.099 56.2356 150.627 56.501 150.891 57.0318L151.287 57.9607C151.419 58.4914 151.155 59.0222 150.627 59.2876Z" fill="white" stroke="#263238" stroke-width="0.3226" stroke-miterlimit="10" stroke-linecap="round" stroke-linejoin="round"/>
<path d="M149.042 54.7758L150.099 57.4298" stroke="#263238" stroke-width="0.3226" stroke-miterlimit="10" stroke-linecap="round" stroke-linejoin="round"/>
<path d="M151.947 63.0031C151.419 63.1358 150.891 62.8704 150.627 62.3397L150.231 61.4108C150.099 60.88 150.363 60.3492 150.891 60.0838C151.419 59.9511 151.947 60.2165 152.211 60.7473L152.608 61.6762C152.74 62.207 152.475 62.8704 151.947 63.0031Z" fill="white" stroke="#263238" stroke-width="0.3226" stroke-miterlimit="10" stroke-linecap="round" stroke-linejoin="round"/>
<path d="M150.495 58.4915L151.419 61.2781" stroke="#263238" stroke-width="0.3226" stroke-miterlimit="10" stroke-linecap="round" stroke-linejoin="round"/>
<path d="M153.268 66.8514C152.74 66.9841 152.211 66.7187 151.947 66.1879L151.551 65.259C151.419 64.7283 151.683 64.1975 152.211 63.9321C152.74 63.7994 153.268 64.0648 153.532 64.5956L153.928 65.5244C154.06 66.0552 153.796 66.586 153.268 66.8514Z" fill="white" stroke="#263238" stroke-width="0.3226" stroke-miterlimit="10" stroke-linecap="round" stroke-linejoin="round"/>
<path d="M151.815 62.3396L152.74 64.9936" stroke="#263238" stroke-width="0.3226" stroke-miterlimit="10" stroke-linecap="round" stroke-linejoin="round"/>
<path d="M154.588 70.5668C154.06 70.6995 153.532 70.4341 153.268 69.9033L152.872 68.9744C152.74 68.4436 153.004 67.9129 153.532 67.6475C154.06 67.5148 154.588 67.7802 154.852 68.311L155.248 69.2398C155.38 69.9033 155.116 70.4341 154.588 70.5668Z" fill="white" stroke="#263238" stroke-width="0.3226" stroke-miterlimit="10" stroke-linecap="round" stroke-linejoin="round"/>
<path d="M153.136 66.0551L154.06 68.8418" stroke="#263238" stroke-width="0.3226" stroke-miterlimit="10" stroke-linecap="round" stroke-linejoin="round"/>
<path d="M155.909 74.4151C155.38 74.5478 154.852 74.2824 154.588 73.7516L154.192 72.8227C154.06 72.2919 154.324 71.7611 154.852 71.4957C155.38 71.363 155.909 71.6284 156.173 72.1592L156.569 73.0881C156.701 73.6189 156.437 74.1497 155.909 74.4151Z" fill="white" stroke="#263238" stroke-width="0.3226" stroke-miterlimit="10" stroke-linecap="round" stroke-linejoin="round"/>
<path d="M154.456 69.9034L155.38 72.5573" stroke="#263238" stroke-width="0.3226" stroke-miterlimit="10" stroke-linecap="round" stroke-linejoin="round"/>
<path d="M157.229 78.1307C156.701 78.2634 156.173 77.998 155.909 77.4672L155.513 76.5383C155.38 76.0075 155.645 75.4767 156.173 75.2113C156.701 75.0786 157.229 75.344 157.493 75.8748L157.889 76.8037C158.021 77.4672 157.757 77.998 157.229 78.1307Z" fill="white" stroke="#263238" stroke-width="0.3226" stroke-miterlimit="10" stroke-linecap="round" stroke-linejoin="round"/>
<path d="M155.777 73.6189L156.701 76.4055" stroke="#263238" stroke-width="0.3226" stroke-miterlimit="10" stroke-linecap="round" stroke-linejoin="round"/>
<path d="M158.549 81.9789C158.021 82.1116 157.493 81.8462 157.229 81.3154L156.833 80.3865C156.701 79.8557 156.965 79.3249 157.493 79.0595C158.021 78.9268 158.549 79.1922 158.813 79.723L159.21 80.6519C159.474 81.1827 159.078 81.8462 158.549 81.9789Z" fill="white" stroke="#263238" stroke-width="0.3226" stroke-miterlimit="10" stroke-linecap="round" stroke-linejoin="round"/>
<path d="M157.097 77.4672L158.021 80.1211" stroke="#263238" stroke-width="0.3226" stroke-miterlimit="10" stroke-linecap="round" stroke-linejoin="round"/>
<path d="M159.87 85.8271C159.342 85.9598 158.814 85.6944 158.549 85.1636L158.153 84.2348C158.021 83.704 158.285 83.1732 158.814 82.9078C159.342 82.7751 159.87 83.0405 160.134 83.5713L160.53 84.5001C160.794 85.0309 160.398 85.5617 159.87 85.8271Z" fill="white" stroke="#263238" stroke-width="0.3226" stroke-miterlimit="10" stroke-linecap="round" stroke-linejoin="round"/>
<path d="M158.417 81.1827L159.341 83.9693" stroke="#263238" stroke-width="0.3226" stroke-miterlimit="10" stroke-linecap="round" stroke-linejoin="round"/>
<path d="M161.19 89.5427C160.662 89.6754 160.134 89.41 159.87 88.8792L159.474 87.9503C159.342 87.4195 159.606 86.8887 160.134 86.6234C160.662 86.4907 161.19 86.7561 161.454 87.2868L161.85 88.2157C162.114 88.7465 161.85 89.41 161.19 89.5427Z" fill="white" stroke="#263238" stroke-width="0.3226" stroke-miterlimit="10" stroke-linecap="round" stroke-linejoin="round"/>
<path d="M159.738 85.0309L160.662 87.6848" stroke="#263238" stroke-width="0.3226" stroke-miterlimit="10" stroke-linecap="round" stroke-linejoin="round"/>
<path d="M162.643 93.2582C162.114 93.3909 161.586 93.1255 161.322 92.5947L160.926 91.6658C160.794 91.135 161.058 90.6042 161.586 90.3388C162.114 90.2061 162.643 90.4715 162.907 91.0023L163.303 91.9312C163.435 92.5947 163.171 93.1255 162.643 93.2582Z" fill="white" stroke="#263238" stroke-width="0.3226" stroke-miterlimit="10" stroke-linecap="round" stroke-linejoin="round"/>
<path d="M161.058 88.7465L161.982 91.5331" stroke="#263238" stroke-width="0.3226" stroke-miterlimit="10" stroke-linecap="round" stroke-linejoin="round"/>
<path d="M141.648 44.0273C142.176 44.16 142.705 43.8946 142.969 43.3638L143.365 42.4349C143.497 41.9042 143.233 41.3734 142.705 41.108C142.176 40.9753 141.648 41.2407 141.384 41.7715L140.988 42.7003C140.856 43.3638 141.12 43.8946 141.648 44.0273Z" fill="white" stroke="#263238" stroke-width="0.3226" stroke-miterlimit="10" stroke-linecap="round" stroke-linejoin="round"/>
<path d="M143.233 39.5157L142.308 42.3023" stroke="#263238" stroke-width="0.3226" stroke-miterlimit="10" stroke-linecap="round" stroke-linejoin="round"/>
<path d="M140.196 47.8756C140.724 48.0083 141.252 47.7429 141.516 47.2121L141.912 46.2832C142.044 45.7524 141.78 45.2216 141.252 44.9562C140.724 44.8235 140.196 45.0889 139.932 45.6197L139.536 46.5486C139.536 47.0794 139.8 47.6102 140.196 47.8756Z" fill="white" stroke="#263238" stroke-width="0.3226" stroke-miterlimit="10" stroke-linecap="round" stroke-linejoin="round"/>
<path d="M141.912 43.3639L140.856 46.0178" stroke="#263238" stroke-width="0.3226" stroke-miterlimit="10" stroke-linecap="round" stroke-linejoin="round"/>
<path d="M138.875 51.5911C139.404 51.7238 139.932 51.4584 140.196 50.9276L140.592 49.9987C140.724 49.4679 140.46 48.9372 139.932 48.6718C139.404 48.5391 138.875 48.8045 138.611 49.3352L138.347 50.2641C138.215 50.9276 138.479 51.4584 138.875 51.5911Z" fill="white" stroke="#263238" stroke-width="0.3226" stroke-miterlimit="10" stroke-linecap="round" stroke-linejoin="round"/>
<path d="M140.46 47.0793L139.536 49.866" stroke="#263238" stroke-width="0.3226" stroke-miterlimit="10" stroke-linecap="round" stroke-linejoin="round"/>
<path d="M137.555 55.4394C138.083 55.5721 138.611 55.3067 138.875 54.7759L139.271 53.847C139.404 53.3162 139.139 52.7854 138.611 52.52C138.083 52.3873 137.555 52.6527 137.291 53.1835L136.895 54.1124C136.763 54.6432 137.159 55.174 137.555 55.4394Z" fill="white" stroke="#263238" stroke-width="0.3226" stroke-miterlimit="10" stroke-linecap="round" stroke-linejoin="round"/>
<path d="M139.139 50.9276L138.215 53.5815" stroke="#263238" stroke-width="0.3226" stroke-miterlimit="10" stroke-linecap="round" stroke-linejoin="round"/>
<path d="M136.235 59.1549C136.763 59.2876 137.291 59.0222 137.555 58.4915L137.951 57.5626C138.083 57.0318 137.819 56.501 137.291 56.2356C136.763 56.1029 136.235 56.3683 135.971 56.8991L135.574 57.828C135.442 58.4915 135.706 59.0222 136.235 59.1549Z" fill="white" stroke="#263238" stroke-width="0.3226" stroke-miterlimit="10" stroke-linecap="round" stroke-linejoin="round"/>
<path d="M137.819 54.6432L136.895 57.4298" stroke="#263238" stroke-width="0.3226" stroke-miterlimit="10" stroke-linecap="round" stroke-linejoin="round"/>
<path d="M134.914 63.0031C135.442 63.1358 135.971 62.8704 136.235 62.3397L136.631 61.4108C136.763 60.88 136.499 60.3492 135.971 60.0838C135.442 59.9511 134.914 60.2165 134.65 60.7473L134.254 61.6762C134.122 62.207 134.386 62.7377 134.914 63.0031Z" fill="white" stroke="#263238" stroke-width="0.3226" stroke-miterlimit="10" stroke-linecap="round" stroke-linejoin="round"/>
<path d="M136.499 58.4915L135.574 61.1454" stroke="#263238" stroke-width="0.3226" stroke-miterlimit="10" stroke-linecap="round" stroke-linejoin="round"/>
<path d="M133.594 66.7187C134.122 66.8514 134.65 66.586 134.914 66.0552L135.31 65.1263C135.442 64.5955 135.178 64.0647 134.65 63.7993C134.122 63.6666 133.594 63.932 133.33 64.4628L132.934 65.3917C132.802 66.0552 133.066 66.586 133.594 66.7187Z" fill="white" stroke="#263238" stroke-width="0.3226" stroke-miterlimit="10" stroke-linecap="round" stroke-linejoin="round"/>
<path d="M135.178 62.2068L134.254 64.9935" stroke="#263238" stroke-width="0.3226" stroke-miterlimit="10" stroke-linecap="round" stroke-linejoin="round"/>
<path d="M132.273 70.5668C132.801 70.6995 133.33 70.4341 133.594 69.9033L133.99 68.9744C134.122 68.4436 133.858 67.9129 133.33 67.6475C132.801 67.5148 132.273 67.7802 132.009 68.311L131.613 69.2398C131.481 69.7706 131.745 70.3014 132.273 70.5668Z" fill="white" stroke="#263238" stroke-width="0.3226" stroke-miterlimit="10" stroke-linecap="round" stroke-linejoin="round"/>
<path d="M133.858 66.0551L132.933 68.7091" stroke="#263238" stroke-width="0.3226" stroke-miterlimit="10" stroke-linecap="round" stroke-linejoin="round"/>
<path d="M130.953 74.2824C131.481 74.4151 132.009 74.1497 132.273 73.6189L132.669 72.69C132.801 72.1592 132.537 71.6284 132.009 71.363C131.481 71.2303 130.953 71.4957 130.689 72.0265L130.293 72.9554C130.161 73.6189 130.425 74.1497 130.953 74.2824Z" fill="white" stroke="#263238" stroke-width="0.3226" stroke-miterlimit="10" stroke-linecap="round" stroke-linejoin="round"/>
<path d="M132.537 69.7707L131.481 72.5573" stroke="#263238" stroke-width="0.3226" stroke-miterlimit="10" stroke-linecap="round" stroke-linejoin="round"/>
<path d="M129.632 78.1307C130.161 78.2634 130.689 77.998 130.953 77.4672L131.349 76.5383C131.481 76.0075 131.217 75.4767 130.689 75.2113C130.161 75.0786 129.632 75.344 129.368 75.8748L128.972 76.8037C128.84 77.3345 129.104 77.998 129.632 78.1307Z" fill="white" stroke="#263238" stroke-width="0.3226" stroke-miterlimit="10" stroke-linecap="round" stroke-linejoin="round"/>
<path d="M131.085 73.6189L130.161 76.2728" stroke="#263238" stroke-width="0.3226" stroke-miterlimit="10" stroke-linecap="round" stroke-linejoin="round"/>
<path d="M128.312 81.8462C128.84 81.9789 129.368 81.7135 129.632 81.1827L130.029 80.2538C130.161 79.723 129.897 79.1922 129.368 78.9268C128.84 78.7941 128.312 79.0595 128.048 79.5903L127.652 80.5192C127.388 81.1827 127.784 81.7135 128.312 81.8462Z" fill="white" stroke="#263238" stroke-width="0.3226" stroke-miterlimit="10" stroke-linecap="round" stroke-linejoin="round"/>
<path d="M129.765 77.3344L128.84 80.1211" stroke="#263238" stroke-width="0.3226" stroke-miterlimit="10" stroke-linecap="round" stroke-linejoin="round"/>
<path d="M126.86 85.6944C127.388 85.8271 127.916 85.5617 128.18 85.0309L128.576 84.1021C128.708 83.5713 128.444 83.0405 127.916 82.7751C127.388 82.6424 126.86 82.9078 126.596 83.4386L126.199 84.3675C126.067 84.8982 126.332 85.429 126.86 85.6944Z" fill="white" stroke="#263238" stroke-width="0.3226" stroke-miterlimit="10" stroke-linecap="round" stroke-linejoin="round"/>
<path d="M128.444 81.1827L127.52 83.8366" stroke="#263238" stroke-width="0.3226" stroke-miterlimit="10" stroke-linecap="round" stroke-linejoin="round"/>
<path d="M125.539 89.4099C126.067 89.5426 126.596 89.2773 126.86 88.7465L127.256 87.8176C127.388 87.2868 127.124 86.756 126.596 86.4906C126.067 86.3579 125.539 86.6233 125.275 87.1541L124.879 88.083C124.747 88.6138 125.011 89.2773 125.539 89.4099Z" fill="white" stroke="#263238" stroke-width="0.3226" stroke-miterlimit="10" stroke-linecap="round" stroke-linejoin="round"/>
<path d="M127.124 84.8982L126.2 87.6848" stroke="#263238" stroke-width="0.3226" stroke-miterlimit="10" stroke-linecap="round" stroke-linejoin="round"/>
<path d="M124.219 93.2582C124.747 93.3909 125.275 93.1255 125.539 92.5947L125.935 91.6658C126.067 91.135 125.803 90.6042 125.275 90.3388C124.747 90.2061 124.219 90.4715 123.955 91.0023L123.559 91.9312C123.426 92.462 123.691 92.9928 124.219 93.2582Z" fill="white" stroke="#263238" stroke-width="0.3226" stroke-miterlimit="10" stroke-linecap="round" stroke-linejoin="round"/>
<path d="M125.803 88.7465L124.879 91.4004" stroke="#263238" stroke-width="0.3226" stroke-miterlimit="10" stroke-linecap="round" stroke-linejoin="round"/>
<path d="M143.101 44.5582C143.629 44.5582 144.025 44.1601 144.157 43.6293V42.7004C144.157 42.1696 143.761 41.7716 143.233 41.6389C142.705 41.6389 142.308 42.0369 142.176 42.5677V43.4966C142.176 44.0274 142.573 44.5582 143.101 44.5582Z" fill="white" stroke="#263238" stroke-width="0.3226" stroke-miterlimit="10" stroke-linecap="round" stroke-linejoin="round"/>
<path d="M143.233 39.6484L143.101 42.5677" stroke="#263238" stroke-width="0.3226" stroke-miterlimit="10" stroke-linecap="round" stroke-linejoin="round"/>
<path d="M143.101 48.5391C143.629 48.5391 144.025 48.141 144.157 47.6102V46.6813C144.157 46.1505 143.761 45.7524 143.233 45.6198C142.704 45.6198 142.308 46.0178 142.176 46.5486V47.4775C142.044 48.0083 142.572 48.5391 143.101 48.5391Z" fill="white" stroke="#263238" stroke-width="0.3226" stroke-miterlimit="10" stroke-linecap="round" stroke-linejoin="round"/>
<path d="M143.101 43.762V46.5487" stroke="#263238" stroke-width="0.3226" stroke-miterlimit="10" stroke-linecap="round" stroke-linejoin="round"/>
<path d="M142.969 52.52C143.497 52.52 143.893 52.1219 144.025 51.5911V50.6622C144.025 50.1314 143.629 49.7333 143.101 49.6006C142.573 49.6006 142.176 49.9987 142.044 50.5295V51.4584C142.044 52.1219 142.44 52.52 142.969 52.52Z" fill="white" stroke="#263238" stroke-width="0.3226" stroke-miterlimit="10" stroke-linecap="round" stroke-linejoin="round"/>
<path d="M143.101 47.743L142.969 50.6624" stroke="#263238" stroke-width="0.3226" stroke-miterlimit="10" stroke-linecap="round" stroke-linejoin="round"/>
<path d="M142.969 56.501C143.497 56.501 143.893 56.1029 144.025 55.5721V54.6432C144.025 54.1125 143.629 53.7144 143.101 53.5817C142.572 53.5817 142.176 53.9798 142.044 54.5105V55.4394C141.912 56.1029 142.44 56.501 142.969 56.501Z" fill="white" stroke="#263238" stroke-width="0.3226" stroke-miterlimit="10" stroke-linecap="round" stroke-linejoin="round"/>
<path d="M142.969 51.7239V54.6432" stroke="#263238" stroke-width="0.3226" stroke-miterlimit="10" stroke-linecap="round" stroke-linejoin="round"/>
<path d="M142.837 60.6145C143.365 60.6145 143.761 60.2164 143.893 59.6857V58.7568C143.893 58.226 143.497 57.8279 142.969 57.6952C142.441 57.6952 142.044 58.0933 141.912 58.6241V59.553C141.912 60.0837 142.309 60.6145 142.837 60.6145Z" fill="white" stroke="#263238" stroke-width="0.3226" stroke-miterlimit="10" stroke-linecap="round" stroke-linejoin="round"/>
<path d="M142.969 55.7048L142.837 58.6241" stroke="#263238" stroke-width="0.3226" stroke-miterlimit="10" stroke-linecap="round" stroke-linejoin="round"/>
<path d="M142.837 64.5956C143.365 64.5956 143.761 64.1975 143.893 63.6667V62.7378C143.893 62.207 143.497 61.8089 142.969 61.6762C142.44 61.6762 142.044 62.0743 141.912 62.6051V63.534C141.78 64.0648 142.308 64.5956 142.837 64.5956Z" fill="white" stroke="#263238" stroke-width="0.3226" stroke-miterlimit="10" stroke-linecap="round" stroke-linejoin="round"/>
<path d="M142.837 59.8184V62.6051" stroke="#263238" stroke-width="0.3226" stroke-miterlimit="10" stroke-linecap="round" stroke-linejoin="round"/>
<path d="M142.704 68.5765C143.233 68.5765 143.629 68.1784 143.761 67.6476V66.7187C143.761 66.1879 143.365 65.7898 142.837 65.6571C142.308 65.6571 141.912 66.0552 141.78 66.586V67.5149C141.78 68.1784 142.176 68.5765 142.704 68.5765Z" fill="white" stroke="#263238" stroke-width="0.3226" stroke-miterlimit="10" stroke-linecap="round" stroke-linejoin="round"/>
<path d="M142.837 63.7993V66.7186" stroke="#263238" stroke-width="0.3226" stroke-miterlimit="10" stroke-linecap="round" stroke-linejoin="round"/>
<path d="M142.704 72.5574C143.233 72.5574 143.629 72.1593 143.761 71.6285V70.6996C143.761 70.1689 143.365 69.7708 142.837 69.6381C142.308 69.6381 141.912 70.0362 141.78 70.5669V71.4958C141.78 72.1593 142.176 72.5574 142.704 72.5574Z" fill="white" stroke="#263238" stroke-width="0.3226" stroke-miterlimit="10" stroke-linecap="round" stroke-linejoin="round"/>
<path d="M142.705 67.7803V70.6996" stroke="#263238" stroke-width="0.3226" stroke-miterlimit="10" stroke-linecap="round" stroke-linejoin="round"/>
<path d="M142.705 76.671C143.233 76.671 143.629 76.2729 143.761 75.7421V74.8132C143.761 74.2824 143.365 73.8843 142.837 73.7516C142.309 73.7516 141.912 74.1497 141.78 74.6805V75.6094C141.648 76.1402 142.044 76.671 142.705 76.671Z" fill="white" stroke="#263238" stroke-width="0.3226" stroke-miterlimit="10" stroke-linecap="round" stroke-linejoin="round"/>
<path d="M142.705 71.7612V74.6806" stroke="#263238" stroke-width="0.3226" stroke-miterlimit="10" stroke-linecap="round" stroke-linejoin="round"/>
<path d="M142.572 80.652C143.101 80.652 143.497 80.2539 143.629 79.7231V78.7942C143.629 78.2634 143.233 77.8653 142.704 77.7326C142.176 77.7326 141.78 78.1307 141.648 78.6615V79.5904C141.648 80.1212 142.044 80.5193 142.572 80.652Z" fill="white" stroke="#263238" stroke-width="0.3226" stroke-miterlimit="10" stroke-linecap="round" stroke-linejoin="round"/>
<path d="M142.705 75.8748L142.573 78.6614" stroke="#263238" stroke-width="0.3226" stroke-miterlimit="10" stroke-linecap="round" stroke-linejoin="round"/>
<path d="M142.573 84.6328C143.101 84.6328 143.497 84.2348 143.629 83.704V82.7751C143.629 82.2443 143.233 81.8462 142.705 81.7135C142.176 81.7135 141.78 82.1116 141.648 82.6424V83.5713C141.516 84.2348 142.044 84.6328 142.573 84.6328Z" fill="white" stroke="#263238" stroke-width="0.3226" stroke-miterlimit="10" stroke-linecap="round" stroke-linejoin="round"/>
<path d="M142.573 79.8557V82.775" stroke="#263238" stroke-width="0.3226" stroke-miterlimit="10" stroke-linecap="round" stroke-linejoin="round"/>
<path d="M142.44 88.6137C142.969 88.6137 143.365 88.2157 143.497 87.6849V86.756C143.497 86.2252 143.101 85.8271 142.572 85.6944C142.044 85.6944 141.648 86.0925 141.516 86.6233V87.5522C141.516 88.2156 141.912 88.6137 142.44 88.6137Z" fill="white" stroke="#263238" stroke-width="0.3226" stroke-miterlimit="10" stroke-linecap="round" stroke-linejoin="round"/>
<path d="M142.573 83.8367V86.7561" stroke="#263238" stroke-width="0.3226" stroke-miterlimit="10" stroke-linecap="round" stroke-linejoin="round"/>
<path d="M142.44 92.5948C142.969 92.5948 143.365 92.1967 143.497 91.6659V90.737C143.497 90.2062 143.101 89.8081 142.573 89.6754C142.044 89.6754 141.648 90.0735 141.516 90.6043V91.5332C141.384 92.1967 141.912 92.5948 142.44 92.5948Z" fill="white" stroke="#263238" stroke-width="0.3226" stroke-miterlimit="10" stroke-linecap="round" stroke-linejoin="round"/>
<path d="M142.441 87.8176V90.737" stroke="#263238" stroke-width="0.3226" stroke-miterlimit="10" stroke-linecap="round" stroke-linejoin="round"/>
<path d="M142.308 96.7083C142.837 96.7083 143.233 96.3103 143.365 95.7795V94.8506C143.365 94.3198 142.969 93.9217 142.441 93.789C141.912 93.789 141.516 94.1871 141.384 94.7179V95.6468C141.384 96.1775 141.78 96.7083 142.308 96.7083Z" fill="white" stroke="#263238" stroke-width="0.3226" stroke-miterlimit="10" stroke-linecap="round" stroke-linejoin="round"/>
<path d="M142.441 91.9312V94.7179" stroke="#263238" stroke-width="0.3226" stroke-miterlimit="10" stroke-linecap="round" stroke-linejoin="round"/>
<path d="M143.893 98.5661C155.38 98.5661 164.755 95.9121 165.151 92.5947H122.502C123.03 96.0448 132.405 98.5661 143.893 98.5661Z" fill="#263238" stroke="#263238" stroke-width="0.3226" stroke-miterlimit="10" stroke-linecap="round" stroke-linejoin="round"/>
<path d="M111.015 177.388H72.0626V182.298H111.015V177.388Z" fill="#263238" stroke="#263238" stroke-width="0.3226" stroke-miterlimit="10" stroke-linecap="round" stroke-linejoin="round"/>
<path d="M140.064 181.502H44.8624V188.27H140.064V181.502Z" fill="#263238" stroke="#263238" stroke-width="0.3226" stroke-miterlimit="10" stroke-linecap="round" stroke-linejoin="round"/>
<path d="M135.268 141.87H129.762V150.384H135.268V141.87Z" fill="#263238" stroke="#263238" stroke-width="0.3226" stroke-miterlimit="10" stroke-linecap="round" stroke-linejoin="round"/>
<path d="M132.162 154.073H130.326V174.506H132.162V154.073Z" fill="#263238" stroke="#263238" stroke-width="0.3226" stroke-miterlimit="10" stroke-linecap="round" stroke-linejoin="round"/>
<path d="M133.574 175.215V172.377H128.915V175.357L110.842 182.31V185.715H112.113V183.161L131.315 179.046L149.952 183.161V185.715H151.223V182.31L133.574 175.215Z" fill="white" stroke="#263238" stroke-width="0.3226" stroke-miterlimit="10" stroke-linecap="round" stroke-linejoin="round"/>
<path d="M135.692 154.073H126.797V159.607H135.692V154.073Z" fill="#263238" stroke="#263238" stroke-width="0.3226" stroke-miterlimit="10" stroke-linecap="round" stroke-linejoin="round"/>
<path d="M110.842 185.857C110.842 184.864 109.995 183.871 108.865 183.871C107.877 183.871 106.888 184.722 106.888 185.857C106.888 186.992 107.736 187.844 108.865 187.844C109.995 187.844 110.842 186.992 110.842 185.857Z" fill="#263238" stroke="#263238" stroke-width="0.3226" stroke-miterlimit="10" stroke-linecap="round" stroke-linejoin="round"/>
<path d="M109.712 185.857C109.712 185.432 109.289 185.006 108.865 185.006C108.442 185.006 108.018 185.432 108.018 185.857C108.018 186.283 108.442 186.709 108.865 186.709C109.289 186.709 109.712 186.283 109.712 185.857Z" fill="white" stroke="#263238" stroke-width="0.3226" stroke-miterlimit="10" stroke-linecap="round" stroke-linejoin="round"/>
<path d="M155.176 185.857C155.176 184.864 154.329 183.871 153.2 183.871C152.07 183.871 151.223 184.722 151.223 185.857C151.223 186.992 152.07 187.844 153.2 187.844C154.329 187.844 155.176 186.992 155.176 185.857Z" fill="#263238" stroke="#263238" stroke-width="0.3226" stroke-miterlimit="10" stroke-linecap="round" stroke-linejoin="round"/>
<path d="M154.047 185.857C154.047 185.432 153.623 185.006 153.2 185.006C152.776 185.006 152.352 185.432 152.352 185.857C152.352 186.283 152.776 186.709 153.2 186.709C153.764 186.709 154.047 186.283 154.047 185.857Z" fill="white" stroke="#263238" stroke-width="0.3226" stroke-miterlimit="10" stroke-linecap="round" stroke-linejoin="round"/>
<path d="M132.021 186.141H130.609L129.762 175.783H132.868L132.021 186.141Z" fill="white" stroke="#263238" stroke-width="0.3226" stroke-miterlimit="10" stroke-linecap="round" stroke-linejoin="round"/>
<path d="M132.021 184.013H130.467V188.269H132.021V184.013Z" fill="#263238" stroke="#263238" stroke-width="0.3226" stroke-miterlimit="10" stroke-linecap="round" stroke-linejoin="round"/>
<path d="M148.116 156.343L115.642 156.201C114.936 156.201 114.23 155.492 114.23 154.782V149.816C114.23 149.107 114.936 148.397 115.642 148.397L148.116 148.539C148.822 148.539 149.528 149.248 149.528 149.958V154.924C149.387 155.634 148.822 156.343 148.116 156.343Z" fill="#999999" stroke="#263238" stroke-width="0.3226" stroke-miterlimit="10" stroke-linecap="round" stroke-linejoin="round"/>
<path d="M121.855 142.438H143.599C145.434 142.438 146.846 140.877 146.564 139.032L143.74 116.045C143.457 114.059 141.904 112.64 139.928 112.64H125.244C123.267 112.64 121.714 114.059 121.431 116.045L118.608 139.032C118.608 140.877 120.019 142.438 121.855 142.438Z" fill="#999999" stroke="#263238" stroke-width="0.3226" stroke-miterlimit="10" stroke-linecap="round" stroke-linejoin="round"/>
<path d="M121.996 131.512C121.996 131.512 118.184 142.437 118.325 143.715C118.466 144.85 121.149 148.397 122.702 148.681C124.255 148.965 144.022 148.397 144.022 148.397C144.022 148.397 145.999 147.404 146.422 144.992C147.411 139.883 143.599 132.221 143.599 132.221L121.996 131.512Z" fill="#263238" stroke="#263238" stroke-width="0.3226" stroke-miterlimit="10" stroke-linecap="round" stroke-linejoin="round"/>
<path d="M120.019 131.654C120.019 132.789 121.008 133.782 122.137 133.782H124.679C124.82 133.498 135.268 133.64 135.268 133.782H143.034C144.022 133.782 144.869 132.789 144.587 131.654C144.446 131.37 144.446 131.228 144.446 131.228L144.163 124.275C144.163 124.275 144.305 122.998 144.446 121.011L145.575 124.133H153.482C153.482 124.133 148.54 107.531 147.693 105.403C147.128 103.984 146.14 103.275 145.575 102.849C145.01 102.139 142.751 101.146 142.751 101.146L137.245 98.3083L135.551 97.1732L126.938 99.0178L126.797 99.4435C126.797 99.4435 118.184 102.991 117.902 103.7C117.76 104.694 120.019 120.728 120.019 120.728V131.654Z" fill="white" stroke="#263238" stroke-width="0.3226" stroke-miterlimit="10" stroke-linecap="round" stroke-linejoin="round"/>
<path d="M130.891 109.944C130.891 109.944 130.891 118.174 131.032 119.309" stroke="#263238" stroke-width="0.3226" stroke-miterlimit="10" stroke-linecap="round" stroke-linejoin="round"/>
<path d="M143.175 108.099C143.175 108.099 142.469 113.917 142.751 116.187C143.034 118.457 144.728 121.011 144.728 121.011" stroke="#263238" stroke-width="0.3226" stroke-miterlimit="10" stroke-linecap="round" stroke-linejoin="round"/>
<path d="M139.504 113.633C139.504 113.633 140.069 118.032 142.893 119.593" stroke="#263238" stroke-width="0.3226" stroke-miterlimit="10" stroke-linecap="round" stroke-linejoin="round"/>
<path d="M139.928 119.167C139.928 119.167 142.187 121.153 143.457 121.153" stroke="#263238" stroke-width="0.3226" stroke-miterlimit="10" stroke-linecap="round" stroke-linejoin="round"/>
<path d="M145.575 121.579C145.575 121.579 148.117 119.309 148.964 119.309C149.811 119.309 151.223 120.018 151.223 120.018" stroke="#263238" stroke-width="0.3226" stroke-miterlimit="10" stroke-linecap="round" stroke-linejoin="round"/>
<path d="M130.468 107.815L128.35 105.971L126.655 107.673C126.655 107.673 126.232 109.092 125.95 108.809C125.667 108.525 126.091 105.971 126.091 104.694C126.091 103.417 126.091 101.288 126.091 101.288" stroke="#263238" stroke-width="0.3226" stroke-miterlimit="10" stroke-linecap="round" stroke-linejoin="round"/>
<path d="M131.032 108.099L133.715 106.113L135.268 107.673C135.268 107.673 135.974 109.092 136.256 108.809C136.539 108.525 136.821 104.977 136.962 102.991C137.245 101.004 136.68 99.3016 136.68 99.3016" stroke="#263238" stroke-width="0.3226" stroke-miterlimit="10" stroke-linecap="round" stroke-linejoin="round"/>
<path d="M127.079 99.3017C127.079 99.3017 127.22 101.572 127.22 102.423C127.22 103.133 131.032 108.099 131.032 108.099L134.562 103.559L135.55 98.3084L134.844 94.3353C135.127 94.1934 127.22 99.0179 127.079 99.3017Z" fill="white" stroke="#263238" stroke-width="0.3226" stroke-miterlimit="10" stroke-linecap="round" stroke-linejoin="round"/>
<path d="M136.962 89.369C136.962 89.369 137.668 86.2473 136.256 83.5513C134.703 80.8553 131.738 80.0039 129.903 80.4296C127.926 80.8553 126.655 81.1391 126.091 81.8486C125.526 82.558 126.232 83.977 126.232 83.977C126.232 83.977 124.255 84.2608 124.396 85.3959C124.396 86.3892 124.82 87.3825 124.961 87.6662C125.102 89.7947 125.243 94.0515 125.526 94.9029C125.808 95.8961 126.373 98.4502 127.22 99.0178C127.926 99.4435 130.891 99.3016 132.303 98.5921C133.574 97.8827 134.986 97.1732 135.268 95.8961C135.551 94.761 135.833 93.6258 135.833 93.6258C135.833 93.6258 137.527 92.9164 137.668 91.4974C137.668 90.0785 136.962 89.369 136.962 89.369Z" fill="white" stroke="#263238" stroke-width="0.3226" stroke-miterlimit="10" stroke-linecap="round" stroke-linejoin="round"/>
<path d="M136.257 83.6932C134.703 80.9972 131.738 80.1458 129.903 80.5715C127.926 80.9972 126.655 81.281 126.091 81.9905C125.526 82.6999 126.232 84.1189 126.232 84.1189C126.232 84.1189 124.255 84.4027 124.396 85.5378C124.396 86.1054 124.538 86.673 124.679 87.2406L124.961 87.3825C124.961 87.3825 125.667 84.9703 126.655 84.5446C127.503 84.1189 127.361 82.8418 128.773 84.4027C129.762 85.3959 133.856 87.3825 133.856 87.3825C133.856 87.3825 134.562 90.6461 134.986 90.2204C136.398 88.5176 137.104 89.369 137.104 89.369C137.104 89.369 137.81 86.2473 136.257 83.6932Z" fill="#263238" stroke="#263238" stroke-width="0.3226" stroke-miterlimit="10" stroke-linecap="round" stroke-linejoin="round"/>
<path d="M127.644 89.7946C127.644 89.7946 127.22 92.0649 127.22 92.6325C127.361 93.3419 127.361 93.7676 127.926 93.7676C128.632 93.6257 129.479 93.6257 129.338 93.0581" stroke="#263238" stroke-width="0.3226" stroke-miterlimit="10" stroke-linecap="round" stroke-linejoin="round"/>
<path d="M126.655 95.1866C126.655 95.1866 128.632 95.8961 130.468 95.0447" stroke="#263238" stroke-width="0.3226" stroke-miterlimit="10" stroke-linecap="round" stroke-linejoin="round"/>
<path d="M129.056 88.8014C129.056 88.8014 130.891 88.2338 131.739 88.6595C132.586 89.0852 132.303 89.2271 132.303 89.2271" stroke="#263238" stroke-width="0.3226" stroke-miterlimit="10" stroke-linecap="round" stroke-linejoin="round"/>
<path d="M127.361 88.9433C127.361 88.9433 126.373 88.2338 125.243 88.6595" stroke="#263238" stroke-width="0.3226" stroke-miterlimit="10" stroke-linecap="round" stroke-linejoin="round"/>
<path d="M131.174 90.2203C131.174 90.646 131.032 90.9298 130.75 90.9298C130.468 90.9298 130.326 90.646 130.326 90.2203C130.326 89.7946 130.468 89.5108 130.75 89.5108C131.032 89.5108 131.174 89.7946 131.174 90.2203Z" fill="#263238"/>
<path d="M126.797 90.2203C126.797 90.646 126.655 90.9298 126.373 90.9298C126.091 90.9298 125.949 90.646 125.949 90.2203C125.949 89.7946 126.091 89.5108 126.373 89.5108C126.514 89.6527 126.797 89.9365 126.797 90.2203Z" fill="#263238"/>
<path d="M127.644 94.0515C127.644 94.0515 125.949 94.1934 125.808 94.761C125.667 95.1867 125.949 96.7475 126.232 97.8827C126.514 98.5921 126.797 99.0178 127.079 99.3016C127.785 99.7273 129.903 99.7273 131.315 99.1597L131.597 98.8759C131.597 98.8759 131.738 96.1799 131.597 95.1867C131.456 94.1934 128.773 93.6258 127.644 94.0515ZM130.891 98.0246C130.75 98.4502 129.056 98.734 128.773 98.3083C128.491 98.0246 128.632 96.7475 128.208 97.0313C127.926 97.3151 127.785 97.7408 127.785 98.0246C127.785 98.3084 127.079 98.4502 126.938 98.0246C126.655 97.5989 126.514 96.1799 126.232 95.4705C125.808 94.761 127.785 94.0515 128.35 94.0515C128.35 94.0515 130.891 94.1934 131.174 95.0448C131.456 96.038 131.032 97.5989 130.891 98.0246Z" fill="#263238" stroke="#263238" stroke-width="0.3226" stroke-miterlimit="10" stroke-linecap="round" stroke-linejoin="round"/>
<path d="M118.043 103.842C118.043 103.842 116.631 105.119 115.925 106.964C115.219 108.808 110.559 124.843 110.559 124.843L118.043 123.566L119.878 119.167L118.043 103.842Z" fill="white" stroke="#263238" stroke-width="0.3226" stroke-miterlimit="10" stroke-linecap="round" stroke-linejoin="round"/>
<path d="M116.207 110.795C116.207 110.795 118.89 113.491 119.455 115.478" stroke="#263238" stroke-width="0.3226" stroke-miterlimit="10" stroke-linecap="round" stroke-linejoin="round"/>
<path d="M113.525 119.593C113.525 119.593 117.196 120.87 118.325 122.147" stroke="#263238" stroke-width="0.3226" stroke-miterlimit="10" stroke-linecap="round" stroke-linejoin="round"/>
<path d="M127.785 124.275C127.785 124.275 125.808 124.275 124.961 124.275C124.114 124.275 118.325 122.147 118.325 122.147C118.325 122.147 114.372 120.728 112.96 121.437C111.548 122.288 110.559 124.559 110.559 126.262C110.559 127.964 112.395 129.099 112.395 129.099H129.762L127.785 124.275Z" fill="white" stroke="#263238" stroke-width="0.3226" stroke-miterlimit="10" stroke-linecap="round" stroke-linejoin="round"/>
<path d="M127.785 124.275C127.785 124.275 125.808 124.275 124.961 124.275C124.679 124.275 124.255 124.133 123.69 123.991C123.126 124.275 121.431 125.268 121.29 126.687C121.149 127.68 121.714 128.674 122.137 129.241H129.62L127.785 124.275Z" fill="white" stroke="#263238" stroke-width="0.3226" stroke-miterlimit="10" stroke-linecap="round" stroke-linejoin="round"/>
<path d="M140.069 123.991C140.069 123.991 145.152 122.572 145.434 122.43C145.716 122.289 147.128 121.295 148.117 121.011C149.105 120.728 152.635 122.005 153.482 123.849C154.329 125.552 153.764 128.39 153.482 128.816C153.2 129.241 152.352 129.383 152.352 129.383L140.775 129.525C140.775 129.383 141.763 125.836 140.069 123.991Z" fill="white" stroke="#263238" stroke-width="0.3226" stroke-miterlimit="10" stroke-linecap="round" stroke-linejoin="round"/>
<path d="M134.421 121.579L132.303 119.451C132.303 119.451 131.456 119.734 131.597 120.302C131.738 120.87 132.444 121.437 132.444 121.437H134.421V121.579Z" fill="white" stroke="#263238" stroke-width="0.3226" stroke-miterlimit="10" stroke-linecap="round" stroke-linejoin="round"/>
<path d="M141.904 126.262C141.763 124.843 140.069 123.991 140.069 123.991H137.668C137.668 123.991 134.845 121.863 134.562 121.579C134.139 121.295 131.315 122.005 131.315 122.005C131.315 122.005 129.762 122.714 129.338 123.424C129.056 124.133 129.621 127.255 129.903 127.964C130.185 128.674 131.032 129.1 131.032 129.1L133.433 129.241C134.562 129.383 135.692 129.383 135.692 129.383C135.692 129.383 141.057 129.383 141.339 129.383C141.622 129.1 142.045 127.539 141.904 126.262Z" fill="white" stroke="#263238" stroke-width="0.3226" stroke-miterlimit="10" stroke-linecap="round" stroke-linejoin="round"/>
<path d="M131.88 121.721C131.88 121.721 130.609 121.437 129.903 121.721C129.197 122.005 128.209 123.14 127.785 123.707C126.232 125.41 128.067 127.964 128.35 128.532C128.632 129.099 129.762 129.241 129.762 129.241C129.762 129.241 132.586 129.383 132.021 128.958C131.456 128.532 131.032 128.532 130.609 128.39C130.185 128.39 129.903 127.822 129.903 127.822C129.903 127.822 132.303 127.397 132.586 126.971C132.868 126.403 132.021 126.12 132.021 126.12C132.021 126.12 130.044 126.262 129.762 126.12C129.479 125.978 129.197 125.41 129.762 125.126C130.185 124.984 132.303 124.417 132.303 123.991C132.303 123.566 131.738 123.282 131.738 123.282H129.479L131.88 121.721Z" fill="white" stroke="#263238" stroke-width="0.3226" stroke-miterlimit="10" stroke-linecap="round" stroke-linejoin="round"/>
<path d="M131.597 123.282C131.597 123.282 134.139 123.849 134.562 123.991" stroke="#263238" stroke-width="0.3226" stroke-miterlimit="10" stroke-linecap="round" stroke-linejoin="round"/>
<path d="M132.021 126.12L134.562 126.261" stroke="#263238" stroke-width="0.3226" stroke-miterlimit="10" stroke-linecap="round" stroke-linejoin="round"/>
<path d="M131.456 128.674C131.456 128.674 134.28 128.532 135.268 128.106" stroke="#263238" stroke-width="0.3226" stroke-miterlimit="10" stroke-linecap="round" stroke-linejoin="round"/>
<path d="M129.338 123.282L128.208 123.708" stroke="#263238" stroke-width="0.3226" stroke-miterlimit="10" stroke-linecap="round" stroke-linejoin="round"/>
<path d="M129.62 126.118L128.773 125.836" stroke="#263238" stroke-width="0.3226" stroke-miterlimit="10" stroke-linecap="round" stroke-linejoin="round"/>
<path d="M129.762 127.822L128.914 128.105" stroke="#263238" stroke-width="0.3226" stroke-miterlimit="10" stroke-linecap="round" stroke-linejoin="round"/>
<path d="M112.677 179.188C112.677 179.188 112.536 180.891 112.536 181.459C112.536 182.026 111.971 182.736 110.842 183.729C109.712 184.722 106.606 186.141 106.465 186.567C106.324 186.993 106.182 187.844 107.171 188.412C108.159 188.837 115.36 188.412 115.642 188.553C116.066 188.553 117.619 188.412 117.76 188.412C117.901 188.412 118.325 188.553 118.89 188.412C119.455 188.27 119.596 186.851 119.596 185.999C119.455 185.148 118.466 182.168 118.466 181.601C118.325 181.175 118.043 178.905 118.043 178.905L112.677 179.188Z" fill="#263238" stroke="#263238" stroke-width="0.3226" stroke-miterlimit="10" stroke-linecap="round" stroke-linejoin="round"/>
<path d="M126.655 138.039C126.655 138.039 124.537 136.62 122.278 136.336C120.019 136.052 112.677 137.471 110.983 139.458C109.148 141.444 107.877 141.728 107.312 144.424C106.747 147.12 112.113 182.452 112.113 182.452L119.172 182.31L117.054 150.526C117.054 150.526 118.184 148.965 120.584 149.107C122.278 149.249 127.785 148.539 127.503 148.681" fill="#263238"/>
<path d="M126.655 138.039C126.655 138.039 124.537 136.62 122.278 136.336C120.019 136.052 112.677 137.471 110.983 139.458C109.148 141.444 107.877 141.728 107.312 144.424C106.747 147.12 112.113 182.452 112.113 182.452L119.172 182.31L117.054 150.526C117.054 150.526 118.184 148.965 120.584 149.107C122.278 149.249 127.785 148.539 127.503 148.681" stroke="#263238" stroke-width="0.3226" stroke-miterlimit="10" stroke-linecap="round" stroke-linejoin="round"/>
<path d="M132.021 181.317C132.021 181.317 132.868 181.459 132.444 182.452C132.021 183.445 132.162 184.438 131.032 185.29C130.044 186.141 129.197 186.709 129.479 187.418C129.761 188.128 131.032 188.553 132.303 188.553C133.574 188.553 138.657 188.553 138.657 188.553C138.657 188.553 139.786 188.27 139.504 186.567C139.221 184.864 138.798 181.175 138.798 181.175L132.021 181.317Z" fill="#263238" stroke="#263238" stroke-width="0.3226" stroke-miterlimit="10" stroke-linecap="round" stroke-linejoin="round"/>
<path d="M142.186 148.113C142.186 148.113 141.48 155.776 141.339 158.046C141.057 161.026 139.08 182.168 139.08 182.168L132.162 182.31C131.879 176.918 131.173 172.236 131.032 167.411C130.891 162.303 130.609 154.641 130.467 149.532C130.326 145.276 130.044 138.465 135.127 136.762C139.221 135.343 142.328 136.62 142.328 136.62C142.328 136.62 145.575 138.039 146.563 140.877C147.411 143.715 146.987 147.83 145.434 148.113C144.022 148.397 142.186 148.113 142.186 148.113Z" fill="#263238" stroke="#263238" stroke-width="0.3226" stroke-miterlimit="10" stroke-linecap="round" stroke-linejoin="round"/>
<path d="M130.467 145.559C130.467 145.559 130.467 140.167 132.727 137.471C134.986 134.775 138.374 134.208 141.48 135.485" stroke="#707070" stroke-width="0.3226" stroke-miterlimit="10" stroke-linecap="round" stroke-linejoin="round"/>
<path d="M118.043 136.904C118.043 136.904 122.137 135.343 125.667 136.478" stroke="#707070" stroke-width="0.3226" stroke-miterlimit="10" stroke-linecap="round" stroke-linejoin="round"/>
<path d="M180.026 127.822H165.06V129.099H180.026V127.822Z" fill="#999999" stroke="#263238" stroke-width="0.3226" stroke-miterlimit="10" stroke-linecap="round" stroke-linejoin="round"/>
<path d="M162.377 113.065H140.633L143.881 129.241H165.765L162.377 113.065Z" fill="#999999" stroke="#263238" stroke-width="0.3226" stroke-miterlimit="10" stroke-linecap="round" stroke-linejoin="round"/>
<path d="M164.354 122.43C161.671 122.998 157.859 124.133 153.623 126.262C150.376 127.964 147.975 128.674 146.14 129.099H165.766L164.354 122.43Z" fill="#263238" stroke="#263238" stroke-width="0.3226" stroke-miterlimit="10" stroke-linecap="round" stroke-linejoin="round"/>
<path d="M67.6369 132.221L69.896 138.181C70.7432 139.884 71.0256 142.721 70.7432 144.566L65.3779 187.418C65.3779 187.986 65.6603 188.27 66.225 188.27C66.6486 188.27 66.931 187.986 67.0722 187.56L77.3792 132.789H73.567L72.8611 135.91C72.7199 136.478 72.0139 136.478 71.8727 135.91L70.602 131.937L67.6369 132.221Z" fill="#CCCCCC" stroke="#263238" stroke-width="0.3226" stroke-miterlimit="10" stroke-linecap="round" stroke-linejoin="round"/>
<path d="M120.019 132.221L117.76 138.181C116.913 139.884 116.631 142.721 116.913 144.566L122.278 187.418C122.278 187.986 121.996 188.27 121.431 188.27C121.008 188.27 120.725 187.986 120.584 187.56L110.277 132.789H114.089L114.795 135.91C114.936 136.478 115.642 136.478 115.784 135.91L117.054 131.937L120.019 132.221Z" fill="white" stroke="#263238" stroke-width="0.3226" stroke-miterlimit="10" stroke-linecap="round" stroke-linejoin="round"/>
<path d="M204.876 132.221L202.617 138.181C201.77 139.884 201.487 142.721 201.77 144.566L207.135 187.418C207.135 187.986 206.853 188.27 206.288 188.27C205.864 188.27 205.582 187.986 205.441 187.56L195.134 132.789H198.946L199.652 135.91C199.793 136.478 200.499 136.478 200.64 135.91L201.911 131.937L204.876 132.221Z" fill="white" stroke="#263238" stroke-width="0.3226" stroke-miterlimit="10" stroke-linecap="round" stroke-linejoin="round"/>
<path d="M159.836 132.221L162.095 138.181C162.942 139.884 163.224 142.721 162.942 144.566L157.577 187.418C157.577 187.986 157.859 188.27 158.424 188.27C158.847 188.27 159.13 187.986 159.271 187.56L169.578 132.789H165.766L165.06 135.91C164.919 136.478 164.213 136.478 164.071 135.91L162.801 131.937L159.836 132.221Z" fill="#CCCCCC" stroke="#263238" stroke-width="0.3226" stroke-miterlimit="10" stroke-linecap="round" stroke-linejoin="round"/>
<path d="M209.253 129.241H63.6834V132.789H209.253V129.241Z" fill="white" stroke="#263238" stroke-width="0.3226" stroke-miterlimit="10" stroke-linecap="round" stroke-linejoin="round"/>
<path d="M209.112 129.241H119.172V132.789H209.112V129.241Z" fill="#EDEDED" stroke="#263238" stroke-width="0.3226" stroke-miterlimit="10" stroke-linecap="round" stroke-linejoin="round"/>
<path d="M38.8743 176.208L39.5803 180.749C39.5803 180.749 37.6036 185.999 38.0272 188.411C38.4508 190.824 40.4275 190.824 41.2746 190.114C42.1218 189.405 42.9689 187.56 42.9689 185.999C42.9689 184.438 42.8277 180.891 42.8277 180.04C42.8277 179.188 42.263 176.776 42.263 176.776L38.8743 176.208Z" fill="white" stroke="#263238" stroke-width="0.3226" stroke-miterlimit="10" stroke-linecap="round" stroke-linejoin="round"/>
<path d="M40.1451 188.128C39.0155 187.986 38.3096 186.709 38.1684 185.857C38.0272 186.709 37.886 187.702 38.1684 188.27C38.7332 190.682 40.5687 190.682 41.4158 189.972C42.1218 189.405 42.8277 187.844 43.1101 186.425C42.263 187.418 41.2746 188.27 40.1451 188.128Z" fill="#263238" stroke="#263238" stroke-width="0.3226" stroke-miterlimit="10" stroke-linecap="round" stroke-linejoin="round"/>
<path d="M67.8186 175.499C67.8186 175.499 71.2072 182.594 71.772 183.587C72.3368 184.58 75.443 187.986 75.1606 188.269C74.8782 188.553 74.1723 188.979 72.478 188.695C70.7837 188.411 69.5129 187.134 68.6658 186.283C67.8186 185.432 65.9831 185.148 65.136 184.722C64.2888 184.296 64.8536 181.742 65.4184 180.891C65.8419 180.04 65.8419 179.33 65.8419 179.33L64.2888 175.073L67.8186 175.499Z" fill="white" stroke="#263238" stroke-width="0.3226" stroke-miterlimit="10" stroke-linecap="round" stroke-linejoin="round"/>
<path d="M75.1608 188.27C75.302 188.128 74.3136 186.992 73.3253 185.857C72.6193 186.141 71.4898 186.425 70.6426 186.141C69.0895 185.715 66.5481 181.459 65.2773 180.891C64.8538 181.742 64.289 184.296 64.995 184.722C65.7009 185.148 67.6776 185.432 68.5248 186.283C69.3719 187.134 70.6426 188.411 72.337 188.695C74.1725 188.979 75.0196 188.553 75.1608 188.27Z" fill="#263238" stroke="#263238" stroke-width="0.3226" stroke-miterlimit="10" stroke-linecap="round" stroke-linejoin="round"/>
<path d="M32.8029 112.64C32.8029 112.64 29.5555 123.282 30.4026 129.241C31.2498 135.201 34.7796 151.377 34.9208 152.654C35.062 153.789 33.7912 158.755 35.062 163.58C36.4739 168.546 37.4622 178.195 37.4622 178.195L42.5452 177.911L45.2278 129.525C45.2278 129.525 52.5698 150.526 53.417 151.661C54.2641 152.796 62.1709 176.208 62.1709 176.208L68.101 176.492C68.101 176.492 64.2888 153.647 63.3004 151.519C62.4533 149.39 61.7473 145.985 61.7473 145.985C61.7473 145.985 56.8056 117.18 56.0996 114.91C55.3937 112.498 52.5698 106.254 52.5698 106.254L36.6151 106.964L32.8029 112.64Z" fill="#263238" stroke="#263238" stroke-width="0.3226" stroke-miterlimit="10" stroke-linecap="round" stroke-linejoin="round"/>
<path d="M42.2629 108.525C42.2629 108.525 47.9106 109.234 52.2875 108.241C52.2875 108.241 47.7694 84.4025 47.7694 83.8349C47.7694 83.2674 36.8976 85.3958 36.8976 85.3958L42.2629 108.525Z" fill="white" stroke="#263238" stroke-width="0.3226" stroke-miterlimit="10" stroke-linecap="round" stroke-linejoin="round"/>
<path d="M46.9221 75.1794L45.2278 78.8686L46.3574 84.5444C46.3574 84.5444 45.2278 85.6796 43.3923 85.6796C41.5568 85.6796 40.2861 85.112 40.2861 85.112L38.4506 77.4497L42.5452 71.4901C42.5452 71.4901 43.5335 74.328 46.9221 75.1794Z" fill="white" stroke="#263238" stroke-width="0.3226" stroke-miterlimit="10" stroke-linecap="round" stroke-linejoin="round"/>
<path d="M43.3922 74.8956L45.3689 77.8754L46.6396 75.7469L43.3922 74.8956Z" fill="#263238" stroke="#263238" stroke-width="0.3226" stroke-miterlimit="10" stroke-linecap="round" stroke-linejoin="round"/>
<path d="M41.2745 68.6522C41.2745 68.6522 42.1216 68.936 42.404 67.9428C42.6864 66.9495 43.11 65.9562 44.0983 65.6725C45.0867 65.3887 45.9338 64.8211 46.4986 64.1116C47.0634 63.544 48.4753 62.4089 48.4753 62.4089C48.4753 62.4089 50.3108 65.2468 50.3108 65.9562C50.3108 66.6657 49.746 67.0914 50.1696 67.5171C50.8755 68.5104 52.0051 69.6455 52.0051 69.9293C51.7227 70.6388 50.7344 71.632 50.7344 71.632C50.7344 71.632 50.8755 74.6118 50.0284 75.3213C49.1812 76.0308 46.3574 75.4632 45.369 75.3213C44.3807 75.1794 42.2628 74.328 42.1216 73.9024C41.9804 73.4767 41.2745 71.0645 41.2745 71.0645C41.2745 71.0645 40.8509 68.936 41.2745 68.6522Z" fill="white" stroke="#263238" stroke-width="0.3226" stroke-miterlimit="10" stroke-linecap="round" stroke-linejoin="round"/>
<path d="M48.4753 67.8008C48.4753 68.2265 48.3341 68.5103 48.0517 68.5103C47.7694 68.5103 47.6282 68.2265 47.6282 67.8008C47.6282 67.3752 47.7694 67.0914 48.0517 67.0914C48.3341 67.0914 48.4753 67.5171 48.4753 67.8008Z" fill="#263238"/>
<path d="M47.0633 66.6657C47.0633 66.6657 47.6281 65.3886 48.8988 65.9562" stroke="#263238" stroke-width="0.3226" stroke-miterlimit="10" stroke-linecap="round" stroke-linejoin="round"/>
<path d="M50.0285 72.4834C50.0285 72.4834 48.8989 73.051 48.0518 71.9158" stroke="#263238" stroke-width="0.3226" stroke-miterlimit="10" stroke-linecap="round" stroke-linejoin="round"/>
<path d="M50.1696 66.0982C50.1696 66.0982 50.8756 65.9563 52.0051 64.963C53.1346 63.8279 54.2642 63.1184 51.4403 60.1386C48.6165 57.0169 41.6981 56.3074 39.1566 57.3007C36.7563 58.294 33.2265 62.9765 32.803 65.6725C32.3794 68.5104 33.9325 70.2131 34.0737 71.2064C34.2149 72.1997 31.6734 73.051 33.9325 75.6051C36.3328 78.1592 38.5918 78.0173 40.9921 77.7336C43.3924 77.3079 44.2395 74.0443 44.2395 74.0443C44.2395 74.0443 42.5452 73.9024 42.1216 73.3348C41.5569 72.6253 40.2861 70.9226 40.4273 69.7874C40.5685 68.6523 42.1216 69.5037 42.9688 68.6523C43.816 67.9428 42.9688 66.5239 44.5219 66.0982C46.075 65.6725 47.9105 65.3887 48.1929 64.2535C48.4753 63.2603 48.4753 63.2603 48.4753 63.2603C48.4753 63.2603 50.1696 65.2468 50.1696 66.0982Z" fill="#263238" stroke="#263238" stroke-width="0.3226" stroke-miterlimit="10" stroke-linecap="round" stroke-linejoin="round"/>
<path d="M41.8392 71.9158C41.8392 71.9158 40.2861 72.3415 39.439 71.0644C38.5918 69.7874 38.8742 67.9427 40.0037 67.659C41.1333 67.3752 41.6981 69.7874 41.6981 69.7874" fill="white"/>
<path d="M41.8392 71.9158C41.8392 71.9158 40.2861 72.3415 39.439 71.0644C38.5918 69.7874 38.8742 67.9427 40.0037 67.659C41.1333 67.3752 41.6981 69.7874 41.6981 69.7874" stroke="#263238" stroke-width="0.3226" stroke-miterlimit="10" stroke-linecap="round" stroke-linejoin="round"/>
<path d="M44.5219 122.572C44.5219 122.572 40.9921 123.14 37.3211 122.714C33.6501 122.288 28.9908 120.586 28.9908 120.586L35.2032 105.971C35.2032 105.971 28.8496 84.6863 28.8496 83.9769C28.8496 83.4093 32.9442 80.9971 35.6268 79.4362C37.0387 78.7268 38.0271 78.1592 38.0271 78.1592C38.0271 78.1592 42.8276 90.2202 42.9688 92.4906C43.11 94.1933 43.6748 100.011 43.9572 102.991C44.0983 103.7 44.0983 104.41 44.0983 104.693C44.3807 106.396 44.5219 122.572 44.5219 122.572Z" fill="#ED1B23" stroke="#263238" stroke-width="0.3226" stroke-miterlimit="10" stroke-linecap="round" stroke-linejoin="round"/>
<path d="M43.9573 102.991C42.6866 99.8691 40.9923 95.6122 40.1451 92.9162C39.0156 89.3689 36.6153 81.8484 35.7681 79.4362C37.1801 78.7267 38.7332 78.0173 38.7332 78.0173C38.7332 78.0173 42.9689 90.2202 43.1101 92.3486C43.1101 94.1933 43.6749 99.8691 43.9573 102.991Z" fill="#ED1B23" stroke="#263238" stroke-width="0.3226" stroke-miterlimit="10" stroke-linecap="round" stroke-linejoin="round"/>
<path d="M72.4779 89.0851L73.7487 88.2337C73.7487 88.2337 74.3134 86.9567 74.4546 86.3891C74.737 85.8215 76.1489 84.8283 76.1489 84.8283C76.1489 84.8283 77.4197 82.6998 77.8432 82.9836C78.408 83.2674 78.2668 84.2607 78.2668 84.2607C78.2668 84.2607 77.1373 85.8215 76.9961 86.1053C76.8549 86.3891 80.9495 86.3891 80.9495 86.3891C80.9495 86.3891 84.0557 85.1121 84.3381 85.8215C84.6205 86.6729 81.5142 88.8013 80.3847 89.6527C79.3963 90.5041 75.5842 91.4973 75.3018 91.6392C74.8782 91.7811 73.7487 92.2068 73.7487 92.2068L72.4779 89.0851Z" fill="white" stroke="#263238" stroke-width="0.3226" stroke-miterlimit="10" stroke-linecap="round" stroke-linejoin="round"/>
<path d="M75.0195 89.5108L77.7022 87.9499L80.6672 87.808C80.6672 87.808 82.6439 84.5445 82.9263 85.2539C83.2087 85.9634 82.3615 86.6729 81.7968 87.808C81.232 88.9432 80.526 89.6527 80.526 89.6527" fill="white"/>
<path d="M75.0195 89.5108L77.7022 87.9499L80.6672 87.808C80.6672 87.808 82.6439 84.5445 82.9263 85.2539C83.2087 85.9634 82.3615 86.6729 81.7968 87.808C81.232 88.9432 80.526 89.6527 80.526 89.6527" stroke="#263238" stroke-width="0.3226" stroke-miterlimit="10" stroke-linecap="round" stroke-linejoin="round"/>
<path d="M53.8405 79.0106L61.6061 93.9095L72.4779 89.0851L74.5958 93.6257C74.5958 93.6257 61.3237 102.281 60.4766 102.281C59.6294 102.281 54.1229 96.4636 54.1229 96.4636L53.8405 79.0106Z" fill="#ED1B23" stroke="#263238" stroke-width="0.3226" stroke-miterlimit="10" stroke-linecap="round" stroke-linejoin="round"/>
<path d="M56.2408 92.4905L56.8056 99.1596L54.6877 97.4569L56.2408 92.4905Z" fill="#263238" stroke="#263238" stroke-width="0.3226" stroke-miterlimit="10" stroke-linecap="round" stroke-linejoin="round"/>
<path d="M56.0997 93.3419C56.5233 89.7945 54.4054 80.4295 54.4054 80.4295L53.8406 79.1524L47.9105 78.5848L46.6398 78.4429L45.7926 79.72C45.7926 79.72 47.3458 91.781 48.0517 93.2C48.3341 93.7676 48.8989 97.7406 49.6048 102.565C50.8756 110.937 52.2875 121.863 52.2875 121.863C52.2875 121.863 54.6878 121.863 55.8173 121.863C56.9468 121.863 59.3471 120.302 59.3471 120.302L54.5466 99.0177L56.0997 93.3419Z" fill="#ED1B23" stroke="#263238" stroke-width="0.3226" stroke-miterlimit="10" stroke-linecap="round" stroke-linejoin="round"/>
<path d="M49.746 102.565C49.0401 97.7407 48.4753 93.7676 48.1929 93.2C47.4869 91.7811 45.3691 78.7268 45.3691 78.7268L45.9338 77.5916L47.7693 78.5849C48.3341 80.5714 50.0284 86.6729 50.452 90.6459C50.8756 94.9028 49.8872 101.146 49.746 102.565Z" fill="#ED1B23" stroke="#263238" stroke-width="0.3226" stroke-miterlimit="10" stroke-linecap="round" stroke-linejoin="round"/>
<path d="M28.8494 83.9769C28.8494 83.9769 23.7665 99.7272 23.0605 104.126C22.3546 108.667 26.7315 108.808 28.8494 107.957C30.9673 107.248 32.3792 95.6122 32.3792 95.6122L28.8494 83.9769Z" fill="#ED1B23" stroke="#263238" stroke-width="0.3226" stroke-miterlimit="10" stroke-linecap="round" stroke-linejoin="round"/>
<path d="M29.273 92.7744L32.0968 108.95L43.957 107.815L40.992 91.6392L29.273 92.7744Z" fill="#263238" stroke="#263238" stroke-width="0.3226" stroke-miterlimit="10" stroke-linecap="round" stroke-linejoin="round"/>
<path d="M28.7085 103.416L28.8497 111.504C28.8497 111.504 30.8264 106.822 30.544 105.261C30.2616 103.842 28.7085 103.416 28.7085 103.416Z" fill="#263238" stroke="#263238" stroke-width="0.3226" stroke-miterlimit="10" stroke-linecap="round" stroke-linejoin="round"/>
<path d="M23.3431 103.558C23.3431 103.558 22.0724 105.829 22.3548 107.815C22.6371 109.802 25.7434 111.363 26.4493 111.363C27.1553 111.363 28.426 111.504 28.426 111.504V103.416L25.8846 102.991" fill="#ED1B23"/>
<path d="M23.3431 103.558C23.3431 103.558 22.0724 105.829 22.3548 107.815C22.6371 109.802 25.7434 111.363 26.4493 111.363C27.1553 111.363 28.426 111.504 28.426 111.504V103.416L25.8846 102.991" stroke="#263238" stroke-width="0.3226" stroke-miterlimit="10" stroke-linecap="round" stroke-linejoin="round"/>
<path d="M29.1319 103.133C29.1319 103.133 28.9907 99.0178 28.9907 98.4502C28.9907 97.8826 31.8146 96.1799 32.5205 95.6123C33.2265 95.1866 33.6501 95.1866 33.3677 95.8961C33.0853 96.6056 30.8262 98.1664 30.8262 98.1664L30.685 98.8759C30.685 98.8759 32.6617 97.1731 33.6501 96.8893C34.7796 96.6056 34.9208 96.3218 34.9208 97.0312C34.9208 97.7407 33.2265 98.4502 32.8029 98.8759C32.3793 99.3016 30.8262 100.721 30.8262 100.721C30.8262 100.721 32.8029 99.4435 34.2148 99.3016C35.4856 99.0178 35.9092 99.0178 35.9092 99.5853C35.9092 100.011 35.4856 100.295 34.7796 100.579C34.0737 100.862 32.2382 101.714 32.2382 101.714L31.5322 102.565C31.5322 102.565 34.7796 101.856 35.062 101.714C35.3444 101.43 35.9092 101.572 35.3444 102.281C34.6384 102.991 31.9558 103.984 31.9558 103.984C31.9558 103.984 31.8146 105.261 31.391 105.971C30.9674 106.68 29.6967 106.822 29.6967 106.822L28.5672 106.396L28.7083 103.275L29.1319 103.133Z" fill="white" stroke="#263238" stroke-width="0.3226" stroke-miterlimit="10" stroke-linecap="round" stroke-linejoin="round"/>
</g>
<defs>
<clipPath id="clip0_4131_18615">
<rect width="218" height="202" fill="white"/>
</clipPath>
</defs>
</svg>
