<svg width="37" height="36" viewBox="0 0 37 36" fill="none" xmlns="http://www.w3.org/2000/svg">
<g clip-path="url(#clip0_211_794)">
<path d="M11.5699 26.3756C11.9329 26.9118 12.1624 27.527 12.2393 28.17L12.2731 28.1362L16.9418 22.7981H14.6918L11.5699 26.3756ZM34.4243 21.9375C34.4243 22.1612 34.3354 22.3759 34.1772 22.5341C34.019 22.6923 33.8043 22.7812 33.5806 22.7812H16.9474L18.4268 21.0937L20.1537 19.125C20.3029 18.9564 20.379 18.7355 20.3653 18.5108C20.3516 18.2861 20.2491 18.076 20.0806 17.9268C19.912 17.7777 19.691 17.7016 19.4664 17.7153C19.2417 17.729 19.0316 17.8314 18.8824 18L16.1824 21.0881L14.7031 22.7756H11.5981C11.806 22.236 11.9238 21.6659 11.9468 21.0881V20.8631C11.9498 19.5889 11.4983 18.3555 10.6735 17.3843C9.84871 16.4131 8.70464 15.7678 7.44682 15.5643V5.3606H6.01807C5.79429 5.3606 5.57968 5.2717 5.42145 5.11347C5.26321 4.95523 5.17432 4.74062 5.17432 4.51685C5.17432 4.29307 5.26321 4.07846 5.42145 3.92022C5.57968 3.76199 5.79429 3.6731 6.01807 3.6731H33.5806C33.8043 3.6731 34.019 3.76199 34.1772 3.92022C34.3354 4.07846 34.4243 4.29307 34.4243 4.51685C34.4243 4.74062 34.3354 4.95523 34.1772 5.11347C34.019 5.2717 33.8043 5.3606 33.5806 5.3606H32.1743V21.1106H33.5806C33.8014 21.1105 34.0135 21.1971 34.1713 21.3517C34.3291 21.5063 34.4199 21.7166 34.4243 21.9375ZM13.6118 9.56247C13.6118 9.78625 13.7007 10.0009 13.8589 10.1591C14.0172 10.3173 14.2318 10.4062 14.4556 10.4062H20.6431C20.8668 10.4062 21.0815 10.3173 21.2397 10.1591C21.3979 10.0009 21.4868 9.78625 21.4868 9.56247C21.4868 9.33869 21.3979 9.12408 21.2397 8.96585C21.0815 8.80762 20.8668 8.71872 20.6431 8.71872H14.4556C14.2318 8.71872 14.0172 8.80762 13.8589 8.96585C13.7007 9.12408 13.6118 9.33869 13.6118 9.56247ZM25.4243 14.0625C25.4243 13.8387 25.3354 13.6241 25.1772 13.4658C25.019 13.3076 24.8043 13.2187 24.5806 13.2187H14.4556C14.2318 13.2187 14.0172 13.3076 13.8589 13.4658C13.7007 13.6241 13.6118 13.8387 13.6118 14.0625C13.6118 14.2862 13.7007 14.5009 13.8589 14.6591C14.0172 14.8173 14.2318 14.9062 14.4556 14.9062H24.5806C24.8043 14.9062 25.019 14.8173 25.1772 14.6591C25.3354 14.5009 25.4243 14.2862 25.4243 14.0625Z" fill="#ED1B23"/>
<path d="M2.89631 20.8855C2.89631 19.9084 3.28448 18.9713 3.97544 18.2803C4.66639 17.5893 5.60353 17.2012 6.58068 17.2012C7.55784 17.2012 8.49498 17.5893 9.18593 18.2803C9.87688 18.9713 10.2651 19.9084 10.2651 20.8855C10.2643 21.036 10.2549 21.1862 10.2369 21.3355C10.2004 21.639 10.1228 21.9361 10.0063 22.2187C9.69649 23.0201 9.11595 23.6877 8.36539 24.1058C7.61482 24.524 6.74157 24.6662 5.8971 24.5079C5.05264 24.3495 4.29023 23.9006 3.74212 23.239C3.19401 22.5773 2.89477 21.7447 2.89631 20.8855ZM8.19506 26.2574H4.96631C4.33228 26.2574 3.72421 26.5093 3.27588 26.9576C2.82755 27.406 2.57568 28.014 2.57568 28.648V32.3268H10.5857V28.648C10.5857 28.014 10.3338 27.406 9.88549 26.9576C9.43716 26.5093 8.82909 26.2574 8.19506 26.2574Z" fill="#101828"/>
</g>
<defs>
<clipPath id="clip0_211_794">
<rect width="36" height="36" fill="white" transform="translate(0.5)"/>
</clipPath>
</defs>
</svg>
