<svg width="220" height="202" viewBox="0 0 220 202" fill="none" xmlns="http://www.w3.org/2000/svg">
<g clip-path="url(#clip0_4131_18056)">
<path d="M215 175.3H3.10004" stroke="#263238" stroke-width="0.4429" stroke-miterlimit="10" stroke-linecap="round" stroke-linejoin="round"/>
<path d="M134.8 8.59998H98.2998V34.8H134.8V8.59998Z" stroke="#263238" stroke-width="0.4451" stroke-miterlimit="10" stroke-linecap="round" stroke-linejoin="round"/>
<path d="M132.4 10.8H100.6V32.7H132.4V10.8Z" fill="white" stroke="#263238" stroke-width="0.4429" stroke-miterlimit="10" stroke-linecap="round" stroke-linejoin="round"/>
<path d="M104.1 19.2H129" stroke="#263238" stroke-width="0.4429" stroke-miterlimit="10" stroke-linecap="round" stroke-linejoin="round"/>
<path d="M109.5 21.8H123.6" stroke="#263238" stroke-width="0.4429" stroke-miterlimit="10" stroke-linecap="round" stroke-linejoin="round"/>
<path d="M113.8 13.5H119.3" stroke="#263238" stroke-width="0.4429" stroke-miterlimit="10" stroke-linecap="round" stroke-linejoin="round"/>
<path d="M119.2 28C119.2 29.5 118 30.7 116.5 30.7C115 30.7 113.8 29.5 113.8 28C113.8 26.5 115 25.3 116.5 25.3C118 25.3 119.2 26.5 119.2 28Z" fill="#FFDC44"/>
<path d="M88.5998 30.2H66.0998V46.2999H88.5998V30.2Z" stroke="#263238" stroke-width="0.4451" stroke-miterlimit="10" stroke-linecap="round" stroke-linejoin="round"/>
<path d="M87.0998 31.4999H67.4998V44.9999H87.0998V31.4999Z" fill="white" stroke="#263238" stroke-width="0.4429" stroke-miterlimit="10" stroke-linecap="round" stroke-linejoin="round"/>
<path d="M69.6998 36.7H84.9998" stroke="#263238" stroke-width="0.4429" stroke-miterlimit="10" stroke-linecap="round" stroke-linejoin="round"/>
<path d="M72.9998 38.2999H81.6998" stroke="#263238" stroke-width="0.4429" stroke-miterlimit="10" stroke-linecap="round" stroke-linejoin="round"/>
<path d="M75.6998 33.2H79.0998" stroke="#263238" stroke-width="0.4429" stroke-miterlimit="10" stroke-linecap="round" stroke-linejoin="round"/>
<path d="M78.9998 42.0999C78.9998 42.9999 78.1998 43.6999 77.3998 43.6999C76.5998 43.6999 75.7998 42.8999 75.7998 42.0999C75.7998 41.1999 76.5998 40.4999 77.3998 40.4999C78.1998 40.4999 78.9998 41.2999 78.9998 42.0999Z" fill="#FFDC44"/>
<path d="M88.5998 50.7H66.0998V66.8H88.5998V50.7Z" stroke="#263238" stroke-width="0.4451" stroke-miterlimit="10" stroke-linecap="round" stroke-linejoin="round"/>
<path d="M87.0998 52.1H67.4998V65.6H87.0998V52.1Z" fill="white" stroke="#263238" stroke-width="0.4429" stroke-miterlimit="10" stroke-linecap="round" stroke-linejoin="round"/>
<path d="M69.6998 57.2999H84.9998" stroke="#263238" stroke-width="0.4429" stroke-miterlimit="10" stroke-linecap="round" stroke-linejoin="round"/>
<path d="M72.9998 58.7999H81.6998" stroke="#263238" stroke-width="0.4429" stroke-miterlimit="10" stroke-linecap="round" stroke-linejoin="round"/>
<path d="M75.6998 53.7H79.0998" stroke="#263238" stroke-width="0.4429" stroke-miterlimit="10" stroke-linecap="round" stroke-linejoin="round"/>
<path d="M78.9998 62.7C78.9998 63.6 78.1998 64.3 77.3998 64.3C76.5998 64.3 75.7998 63.5 75.7998 62.7C75.7998 61.8 76.5998 61.1 77.3998 61.1C78.1998 61.1 78.9998 61.8 78.9998 62.7Z" fill="#FFDC44"/>
<path d="M166 30.2H143.5V46.2999H166V30.2Z" stroke="#263238" stroke-width="0.4451" stroke-miterlimit="10" stroke-linecap="round" stroke-linejoin="round"/>
<path d="M164.6 31.4999H145V44.9999H164.6V31.4999Z" fill="white" stroke="#263238" stroke-width="0.4429" stroke-miterlimit="10" stroke-linecap="round" stroke-linejoin="round"/>
<path d="M147.1 36.7H162.4" stroke="#263238" stroke-width="0.4429" stroke-miterlimit="10" stroke-linecap="round" stroke-linejoin="round"/>
<path d="M150.4 38.2999H159.1" stroke="#263238" stroke-width="0.4429" stroke-miterlimit="10" stroke-linecap="round" stroke-linejoin="round"/>
<path d="M153.1 33.2H156.4" stroke="#263238" stroke-width="0.4429" stroke-miterlimit="10" stroke-linecap="round" stroke-linejoin="round"/>
<path d="M156.4 42.0999C156.4 42.9999 155.6 43.6999 154.8 43.6999C153.9 43.6999 153.2 42.8999 153.2 42.0999C153.2 41.1999 154 40.4999 154.8 40.4999C155.7 40.4999 156.4 41.2999 156.4 42.0999Z" fill="#FFDC44"/>
<path d="M166 50.7H143.5V66.8H166V50.7Z" stroke="#263238" stroke-width="0.4451" stroke-miterlimit="10" stroke-linecap="round" stroke-linejoin="round"/>
<path d="M164.6 52.1H145V65.6H164.6V52.1Z" fill="white" stroke="#263238" stroke-width="0.4429" stroke-miterlimit="10" stroke-linecap="round" stroke-linejoin="round"/>
<path d="M147.1 57.2999H162.4" stroke="#263238" stroke-width="0.4429" stroke-miterlimit="10" stroke-linecap="round" stroke-linejoin="round"/>
<path d="M150.4 58.7999H159.1" stroke="#263238" stroke-width="0.4429" stroke-miterlimit="10" stroke-linecap="round" stroke-linejoin="round"/>
<path d="M153.1 53.7H156.4" stroke="#263238" stroke-width="0.4429" stroke-miterlimit="10" stroke-linecap="round" stroke-linejoin="round"/>
<path d="M156.4 62.7C156.4 63.6 155.6 64.3 154.8 64.3C153.9 64.3 153.2 63.5 153.2 62.7C153.2 61.8 154 61.1 154.8 61.1C155.7 61 156.4 61.8 156.4 62.7Z" fill="#FFDC44"/>
<path d="M181.8 69.7C181.8 69.7 181.8 81.4 182.1 82.7C182.4 83.9 183.1 84.5 183.1 84.5L184.1 156.8L186.2 156.9L185 104.2L184.5 84.4C184.5 84.4 185.3 84.4 185.4 82.4C185.4 80.3 186.6 72 186.6 72L185.8 71.8C185.8 71.8 184.6 82.1 184.3 82.4C184 82.7 183.4 81.8 183.2 80.8C183.1 79.8 183.2 69.6 183.2 69.6L181.8 69.7Z" fill="#A6A6A6" stroke="#263238" stroke-width="0.4429" stroke-miterlimit="10" stroke-linecap="round" stroke-linejoin="round"/>
<path d="M184.4 84.4C184.5 84.4 184.6 84.3 184.7 84.3C185 84.1 185.3 83.6 185.3 82.4C185.3 80.3 186.5 72 186.5 72L185.7 71.8C185.7 71.8 184.5 82.1 184.2 82.4C183.9 82.7 183.3 81.8 183.1 80.8C183 79.8 183.1 69.6 183.1 69.6H181.9C181.9 69.6 181.9 81.3 182.2 82.6C182.5 83.8 183.2 84.4 183.2 84.4C183.2 84.4 183.3 84.8 184.4 84.4Z" fill="#263238" stroke="#263238" stroke-width="0.4429" stroke-miterlimit="10" stroke-linecap="round" stroke-linejoin="round"/>
<path d="M184 69.5C184 69.5 186.4 66.2 190.2 64.6C194 63 200.9 62 201.1 62C201.3 62 194.6 64.1 192.6 65.1C190.5 66 187.9 67.5 187 68.4C186.2 69.3 182.3 75.4 182.3 75.4C182.3 75.4 182.5 72.8 184 69.5Z" fill="#263238" stroke="#263238" stroke-width="0.4429" stroke-miterlimit="10" stroke-linecap="round" stroke-linejoin="round"/>
<path d="M177.4 58.7C177.4 58.7 175 55.4 171.2 53.8C167.4 52.2 160.5 51.2 160.3 51.2C160 51.2 166.8 53.3 168.8 54.3C170.9 55.2 173.5 56.7 174.4 57.6C175.2 58.5 179.1 64.6 179.1 64.6C179.1 64.6 178.9 62 177.4 58.7Z" fill="#FFDC44" stroke="#263238" stroke-width="0.4429" stroke-miterlimit="10" stroke-linecap="round" stroke-linejoin="round"/>
<path d="M182.7 68C182.7 68 176.2 58.3 174.4 57.5C172.6 56.7 171.1 55.9 168.7 56.6C166.3 57.2 161.2 60 160.2 60.5C159.3 61 158 61.9 157.5 62.1C157 62.4 164 58.2 167.8 57.7C171.7 57.2 172.4 59.1 176.6 62.4C180.8 65.6 182.7 68 182.7 68Z" fill="#FFDC44" stroke="#263238" stroke-width="0.4429" stroke-miterlimit="10" stroke-linecap="round" stroke-linejoin="round"/>
<path d="M182.7 68C182.7 68 178.4 61.1 175.4 60.3C172.5 59.5 168.9 61.2 167.7 61.9C166.5 62.6 164.8 66.5 164.4 68C164 69.5 163.8 70.6 163.8 70.6C163.8 70.6 167.6 64.4 169.1 63.5C170.6 62.6 172.9 61.1 173.6 61C174.3 60.9 181.2 65.1 182.7 68Z" fill="#FFDC44" stroke="#263238" stroke-width="0.4429" stroke-miterlimit="10" stroke-linecap="round" stroke-linejoin="round"/>
<path d="M180.9 64.4C180.9 64.4 172.5 58.8 168.1 58.8C163.7 58.8 158.3 60.5 156.8 60.7C155.3 61 153.9 76.8 153.9 76.8C153.9 76.8 160.1 62.4 162.2 62.5C164.3 62.5 171 60.6 173.3 61.4C175.6 62.2 180.9 64.4 180.9 64.4Z" fill="#FFDC44" stroke="#263238" stroke-width="0.4429" stroke-miterlimit="10" stroke-linecap="round" stroke-linejoin="round"/>
<path d="M182.5 70.2C182.5 70.2 179.8 65.1 177.5 64C175.2 62.9 173 64.9 169.4 66.3C165.8 67.7 163.2 68.6 163.2 68.6C163.2 68.6 169.1 68.9 171.4 68.1C173.7 67.3 177.2 65.7 178 65.8C178.9 65.9 182.5 70.2 182.5 70.2Z" fill="#FFDC44" stroke="#263238" stroke-width="0.4429" stroke-miterlimit="10" stroke-linecap="round" stroke-linejoin="round"/>
<path d="M184.5 71.9C184.5 71.9 182.1 59.1 182.1 54.4C182.1 49.7 182.1 47.7 182.1 47.7C182.1 47.7 183.7 53.9 183.9 54.6C184.1 55.4 184.1 56.6 184.1 56.6C184.1 56.6 185.2 50 186.7 48.3C188.2 46.6 190 45.9 190 45.9C190 45.9 188.4 49 188.1 49.8C187.8 50.7 189.4 48.6 191.2 48.1C193 47.6 197.3 46.6 197.3 46.6C197.3 46.6 191.5 48.9 190.8 49.7C190.1 50.5 188.4 53.2 188.3 53.5C188.2 53.8 186.1 57.4 185.6 59.4C184.8 61.5 184.5 71.9 184.5 71.9Z" fill="#263238" stroke="#263238" stroke-width="0.4429" stroke-miterlimit="10" stroke-linecap="round" stroke-linejoin="round"/>
<path d="M185.9 56.3L190.8 53C190.8 53 196.8 52.1 197.8 52.4C198.8 52.7 200.2 53.6 200.2 53.6C200.2 53.6 196.3 53.2 194.6 54C192.9 54.8 189.2 56.3 187 59.2C184.8 62.1 184 65.4 183.7 66.5C183.4 67.6 182.9 69.6 182.9 69.6C182.9 69.6 181.8 64.2 182.2 61.9C182.8 59.8 185.9 56.3 185.9 56.3Z" fill="#FFDC44" stroke="#263238" stroke-width="0.4429" stroke-miterlimit="10" stroke-linecap="round" stroke-linejoin="round"/>
<path d="M179.8 52.7C179.8 52.7 182.7 56.6 183.1 57.8C183.5 59 184.2 54.7 187.3 52C190.4 49.3 200.3 47.7 200.3 47.7C200.3 47.7 188.3 53.5 186.4 55.9C184.6 58.2 182.8 62.1 182.8 62.4C182.8 62.6 182.8 64.7 182.8 64.7L179.8 52.7Z" fill="#FFDC44" stroke="#263238" stroke-width="0.4429" stroke-miterlimit="10" stroke-linecap="round" stroke-linejoin="round"/>
<path d="M181.9 60.9C181.9 60.9 177.9 54 175.8 51.6C173.7 49.2 166.9 43.9 166.9 43.9C166.9 43.9 169.7 47.4 173.4 52.4C177.1 57.4 182.8 64.6 182.8 64.6L181.9 60.9Z" fill="#263238" stroke="#263238" stroke-width="0.4429" stroke-miterlimit="10" stroke-linecap="round" stroke-linejoin="round"/>
<path d="M181.3 74.3C181.3 74.3 174.8 69 171.3 70.3C167.8 71.6 163.9 75.8 163.9 75.8L163 80.5C163 80.5 167.7 73.8 169.6 72.8C171.6 71.9 174.4 71.5 175.8 71.8C177.2 72.1 181.2 75.6 181.4 76C181.7 76.6 181.3 74.3 181.3 74.3Z" fill="#FFDC44" stroke="#263238" stroke-width="0.4429" stroke-miterlimit="10" stroke-linecap="round" stroke-linejoin="round"/>
<path d="M179.6 58.6C179.6 58.6 178.4 57.5 177.5 53C176.7 48.5 177.6 44.4 177.6 44.4C177.6 44.4 178 47.1 179.1 50.2C180.1 53.3 180.1 54.5 181.6 59.1C183.1 63.8 183.3 72.1 183.2 72.3C183.2 72.4 179.6 58.6 179.6 58.6Z" fill="#FFDC44" stroke="#263238" stroke-width="0.4429" stroke-miterlimit="10" stroke-linecap="round" stroke-linejoin="round"/>
<path d="M189.9 59.9C189.9 59.9 191.8 57.4 194.3 56.6C196.8 55.8 199.4 55.9 199.4 55.9C199.4 55.9 195.6 54.8 193.2 55.3C190.7 55.8 188.8 58.8 187.9 61.5C187 64.2 187 70.7 187 70.7C187 70.7 188.3 62.3 189.9 59.9Z" fill="#263238" stroke="#263238" stroke-width="0.4429" stroke-miterlimit="10" stroke-linecap="round" stroke-linejoin="round"/>
<path d="M180.5 62.3C180.5 62.3 180.6 59.6 178.6 56.6C176.6 53.6 172.2 51.9 169.3 50.6C166.3 49.3 164.6 48.8 164.6 48.8C164.6 48.8 171.3 54.1 173.1 54.8C174.9 55.6 176.2 56.6 177.4 58C178.6 59.4 180.8 64.6 180.8 65C180.5 65.3 180.5 62.3 180.5 62.3Z" fill="#FFDC44" stroke="#263238" stroke-width="0.4429" stroke-miterlimit="10" stroke-linecap="round" stroke-linejoin="round"/>
<path d="M188 66.1C188 66.1 190.4 62.8 194.2 61.2C198 59.6 204.9 58.6 205.1 58.6C205.3 58.6 198.6 60.7 196.6 61.7C194.5 62.6 191.9 64.1 191 65C190.2 65.9 186.3 72 186.3 72C186.3 72 186.6 69.5 188 66.1Z" fill="#FFDC44" stroke="#263238" stroke-width="0.4429" stroke-miterlimit="10" stroke-linecap="round" stroke-linejoin="round"/>
<path d="M182.8 75.4C182.8 75.4 189.3 65.7 191.1 64.9C192.9 64.1 194.4 63.3 196.8 64C199.2 64.6 204.3 67.4 205.3 67.9C206.2 68.4 207.5 69.3 208 69.5C208.5 69.8 201.5 65.6 197.7 65.1C193.8 64.6 193.1 66.5 188.9 69.8C184.6 73.1 182.8 75.4 182.8 75.4Z" fill="#FFDC44" stroke="#263238" stroke-width="0.4429" stroke-miterlimit="10" stroke-linecap="round" stroke-linejoin="round"/>
<path d="M182.8 75.4C182.8 75.4 187.1 68.5 190.1 67.7C193.1 66.9 196.6 68.6 197.8 69.3C199 70 200.7 73.9 201.1 75.4C201.5 76.9 201.7 78 201.7 78C201.7 78 197.9 71.8 196.4 70.9C194.9 70 192.6 68.5 191.9 68.4C191.1 68.4 184.3 72.5 182.8 75.4Z" fill="#263238" stroke="#263238" stroke-width="0.4429" stroke-miterlimit="10" stroke-linecap="round" stroke-linejoin="round"/>
<path d="M184.5 71.9C184.5 71.9 192.9 66.3 197.3 66.3C201.7 66.3 207.1 68 208.6 68.2C210.1 68.5 211.5 68.1 211.5 68.1C211.5 68.1 205.3 70 203.2 70C201.1 70 194.4 68.1 192.1 68.9C189.8 69.7 184.5 71.9 184.5 71.9Z" fill="#FFDC44" stroke="#263238" stroke-width="0.4429" stroke-miterlimit="10" stroke-linecap="round" stroke-linejoin="round"/>
<path d="M186.7 69.3C186.7 69.3 185.2 64.9 186.7 61.7C188.2 58.5 190.2 54.1 190.2 54.1C190.2 54.1 190.9 59.7 189.7 63.4C188.6 67.3 186.7 69.3 186.7 69.3Z" fill="#FFDC44" stroke="#263238" stroke-width="0.4429" stroke-miterlimit="10" stroke-linecap="round" stroke-linejoin="round"/>
<path d="M183.1 72.5C183.1 72.5 183.1 67.1 179.3 64.5C175.5 61.9 171.3 61.1 169.8 61.9C168.3 62.7 163.8 65.2 162.5 66.9C161.2 68.6 160.1 69.9 160.1 69.9C160.1 69.9 166.7 65.5 168.8 64C170.9 62.5 171.9 62.1 172.6 62.3C173.3 62.5 177.7 64.5 179.4 65.8C181.2 67.2 183.1 72.5 183.1 72.5Z" fill="#FFDC44" stroke="#263238" stroke-width="0.4429" stroke-miterlimit="10" stroke-linecap="round" stroke-linejoin="round"/>
<path d="M183.2 73.4C183.2 73.2 183.3 71.8 180.8 71.6C178.2 71.4 176.3 72.5 175.8 73.5C175.4 74.4 175.8 77 175.8 77.2C175.8 77.5 176.2 73.9 179.2 73.2C182.3 72.5 183.2 73.4 183.2 73.4Z" fill="#263238" stroke="#263238" stroke-width="0.4429" stroke-miterlimit="10" stroke-linecap="round" stroke-linejoin="round"/>
<path d="M182.2 75.8C182.2 75.8 181.4 74 179.8 72.2C178.2 70.3 174.7 68.6 173 69.6C171.3 70.6 169.4 75.1 168.7 76.4C168.1 77.6 166.6 81.5 166.5 81.7C166.4 81.9 170.2 78.3 171.8 76.2C173.4 74.1 174.5 71.1 175.5 70.9C176.4 70.6 178.4 72.5 178.4 72.5L183.1 79.2L182.2 75.8Z" fill="#FFDC44" stroke="#263238" stroke-width="0.4429" stroke-miterlimit="10" stroke-linecap="round" stroke-linejoin="round"/>
<path d="M182.5 71.2C182.5 71.2 181.7 67.4 178.9 66.5C176.1 65.5 172.7 65.1 171.4 65.9C170.1 66.7 164.3 72 164.3 72L163.5 73.9C163.5 73.9 172 67.7 173.9 67.1C175.8 66.5 175.8 66.5 177.9 67.7C180 68.9 182.5 71.2 182.5 71.2Z" fill="#FFDC44" stroke="#263238" stroke-width="0.4429" stroke-miterlimit="10" stroke-linecap="round" stroke-linejoin="round"/>
<path d="M182 71.2C182 71.2 173.8 66.2 172 65.6C170.2 65 166.3 66.5 165.2 68C164.1 69.5 160.1 77.3 159.9 77.8C159.7 78.4 162.5 71.7 166.8 69.8C171.1 67.9 173.8 68.2 176.3 68.5C178.8 68.8 181.9 72.9 181.9 72.9L182 71.2Z" fill="#FFDC44" stroke="#263238" stroke-width="0.4429" stroke-miterlimit="10" stroke-linecap="round" stroke-linejoin="round"/>
<path d="M182.9 77.6C182.9 77.6 185.6 72.5 187.9 71.4C190.2 70.3 192.4 72.3 196 73.7C199.6 75.1 202.2 76 202.2 76C202.2 76 196.3 76.3 194 75.5C191.7 74.7 188.2 73.1 187.4 73.2C186.6 73.4 182.9 77.6 182.9 77.6Z" fill="#263238" stroke="#263238" stroke-width="0.4429" stroke-miterlimit="10" stroke-linecap="round" stroke-linejoin="round"/>
<path d="M183.1 72.5C183.1 72.5 184.5 68.6 185.3 63.4C186.1 58.2 184.7 49 183.4 46.3C182.1 43.6 178.2 39 178.2 39C178.2 39 185.1 45 186.6 50.6C188.1 56.2 188.4 59.2 187.7 62.3C187.1 65.5 183.1 72.5 183.1 72.5Z" fill="#FFDC44" stroke="#263238" stroke-width="0.4429" stroke-miterlimit="10" stroke-linecap="round" stroke-linejoin="round"/>
<path d="M181.5 64.6C181.5 64.6 180.9 62.3 180.2 61.8C179.5 61.3 178.2 61.9 178.2 61.9C178.2 61.9 180.5 64 180.5 65C180.5 65.9 182.9 71.6 182.9 71.6L181.5 64.6Z" fill="#FFDC44" stroke="#263238" stroke-width="0.4429" stroke-miterlimit="10" stroke-linecap="round" stroke-linejoin="round"/>
<path d="M180.2 61.9C180.2 61.9 179.2 62.6 178.4 63.3C177.6 64 173.8 67.7 173.6 68C173.4 68.2 175.5 63.3 176 62.3C176.5 61.4 177.4 60.7 177.6 60.7C177.9 60.7 180.3 61.2 180.2 61.9Z" fill="#FFDC44" stroke="#263238" stroke-width="0.4429" stroke-miterlimit="10" stroke-linecap="round" stroke-linejoin="round"/>
<path d="M194.5 87.4C194.5 87.4 194.5 97.7 194.3 98.8C194.1 99.9 193.4 100.4 193.4 100.4L192.6 165.8L190.8 165.9L191.9 117.8L192.3 100.5C192.3 100.5 191.5 100.5 191.5 98.7C191.5 96.9 190.4 89.6 190.4 89.6L191.1 89.4C191.1 89.4 192.2 98.4 192.4 98.7C192.6 99 193.2 98.2 193.3 97.3C193.4 96.4 193.3 87.5 193.3 87.5L194.5 87.4Z" fill="#A6A6A6" stroke="#263238" stroke-width="0.4429" stroke-miterlimit="10" stroke-linecap="round" stroke-linejoin="round"/>
<path d="M192.3 100.3C192.2 100.3 192.1 100.3 192 100.2C191.8 100 191.5 99.6 191.5 98.5C191.5 96.7 190.4 89.4 190.4 89.4L191.1 89.2C191.1 89.2 192.2 98.2 192.4 98.5C192.6 98.8 193.2 98 193.3 97.1C193.4 96.2 193.3 87.3 193.3 87.3H194.4C194.4 87.3 194.4 97.6 194.2 98.7C194 99.8 193.3 100.3 193.3 100.3C193.3 100.3 193.1 100.7 192.3 100.3Z" fill="#263238" stroke="#263238" stroke-width="0.4429" stroke-miterlimit="10" stroke-linecap="round" stroke-linejoin="round"/>
<path d="M192.6 87.2C192.6 87.2 190.5 84.3 187.2 82.9C183.9 81.5 177.8 80.6 177.6 80.6C177.4 80.6 183.3 82.5 185.1 83.3C186.9 84.1 189.3 85.4 190 86.1C190.7 86.9 194.1 92.3 194.1 92.3C194.1 92.3 193.9 90.2 192.6 87.2Z" fill="#FFDC44" stroke="#263238" stroke-width="0.4429" stroke-miterlimit="10" stroke-linecap="round" stroke-linejoin="round"/>
<path d="M198.3 77.8C198.3 77.8 200.4 74.9 203.7 73.5C207.1 72.1 213.1 71.2 213.3 71.2C213.5 71.2 207.6 73.1 205.8 73.9C204 74.7 201.6 76 200.9 76.7C200.2 77.5 196.8 82.9 196.8 82.9C196.8 82.9 197.1 80.7 198.3 77.8Z" fill="#FFDC44" stroke="#263238" stroke-width="0.4429" stroke-miterlimit="10" stroke-linecap="round" stroke-linejoin="round"/>
<path d="M193.7 86C193.7 86 199.4 77.5 201 76.8C202.6 76.1 203.8 75.4 206 76C208.1 76.5 212.6 79 213.4 79.4C214.2 79.8 215.3 80.6 215.7 80.8C216.1 81 210 77.4 206.7 76.9C203.3 76.5 202.7 78.1 199 81C195.3 83.9 193.7 86 193.7 86Z" fill="#FFDC44" stroke="#263238" stroke-width="0.4429" stroke-miterlimit="10" stroke-linecap="round" stroke-linejoin="round"/>
<path d="M193.7 86C193.7 86 197.5 80 200.1 79.3C202.7 78.6 205.8 80.1 206.8 80.7C207.9 81.3 209.4 84.7 209.7 86C210 87.3 210.2 88.3 210.2 88.3C210.2 88.3 206.9 82.9 205.6 82.1C204.3 81.3 202.2 80 201.7 79.9C201.1 79.8 195.1 83.4 193.7 86Z" fill="#FFDC44" stroke="#263238" stroke-width="0.4429" stroke-miterlimit="10" stroke-linecap="round" stroke-linejoin="round"/>
<path d="M195.3 82.9C195.3 82.9 202.7 77.9 206.5 78C210.4 78 215.1 79.5 216.4 79.7C217.7 79.9 218.9 79.6 218.9 79.6C218.9 79.6 213.5 81.2 211.6 81.3C209.8 81.3 203.8 79.7 201.9 80.3C199.9 80.9 195.3 82.9 195.3 82.9Z" fill="#FFDC44" stroke="#263238" stroke-width="0.4429" stroke-miterlimit="10" stroke-linecap="round" stroke-linejoin="round"/>
<path d="M193.8 87.9C193.8 87.9 196.1 83.5 198.1 82.5C200.1 81.5 202 83.3 205.2 84.5C208.3 85.7 210.7 86.5 210.7 86.5C210.7 86.5 205.6 86.8 203.6 86.1C201.6 85.4 198.5 84 197.8 84.1C197.1 84.1 193.8 87.9 193.8 87.9Z" fill="#FFDC44" stroke="#263238" stroke-width="0.4429" stroke-miterlimit="10" stroke-linecap="round" stroke-linejoin="round"/>
<path d="M192.1 89.4C192.1 89.4 194.2 78.1 194.2 74C194.2 69.9 194.2 68.1 194.2 68.1C194.2 68.1 192.8 73.5 192.6 74.1C192.4 74.8 192.4 75.9 192.4 75.9C192.4 75.9 191.4 70.1 190.1 68.6C188.8 67.2 187.3 66.5 187.3 66.5C187.3 66.5 188.7 69.2 189 70C189.3 70.8 187.8 68.9 186.3 68.5C184.7 68.1 181 67.2 181 67.2C181 67.2 186 69.2 186.7 69.9C187.3 70.6 188.8 73 188.9 73.3C189 73.6 190.8 76.7 191.3 78.5C191.8 80.3 192.1 89.4 192.1 89.4Z" fill="#FFDC44" stroke="#263238" stroke-width="0.4429" stroke-miterlimit="10" stroke-linecap="round" stroke-linejoin="round"/>
<path d="M190.9 75.7L186.6 72.9C186.6 72.9 181.3 72.1 180.4 72.4C179.5 72.7 178.3 73.5 178.3 73.5C178.3 73.5 181.7 73.2 183.2 73.9C184.7 74.6 187.9 75.9 189.8 78.5C191.7 81.1 192.4 83.9 192.6 84.9C192.8 85.8 193.3 87.6 193.3 87.6C193.3 87.6 194.3 82.8 193.9 80.9C193.6 78.8 190.9 75.7 190.9 75.7Z" fill="#FFDC44" stroke="#263238" stroke-width="0.4429" stroke-miterlimit="10" stroke-linecap="round" stroke-linejoin="round"/>
<path d="M196.3 72.6C196.3 72.6 193.8 76 193.4 77.1C193 78.2 192.4 74.4 189.7 72C187 69.7 178.3 68.2 178.3 68.2C178.3 68.2 188.8 73.3 190.4 75.3C192 77.3 193.5 80.8 193.5 81C193.5 81.2 193.5 83 193.5 83L196.3 72.6Z" fill="#FFDC44" stroke="#263238" stroke-width="0.4429" stroke-miterlimit="10" stroke-linecap="round" stroke-linejoin="round"/>
<path d="M194.4 79.8C194.4 79.8 197.9 73.8 199.7 71.7C201.5 69.6 207.5 65 207.5 65C207.5 65 205 68.1 201.8 72.4C198.6 76.7 193.6 83.1 193.6 83.1L194.4 79.8Z" fill="#FFDC44" stroke="#263238" stroke-width="0.4429" stroke-miterlimit="10" stroke-linecap="round" stroke-linejoin="round"/>
<path d="M194.9 91.5C194.9 91.5 200.6 86.8 203.6 88C206.6 89.2 210.1 92.8 210.1 92.8L210.9 97C210.9 97 206.8 91.1 205.1 90.3C203.3 89.5 200.9 89.1 199.7 89.4C198.5 89.7 194.9 92.7 194.7 93.1C194.5 93.5 194.9 91.5 194.9 91.5Z" fill="#FFDC44" stroke="#263238" stroke-width="0.4429" stroke-miterlimit="10" stroke-linecap="round" stroke-linejoin="round"/>
<path d="M196.4 77.7C196.4 77.7 197.5 76.7 198.2 72.7C198.9 68.8 198.1 65.2 198.1 65.2C198.1 65.2 197.7 67.5 196.8 70.3C195.9 73 195.9 74 194.6 78.1C193.3 82.2 193.1 89.5 193.2 89.6C193.3 89.9 196.4 77.7 196.4 77.7Z" fill="#FFDC44" stroke="#263238" stroke-width="0.4429" stroke-miterlimit="10" stroke-linecap="round" stroke-linejoin="round"/>
<path d="M187.4 78.9C187.4 78.9 185.7 76.7 183.5 76.1C181.3 75.4 179.1 75.5 179.1 75.5C179.1 75.5 182.4 74.6 184.6 75C186.8 75.4 188.5 78 189.3 80.4C190.1 82.8 190.1 88.5 190.1 88.5C190.1 88.5 188.8 81 187.4 78.9Z" fill="#FFDC44" stroke="#263238" stroke-width="0.4429" stroke-miterlimit="10" stroke-linecap="round" stroke-linejoin="round"/>
<path d="M195.7 81C195.7 81 195.6 78.7 197.4 76C199.2 73.3 203 71.8 205.6 70.7C208.2 69.6 209.8 69.1 209.8 69.1C209.8 69.1 204 73.7 202.4 74.4C200.8 75.1 199.7 76 198.7 77.2C197.7 78.4 195.7 83 195.7 83.3C195.6 83.6 195.7 81 195.7 81Z" fill="#FFDC44" stroke="#263238" stroke-width="0.4429" stroke-miterlimit="10" stroke-linecap="round" stroke-linejoin="round"/>
<path d="M189 84.3C189 84.3 186.9 81.4 183.6 80C180.2 78.6 174.2 77.7 174 77.7C173.8 77.7 179.7 79.6 181.5 80.4C183.3 81.2 185.7 82.5 186.4 83.2C187.1 84 190.5 89.4 190.5 89.4C190.5 89.4 190.3 87.3 189 84.3Z" fill="#FFDC44" stroke="#263238" stroke-width="0.4429" stroke-miterlimit="10" stroke-linecap="round" stroke-linejoin="round"/>
<path d="M193.7 92.5C193.7 92.5 188 84 186.4 83.3C184.8 82.6 183.6 81.9 181.4 82.5C179.3 83 174.8 85.5 174 85.9C173.2 86.3 172.1 87.1 171.7 87.3C171.3 87.5 177.4 83.9 180.7 83.4C184.1 83 184.7 84.6 188.4 87.5C192 90.4 193.7 92.5 193.7 92.5Z" fill="#FFDC44" stroke="#263238" stroke-width="0.4429" stroke-miterlimit="10" stroke-linecap="round" stroke-linejoin="round"/>
<path d="M193.7 92.5C193.7 92.5 189.9 86.5 187.3 85.8C184.7 85.1 181.6 86.6 180.6 87.2C179.5 87.8 178 91.2 177.7 92.5C177.3 93.8 177.2 94.8 177.2 94.8C177.2 94.8 180.5 89.4 181.8 88.6C183.1 87.8 185.2 86.5 185.7 86.4C186.3 86.3 192.4 89.9 193.7 92.5Z" fill="#FFDC44" stroke="#263238" stroke-width="0.4429" stroke-miterlimit="10" stroke-linecap="round" stroke-linejoin="round"/>
<path d="M192.1 89.4C192.1 89.4 184.7 84.4 180.9 84.5C177 84.5 172.3 86 171 86.2C169.7 86.4 168.5 86.1 168.5 86.1C168.5 86.1 173.9 87.7 175.8 87.8C177.6 87.8 183.6 86.2 185.5 86.8C187.5 87.4 192.1 89.4 192.1 89.4Z" fill="#FFDC44" stroke="#263238" stroke-width="0.4429" stroke-miterlimit="10" stroke-linecap="round" stroke-linejoin="round"/>
<path d="M190.2 87.2C190.2 87.2 191.5 83.3 190.2 80.6C188.9 77.8 187.2 74 187.2 74C187.2 74 186.6 78.9 187.6 82.2C188.6 85.3 190.2 87.2 190.2 87.2Z" fill="#FFDC44" stroke="#263238" stroke-width="0.4429" stroke-miterlimit="10" stroke-linecap="round" stroke-linejoin="round"/>
<path d="M193.3 89.9C193.3 89.9 193.3 85.1 196.6 82.9C199.9 80.6 203.6 79.9 204.9 80.6C206.2 81.3 210.2 83.5 211.3 85C212.5 86.5 213.4 87.6 213.4 87.6C213.4 87.6 207.6 83.7 205.8 82.5C204 81.2 203.1 80.9 202.4 81C201.7 81.2 198 82.9 196.5 84.1C195 85.3 193.3 89.9 193.3 89.9Z" fill="#FFDC44" stroke="#263238" stroke-width="0.4429" stroke-miterlimit="10" stroke-linecap="round" stroke-linejoin="round"/>
<path d="M193.3 90.7C193.3 90.5 193.2 89.3 195.4 89.1C197.7 88.9 199.3 89.9 199.7 90.7C200.1 91.5 199.7 93.7 199.7 93.9C199.7 94.1 199.4 91 196.7 90.4C194.1 89.9 193.3 90.7 193.3 90.7Z" fill="#FFDC44" stroke="#263238" stroke-width="0.4429" stroke-miterlimit="10" stroke-linecap="round" stroke-linejoin="round"/>
<path d="M194.1 92.8C194.1 92.8 194.8 91.2 196.2 89.6C197.6 88 200.7 86.4 202.2 87.3C203.7 88.2 205.4 92.1 205.9 93.2C206.4 94.3 207.7 97.6 207.8 97.8C207.9 98 204.6 94.8 203.1 93C201.6 91.2 200.7 88.6 199.9 88.3C199.1 88.1 197.4 89.7 197.4 89.7L193.3 95.6L194.1 92.8Z" fill="#FFDC44" stroke="#263238" stroke-width="0.4429" stroke-miterlimit="10" stroke-linecap="round" stroke-linejoin="round"/>
<path d="M193.9 88.7C193.9 88.7 194.6 85.4 197.1 84.5C199.6 83.6 202.5 83.3 203.7 84C204.9 84.7 209.9 89.3 209.9 89.3L210.6 91C210.6 91 203.2 85.6 201.5 85C199.8 84.5 199.8 84.5 198 85.5C196.1 86.7 193.9 88.7 193.9 88.7Z" fill="#FFDC44" stroke="#263238" stroke-width="0.4429" stroke-miterlimit="10" stroke-linecap="round" stroke-linejoin="round"/>
<path d="M194.3 88.7C194.3 88.7 201.5 84.4 203 83.8C204.6 83.3 208 84.6 209 85.9C210 87.2 213.4 94 213.6 94.5C213.8 95 211.3 89.2 207.6 87.5C203.9 85.8 201.4 86.1 199.3 86.3C197.1 86.5 194.3 90.2 194.3 90.2V88.7Z" fill="#FFDC44" stroke="#263238" stroke-width="0.4429" stroke-miterlimit="10" stroke-linecap="round" stroke-linejoin="round"/>
<path d="M193.6 94.4C193.6 94.4 191.3 90 189.3 89C187.3 88 185.4 89.8 182.2 91C179.1 92.2 176.7 93 176.7 93C176.7 93 181.8 93.3 183.8 92.6C185.8 91.9 188.9 90.5 189.6 90.6C190.3 90.6 193.6 94.4 193.6 94.4Z" fill="#FFDC44" stroke="#263238" stroke-width="0.4429" stroke-miterlimit="10" stroke-linecap="round" stroke-linejoin="round"/>
<path d="M193.3 89.9C193.3 89.9 192.1 86.4 191.4 81.9C190.7 77.4 191.9 69.3 193 66.9C194.2 64.5 197.6 60.5 197.6 60.5C197.6 60.5 191.6 65.8 190.2 70.7C188.9 75.7 188.6 78.3 189.2 81C189.8 83.8 193.3 89.9 193.3 89.9Z" fill="#FFDC44" stroke="#263238" stroke-width="0.4429" stroke-miterlimit="10" stroke-linecap="round" stroke-linejoin="round"/>
<path d="M194.8 83C194.8 83 195.3 81 195.9 80.6C196.5 80.2 197.7 80.6 197.7 80.6C197.7 80.6 195.6 82.4 195.6 83.3C195.6 84.2 193.5 89.1 193.5 89.1L194.8 83Z" fill="#FFDC44" stroke="#263238" stroke-width="0.4429" stroke-miterlimit="10" stroke-linecap="round" stroke-linejoin="round"/>
<path d="M195.9 80.6C195.9 80.6 196.8 81.2 197.5 81.8C198.2 82.4 201.5 85.7 201.7 85.9C201.9 86.1 200 81.7 199.6 80.9C199.2 80.1 198.4 79.5 198.2 79.5C197.9 79.6 195.8 80.1 195.9 80.6Z" fill="#FFDC44" stroke="#263238" stroke-width="0.4429" stroke-miterlimit="10" stroke-linecap="round" stroke-linejoin="round"/>
<path d="M194.2 109.7C194.2 109.7 199.2 107.8 202.4 106.8C205.5 105.8 207.8 108.3 207.8 108.3C207.8 108.3 204 108.8 202.6 108.9C201.2 109 199.2 109 197.9 109.5C196.7 110 200.4 109.9 201.6 111.1C202.8 112.3 205.4 115.5 205.9 116.4C206.3 117.4 201.7 111.9 198.5 111.1C195.3 110.3 192.7 112 192.7 112L194.2 109.7Z" fill="#FFDC44" stroke="#263238" stroke-width="0.4429" stroke-miterlimit="10" stroke-linecap="round" stroke-linejoin="round"/>
<path d="M189.2 117.2C189.2 117.2 189.7 119.5 189.2 125.7C188.7 132 188.2 157.2 188.2 157.2L189.8 157.4C189.8 157.4 190.6 123.5 190.6 122.4C190.6 121.2 190.7 117.1 190.7 117.1L189.2 117.2Z" fill="#A6A6A6" stroke="#263238" stroke-width="0.4429" stroke-miterlimit="10" stroke-linecap="round" stroke-linejoin="round"/>
<path d="M190.6 110.5C190.5 110.2 188.6 106.1 187.5 105.5C186.5 104.8 183.9 103.9 182.7 103.9C181.5 103.9 178.5 104.3 178.5 104.3C178.5 104.3 183.8 105.5 185.3 106.7C186.8 107.9 189.4 110.5 189.5 111C189.6 111.5 190.1 112.6 190.1 112.6C190.1 112.6 191.3 112.2 190.6 110.5Z" fill="#FFDC44" stroke="#263238" stroke-width="0.4429" stroke-miterlimit="10" stroke-linecap="round" stroke-linejoin="round"/>
<path d="M189 113.2C189 113.2 184.9 112.7 183.4 113.8C181.9 114.9 179.2 118 179.2 119.6C179.2 121.2 179.3 125 179.3 124.6C179.3 124.2 180.1 118.9 181.8 117.3C183.5 115.7 184.3 114.7 186.5 114.4C188.8 114.1 188.8 114.1 188.8 114.1L191.1 115.3L189 113.2Z" fill="#FFDC44" stroke="#263238" stroke-width="0.4429" stroke-miterlimit="10" stroke-linecap="round" stroke-linejoin="round"/>
<path d="M192.2 112.2C192.2 112.2 193 111.5 196 111.1C198.9 110.7 199.8 110.4 201.6 110.7C203.5 111.1 205.4 111.8 205.4 111.8C205.4 111.8 199.5 111.7 199 111.7C198.5 111.7 202.5 114.4 203.3 115.2C204.1 116 204.7 117.7 204.7 117.7C204.7 117.7 198.8 113.4 197.8 113C196.8 112.5 196.4 112.2 196.4 112.2C196.4 112.2 194.8 111.9 194.1 112.1C193.4 112.3 192.9 112.5 192.7 112.6C192.5 112.7 191.7 112.9 191.7 112.9L192.2 112.2Z" fill="#FFDC44" stroke="#263238" stroke-width="0.4429" stroke-miterlimit="10" stroke-linecap="round" stroke-linejoin="round"/>
<path d="M191.3 110C191.3 110 191.7 106.1 193.6 104.2C195.5 102.4 202.1 99 202.1 99L206.1 97C206.1 97 204.9 99.6 202.5 100.6C200.1 101.6 199.2 100.9 198.1 102.1C196.9 103.3 195.1 105.9 194.7 107C194.3 108.2 192.1 111.4 192 112.1C191.9 112.8 191.3 110 191.3 110Z" fill="#FFDC44" stroke="#263238" stroke-width="0.4429" stroke-miterlimit="10" stroke-linecap="round" stroke-linejoin="round"/>
<path d="M191.6 111.1C191.6 111.1 192 104.9 191.3 103.4C190.6 101.8 188.5 98.2 188 97.4C187.5 96.6 186.9 95.9 186.9 95.9C186.9 95.9 188.6 101.3 189.1 104.1C189.6 106.9 189.6 107.8 189.8 109C189.9 110.2 190.1 111.2 190.1 111.2H191.6V111.1Z" fill="#FFDC44" stroke="#263238" stroke-width="0.4429" stroke-miterlimit="10" stroke-linecap="round" stroke-linejoin="round"/>
<path d="M190.7 113.3C190.7 113.3 191.6 110.8 193 108.6C194.4 106.4 196.4 105.9 196.7 105.9C197.1 105.9 198.2 105.9 198.2 105.9C198.2 105.9 195.5 107.2 195.2 108.4C194.8 109.6 194.1 112.2 193.6 112.7C193.1 113.2 191.7 116.1 191.3 116.8C190.9 117.5 190.1 117.8 190.1 117.8C190.1 117.8 188.8 116.1 190.7 113.3Z" fill="#FFDC44" stroke="#263238" stroke-width="0.4429" stroke-miterlimit="10" stroke-linecap="round" stroke-linejoin="round"/>
<path d="M191.7 113.5L189.9 117.9L190.4 118.4C190.4 118.4 191.2 117.4 191.8 116.5C192.4 115.6 192.9 114.9 192.9 114.5C193 114.2 191.7 113.5 191.7 113.5Z" fill="#FFDC44" stroke="#263238" stroke-width="0.4429" stroke-miterlimit="10" stroke-linecap="round" stroke-linejoin="round"/>
<path d="M191 117.3C191 117.3 188.4 111.6 187.6 110.4C186.8 109.2 185.9 108.1 184.1 107.7C182.3 107.2 179.3 106.3 176.7 106.8C174 107.3 169.4 107.9 169.4 107.9C169.4 107.9 172.7 109.4 176.7 109.1C180.6 108.8 184.1 109 184.1 109C184.1 109 184.9 109.4 185.5 111.3C186.1 113.3 187.4 115.1 188.2 115.8C189 116.6 190.4 118.4 190.4 118.4L191 117.3Z" fill="#FFDC44" stroke="#263238" stroke-width="0.4429" stroke-miterlimit="10" stroke-linecap="round" stroke-linejoin="round"/>
<path d="M191.6 111.1C191.6 111.1 188.7 109.9 188.1 111C187.4 112 186.3 117.3 186.3 117.3C186.3 117.3 185.8 120.1 185.6 120.4C185.5 120.7 189.2 117.8 190.1 115.4C190.9 112.8 191.6 111.1 191.6 111.1Z" fill="#FFDC44" stroke="#263238" stroke-width="0.4429" stroke-miterlimit="10" stroke-linecap="round" stroke-linejoin="round"/>
<path d="M194.3 112.8C194.3 112.8 191.8 112.9 191.8 113.5C191.8 114.1 192.2 115.2 192 116.6C191.9 118 191.7 119.2 191.7 119.2C191.7 119.2 194.4 118 194.6 116.5C194.7 114.9 194.3 112.8 194.3 112.8Z" fill="#FFDC44" stroke="#263238" stroke-width="0.4429" stroke-miterlimit="10" stroke-linecap="round" stroke-linejoin="round"/>
<path d="M195.5 112.8C195.5 112.8 198.1 114.6 199 116.2C199.9 117.8 200.6 121.2 200.6 121.2C200.6 121.2 198.8 117.8 197.5 115.9C196.1 114 194.1 112.5 193.7 113C193.2 113.7 194.5 112.4 195.5 112.8Z" fill="#FFDC44" stroke="#263238" stroke-width="0.4429" stroke-miterlimit="10" stroke-linecap="round" stroke-linejoin="round"/>
<path d="M194.4 175.3H180.3L177.3 156H197.5L194.4 175.3Z" fill="#263238" stroke="#263238" stroke-width="0.4429" stroke-miterlimit="10" stroke-linecap="round" stroke-linejoin="round"/>
<path d="M196 176.3H178.4L177.5 174.5H196.8L196 176.3Z" fill="#263238" stroke="#263238" stroke-width="0.4429" stroke-miterlimit="10" stroke-linecap="round" stroke-linejoin="round"/>
<path d="M130.5 106.8H147.3L146.6 108.3H130.5V106.8Z" fill="#E8E8E8" stroke="#263238" stroke-width="0.4429" stroke-miterlimit="10" stroke-linecap="round" stroke-linejoin="round"/>
<path d="M149.8 88.6H180.1L176.7 108.3H146.5L149.8 88.6Z" fill="#E8E8E8" stroke="#263238" stroke-width="0.4429" stroke-miterlimit="10" stroke-linecap="round" stroke-linejoin="round"/>
<path d="M165.6 98.9C165.3 100.2 164.2 101.1 163.2 100.9C162.2 100.7 161.6 99.4 161.9 98.1C162.2 96.8 163.3 95.9 164.3 96.1C165.3 96.4 165.9 97.6 165.6 98.9Z" fill="white" stroke="#263238" stroke-width="0.4429" stroke-miterlimit="10" stroke-linecap="round" stroke-linejoin="round"/>
<path d="M97.9 108.1H83.6C83.3 108.1 83.1 107.9 83.1 107.6V104C83.1 103.7 83.3 103.5 83.6 103.5H97.9V108.1Z" fill="white" stroke="#263238" stroke-width="0.4429" stroke-miterlimit="10" stroke-linecap="round" stroke-linejoin="round"/>
<path d="M96.2001 103.5H95.0001V108.1H96.2001V103.5Z" fill="#263238" stroke="#263238" stroke-width="0.4429" stroke-miterlimit="10" stroke-linecap="round" stroke-linejoin="round"/>
<path d="M85.1 103.5H84.1V108.1H85.1V103.5Z" fill="#263238" stroke="#263238" stroke-width="0.4429" stroke-miterlimit="10" stroke-linecap="round" stroke-linejoin="round"/>
<path d="M112.1 103.9H98.2001V107.5H112.1V103.9Z" fill="#E8E8E8" stroke="#263238" stroke-width="0.4429" stroke-miterlimit="10" stroke-linecap="round" stroke-linejoin="round"/>
<path d="M98.4 107.3V104.2H112.2C112.4 104.2 112.6 104 112.6 103.8C112.6 103.6 112.4 103.4 112.2 103.4H97.8V108H112.2C112.4 108 112.6 107.8 112.6 107.6C112.6 107.4 112.4 107.2 112.2 107.2L98.4 107.3Z" fill="white" stroke="#263238" stroke-width="0.4429" stroke-miterlimit="10" stroke-linecap="round" stroke-linejoin="round"/>
<path d="M96.7001 103.8H82.5001C82.2001 103.8 82.0001 103.6 82.0001 103.3V99.7C82.0001 99.4 82.2001 99.2 82.5001 99.2H96.8001V103.8H96.7001Z" fill="white" stroke="#263238" stroke-width="0.4429" stroke-miterlimit="10" stroke-linecap="round" stroke-linejoin="round"/>
<path d="M95.1001 99.2H93.9001V103.8H95.1001V99.2Z" fill="#263238" stroke="#263238" stroke-width="0.4429" stroke-miterlimit="10" stroke-linecap="round" stroke-linejoin="round"/>
<path d="M84.0001 99.2H83.0001V103.8H84.0001V99.2Z" fill="#263238" stroke="#263238" stroke-width="0.4429" stroke-miterlimit="10" stroke-linecap="round" stroke-linejoin="round"/>
<path d="M111 99.6H97.1V103.2H111V99.6Z" fill="#E8E8E8" stroke="#263238" stroke-width="0.4429" stroke-miterlimit="10" stroke-linecap="round" stroke-linejoin="round"/>
<path d="M97.3001 103.1V100H111.1C111.3 100 111.5 99.8 111.5 99.6C111.5 99.4 111.3 99.2 111.1 99.2H96.7001V103.8H111.1C111.3 103.8 111.5 103.6 111.5 103.4C111.5 103.2 111.3 103 111.1 103L97.3001 103.1Z" fill="white" stroke="#263238" stroke-width="0.4429" stroke-miterlimit="10" stroke-linecap="round" stroke-linejoin="round"/>
<path d="M69.4998 85.6C69.1998 85.6 68.9998 85.8 68.9998 86.1V91H69.9998V86.1C69.9998 85.8 69.7998 85.6 69.4998 85.6Z" fill="#263238" stroke="#263238" stroke-width="0.2215" stroke-miterlimit="10" stroke-linecap="round" stroke-linejoin="round"/>
<path d="M69.4998 106.4C69.2998 106.4 69.0998 106.2 69.0998 106V90.3H69.8998V106C69.8998 106.2 69.6998 106.4 69.4998 106.4Z" fill="#263238" stroke="#263238" stroke-width="0.2215" stroke-miterlimit="10" stroke-linecap="round" stroke-linejoin="round"/>
<path d="M69.5998 89.5H61.9998C61.9998 89.5 62.0998 90.2 61.3998 90.2C60.8998 90.2 60.6998 89.9 60.9998 89.4C61.1998 89 60.4998 89.5 60.3998 90C60.3998 90.5 61.0998 90.8 61.5998 90.7C62.1998 90.6 62.2998 90.1 62.2998 90.1L69.5998 90.8V89.5Z" fill="#263238" stroke="#263238" stroke-width="0.2215" stroke-miterlimit="10" stroke-linecap="round" stroke-linejoin="round"/>
<path d="M69.5998 89.5H77.1998C77.1998 89.5 77.0998 90.2 77.7998 90.2C78.2998 90.2 78.4998 89.9 78.1998 89.4C77.9998 89 78.6998 89.5 78.7998 90C78.7998 90.5 78.0998 90.8 77.5998 90.7C76.9998 90.6 76.8998 90.1 76.8998 90.1L69.5998 90.8V89.5Z" fill="#263238" stroke="#263238" stroke-width="0.2215" stroke-miterlimit="10" stroke-linecap="round" stroke-linejoin="round"/>
<path d="M68.9998 91.8L69.5998 92.6L70.0998 91.8C69.9998 91.1 68.9998 91.1 68.9998 91.8Z" fill="#263238" stroke="#263238" stroke-width="0.2215" stroke-miterlimit="10" stroke-linecap="round" stroke-linejoin="round"/>
<path d="M69.4998 90.8C69.8311 90.8 70.0998 90.5313 70.0998 90.2C70.0998 89.8686 69.8311 89.6 69.4998 89.6C69.1684 89.6 68.8998 89.8686 68.8998 90.2C68.8998 90.5313 69.1684 90.8 69.4998 90.8Z" fill="#263238" stroke="#9E9E9E" stroke-width="0.2215" stroke-miterlimit="10" stroke-linecap="round" stroke-linejoin="round"/>
<path d="M69.6998 90.2C69.6998 90.1 69.5998 90 69.4998 90C69.3998 90 69.2998 90.1 69.2998 90.2C69.2998 90.3 69.3998 90.4 69.4998 90.4C69.5998 90.5 69.6998 90.3 69.6998 90.2Z" fill="#263238" stroke="#9E9E9E" stroke-width="0.2215" stroke-miterlimit="10" stroke-linecap="round" stroke-linejoin="round"/>
<path d="M61.6998 90.8999C61.5998 90.8999 61.4998 90.8999 61.4998 90.7999V90.6999C61.4998 90.5999 61.4998 90.4999 61.5998 90.4999C61.6998 90.4999 61.7998 90.4999 61.7998 90.5999V90.6999C61.8998 90.6999 61.7998 90.7999 61.6998 90.8999Z" fill="white" stroke="#263238" stroke-width="0.1107" stroke-miterlimit="10" stroke-linecap="round" stroke-linejoin="round"/>
<path d="M61.4998 90.2L61.5998 90.6" stroke="#263238" stroke-width="0.1107" stroke-miterlimit="10" stroke-linecap="round" stroke-linejoin="round"/>
<path d="M61.9998 91.5C61.8998 91.5 61.7998 91.5 61.7998 91.4V91.3C61.7998 91.2 61.7998 91.1 61.8998 91.1C61.9998 91.1 62.0998 91.1 62.0998 91.2V91.3C62.0998 91.4 61.9998 91.4 61.9998 91.5Z" fill="white" stroke="#263238" stroke-width="0.1107" stroke-miterlimit="10" stroke-linecap="round" stroke-linejoin="round"/>
<path d="M61.6998 90.7L61.7998 91.2" stroke="#263238" stroke-width="0.1107" stroke-miterlimit="10" stroke-linecap="round" stroke-linejoin="round"/>
<path d="M62.0998 92.1C61.9998 92.1 61.8998 92.1 61.8998 92V91.9C61.8998 91.8 61.8998 91.7 61.9998 91.7C62.0998 91.7 62.1998 91.7 62.1998 91.8V91.9C62.2998 92 62.1998 92.1 62.0998 92.1Z" fill="white" stroke="#263238" stroke-width="0.1107" stroke-miterlimit="10" stroke-linecap="round" stroke-linejoin="round"/>
<path d="M61.8998 91.4L62.0998 91.8" stroke="#263238" stroke-width="0.1107" stroke-miterlimit="10" stroke-linecap="round" stroke-linejoin="round"/>
<path d="M62.3998 92.6999C62.2998 92.6999 62.1998 92.6999 62.1998 92.5999V92.4999C62.1998 92.3999 62.1998 92.2999 62.2998 92.2999C62.3998 92.2999 62.4998 92.2999 62.4998 92.3999V92.4999C62.4998 92.5999 62.4998 92.5999 62.3998 92.6999Z" fill="white" stroke="#263238" stroke-width="0.1107" stroke-miterlimit="10" stroke-linecap="round" stroke-linejoin="round"/>
<path d="M62.0998 91.9999L62.2998 92.3999" stroke="#263238" stroke-width="0.1107" stroke-miterlimit="10" stroke-linecap="round" stroke-linejoin="round"/>
<path d="M62.5998 93.3C62.4998 93.3 62.3998 93.3 62.3998 93.2V93.1C62.3998 93 62.3998 92.9 62.4998 92.9C62.5998 92.9 62.6998 92.9 62.6998 93V93.1C62.6998 93.2 62.6998 93.3 62.5998 93.3Z" fill="white" stroke="#263238" stroke-width="0.1107" stroke-miterlimit="10" stroke-linecap="round" stroke-linejoin="round"/>
<path d="M62.2998 92.6L62.4998 93" stroke="#263238" stroke-width="0.1107" stroke-miterlimit="10" stroke-linecap="round" stroke-linejoin="round"/>
<path d="M62.7998 93.8999C62.6998 93.8999 62.5998 93.8999 62.5998 93.7999V93.6999C62.5998 93.5999 62.5998 93.4999 62.6998 93.4999C62.7998 93.4999 62.8998 93.4999 62.8998 93.5999V93.6999C62.8998 93.7999 62.8998 93.8999 62.7998 93.8999Z" fill="white" stroke="#263238" stroke-width="0.1107" stroke-miterlimit="10" stroke-linecap="round" stroke-linejoin="round"/>
<path d="M62.4998 93.2L62.6998 93.6" stroke="#263238" stroke-width="0.1107" stroke-miterlimit="10" stroke-linecap="round" stroke-linejoin="round"/>
<path d="M62.9998 94.5C62.8998 94.5 62.7998 94.5 62.7998 94.4V94.3C62.7998 94.2 62.7998 94.1 62.8998 94.1C62.9998 94.1 63.0998 94.1 63.0998 94.2V94.3C63.0998 94.4 63.0998 94.5 62.9998 94.5Z" fill="white" stroke="#263238" stroke-width="0.1107" stroke-miterlimit="10" stroke-linecap="round" stroke-linejoin="round"/>
<path d="M62.7998 93.7999L62.8998 94.1999" stroke="#263238" stroke-width="0.1107" stroke-miterlimit="10" stroke-linecap="round" stroke-linejoin="round"/>
<path d="M63.1998 95.1C63.0998 95.1 62.9998 95.1 62.9998 95V94.9C62.9998 94.8 62.9998 94.7 63.0998 94.7C63.1998 94.7 63.2998 94.7 63.2998 94.8V94.9C63.2998 95 63.2998 95.1 63.1998 95.1Z" fill="white" stroke="#263238" stroke-width="0.1107" stroke-miterlimit="10" stroke-linecap="round" stroke-linejoin="round"/>
<path d="M62.9998 94.4L63.0998 94.8" stroke="#263238" stroke-width="0.1107" stroke-miterlimit="10" stroke-linecap="round" stroke-linejoin="round"/>
<path d="M63.3998 95.6999C63.2998 95.6999 63.1998 95.6999 63.1998 95.5999V95.4999C63.1998 95.3999 63.1998 95.2999 63.2998 95.2999C63.3998 95.2999 63.4998 95.2999 63.4998 95.3999V95.4999C63.5998 95.5999 63.4998 95.6999 63.3998 95.6999Z" fill="white" stroke="#263238" stroke-width="0.1107" stroke-miterlimit="10" stroke-linecap="round" stroke-linejoin="round"/>
<path d="M63.1998 94.9999L63.2998 95.3999" stroke="#263238" stroke-width="0.1107" stroke-miterlimit="10" stroke-linecap="round" stroke-linejoin="round"/>
<path d="M63.5998 96.3C63.4998 96.3 63.3998 96.3 63.3998 96.2V96.1C63.3998 96 63.3998 95.9 63.4998 95.9C63.5998 95.9 63.6998 95.9 63.6998 96V96.1C63.7998 96.2 63.6998 96.3 63.5998 96.3Z" fill="white" stroke="#263238" stroke-width="0.1107" stroke-miterlimit="10" stroke-linecap="round" stroke-linejoin="round"/>
<path d="M63.3998 95.6L63.5998 96" stroke="#263238" stroke-width="0.1107" stroke-miterlimit="10" stroke-linecap="round" stroke-linejoin="round"/>
<path d="M63.8998 96.8999C63.7998 96.8999 63.6998 96.8999 63.6998 96.7999V96.6999C63.6998 96.5999 63.6998 96.4999 63.7998 96.4999C63.8998 96.4999 63.9998 96.4999 63.9998 96.5999V96.6999C63.9998 96.7999 63.9998 96.8999 63.8998 96.8999Z" fill="white" stroke="#263238" stroke-width="0.1107" stroke-miterlimit="10" stroke-linecap="round" stroke-linejoin="round"/>
<path d="M63.5998 96.2L63.7998 96.6" stroke="#263238" stroke-width="0.1107" stroke-miterlimit="10" stroke-linecap="round" stroke-linejoin="round"/>
<path d="M64.0998 97.5C63.9998 97.5 63.8998 97.5 63.8998 97.4V97.3C63.8998 97.2 63.8998 97.1 63.9998 97.1C64.0998 97.1 64.1998 97.1 64.1998 97.2V97.3C64.1998 97.4 64.0998 97.5 64.0998 97.5Z" fill="white" stroke="#263238" stroke-width="0.1107" stroke-miterlimit="10" stroke-linecap="round" stroke-linejoin="round"/>
<path d="M63.7998 96.7999L63.9998 97.1999" stroke="#263238" stroke-width="0.1107" stroke-miterlimit="10" stroke-linecap="round" stroke-linejoin="round"/>
<path d="M64.2998 98.1C64.1998 98.1 64.0998 98.1 64.0998 98V97.9C64.0998 97.8 64.0998 97.7 64.1998 97.7C64.2998 97.7 64.3998 97.7 64.3998 97.8V97.9C64.3998 98 64.3998 98.1 64.2998 98.1Z" fill="white" stroke="#263238" stroke-width="0.1107" stroke-miterlimit="10" stroke-linecap="round" stroke-linejoin="round"/>
<path d="M63.9998 97.4L64.1998 97.8" stroke="#263238" stroke-width="0.1107" stroke-miterlimit="10" stroke-linecap="round" stroke-linejoin="round"/>
<path d="M64.4998 98.6999C64.3998 98.6999 64.2998 98.6999 64.2998 98.5999V98.4999C64.2998 98.3999 64.2998 98.2999 64.3998 98.2999C64.4998 98.2999 64.5998 98.2999 64.5998 98.3999V98.4999C64.5998 98.5999 64.5998 98.6999 64.4998 98.6999Z" fill="white" stroke="#263238" stroke-width="0.1107" stroke-miterlimit="10" stroke-linecap="round" stroke-linejoin="round"/>
<path d="M64.2998 97.9999L64.3998 98.3999" stroke="#263238" stroke-width="0.1107" stroke-miterlimit="10" stroke-linecap="round" stroke-linejoin="round"/>
<path d="M61.0998 90.8999C61.1998 90.8999 61.2998 90.8999 61.2998 90.7999V90.6999C61.2998 90.5999 61.2998 90.4999 61.1998 90.4999C61.0998 90.4999 60.9998 90.4999 60.9998 90.5999V90.6999C60.9998 90.6999 60.9998 90.7999 61.0998 90.8999Z" fill="white" stroke="#263238" stroke-width="0.1107" stroke-miterlimit="10" stroke-linecap="round" stroke-linejoin="round"/>
<path d="M61.3998 90.2L61.1998 90.6" stroke="#263238" stroke-width="0.1107" stroke-miterlimit="10" stroke-linecap="round" stroke-linejoin="round"/>
<path d="M60.8997 91.3999C60.9997 91.3999 61.0997 91.3999 61.0997 91.2999V91.1999C61.0997 91.0999 61.0997 90.9999 60.9997 90.9999C60.8997 90.9999 60.7997 90.9999 60.7997 91.0999V91.1999C60.7997 91.3999 60.7997 91.3999 60.8997 91.3999Z" fill="white" stroke="#263238" stroke-width="0.1107" stroke-miterlimit="10" stroke-linecap="round" stroke-linejoin="round"/>
<path d="M61.1998 90.7L60.9998 91.2" stroke="#263238" stroke-width="0.1107" stroke-miterlimit="10" stroke-linecap="round" stroke-linejoin="round"/>
<path d="M60.6998 92.1C60.7998 92.1 60.8998 92.1 60.8998 92V91.9C60.8998 91.8 60.8998 91.7 60.7998 91.7C60.6998 91.7 60.5998 91.7 60.5998 91.8V91.9C60.5998 91.9 60.5998 92 60.6998 92.1Z" fill="white" stroke="#263238" stroke-width="0.1107" stroke-miterlimit="10" stroke-linecap="round" stroke-linejoin="round"/>
<path d="M60.8997 91.4L60.7997 91.8" stroke="#263238" stroke-width="0.1107" stroke-miterlimit="10" stroke-linecap="round" stroke-linejoin="round"/>
<path d="M60.4998 92.6999C60.5998 92.6999 60.6998 92.6999 60.6998 92.5999V92.4999C60.6998 92.3999 60.6998 92.2999 60.5998 92.2999C60.4998 92.2999 60.3998 92.2999 60.3998 92.3999V92.4999C60.3998 92.5999 60.3998 92.5999 60.4998 92.6999Z" fill="white" stroke="#263238" stroke-width="0.1107" stroke-miterlimit="10" stroke-linecap="round" stroke-linejoin="round"/>
<path d="M60.6998 91.9999L60.5998 92.3999" stroke="#263238" stroke-width="0.1107" stroke-miterlimit="10" stroke-linecap="round" stroke-linejoin="round"/>
<path d="M60.2997 93.3C60.3997 93.3 60.4997 93.3 60.4997 93.2V93.1C60.4997 93 60.4997 92.9 60.3997 92.9C60.2997 92.9 60.1997 92.9 60.1997 93V93.1C60.0997 93.2 60.1997 93.3 60.2997 93.3Z" fill="white" stroke="#263238" stroke-width="0.1107" stroke-miterlimit="10" stroke-linecap="round" stroke-linejoin="round"/>
<path d="M60.4998 92.6L60.3998 93" stroke="#263238" stroke-width="0.1107" stroke-miterlimit="10" stroke-linecap="round" stroke-linejoin="round"/>
<path d="M60.0998 93.8999C60.1998 93.8999 60.2998 93.8999 60.2998 93.7999V93.6999C60.2998 93.5999 60.2998 93.4999 60.1998 93.4999C60.0998 93.4999 59.9998 93.4999 59.9998 93.5999V93.6999C59.8998 93.6999 59.9998 93.7999 60.0998 93.8999Z" fill="white" stroke="#263238" stroke-width="0.1107" stroke-miterlimit="10" stroke-linecap="round" stroke-linejoin="round"/>
<path d="M60.2998 93.2L60.0998 93.6" stroke="#263238" stroke-width="0.1107" stroke-miterlimit="10" stroke-linecap="round" stroke-linejoin="round"/>
<path d="M59.7998 94.5C59.8998 94.5 59.9998 94.5 59.9998 94.4V94.3C59.9998 94.2 59.9998 94.1 59.8998 94.1C59.7998 94.1 59.6998 94.1 59.6998 94.2V94.3C59.6998 94.4 59.6998 94.5 59.7998 94.5Z" fill="white" stroke="#263238" stroke-width="0.1107" stroke-miterlimit="10" stroke-linecap="round" stroke-linejoin="round"/>
<path d="M60.0998 93.7L59.8998 94.2" stroke="#263238" stroke-width="0.1107" stroke-miterlimit="10" stroke-linecap="round" stroke-linejoin="round"/>
<path d="M59.5998 95.1C59.6998 95.1 59.7998 95.1 59.7998 95V94.9C59.7998 94.8 59.7998 94.7 59.6998 94.7C59.5998 94.7 59.4998 94.7 59.4998 94.8V94.9C59.4998 95 59.4998 95.1 59.5998 95.1Z" fill="white" stroke="#263238" stroke-width="0.1107" stroke-miterlimit="10" stroke-linecap="round" stroke-linejoin="round"/>
<path d="M59.8998 94.4L59.6998 94.8" stroke="#263238" stroke-width="0.1107" stroke-miterlimit="10" stroke-linecap="round" stroke-linejoin="round"/>
<path d="M59.3997 95.6999C59.4997 95.6999 59.5997 95.6999 59.5997 95.5999V95.4999C59.5997 95.3999 59.5997 95.2999 59.4997 95.2999C59.3997 95.2999 59.2997 95.2999 59.2997 95.3999V95.4999C59.2997 95.5999 59.2997 95.6999 59.3997 95.6999Z" fill="white" stroke="#263238" stroke-width="0.1107" stroke-miterlimit="10" stroke-linecap="round" stroke-linejoin="round"/>
<path d="M59.6998 94.9999L59.4998 95.3999" stroke="#263238" stroke-width="0.1107" stroke-miterlimit="10" stroke-linecap="round" stroke-linejoin="round"/>
<path d="M59.1998 96.3C59.2998 96.3 59.3998 96.3 59.3998 96.2V96.1C59.3998 96 59.3998 95.9 59.2998 95.9C59.1998 95.9 59.0998 95.9 59.0998 96V96.1C59.0998 96.2 59.0998 96.3 59.1998 96.3Z" fill="white" stroke="#263238" stroke-width="0.1107" stroke-miterlimit="10" stroke-linecap="round" stroke-linejoin="round"/>
<path d="M59.3997 95.6L59.2997 96" stroke="#263238" stroke-width="0.1107" stroke-miterlimit="10" stroke-linecap="round" stroke-linejoin="round"/>
<path d="M58.9998 96.8999C59.0998 96.8999 59.1998 96.8999 59.1998 96.7999V96.6999C59.1998 96.5999 59.1998 96.4999 59.0998 96.4999C58.9998 96.4999 58.8998 96.4999 58.8998 96.5999V96.6999C58.8998 96.7999 58.8998 96.8999 58.9998 96.8999Z" fill="white" stroke="#263238" stroke-width="0.1107" stroke-miterlimit="10" stroke-linecap="round" stroke-linejoin="round"/>
<path d="M59.1998 96.2L59.0998 96.6" stroke="#263238" stroke-width="0.1107" stroke-miterlimit="10" stroke-linecap="round" stroke-linejoin="round"/>
<path d="M58.7997 97.5C58.8997 97.5 58.9997 97.5 58.9997 97.4V97.3C58.9997 97.2 58.9997 97.1 58.8997 97.1C58.7997 97.1 58.6997 97.1 58.6997 97.2V97.3C58.5997 97.4 58.6997 97.5 58.7997 97.5Z" fill="white" stroke="#263238" stroke-width="0.1107" stroke-miterlimit="10" stroke-linecap="round" stroke-linejoin="round"/>
<path d="M58.9998 96.7999L58.8998 97.1999" stroke="#263238" stroke-width="0.1107" stroke-miterlimit="10" stroke-linecap="round" stroke-linejoin="round"/>
<path d="M58.5998 98.1C58.6998 98.1 58.7998 98.1 58.7998 98V97.9C58.7998 97.8 58.7998 97.7 58.6998 97.7C58.5998 97.7 58.4998 97.7 58.4998 97.8V97.9C58.3998 98 58.4998 98.1 58.5998 98.1Z" fill="white" stroke="#263238" stroke-width="0.1107" stroke-miterlimit="10" stroke-linecap="round" stroke-linejoin="round"/>
<path d="M58.7998 97.4L58.5998 97.8" stroke="#263238" stroke-width="0.1107" stroke-miterlimit="10" stroke-linecap="round" stroke-linejoin="round"/>
<path d="M58.2998 98.6999C58.3998 98.6999 58.4998 98.6999 58.4998 98.5999V98.4999C58.4998 98.3999 58.4998 98.2999 58.3998 98.2999C58.2998 98.2999 58.1998 98.2999 58.1998 98.3999V98.4999C58.1998 98.5999 58.1998 98.6999 58.2998 98.6999Z" fill="white" stroke="#263238" stroke-width="0.1107" stroke-miterlimit="10" stroke-linecap="round" stroke-linejoin="round"/>
<path d="M58.5998 97.9999L58.3998 98.3999" stroke="#263238" stroke-width="0.1107" stroke-miterlimit="10" stroke-linecap="round" stroke-linejoin="round"/>
<path d="M61.3998 90.8999C61.4998 90.8999 61.5998 90.7999 61.5998 90.6999V90.4999C61.5998 90.3999 61.4998 90.2999 61.3998 90.2999C61.2998 90.2999 61.1998 90.3999 61.1998 90.4999V90.6999C61.1998 90.8999 61.2998 90.8999 61.3998 90.8999Z" fill="white" stroke="#263238" stroke-width="0.1107" stroke-miterlimit="10" stroke-linecap="round" stroke-linejoin="round"/>
<path d="M61.3998 90.2V90.6" stroke="#263238" stroke-width="0.1107" stroke-miterlimit="10" stroke-linecap="round" stroke-linejoin="round"/>
<path d="M61.2998 91.5999C61.3998 91.5999 61.4998 91.4999 61.4998 91.3999V91.1999C61.4998 91.0999 61.3998 90.9999 61.2998 90.9999C61.1998 90.9999 61.0998 91.0999 61.0998 91.1999V91.3999C61.1998 91.4999 61.2998 91.5999 61.2998 91.5999Z" fill="white" stroke="#263238" stroke-width="0.1107" stroke-miterlimit="10" stroke-linecap="round" stroke-linejoin="round"/>
<path d="M61.3998 90.7999V91.2999" stroke="#263238" stroke-width="0.1107" stroke-miterlimit="10" stroke-linecap="round" stroke-linejoin="round"/>
<path d="M61.2998 92.2C61.3998 92.2 61.4998 92.1 61.4998 92V91.8C61.4998 91.7 61.3998 91.6 61.2998 91.6C61.1998 91.6 61.0998 91.7 61.0998 91.8V92C61.1998 92.2 61.2998 92.2 61.2998 92.2Z" fill="white" stroke="#263238" stroke-width="0.1107" stroke-miterlimit="10" stroke-linecap="round" stroke-linejoin="round"/>
<path d="M61.2998 91.4V91.9" stroke="#263238" stroke-width="0.1107" stroke-miterlimit="10" stroke-linecap="round" stroke-linejoin="round"/>
<path d="M61.2998 92.8999C61.3998 92.8999 61.4998 92.7999 61.4998 92.6999V92.4999C61.4998 92.3999 61.3998 92.2999 61.2998 92.2999C61.1998 92.2999 61.0998 92.3999 61.0998 92.4999V92.6999C61.1998 92.7999 61.2998 92.8999 61.2998 92.8999Z" fill="white" stroke="#263238" stroke-width="0.1107" stroke-miterlimit="10" stroke-linecap="round" stroke-linejoin="round"/>
<path d="M61.2998 92.1V92.6" stroke="#263238" stroke-width="0.1107" stroke-miterlimit="10" stroke-linecap="round" stroke-linejoin="round"/>
<path d="M61.2998 93.5C61.3998 93.5 61.4998 93.4 61.4998 93.3V93.1C61.4998 93 61.3998 92.9 61.2998 92.9C61.1998 92.9 61.0998 93 61.0998 93.1V93.3C61.1998 93.4 61.2998 93.5 61.2998 93.5Z" fill="white" stroke="#263238" stroke-width="0.1107" stroke-miterlimit="10" stroke-linecap="round" stroke-linejoin="round"/>
<path d="M61.2998 92.7V93.2" stroke="#263238" stroke-width="0.1107" stroke-miterlimit="10" stroke-linecap="round" stroke-linejoin="round"/>
<path d="M61.2998 94.0999C61.3998 94.0999 61.4998 93.9999 61.4998 93.8999V93.6999C61.4998 93.5999 61.3998 93.4999 61.2998 93.4999C61.1998 93.4999 61.0998 93.5999 61.0998 93.6999V93.9999C61.1998 94.0999 61.2998 94.0999 61.2998 94.0999Z" fill="white" stroke="#263238" stroke-width="0.1107" stroke-miterlimit="10" stroke-linecap="round" stroke-linejoin="round"/>
<path d="M61.2998 93.4V93.8" stroke="#263238" stroke-width="0.1107" stroke-miterlimit="10" stroke-linecap="round" stroke-linejoin="round"/>
<path d="M61.2998 94.8C61.3998 94.8 61.4998 94.7 61.4998 94.6V94.4C61.4998 94.3 61.3998 94.2 61.2998 94.2C61.1998 94.2 61.0998 94.3 61.0998 94.4V94.6C61.1998 94.7 61.1998 94.8 61.2998 94.8Z" fill="white" stroke="#263238" stroke-width="0.1107" stroke-miterlimit="10" stroke-linecap="round" stroke-linejoin="round"/>
<path d="M61.2998 93.9999V94.4999" stroke="#263238" stroke-width="0.1107" stroke-miterlimit="10" stroke-linecap="round" stroke-linejoin="round"/>
<path d="M61.2998 95.3999C61.3998 95.3999 61.4998 95.2999 61.4998 95.1999V94.9999C61.4998 94.8999 61.3998 94.7999 61.2998 94.7999C61.1998 94.7999 61.0998 94.8999 61.0998 94.9999V95.1999C61.1998 95.2999 61.1998 95.3999 61.2998 95.3999Z" fill="white" stroke="#263238" stroke-width="0.1107" stroke-miterlimit="10" stroke-linecap="round" stroke-linejoin="round"/>
<path d="M61.2998 94.6V95.1" stroke="#263238" stroke-width="0.1107" stroke-miterlimit="10" stroke-linecap="round" stroke-linejoin="round"/>
<path d="M61.2998 96.0999C61.3998 96.0999 61.4998 95.9999 61.4998 95.8999V95.6999C61.4998 95.5999 61.3998 95.4999 61.2998 95.4999C61.1998 95.4999 61.0998 95.5999 61.0998 95.6999V95.8999C61.0998 95.9999 61.1998 96.0999 61.2998 96.0999Z" fill="white" stroke="#263238" stroke-width="0.1107" stroke-miterlimit="10" stroke-linecap="round" stroke-linejoin="round"/>
<path d="M61.2998 95.2999V95.6999" stroke="#263238" stroke-width="0.1107" stroke-miterlimit="10" stroke-linecap="round" stroke-linejoin="round"/>
<path d="M61.2998 96.7C61.3998 96.7 61.4998 96.6 61.4998 96.5V96.3C61.4998 96.2 61.3998 96.1 61.2998 96.1C61.1998 96.1 61.0998 96.2 61.0998 96.3V96.5C61.0998 96.6 61.1998 96.7 61.2998 96.7Z" fill="white" stroke="#263238" stroke-width="0.1107" stroke-miterlimit="10" stroke-linecap="round" stroke-linejoin="round"/>
<path d="M61.2998 95.9V96.4" stroke="#263238" stroke-width="0.1107" stroke-miterlimit="10" stroke-linecap="round" stroke-linejoin="round"/>
<path d="M61.2998 97.2999C61.3998 97.2999 61.4998 97.1999 61.4998 97.0999V96.9999C61.4998 96.8999 61.3998 96.7999 61.2998 96.7999C61.1998 96.7999 61.0998 96.8999 61.0998 96.9999V97.1999C61.0998 97.1999 61.1998 97.2999 61.2998 97.2999Z" fill="white" stroke="#263238" stroke-width="0.1107" stroke-miterlimit="10" stroke-linecap="round" stroke-linejoin="round"/>
<path d="M61.2998 96.6V97" stroke="#263238" stroke-width="0.1107" stroke-miterlimit="10" stroke-linecap="round" stroke-linejoin="round"/>
<path d="M61.2998 98C61.3998 98 61.4998 97.9 61.4998 97.8V97.6C61.4998 97.5 61.3998 97.4 61.2998 97.4C61.1998 97.4 61.0998 97.5 61.0998 97.6V97.8C61.0998 97.9 61.1998 98 61.2998 98Z" fill="white" stroke="#263238" stroke-width="0.1107" stroke-miterlimit="10" stroke-linecap="round" stroke-linejoin="round"/>
<path d="M61.2998 97.2V97.7" stroke="#263238" stroke-width="0.1107" stroke-miterlimit="10" stroke-linecap="round" stroke-linejoin="round"/>
<path d="M61.2998 98.5999C61.3998 98.5999 61.4998 98.4999 61.4998 98.3999V98.1999C61.4998 98.0999 61.3998 97.9999 61.2998 97.9999C61.1998 97.9999 61.0998 98.0999 61.0998 98.1999V98.3999C61.0998 98.4999 61.1998 98.5999 61.2998 98.5999Z" fill="white" stroke="#263238" stroke-width="0.1107" stroke-miterlimit="10" stroke-linecap="round" stroke-linejoin="round"/>
<path d="M61.2998 97.9V98.3" stroke="#263238" stroke-width="0.1107" stroke-miterlimit="10" stroke-linecap="round" stroke-linejoin="round"/>
<path d="M61.2998 99.3C61.3998 99.3 61.4998 99.2 61.4998 99.1V98.9C61.4998 98.8 61.3998 98.7 61.2998 98.7C61.1998 98.7 61.0998 98.8 61.0998 98.9V99.1C61.0998 99.2 61.1998 99.3 61.2998 99.3Z" fill="white" stroke="#263238" stroke-width="0.1107" stroke-miterlimit="10" stroke-linecap="round" stroke-linejoin="round"/>
<path d="M61.2998 98.4999V98.9999" stroke="#263238" stroke-width="0.1107" stroke-miterlimit="10" stroke-linecap="round" stroke-linejoin="round"/>
<path d="M61.4998 99.6C63.3998 99.6 64.7998 99.2 64.8998 98.7H58.0998C58.1998 99.2 59.6998 99.6 61.4998 99.6Z" fill="#263238" stroke="#263238" stroke-width="0.1107" stroke-miterlimit="10" stroke-linecap="round" stroke-linejoin="round"/>
<path d="M77.9998 90.8999C77.8998 90.8999 77.7998 90.8999 77.7998 90.7999V90.6999C77.7998 90.5999 77.7998 90.4999 77.8998 90.4999C77.9998 90.4999 78.0998 90.4999 78.0998 90.5999V90.6999C78.1998 90.6999 78.0998 90.7999 77.9998 90.8999Z" fill="white" stroke="#263238" stroke-width="0.1107" stroke-miterlimit="10" stroke-linecap="round" stroke-linejoin="round"/>
<path d="M77.7998 90.2L77.8998 90.6" stroke="#263238" stroke-width="0.1107" stroke-miterlimit="10" stroke-linecap="round" stroke-linejoin="round"/>
<path d="M78.1998 91.4999C78.0998 91.4999 77.9998 91.4999 77.9998 91.3999V91.1999C77.9998 91.0999 77.9998 90.9999 78.0998 90.9999C78.1998 90.9999 78.2998 90.9999 78.2998 91.0999V91.1999C78.3998 91.3999 78.2998 91.3999 78.1998 91.4999Z" fill="white" stroke="#263238" stroke-width="0.1107" stroke-miterlimit="10" stroke-linecap="round" stroke-linejoin="round"/>
<path d="M77.9998 90.7L78.0998 91.2" stroke="#263238" stroke-width="0.1107" stroke-miterlimit="10" stroke-linecap="round" stroke-linejoin="round"/>
<path d="M78.3998 92.1C78.2998 92.1 78.1998 92.1 78.1998 92V91.9C78.1998 91.8 78.1998 91.7 78.2998 91.7C78.3998 91.7 78.4998 91.7 78.4998 91.8V91.9C78.5998 92 78.4998 92.1 78.3998 92.1Z" fill="white" stroke="#263238" stroke-width="0.1107" stroke-miterlimit="10" stroke-linecap="round" stroke-linejoin="round"/>
<path d="M78.1998 91.4L78.3998 91.8" stroke="#263238" stroke-width="0.1107" stroke-miterlimit="10" stroke-linecap="round" stroke-linejoin="round"/>
<path d="M78.6998 92.6999C78.5998 92.6999 78.4998 92.6999 78.4998 92.5999V92.4999C78.4998 92.3999 78.4998 92.2999 78.5998 92.2999C78.6998 92.2999 78.7998 92.2999 78.7998 92.3999V92.4999C78.7998 92.5999 78.7998 92.5999 78.6998 92.6999Z" fill="white" stroke="#263238" stroke-width="0.1107" stroke-miterlimit="10" stroke-linecap="round" stroke-linejoin="round"/>
<path d="M78.3998 91.9999L78.5998 92.3999" stroke="#263238" stroke-width="0.1107" stroke-miterlimit="10" stroke-linecap="round" stroke-linejoin="round"/>
<path d="M78.8998 93.3C78.7998 93.3 78.6998 93.3 78.6998 93.2V93.1C78.6998 93 78.6998 92.9 78.7998 92.9C78.8998 92.9 78.9998 92.9 78.9998 93V93.1C78.9998 93.2 78.9998 93.3 78.8998 93.3Z" fill="white" stroke="#263238" stroke-width="0.1107" stroke-miterlimit="10" stroke-linecap="round" stroke-linejoin="round"/>
<path d="M78.5998 92.6L78.7998 93" stroke="#263238" stroke-width="0.1107" stroke-miterlimit="10" stroke-linecap="round" stroke-linejoin="round"/>
<path d="M79.0998 93.8999C78.9998 93.8999 78.8998 93.8999 78.8998 93.7999V93.6999C78.8998 93.5999 78.8998 93.4999 78.9998 93.4999C79.0998 93.4999 79.1998 93.4999 79.1998 93.5999V93.6999C79.1998 93.7999 79.1998 93.8999 79.0998 93.8999Z" fill="white" stroke="#263238" stroke-width="0.1107" stroke-miterlimit="10" stroke-linecap="round" stroke-linejoin="round"/>
<path d="M78.7998 93.2L78.9998 93.6" stroke="#263238" stroke-width="0.1107" stroke-miterlimit="10" stroke-linecap="round" stroke-linejoin="round"/>
<path d="M79.2998 94.5C79.1998 94.5 79.0998 94.5 79.0998 94.4V94.3C79.0998 94.2 79.0998 94.1 79.1998 94.1C79.2998 94.1 79.3998 94.1 79.3998 94.2V94.3C79.3998 94.4 79.3998 94.5 79.2998 94.5Z" fill="white" stroke="#263238" stroke-width="0.1107" stroke-miterlimit="10" stroke-linecap="round" stroke-linejoin="round"/>
<path d="M79.0998 93.7999L79.1998 94.1999" stroke="#263238" stroke-width="0.1107" stroke-miterlimit="10" stroke-linecap="round" stroke-linejoin="round"/>
<path d="M79.4998 95.1C79.3998 95.1 79.2998 95.1 79.2998 95V94.9C79.2998 94.8 79.2998 94.7 79.3998 94.7C79.4998 94.7 79.5998 94.7 79.5998 94.8V94.9C79.5998 95 79.5998 95.1 79.4998 95.1Z" fill="white" stroke="#263238" stroke-width="0.1107" stroke-miterlimit="10" stroke-linecap="round" stroke-linejoin="round"/>
<path d="M79.2998 94.4L79.3998 94.8" stroke="#263238" stroke-width="0.1107" stroke-miterlimit="10" stroke-linecap="round" stroke-linejoin="round"/>
<path d="M79.6998 95.6999C79.5998 95.6999 79.4998 95.6999 79.4998 95.5999V95.4999C79.4998 95.3999 79.4998 95.2999 79.5998 95.2999C79.6998 95.2999 79.7998 95.2999 79.7998 95.3999V95.4999C79.8998 95.5999 79.7998 95.6999 79.6998 95.6999Z" fill="white" stroke="#263238" stroke-width="0.1107" stroke-miterlimit="10" stroke-linecap="round" stroke-linejoin="round"/>
<path d="M79.4998 94.9999L79.5998 95.3999" stroke="#263238" stroke-width="0.1107" stroke-miterlimit="10" stroke-linecap="round" stroke-linejoin="round"/>
<path d="M79.8998 96.3C79.7998 96.3 79.6998 96.3 79.6998 96.2V96.1C79.6998 96 79.6998 95.9 79.7998 95.9C79.8998 95.9 79.9998 95.9 79.9998 96V96.1C80.0998 96.2 79.9998 96.3 79.8998 96.3Z" fill="white" stroke="#263238" stroke-width="0.1107" stroke-miterlimit="10" stroke-linecap="round" stroke-linejoin="round"/>
<path d="M79.6998 95.6L79.8998 96" stroke="#263238" stroke-width="0.1107" stroke-miterlimit="10" stroke-linecap="round" stroke-linejoin="round"/>
<path d="M80.1998 96.8999C80.0998 96.8999 79.9998 96.8999 79.9998 96.7999V96.6999C79.9998 96.5999 79.9998 96.4999 80.0998 96.4999C80.1998 96.4999 80.2998 96.4999 80.2998 96.5999V96.6999C80.2998 96.7999 80.2998 96.8999 80.1998 96.8999Z" fill="white" stroke="#263238" stroke-width="0.1107" stroke-miterlimit="10" stroke-linecap="round" stroke-linejoin="round"/>
<path d="M79.8998 96.2L79.9998 96.6" stroke="#263238" stroke-width="0.1107" stroke-miterlimit="10" stroke-linecap="round" stroke-linejoin="round"/>
<path d="M80.3998 97.5C80.2998 97.5 80.1998 97.5 80.1998 97.4V97.3C80.1998 97.2 80.1998 97.1 80.2998 97.1C80.3998 97.1 80.4998 97.1 80.4998 97.2V97.3C80.4998 97.4 80.3998 97.5 80.3998 97.5Z" fill="white" stroke="#263238" stroke-width="0.1107" stroke-miterlimit="10" stroke-linecap="round" stroke-linejoin="round"/>
<path d="M80.0998 96.7999L80.2998 97.1999" stroke="#263238" stroke-width="0.1107" stroke-miterlimit="10" stroke-linecap="round" stroke-linejoin="round"/>
<path d="M80.5998 98.1C80.4998 98.1 80.3998 98.1 80.3998 98V97.9C80.3998 97.8 80.3998 97.7 80.4998 97.7C80.5998 97.7 80.6998 97.7 80.6998 97.8V97.9C80.6998 98 80.6998 98.1 80.5998 98.1Z" fill="white" stroke="#263238" stroke-width="0.1107" stroke-miterlimit="10" stroke-linecap="round" stroke-linejoin="round"/>
<path d="M80.2998 97.4L80.4998 97.8" stroke="#263238" stroke-width="0.1107" stroke-miterlimit="10" stroke-linecap="round" stroke-linejoin="round"/>
<path d="M80.7998 98.6999C80.6998 98.6999 80.5998 98.6999 80.5998 98.5999V98.4999C80.5998 98.3999 80.5998 98.2999 80.6998 98.2999C80.7998 98.2999 80.8998 98.2999 80.8998 98.3999V98.4999C80.8998 98.5999 80.8998 98.6999 80.7998 98.6999Z" fill="white" stroke="#263238" stroke-width="0.1107" stroke-miterlimit="10" stroke-linecap="round" stroke-linejoin="round"/>
<path d="M80.4998 97.9999L80.6998 98.3999" stroke="#263238" stroke-width="0.1107" stroke-miterlimit="10" stroke-linecap="round" stroke-linejoin="round"/>
<path d="M77.3997 90.8999C77.4997 90.8999 77.5997 90.8999 77.5997 90.7999V90.6999C77.5997 90.5999 77.5997 90.4999 77.4997 90.4999C77.3997 90.4999 77.2997 90.4999 77.2997 90.5999V90.6999C77.2997 90.6999 77.2997 90.7999 77.3997 90.8999Z" fill="white" stroke="#263238" stroke-width="0.1107" stroke-miterlimit="10" stroke-linecap="round" stroke-linejoin="round"/>
<path d="M77.6998 90.2L77.4998 90.6" stroke="#263238" stroke-width="0.1107" stroke-miterlimit="10" stroke-linecap="round" stroke-linejoin="round"/>
<path d="M77.1997 91.3999C77.2997 91.3999 77.3997 91.3999 77.3997 91.2999V91.1999C77.3997 91.0999 77.3997 90.9999 77.2997 90.9999C77.1997 90.9999 77.0997 90.9999 77.0997 91.0999V91.1999C77.0997 91.3999 77.0997 91.3999 77.1997 91.3999Z" fill="white" stroke="#263238" stroke-width="0.1107" stroke-miterlimit="10" stroke-linecap="round" stroke-linejoin="round"/>
<path d="M77.4997 90.7L77.2997 91.2" stroke="#263238" stroke-width="0.1107" stroke-miterlimit="10" stroke-linecap="round" stroke-linejoin="round"/>
<path d="M76.9998 92.1C77.0998 92.1 77.1998 92.1 77.1998 92V91.9C77.1998 91.8 77.1998 91.7 77.0998 91.7C76.9998 91.7 76.8998 91.7 76.8998 91.8V91.9C76.8998 91.9 76.8998 92 76.9998 92.1Z" fill="white" stroke="#263238" stroke-width="0.1107" stroke-miterlimit="10" stroke-linecap="round" stroke-linejoin="round"/>
<path d="M77.1997 91.4L77.0997 91.8" stroke="#263238" stroke-width="0.1107" stroke-miterlimit="10" stroke-linecap="round" stroke-linejoin="round"/>
<path d="M76.7998 92.6999C76.8998 92.6999 76.9998 92.6999 76.9998 92.5999V92.4999C76.9998 92.3999 76.9998 92.2999 76.8998 92.2999C76.7998 92.2999 76.6998 92.2999 76.6998 92.3999V92.4999C76.6998 92.5999 76.6998 92.5999 76.7998 92.6999Z" fill="white" stroke="#263238" stroke-width="0.1107" stroke-miterlimit="10" stroke-linecap="round" stroke-linejoin="round"/>
<path d="M76.9998 91.9999L76.8998 92.3999" stroke="#263238" stroke-width="0.1107" stroke-miterlimit="10" stroke-linecap="round" stroke-linejoin="round"/>
<path d="M76.5997 93.3C76.6997 93.3 76.7997 93.3 76.7997 93.2V93.1C76.7997 93 76.7997 92.9 76.6997 92.9C76.5997 92.9 76.4997 92.9 76.4997 93V93.1C76.3997 93.2 76.4997 93.3 76.5997 93.3Z" fill="white" stroke="#263238" stroke-width="0.1107" stroke-miterlimit="10" stroke-linecap="round" stroke-linejoin="round"/>
<path d="M76.7998 92.6L76.6998 93" stroke="#263238" stroke-width="0.1107" stroke-miterlimit="10" stroke-linecap="round" stroke-linejoin="round"/>
<path d="M76.3998 93.8999C76.4998 93.8999 76.5998 93.8999 76.5998 93.7999V93.6999C76.5998 93.5999 76.5998 93.4999 76.4998 93.4999C76.3998 93.4999 76.2998 93.4999 76.2998 93.5999V93.6999C76.1998 93.6999 76.2998 93.7999 76.3998 93.8999Z" fill="white" stroke="#263238" stroke-width="0.1107" stroke-miterlimit="10" stroke-linecap="round" stroke-linejoin="round"/>
<path d="M76.5998 93.2L76.3998 93.6" stroke="#263238" stroke-width="0.1107" stroke-miterlimit="10" stroke-linecap="round" stroke-linejoin="round"/>
<path d="M76.0998 94.5C76.1998 94.5 76.2998 94.5 76.2998 94.4V94.3C76.2998 94.2 76.2998 94.1 76.1998 94.1C76.0998 94.1 75.9998 94.1 75.9998 94.2V94.3C75.9998 94.4 75.9998 94.5 76.0998 94.5Z" fill="white" stroke="#263238" stroke-width="0.1107" stroke-miterlimit="10" stroke-linecap="round" stroke-linejoin="round"/>
<path d="M76.3998 93.7L76.1998 94.2" stroke="#263238" stroke-width="0.1107" stroke-miterlimit="10" stroke-linecap="round" stroke-linejoin="round"/>
<path d="M75.8997 95.1C75.9997 95.1 76.0997 95.1 76.0997 95V94.9C76.0997 94.8 76.0997 94.7 75.9997 94.7C75.8997 94.7 75.7997 94.7 75.7997 94.8V94.9C75.7997 95 75.7997 95.1 75.8997 95.1Z" fill="white" stroke="#263238" stroke-width="0.1107" stroke-miterlimit="10" stroke-linecap="round" stroke-linejoin="round"/>
<path d="M76.1998 94.4L75.9998 94.8" stroke="#263238" stroke-width="0.1107" stroke-miterlimit="10" stroke-linecap="round" stroke-linejoin="round"/>
<path d="M75.6997 95.6999C75.7997 95.6999 75.8997 95.6999 75.8997 95.5999V95.4999C75.8997 95.3999 75.8997 95.2999 75.7997 95.2999C75.6997 95.2999 75.5997 95.2999 75.5997 95.3999V95.4999C75.5997 95.5999 75.5997 95.6999 75.6997 95.6999Z" fill="white" stroke="#263238" stroke-width="0.1107" stroke-miterlimit="10" stroke-linecap="round" stroke-linejoin="round"/>
<path d="M75.9997 94.9999L75.7997 95.3999" stroke="#263238" stroke-width="0.1107" stroke-miterlimit="10" stroke-linecap="round" stroke-linejoin="round"/>
<path d="M75.4998 96.3C75.5998 96.3 75.6998 96.3 75.6998 96.2V96.1C75.6998 96 75.6998 95.9 75.5998 95.9C75.4998 95.9 75.3998 95.9 75.3998 96V96.1C75.3998 96.2 75.3998 96.3 75.4998 96.3Z" fill="white" stroke="#263238" stroke-width="0.1107" stroke-miterlimit="10" stroke-linecap="round" stroke-linejoin="round"/>
<path d="M75.6997 95.6L75.5997 96" stroke="#263238" stroke-width="0.1107" stroke-miterlimit="10" stroke-linecap="round" stroke-linejoin="round"/>
<path d="M75.2998 96.8999C75.3998 96.8999 75.4998 96.8999 75.4998 96.7999V96.6999C75.4998 96.5999 75.4998 96.4999 75.3998 96.4999C75.2998 96.4999 75.1998 96.4999 75.1998 96.5999V96.6999C75.1998 96.7999 75.1998 96.8999 75.2998 96.8999Z" fill="white" stroke="#263238" stroke-width="0.1107" stroke-miterlimit="10" stroke-linecap="round" stroke-linejoin="round"/>
<path d="M75.4998 96.2L75.3998 96.6" stroke="#263238" stroke-width="0.1107" stroke-miterlimit="10" stroke-linecap="round" stroke-linejoin="round"/>
<path d="M75.0997 97.5C75.1997 97.5 75.2997 97.5 75.2997 97.4V97.3C75.2997 97.2 75.2997 97.1 75.1997 97.1C75.0997 97.1 74.9997 97.1 74.9997 97.2V97.3C74.8997 97.4 74.9997 97.5 75.0997 97.5Z" fill="white" stroke="#263238" stroke-width="0.1107" stroke-miterlimit="10" stroke-linecap="round" stroke-linejoin="round"/>
<path d="M75.2998 96.7999L75.1998 97.1999" stroke="#263238" stroke-width="0.1107" stroke-miterlimit="10" stroke-linecap="round" stroke-linejoin="round"/>
<path d="M74.8998 98.1C74.9998 98.1 75.0998 98.1 75.0998 98V97.9C75.0998 97.8 75.0998 97.7 74.9998 97.7C74.8998 97.7 74.7998 97.7 74.7998 97.8V97.9C74.6998 98 74.7998 98.1 74.8998 98.1Z" fill="white" stroke="#263238" stroke-width="0.1107" stroke-miterlimit="10" stroke-linecap="round" stroke-linejoin="round"/>
<path d="M75.0998 97.4L74.8998 97.8" stroke="#263238" stroke-width="0.1107" stroke-miterlimit="10" stroke-linecap="round" stroke-linejoin="round"/>
<path d="M74.5998 98.6999C74.6998 98.6999 74.7998 98.6999 74.7998 98.5999V98.4999C74.7998 98.3999 74.7998 98.2999 74.6998 98.2999C74.5998 98.2999 74.4998 98.2999 74.4998 98.3999V98.4999C74.4998 98.5999 74.4998 98.6999 74.5998 98.6999Z" fill="white" stroke="#263238" stroke-width="0.1107" stroke-miterlimit="10" stroke-linecap="round" stroke-linejoin="round"/>
<path d="M74.8998 97.9999L74.6998 98.3999" stroke="#263238" stroke-width="0.1107" stroke-miterlimit="10" stroke-linecap="round" stroke-linejoin="round"/>
<path d="M77.6998 90.8999C77.7998 90.8999 77.8998 90.7999 77.8998 90.6999V90.4999C77.8998 90.3999 77.7998 90.2999 77.6998 90.2999C77.5998 90.2999 77.4998 90.3999 77.4998 90.4999V90.6999C77.4998 90.8999 77.5998 90.8999 77.6998 90.8999Z" fill="white" stroke="#263238" stroke-width="0.1107" stroke-miterlimit="10" stroke-linecap="round" stroke-linejoin="round"/>
<path d="M77.6998 90.2V90.6" stroke="#263238" stroke-width="0.1107" stroke-miterlimit="10" stroke-linecap="round" stroke-linejoin="round"/>
<path d="M77.5998 91.5999C77.6998 91.5999 77.7998 91.4999 77.7998 91.3999V91.1999C77.7998 91.0999 77.6998 90.9999 77.5998 90.9999C77.4998 90.9999 77.3998 91.0999 77.3998 91.1999V91.3999C77.4998 91.4999 77.5998 91.5999 77.5998 91.5999Z" fill="white" stroke="#263238" stroke-width="0.1107" stroke-miterlimit="10" stroke-linecap="round" stroke-linejoin="round"/>
<path d="M77.6998 90.7999L77.5998 91.2999" stroke="#263238" stroke-width="0.1107" stroke-miterlimit="10" stroke-linecap="round" stroke-linejoin="round"/>
<path d="M77.5998 92.2C77.6998 92.2 77.7998 92.1 77.7998 92V91.8C77.7998 91.7 77.6998 91.6 77.5998 91.6C77.4998 91.6 77.3998 91.7 77.3998 91.8V92C77.4998 92.2 77.5998 92.2 77.5998 92.2Z" fill="white" stroke="#263238" stroke-width="0.1107" stroke-miterlimit="10" stroke-linecap="round" stroke-linejoin="round"/>
<path d="M77.5998 91.4V91.9" stroke="#263238" stroke-width="0.1107" stroke-miterlimit="10" stroke-linecap="round" stroke-linejoin="round"/>
<path d="M77.5998 92.8999C77.6998 92.8999 77.7998 92.7999 77.7998 92.6999V92.4999C77.7998 92.3999 77.6998 92.2999 77.5998 92.2999C77.4998 92.2999 77.3998 92.3999 77.3998 92.4999V92.6999C77.4998 92.7999 77.5998 92.8999 77.5998 92.8999Z" fill="white" stroke="#263238" stroke-width="0.1107" stroke-miterlimit="10" stroke-linecap="round" stroke-linejoin="round"/>
<path d="M77.5998 92.1V92.6" stroke="#263238" stroke-width="0.1107" stroke-miterlimit="10" stroke-linecap="round" stroke-linejoin="round"/>
<path d="M77.5998 93.5C77.6998 93.5 77.7998 93.4 77.7998 93.3V93.1C77.7998 93 77.6998 92.9 77.5998 92.9C77.4998 92.9 77.3998 93 77.3998 93.1V93.3C77.4998 93.4 77.5998 93.5 77.5998 93.5Z" fill="white" stroke="#263238" stroke-width="0.1107" stroke-miterlimit="10" stroke-linecap="round" stroke-linejoin="round"/>
<path d="M77.5998 92.7V93.2" stroke="#263238" stroke-width="0.1107" stroke-miterlimit="10" stroke-linecap="round" stroke-linejoin="round"/>
<path d="M77.5998 94.0999C77.6998 94.0999 77.7998 93.9999 77.7998 93.8999V93.6999C77.7998 93.5999 77.6998 93.4999 77.5998 93.4999C77.4998 93.4999 77.3998 93.5999 77.3998 93.6999V93.9999C77.4998 94.0999 77.5998 94.0999 77.5998 94.0999Z" fill="white" stroke="#263238" stroke-width="0.1107" stroke-miterlimit="10" stroke-linecap="round" stroke-linejoin="round"/>
<path d="M77.5998 93.4V93.8" stroke="#263238" stroke-width="0.1107" stroke-miterlimit="10" stroke-linecap="round" stroke-linejoin="round"/>
<path d="M77.5998 94.8C77.6998 94.8 77.7998 94.7 77.7998 94.6V94.4C77.7998 94.3 77.6998 94.2 77.5998 94.2C77.4998 94.2 77.3998 94.3 77.3998 94.4V94.6C77.4998 94.7 77.4998 94.8 77.5998 94.8Z" fill="white" stroke="#263238" stroke-width="0.1107" stroke-miterlimit="10" stroke-linecap="round" stroke-linejoin="round"/>
<path d="M77.5998 93.9999V94.4999" stroke="#263238" stroke-width="0.1107" stroke-miterlimit="10" stroke-linecap="round" stroke-linejoin="round"/>
<path d="M77.5998 95.3999C77.6998 95.3999 77.7998 95.2999 77.7998 95.1999V94.9999C77.7998 94.8999 77.6998 94.7999 77.5998 94.7999C77.4998 94.7999 77.3998 94.8999 77.3998 94.9999V95.1999C77.4998 95.2999 77.4998 95.3999 77.5998 95.3999Z" fill="white" stroke="#263238" stroke-width="0.1107" stroke-miterlimit="10" stroke-linecap="round" stroke-linejoin="round"/>
<path d="M77.5998 94.6V95.1" stroke="#263238" stroke-width="0.1107" stroke-miterlimit="10" stroke-linecap="round" stroke-linejoin="round"/>
<path d="M77.5998 96.0999C77.6998 96.0999 77.7998 95.9999 77.7998 95.8999V95.6999C77.7998 95.5999 77.6998 95.4999 77.5998 95.4999C77.4998 95.4999 77.3998 95.5999 77.3998 95.6999V95.8999C77.3998 95.9999 77.4998 96.0999 77.5998 96.0999Z" fill="white" stroke="#263238" stroke-width="0.1107" stroke-miterlimit="10" stroke-linecap="round" stroke-linejoin="round"/>
<path d="M77.5998 95.2999V95.6999" stroke="#263238" stroke-width="0.1107" stroke-miterlimit="10" stroke-linecap="round" stroke-linejoin="round"/>
<path d="M77.5998 96.7C77.6998 96.7 77.7998 96.6 77.7998 96.5V96.3C77.7998 96.2 77.6998 96.1 77.5998 96.1C77.4998 96.1 77.3998 96.2 77.3998 96.3V96.5C77.3998 96.6 77.4998 96.7 77.5998 96.7Z" fill="white" stroke="#263238" stroke-width="0.1107" stroke-miterlimit="10" stroke-linecap="round" stroke-linejoin="round"/>
<path d="M77.5998 95.9V96.4" stroke="#263238" stroke-width="0.1107" stroke-miterlimit="10" stroke-linecap="round" stroke-linejoin="round"/>
<path d="M77.5998 97.2999C77.6998 97.2999 77.7998 97.1999 77.7998 97.0999V96.9999C77.7998 96.8999 77.6998 96.7999 77.5998 96.7999C77.4998 96.7999 77.3998 96.8999 77.3998 96.9999V97.1999C77.3998 97.1999 77.4998 97.2999 77.5998 97.2999Z" fill="white" stroke="#263238" stroke-width="0.1107" stroke-miterlimit="10" stroke-linecap="round" stroke-linejoin="round"/>
<path d="M77.5998 96.6V97" stroke="#263238" stroke-width="0.1107" stroke-miterlimit="10" stroke-linecap="round" stroke-linejoin="round"/>
<path d="M77.5998 98C77.6998 98 77.7998 97.9 77.7998 97.8V97.6C77.7998 97.5 77.6998 97.4 77.5998 97.4C77.4998 97.4 77.3998 97.5 77.3998 97.6V97.8C77.3998 97.9 77.4998 98 77.5998 98Z" fill="white" stroke="#263238" stroke-width="0.1107" stroke-miterlimit="10" stroke-linecap="round" stroke-linejoin="round"/>
<path d="M77.5998 97.2V97.7" stroke="#263238" stroke-width="0.1107" stroke-miterlimit="10" stroke-linecap="round" stroke-linejoin="round"/>
<path d="M77.5998 98.5999C77.6998 98.5999 77.7998 98.4999 77.7998 98.3999V98.1999C77.7998 98.0999 77.6998 97.9999 77.5998 97.9999C77.4998 97.9999 77.3998 98.0999 77.3998 98.1999V98.3999C77.3998 98.4999 77.4998 98.5999 77.5998 98.5999Z" fill="white" stroke="#263238" stroke-width="0.1107" stroke-miterlimit="10" stroke-linecap="round" stroke-linejoin="round"/>
<path d="M77.5998 97.9V98.3" stroke="#263238" stroke-width="0.1107" stroke-miterlimit="10" stroke-linecap="round" stroke-linejoin="round"/>
<path d="M77.5998 99.3C77.6998 99.3 77.7998 99.2 77.7998 99.1V98.9C77.7998 98.8 77.6998 98.7 77.5998 98.7C77.4998 98.7 77.3998 98.8 77.3998 98.9V99.1C77.3998 99.2 77.4998 99.3 77.5998 99.3Z" fill="white" stroke="#263238" stroke-width="0.1107" stroke-miterlimit="10" stroke-linecap="round" stroke-linejoin="round"/>
<path d="M77.5998 98.4999V98.9999" stroke="#263238" stroke-width="0.1107" stroke-miterlimit="10" stroke-linecap="round" stroke-linejoin="round"/>
<path d="M77.7998 99.6C79.6998 99.6 81.0998 99.2 81.1998 98.7H74.3998C74.4998 99.2 75.9998 99.6 77.7998 99.6Z" fill="#263238" stroke="#263238" stroke-width="0.1107" stroke-miterlimit="10" stroke-linecap="round" stroke-linejoin="round"/>
<path d="M72.4998 106.3H66.2998V107.1H72.4998V106.3Z" fill="#263238" stroke="#263238" stroke-width="0.2215" stroke-miterlimit="10" stroke-linecap="round" stroke-linejoin="round"/>
<path d="M77.1998 107H61.8998V108.1H77.1998V107Z" fill="#263238" stroke="#263238" stroke-width="0.2215" stroke-miterlimit="10" stroke-linecap="round" stroke-linejoin="round"/>
<path d="M105.7 174.7H111.1V135.7H105.7V174.7Z" fill="#263238" stroke="#263238" stroke-width="0.4429" stroke-miterlimit="10" stroke-linecap="round" stroke-linejoin="round"/>
<path d="M112.6 161.7H104.3V174.7H112.6V161.7Z" fill="#263238" stroke="#263238" stroke-width="0.4429" stroke-miterlimit="10" stroke-linecap="round" stroke-linejoin="round"/>
<path d="M114 131.1H120.9V116.2H113.9L114 131.1Z" fill="#263238" stroke="#263238" stroke-width="0.4429" stroke-miterlimit="10" stroke-linecap="round" stroke-linejoin="round"/>
<path d="M103.8 116.2H130.9C133.6 116.2 135.7 114 135.6 111.3L134.9 84.9C134.9 82.3 132.7 80.2 130.2 80.2H107.9C105.6 80.2 103.6 81.9 103.2 84.2L99.1001 110.6C98.6001 113.6 100.9 116.2 103.8 116.2Z" fill="#263238" stroke="#263238" stroke-width="0.4429" stroke-miterlimit="10" stroke-linecap="round" stroke-linejoin="round"/>
<path d="M112.6 136.7L124.5 144.5" stroke="#263238" stroke-width="0.4429" stroke-miterlimit="10" stroke-linecap="round" stroke-linejoin="round"/>
<path d="M125 143.3L127 144.7C127.7 145.2 127.8 146.2 127.2 146.7L127.1 146.8C126.6 147.3 125.9 147.3 125.3 146.9L123.4 145.3C122.8 144.8 122.8 143.9 123.3 143.4C123.7 143.1 124.4 143 125 143.3Z" fill="#263238" stroke="#263238" stroke-width="0.4429" stroke-miterlimit="10" stroke-linecap="round" stroke-linejoin="round"/>
<path d="M86.4 138H130.5C132.8 138 134.8 136.1 134.8 133.7C134.8 131.4 132.9 129.4 130.5 129.4H86.4C84.1 129.4 82.1 131.3 82.1 133.7C82.2 136.1 84.1 138 86.4 138Z" fill="#263238" stroke="#263238" stroke-width="0.4429" stroke-miterlimit="10" stroke-linecap="round" stroke-linejoin="round"/>
<path d="M82.2 133.3C82.5 131.1 84.4 129.6 86.6 129.6H109.5C111.7 129.6 113.7 131.2 113.9 133.3C114.2 135.9 112.2 138.1 109.7 138.1H86.4C83.9 138 81.9 135.8 82.2 133.3Z" fill="#263238" stroke="#263238" stroke-width="0.4429" stroke-miterlimit="10" stroke-linecap="round" stroke-linejoin="round"/>
<path d="M81.3 176.3H135.6C135.6 175 134.6 174 133.3 174H83.7001C82.4001 174 81.3 175 81.3 176.3Z" fill="#263238" stroke="#263238" stroke-width="0.4429" stroke-miterlimit="10" stroke-linecap="round" stroke-linejoin="round"/>
<path d="M97.0001 176.3H110.8V174H99.3001C98.0001 174 97.0001 175 97.0001 176.3Z" fill="#263238" stroke="#263238" stroke-width="0.4429" stroke-miterlimit="10" stroke-linecap="round" stroke-linejoin="round"/>
<path d="M180.4 110H48.0001V179.8H180.4V110Z" fill="white" stroke="#263238" stroke-width="0.5" stroke-miterlimit="10" stroke-linecap="round" stroke-linejoin="round"/>
<path d="M172.521 122H140.066V168.583H172.521V122Z" stroke="#263238" stroke-width="0.4451" stroke-miterlimit="10" stroke-linecap="round" stroke-linejoin="round"/>
<path d="M167.367 129.35H145.221V161.138H167.367V129.35Z" stroke="#263238" stroke-width="0.4451" stroke-miterlimit="10" stroke-linecap="round" stroke-linejoin="round"/>
<path d="M140.066 122L145.22 129.35" stroke="#263238" stroke-width="0.4451" stroke-miterlimit="10" stroke-linecap="round" stroke-linejoin="round"/>
<path d="M172.521 122L167.367 129.35" stroke="#263238" stroke-width="0.4451" stroke-miterlimit="10" stroke-linecap="round" stroke-linejoin="round"/>
<path d="M145.221 161.233L140.066 168.583" stroke="#263238" stroke-width="0.4451" stroke-miterlimit="10" stroke-linecap="round" stroke-linejoin="round"/>
<path d="M167.367 161.233L172.521 168.583" stroke="#263238" stroke-width="0.4451" stroke-miterlimit="10" stroke-linecap="round" stroke-linejoin="round"/>
<path d="M130.488 122H98.033V168.583H130.488V122Z" stroke="#263238" stroke-width="0.4451" stroke-miterlimit="10" stroke-linecap="round" stroke-linejoin="round"/>
<path d="M125.334 129.35H103.188V161.138H125.334V129.35Z" stroke="#263238" stroke-width="0.4451" stroke-miterlimit="10" stroke-linecap="round" stroke-linejoin="round"/>
<path d="M98.033 122L103.188 129.35" stroke="#263238" stroke-width="0.4451" stroke-miterlimit="10" stroke-linecap="round" stroke-linejoin="round"/>
<path d="M130.489 122L125.334 129.35" stroke="#263238" stroke-width="0.4451" stroke-miterlimit="10" stroke-linecap="round" stroke-linejoin="round"/>
<path d="M103.188 161.233L98.033 168.583" stroke="#263238" stroke-width="0.4451" stroke-miterlimit="10" stroke-linecap="round" stroke-linejoin="round"/>
<path d="M125.334 161.233L130.489 168.583" stroke="#263238" stroke-width="0.4451" stroke-miterlimit="10" stroke-linecap="round" stroke-linejoin="round"/>
<path d="M88.4557 122H56.0001V168.583H88.4557V122Z" stroke="#263238" stroke-width="0.4451" stroke-miterlimit="10" stroke-linecap="round" stroke-linejoin="round"/>
<path d="M83.301 129.35H61.1549V161.138H83.301V129.35Z" stroke="#263238" stroke-width="0.4451" stroke-miterlimit="10" stroke-linecap="round" stroke-linejoin="round"/>
<path d="M56.0001 122L61.1548 129.35" stroke="#263238" stroke-width="0.4451" stroke-miterlimit="10" stroke-linecap="round" stroke-linejoin="round"/>
<path d="M88.4557 122L83.301 129.35" stroke="#263238" stroke-width="0.4451" stroke-miterlimit="10" stroke-linecap="round" stroke-linejoin="round"/>
<path d="M61.1549 161.233L56.0002 168.583" stroke="#263238" stroke-width="0.4451" stroke-miterlimit="10" stroke-linecap="round" stroke-linejoin="round"/>
<path d="M83.301 161.233L88.4557 168.583" stroke="#263238" stroke-width="0.4451" stroke-miterlimit="10" stroke-linecap="round" stroke-linejoin="round"/>
<path d="M180.3 110.4H47.9V114.2H180.3V110.4Z" fill="#263238" stroke="#263238" stroke-width="0.4429" stroke-miterlimit="10" stroke-linecap="round" stroke-linejoin="round"/>
<path d="M183 108.1H45.3V112.3H183V108.1Z" fill="#A6A6A6" stroke="#263238" stroke-width="0.4429" stroke-miterlimit="10" stroke-linecap="round" stroke-linejoin="round"/>
<path d="M47.6001 175.6C47.6001 175.6 48.9001 176.9 49.6001 177.5C50.4001 178.1 57.8001 181.5 57.9001 182.2C58.0001 182.8 57.5001 183.3 56.8001 183.7C56.1001 184.1 50.1 184.2 46.9001 183.7C43.7001 183.2 41.2 182.2 41.2 182.2C41.2 182.2 38.5 182.4 37.2 181.8C35.9 181.3 37.7 175.8 37.7 175.8C37.7 175.8 44.7001 172.3 47.6001 175.6Z" fill="#263238" stroke="#263238" stroke-width="0.4429" stroke-miterlimit="10" stroke-linecap="round" stroke-linejoin="round"/>
<path d="M28.4001 176.6C28.4001 176.6 28.0001 178 27.9001 179.7C27.8001 181.4 28.4001 183.3 27.7001 184.7C27.0001 186.1 25.4001 188.5 22.7001 189.4C20.0001 190.3 16.7001 189.1 16.5001 187C16.2001 184.8 18.1001 179.7 18.4001 178.5C18.7001 177.3 18.7001 175.5 18.7001 175.5C18.7001 175.5 21.8001 174.1 23.3001 174.2C24.7001 174.4 28.4001 176.6 28.4001 176.6Z" fill="#263238" stroke="#263238" stroke-width="0.4429" stroke-miterlimit="10" stroke-linecap="round" stroke-linejoin="round"/>
<path d="M19.2001 104.2C19.2001 104.2 18.6001 131.8 18.6001 132.9C18.6001 134 17.3001 151.5 17.8001 156.4C18.2001 161.3 18.0001 173.3 18.0001 173.3L18.5001 177.2C18.5001 177.2 20.6001 175.9 21.4001 175.9C22.2001 175.9 28.4001 178.2 28.4001 178.2C28.4001 178.2 30.1001 172.6 30.3001 170.5C30.5001 168.4 29.7001 162.3 29.7001 162.3L36.3001 119.3C36.3001 119.3 36.7001 160.4 36.7001 163.8C36.7001 166.8 36.5001 169.8 37.1001 172.8C37.2001 173.3 38.0001 175.2 37.7001 175.7C37.4001 176.1 37.9001 176.6 38.3001 176.4L42.9001 175.1L47.5001 175.5C47.5001 175.5 48.6001 172.3 49.0001 171.4C49.4001 170.6 47.6001 165 47.6001 165C47.6001 165 50.6001 141 50.6001 133.8C50.6001 126.5 49.1001 103.2 49.1001 103.2L19.2001 104.2Z" fill="#263238" stroke="#263238" stroke-width="0.4429" stroke-miterlimit="10" stroke-linecap="round" stroke-linejoin="round"/>
<path d="M49.6 53.1L52.4 72L56.2 76.8L48.3 80.1L49 66.6L49.6 53.1Z" fill="#ED1B23" stroke="#263238" stroke-width="0.4429" stroke-miterlimit="10" stroke-linecap="round" stroke-linejoin="round"/>
<path d="M59 83.7L59.9 87.8L57.5 88C57.5 88 56.5 87.1 56.6 86.2C56.6 85.3 56.7 85 56.7 85L59 83.7Z" fill="white" stroke="#263238" stroke-width="0.4429" stroke-miterlimit="10" stroke-linecap="round" stroke-linejoin="round"/>
<path d="M60.0001 87.8L60.9001 85.5L59.0001 83.7L60.0001 87.8Z" fill="white" stroke="#263238" stroke-width="0.4429" stroke-miterlimit="10" stroke-linecap="round" stroke-linejoin="round"/>
<path d="M57.2 84.7C57.2 84.7 57.2 85.6 57.3 86.4C57.4 87.2 57.8 88 57.8 88H58.8C58.8 88 58.1 88.8 58 89.1C57.9 89.4 57.6 90 57.6 90C57.6 90 56.5 89.9 53.7 88.5C50.9 87.2 50.6 87 50.6 87L57.2 84.7Z" fill="#ED1B23" stroke="#263238" stroke-width="0.4429" stroke-miterlimit="10" stroke-linecap="round" stroke-linejoin="round"/>
<path d="M26.3 46.4L12.6 54L19.2 87.4L15.7 110.5C15.7 110.5 20.5 113.3 26 114.6C31.5 115.9 39.1 114.9 40 113.9C40.9 112.9 41.6 110.8 41.6 110.8L42.1 113.5C42.1 113.5 46.8 114.7 49.4 112.8C52 110.9 52 109.5 52 109.5L48.2 82.3L49.5 53L39 47.2L26.3 46.4Z" fill="#ED1B23" stroke="#263238" stroke-width="0.4429" stroke-miterlimit="10" stroke-linecap="round" stroke-linejoin="round"/>
<path d="M22.6001 98.7C22.6001 98.7 26.0001 100 28.4001 100.2C30.8001 100.4 32.0001 100.4 32.0001 100.4L31.8001 103C31.8001 103 30.2001 103.3 27.5001 102.9C24.8001 102.5 22.4001 101.6 22.4001 101.6" stroke="#263238" stroke-width="0.4429" stroke-miterlimit="10" stroke-linecap="round" stroke-linejoin="round"/>
<path d="M50 97.5C50 97.5 48.7 98.3 47.9 98.5C47.1 98.7 46.1 98.7 46.1 98.7L46.5 101.5C46.5 101.5 49.1 101 50.4 99.9" stroke="#263238" stroke-width="0.4429" stroke-miterlimit="10" stroke-linecap="round" stroke-linejoin="round"/>
<path d="M28 40.3L27.8 44.5C27.8 44.5 30.8 47.7 32.8 49C34.7 50.2 36.3 50.4 36.7 50C37.1 49.6 38.3001 46.3 38.3001 46.3L38.1 42.5L28 40.3Z" fill="white" stroke="#263238" stroke-width="0.4429" stroke-miterlimit="10" stroke-linecap="round" stroke-linejoin="round"/>
<path d="M35.1 45.4L37.1 48L38.2 46.2L38.3 44.4L35.1 45.4Z" fill="#263238" stroke="#263238" stroke-width="0.4429" stroke-miterlimit="10" stroke-linecap="round" stroke-linejoin="round"/>
<path d="M27.4 43.6L26.3 46.4L40.7 68.5C40.7 68.5 40.6001 56 40.3001 52.8C40.1001 50.6 39.6001 48.2 39.3001 47C39.2001 46.5 38.7 46.2 38.2 46.2C38.2 46.2 36.6 48.8 36.1 49.3C35.6 49.9 27.4 43.6 27.4 43.6Z" fill="white" stroke="#263238" stroke-width="0.4429" stroke-miterlimit="10" stroke-linecap="round" stroke-linejoin="round"/>
<path d="M32.4001 55.5C32.4001 55.5 35.6001 50.3 36.2001 50.3C36.8001 50.3 39.8001 53.1 39.8001 53.1" fill="white"/>
<path d="M32.4001 55.5C32.4001 55.5 35.6001 50.3 36.2001 50.3C36.8001 50.3 39.8001 53.1 39.8001 53.1" stroke="#263238" stroke-width="0.4429" stroke-miterlimit="10" stroke-linecap="round" stroke-linejoin="round"/>
<path d="M33.9001 53L35.7001 55.9L35.2001 60.3L40.6001 68.6L40.4001 58.8L38.8001 55.5L38.6001 52.2L36.2001 50.3L33.9001 53Z" fill="#263238" stroke="#263238" stroke-width="0.4429" stroke-miterlimit="10" stroke-linecap="round" stroke-linejoin="round"/>
<path d="M61.5 75.9L36.1 69.1L23.6 86.9L39.6 75L61.5 75.9Z" fill="white" stroke="#263238" stroke-width="0.4429" stroke-miterlimit="10" stroke-linecap="round" stroke-linejoin="round"/>
<path d="M65.6 79.4C65.6 79.4 65.1 78.7 64.9 78.3C64.7 77.9 64.9 77.3 64.5 77.3C64 77.4 62.6 78.8 62.9 79.2C63.2 79.6 63.5 80.4 63.5 80.4L65.6 79.4Z" fill="white" stroke="#263238" stroke-width="0.4429" stroke-miterlimit="10" stroke-linecap="round" stroke-linejoin="round"/>
<path d="M61.5001 75.9C61.5001 75.9 61.1001 74.5 61.8001 74C62.5001 73.6 67.4001 73.7 67.4001 73.7L62.2001 76.8L61.5001 75.9Z" fill="white" stroke="#263238" stroke-width="0.4429" stroke-miterlimit="10" stroke-linecap="round" stroke-linejoin="round"/>
<path d="M38.3001 71.9L23.8 86.3L45.1 94.2L61.5 75.9L38.3001 71.9Z" fill="#263238" stroke="#263238" stroke-width="0.4429" stroke-miterlimit="10" stroke-linecap="round" stroke-linejoin="round"/>
<path d="M61.5001 75.9C61.5001 75.9 63.4001 73.9 64.7001 74C66.0001 74 67.3001 73.8 67.3001 73.8C67.3001 73.8 62.6001 81.2 60.1001 83.7C57.6001 86.2 48.9001 89.5 48.9001 89.5L61.5001 75.9Z" fill="#263238" stroke="#263238" stroke-width="0.4429" stroke-miterlimit="10" stroke-linecap="round" stroke-linejoin="round"/>
<path d="M38.2 84L39.4 82C39.4 82 41.1 80.9 41.7 79.8C42.2 78.7 42.5 77.5 43.1 77.9C43.7 78.3 43.9 79.2 43.6 80.2C43.3 81.2 42.4 83.8 42.4 83.8L48.2 83.4C48.2 83.4 50.6 82.7 52 81.7C53.3 80.7 54.6 79.9 54.7 80.7C54.8 81.5 53.6 82.9 53.6 82.9L50 85.2L48.8 86.1C48.8 86.1 49.7 85.8 50.6 85.7C51.5 85.5 54.2 84.3 54.2 84.3C54.2 84.3 56.5 82.4 55.9 84C55.3 85.6 53.9 86.3 53.4 86.9C53 87.4 52.5 88.6 51 89.8C49.4 91 46.2 91 45 91.4C43.8 91.7 42.2 92 42.2 92L38.2 92.8C38.2 92.8 36.8 91.1 36.8 88.7C36.8 86.3 37.3 84.9 37.3 84.9L38.2 84Z" fill="white" stroke="#263238" stroke-width="0.4429" stroke-miterlimit="10" stroke-linecap="round" stroke-linejoin="round"/>
<path d="M53.1 87C53.1 87 51.8 87.8 51.2 88C50.7 88.2 48.1 88.3 48.1 88.3" fill="white"/>
<path d="M53.1 87C53.1 87 51.8 87.8 51.2 88C50.7 88.2 48.1 88.3 48.1 88.3" stroke="#263238" stroke-width="0.4429" stroke-miterlimit="10" stroke-linecap="round" stroke-linejoin="round"/>
<path d="M51.4001 89.3C51.4001 89.3 49.5001 89.8 48.5001 89.9L51.4001 89.3Z" fill="white"/>
<path d="M51.4001 89.3C51.4001 89.3 49.5001 89.8 48.5001 89.9" stroke="#263238" stroke-width="0.4429" stroke-miterlimit="10" stroke-linecap="round" stroke-linejoin="round"/>
<path d="M37 85L33.6 85.2C33.6 85.2 32.6 86.6 32.6 89.4C32.6 92.2 33.7 94.2 33.7 94.2L38.6 93.8L37.8 92.2C37.7 92.2 36.3 88.9 37 85Z" fill="white" stroke="#263238" stroke-width="0.4429" stroke-miterlimit="10" stroke-linecap="round" stroke-linejoin="round"/>
<path d="M19.6001 59.3C18.8001 56.4 13.1001 54.4 12.6001 54C12.1001 53.6 10.8001 56.6 11.2001 62.2C11.6001 67.8 12.3001 88.6 12.6001 89.4C12.9001 90.2 14.1001 91.5 16.9001 92.4C19.7001 93.3 34.6001 96.3 34.6001 96.3L34.2001 95C33.2001 92.3 33.6001 85.1 33.6001 85.1L22.4001 81.5L21.9001 64.2" fill="#ED1B23"/>
<path d="M19.6001 59.3C18.8001 56.4 13.1001 54.4 12.6001 54C12.1001 53.6 10.8001 56.6 11.2001 62.2C11.6001 67.8 12.3001 88.6 12.6001 89.4C12.9001 90.2 14.1001 91.5 16.9001 92.4C19.7001 93.3 34.6001 96.3 34.6001 96.3L34.2001 95C33.2001 92.3 33.6001 85.1 33.6001 85.1L22.4001 81.5L21.9001 64.2" stroke="#263238" stroke-width="0.4429" stroke-miterlimit="10" stroke-linecap="round" stroke-linejoin="round"/>
<path d="M14.3 82.7C14.3 82.7 14.9 81.1 17 81.2C19.1 81.3 20.8 81.5 20.8 81.5" stroke="#263238" stroke-width="0.4429" stroke-miterlimit="10" stroke-linecap="round" stroke-linejoin="round"/>
<path d="M21.4001 80.3C21.4001 80.3 19.1001 79.6 17.2001 80.3" stroke="#263238" stroke-width="0.4429" stroke-miterlimit="10" stroke-linecap="round" stroke-linejoin="round"/>
<path d="M65.6001 79.4C65.6001 79.4 60.9001 80.6 60.6001 80.8C60.3001 81 60.0001 81.6 60.3001 82C60.6001 82.3 61.0001 82.3 61.0001 82.3C61.0001 82.3 59.2001 82.5 58.3001 82.7C57.4001 83 57.3001 83.3 57.5001 83.7C57.7001 84.1 58.9001 84.2 58.9001 84.2C58.9001 84.2 58.7001 84.6 59.3001 85.1C59.9001 85.6 62.3001 86.3 63.6001 85.8C64.9001 85.3 65.3001 83.9 65.3001 83.9C65.3001 83.9 65.6001 83.8 65.7001 83C65.8001 82.2 65.6001 81.8 65.6001 81.8C65.6001 81.8 66.3001 81.1 66.0001 80.4C65.9001 79.7 65.6001 79.4 65.6001 79.4Z" fill="white" stroke="#263238" stroke-width="0.4429" stroke-miterlimit="10" stroke-linecap="round" stroke-linejoin="round"/>
<path d="M60.9001 82.3C60.9001 82.3 64.4001 82.4 65.7001 81.8L60.9001 82.3Z" fill="white"/>
<path d="M60.9001 82.3C60.9001 82.3 64.4001 82.4 65.7001 81.8" stroke="#263238" stroke-width="0.4429" stroke-miterlimit="10" stroke-linecap="round" stroke-linejoin="round"/>
<path d="M59.0001 84.2C59.0001 84.2 62.3001 85 65.4001 83.9" stroke="#263238" stroke-width="0.4429" stroke-miterlimit="10" stroke-linecap="round" stroke-linejoin="round"/>
<path d="M35.9001 64.6C37.3001 66.5 38.3001 68.1 38.3001 68.1" stroke="#263238" stroke-width="0.4429" stroke-miterlimit="10" stroke-linecap="round" stroke-linejoin="round"/>
<path d="M24.5 48.7L24.3 52.5L27.9 53.8L25.9 55.8C25.9 55.8 30.1 58.7 32.2 60.4C33 61 33.9 62.1 34.9 63.4" stroke="#263238" stroke-width="0.4429" stroke-miterlimit="10" stroke-linecap="round" stroke-linejoin="round"/>
<path d="M44.8001 59.1C44.4001 61.2 43.9001 63.8 43.4001 65.2C42.4001 68 41.9001 68.9 41.9001 68.9" stroke="#263238" stroke-width="0.4429" stroke-miterlimit="10" stroke-linecap="round" stroke-linejoin="round"/>
<path d="M43.7 51.1L44.2 53L42.3 53.5L45.3 55.8C45.3 55.8 45.2 56.7 44.9 57.9" stroke="#263238" stroke-width="0.4429" stroke-miterlimit="10" stroke-linecap="round" stroke-linejoin="round"/>
<path d="M26.3001 32.9C26.3001 32.9 26.5001 30 25.9001 28.3C25.4001 26.7 25.7001 23.6 27.8001 22.9C29.8001 22.2 30.1001 19.8 34.6001 20.6C39.1001 21.4 40.8001 24 40.8001 24C40.8001 24 42.0001 24 42.4001 25.1C42.9001 26.3 42.6001 27.1 42.6001 27.1C42.6001 27.1 43.5001 27.3 43.1001 28.5C42.7001 29.7 41.0001 30.2 41.0001 30.2C41.0001 30.2 40.8001 27.1 39.1001 27C37.4001 26.9 35.4001 27.8 33.9001 27.4C32.3001 27.1 30.4001 25.5 29.6001 26.4C28.8001 27.2 29.6001 28.1 29.7001 29C29.7001 29.9 28.9001 30.6 28.8001 31.3C28.6001 32.1 29.0001 33.6 28.9001 33.9C28.8001 34.3 28.2001 35.1 27.2001 34.7C26.2001 34.5 26.3001 32.9 26.3001 32.9Z" fill="#263238" stroke="#263238" stroke-width="0.4429" stroke-miterlimit="10" stroke-linecap="round" stroke-linejoin="round"/>
<path d="M26.9001 33.7C26.9001 33.7 25.5001 31.7 24.9001 32.8C24.3001 33.9 24.8001 36.2 25.5001 36.9C26.2001 37.6 27.3001 37.3 27.3001 37.3C27.3001 37.3 27.3001 39.3 27.8001 40.7C28.3001 42.1 30.9001 44.7 33.0001 45.4C35.1001 46.2 38.1001 44.8 38.1001 44.8C38.1001 44.8 40.1001 40 40.4001 38.9C40.7001 37.7 41.3001 32.5 41.3001 31.9C41.3001 31.2 41.1001 28.1 40.7001 27.3C40.3001 26.5 39.7001 25.3 38.2001 25.6C36.6001 26 36.2001 26.9 33.8001 26.4C32.8001 26.2 30.1001 24.5 28.8001 25.6C27.6001 26.6 27.4001 28.7 27.9001 29.5C28.4001 30.3 28.7001 30 28.1001 30.9C27.5001 31.7 27.4001 32.9 27.5001 33.3C27.6001 33.7 27.4001 34.7 26.9001 33.7Z" fill="white" stroke="#263238" stroke-width="0.4429" stroke-miterlimit="10" stroke-linecap="round" stroke-linejoin="round"/>
<path d="M36.4001 34C36.4001 34 36.8001 37.9 36.7001 38.4C36.5001 38.8 35.1001 38.7 34.5001 38.6C33.9001 38.6 33.7001 37.8 33.7001 37.8" stroke="#263238" stroke-width="0.4429" stroke-miterlimit="10" stroke-linecap="round" stroke-linejoin="round"/>
<path d="M32.6001 40.6C32.6001 40.6 35.0001 41.9 37.4001 40.6" stroke="#263238" stroke-width="0.4429" stroke-miterlimit="10" stroke-linecap="round" stroke-linejoin="round"/>
<path d="M36.8001 33C36.8001 33 39.1001 31.9 40.1001 32.6" stroke="#263238" stroke-width="0.4429" stroke-miterlimit="10" stroke-linecap="round" stroke-linejoin="round"/>
<path d="M34.0001 32.7C34.0001 32.7 31.0001 31.7 29.6001 32.5" stroke="#263238" stroke-width="0.4429" stroke-miterlimit="10" stroke-linecap="round" stroke-linejoin="round"/>
<path d="M32.7001 33.7C32.7001 34.1 32.4001 34.3 32.1001 34.3C31.8001 34.3 31.5001 34 31.5001 33.7C31.5001 33.3 31.8001 33.1 32.1001 33.1C32.4001 33.1 32.7001 33.4 32.7001 33.7Z" fill="#263238"/>
<path d="M38.2001 34.7C38.5315 34.7 38.8001 34.4314 38.8001 34.1C38.8001 33.7686 38.5315 33.5 38.2001 33.5C37.8687 33.5 37.6001 33.7686 37.6001 34.1C37.6001 34.4314 37.8687 34.7 38.2001 34.7Z" fill="#263238"/>
<path d="M41.8 106.9L41.9 108.5" stroke="#263238" stroke-width="0.4429" stroke-miterlimit="10" stroke-linecap="round" stroke-linejoin="round"/>
<path d="M40.9001 94.9L41.7001 105" stroke="#263238" stroke-width="0.4429" stroke-miterlimit="10" stroke-linecap="round" stroke-linejoin="round"/>
</g>
<defs>
<clipPath id="clip0_4131_18056">
<rect width="218.2" height="202" fill="white" transform="translate(0.900024)"/>
</clipPath>
</defs>
</svg>
