<svg width="37" height="36" viewBox="0 0 37 36" fill="none" xmlns="http://www.w3.org/2000/svg">
<g clip-path="url(#clip0_211_770)">
<g clip-path="url(#clip1_211_770)">
<path d="M32.7312 22.1062C32.7312 22.1062 24.4062 19.2937 24.1812 19.2375C24.1812 19.35 24.1249 19.4625 24.0687 19.575C23.6749 21.0937 23.2812 22.6125 22.8312 24.075C22.2687 25.8187 21.6499 27.5625 21.0874 29.3062V29.3625C21.0312 29.5312 20.9187 29.7562 20.8062 29.925C20.6937 29.1375 20.5812 28.0687 20.4124 27.0562C20.2437 25.9312 20.1312 24.8062 20.0187 24.075C20.0187 24.0187 19.9624 23.9062 19.8499 23.9062H17.1499C17.0937 23.9062 16.9812 23.9625 16.9812 24.075C16.8687 24.8062 16.7562 25.9312 16.5874 27.0562C16.4749 28.0687 16.3062 29.1375 16.1937 29.925C16.0812 29.7562 16.0249 29.5312 15.9124 29.3625V29.3062C15.2937 27.5625 14.6749 25.8187 14.1687 24.075C13.7187 22.6125 13.3249 21.0937 12.9312 19.575C12.8749 19.4625 12.8749 19.35 12.8187 19.2375C12.5937 19.2375 4.26867 22.1062 4.26867 22.1062C0.612419 23.3437 0.837419 25.7625 0.837419 25.7625V30.5437C1.17492 33.4687 3.42492 33.4125 3.42492 33.4125H33.5749C33.5749 33.4125 35.8249 33.4687 36.1624 30.5437V25.7625C36.1624 25.7625 36.3874 23.3437 32.7312 22.1062Z" fill="#101828"/>
<path d="M20.8062 21.2063L20.4687 20.475C20.4125 20.3063 20.2437 20.25 20.075 20.25H16.9812C16.8125 20.25 16.6437 20.3625 16.5875 20.475L16.25 21.2063C16.1937 21.3188 16.1937 21.4875 16.25 21.6L16.9812 23.0625C16.9812 23.1188 17.0375 23.1187 17.0375 23.1187H20.0187C20.075 23.1187 20.075 23.1188 20.075 23.0625L20.8062 21.6C20.8625 21.4875 20.8625 21.375 20.8062 21.2063Z" fill="#101828"/>
<path d="M22.3813 7.65001C21.0875 7.08751 19.625 6.63751 18.725 5.51251C18.05 4.66876 17.7688 3.60001 17.3188 2.64376C17.2625 2.53126 17.0938 2.53126 17.0375 2.64376C16.5875 3.65626 16.1375 4.61251 15.6875 5.51251C15.5188 5.85001 15.2375 6.13126 14.9 6.30001C14 6.75001 13.1 7.20001 12.0313 7.65001C11.9188 7.70626 11.9188 7.87501 12.0313 7.93126C12.875 8.32501 13.6063 8.71876 14.3375 9.00001C15.1813 9.28126 15.6875 9.78751 15.9688 10.6313C16.25 11.4188 16.6438 12.15 17.0375 12.9938C17.0938 13.1063 17.2625 13.1063 17.3188 12.9938C17.7125 12.15 18.1063 11.3625 18.3875 10.6313C18.6688 9.84376 19.175 9.33751 19.9625 9.05626C20.75 8.77501 21.4813 8.38126 22.325 7.98751C22.4938 7.87501 22.4938 7.70626 22.3813 7.65001ZM31.1563 12.9938C30.3125 12.6 29.3563 12.3188 28.7375 11.5313C28.2875 10.9688 28.0625 10.2938 27.7813 9.61876C27.725 9.56251 27.6125 9.56251 27.6125 9.61876C27.275 10.2938 26.9938 10.9125 26.7125 11.5313C26.6 11.7563 26.375 11.925 26.2063 12.0375C25.5875 12.375 24.9688 12.6 24.2938 12.9375C24.2375 12.9938 24.2375 13.1063 24.2938 13.1063C24.8563 13.3875 25.3625 13.6125 25.8688 13.8375C26.4313 14.0625 26.7688 14.4 26.9375 14.9063C27.1063 15.4125 27.3875 15.9188 27.6688 16.4813C27.725 16.5375 27.8375 16.5375 27.8375 16.4813C28.1188 15.9188 28.3438 15.4125 28.5688 14.9063C28.7938 14.3438 29.075 14.0625 29.6375 13.8375C30.1438 13.6688 30.65 13.3875 31.2125 13.1063C31.2688 13.1063 31.2688 12.9938 31.1563 12.9938ZM10.1188 12.9938C9.27505 12.6 8.3188 12.3188 7.70005 11.5313C7.25005 10.9688 7.02505 10.2938 6.7438 9.61876C6.68755 9.56251 6.57505 9.56251 6.57505 9.61876C6.23755 10.2938 5.9563 10.9125 5.67505 11.5313C5.56255 11.7563 5.33755 11.925 5.1688 12.0375C4.55005 12.375 3.9313 12.6 3.2563 12.9375C3.20005 12.9938 3.20005 13.1063 3.2563 13.1063C3.8188 13.3875 4.32505 13.6125 4.8313 13.8375C5.3938 14.0625 5.7313 14.4 5.90005 14.9063C6.0688 15.4125 6.35005 15.9188 6.6313 16.4813C6.68755 16.5375 6.80005 16.5375 6.80005 16.4813C7.0813 15.9188 7.3063 15.4125 7.5313 14.9063C7.7563 14.3438 8.03755 14.0625 8.60005 13.8375C9.1063 13.6688 9.61255 13.3875 10.175 13.1063C10.2313 13.1063 10.2313 12.9938 10.1188 12.9938Z" fill="#ED1B23"/>
</g>
</g>
<defs>
<clipPath id="clip0_211_770">
<rect width="36" height="36" fill="white" transform="translate(0.5)"/>
</clipPath>
<clipPath id="clip1_211_770">
<rect width="36" height="36" fill="white" transform="translate(0.5)"/>
</clipPath>
</defs>
</svg>
