<svg width="24" height="24" viewBox="0 0 24 24" fill="none" xmlns="http://www.w3.org/2000/svg">
<path d="M12.0001 7.89001L10.9301 9.75002C10.6901 10.16 10.8901 10.5 11.3601 10.5H12.6301C13.1101 10.5 13.3001 10.84 13.0601 11.25L12.0001 13.11" stroke="#101828" stroke-width="1.5" stroke-linecap="round" stroke-linejoin="round"/>
<path d="M8.49986 22.0001C10.7899 21.3501 13.2099 21.3501 15.4999 22.0001M8.29986 18.0401V16.8801C5.99986 15.4901 4.10986 12.7801 4.10986 9.90005C4.10986 4.95005 8.65986 1.07005 13.7999 2.19005C16.0599 2.69005 18.0399 4.19005 19.0699 6.26005C21.1599 10.4601 18.9599 14.9201 15.7299 16.8701V18.0301C15.7299 18.3201 15.8399 18.9901 14.7699 18.9901H9.25986C8.15986 19.0001 8.29986 18.5701 8.29986 18.0401Z" stroke="#101828" stroke-width="1.5" stroke-linecap="round" stroke-linejoin="round"/>
</svg>
