<svg width="16" height="20" viewBox="0 0 16 20" fill="none" xmlns="http://www.w3.org/2000/svg">
<path d="M15.1585 18.3333C15.1585 15.1083 11.9501 12.5 8.00013 12.5C4.05013 12.5 0.841797 15.1083 0.841797 18.3333M8.00013 9.99996C9.1052 9.99996 10.165 9.56097 10.9464 8.77957C11.7278 7.99817 12.1668 6.93836 12.1668 5.83329C12.1668 4.72822 11.7278 3.66842 10.9464 2.88701C10.165 2.10561 9.1052 1.66663 8.00013 1.66663C6.89506 1.66663 5.83525 2.10561 5.05385 2.88701C4.27245 3.66842 3.83346 4.72822 3.83346 5.83329C3.83346 6.93836 4.27245 7.99817 5.05385 8.77957C5.83525 9.56097 6.89506 9.99996 8.00013 9.99996Z" stroke="#A3A9B6" stroke-width="1.5" stroke-linecap="round" stroke-linejoin="round"/>
</svg>
